<svg xmlns="http://www.w3.org/2000/svg" viewBox="0 0 421.68 160.47"><defs><style>.cls-1{fill:#ede6db;stroke:#1a3c40;stroke-miterlimit:10;stroke-width:5.47px;}</style></defs><title>Asset 13</title><g id="Layer_2" data-name="Layer 2"><g id="Layer_2-2" data-name="Layer 2"><rect class="cls-1" x="2.73" y="2.73" width="416.21" height="155" rx="4.51"/><path d="M21,27.82h2.37v4h2.83v-4h2.36V38.25H26.21V33.9H23.38v4.35H21Z"/><path d="M30.18,34.29a4.05,4.05,0,1,1,8.1,0,4.05,4.05,0,1,1-8.1,0Zm5.69,0c0-1.38-.55-2.27-1.64-2.27s-1.64.89-1.64,2.27.56,2.26,1.64,2.26S35.87,35.66,35.87,34.29Z"/><path d="M38.93,30.31h2.28L41.7,34c.1.78.16,1.54.26,2.35h0A21.36,21.36,0,0,1,42.38,34l.5-2.63h1.7L45.1,34c.15.78.29,1.54.39,2.35h.07c.1-.81.14-1.57.22-2.35l.45-3.69h2.18l-1.22,7.94H44.43L44,35.67c-.1-.68-.19-1.44-.29-2.35h-.06c-.07.67-.14,1.36-.27,2.35l-.43,2.58H40.23Z"/><path d="M58.73,36.05c0-1.78,1.47-2.68,5.22-2.91-.08-.71-.62-1.14-1.68-1.14a5.45,5.45,0,0,0-2.42.74L59,31.2a7.5,7.5,0,0,1,3.71-1.08c2.24,0,3.59,1.16,3.59,3.6v4.53H64.38l-.17-.89h-.06a4.86,4.86,0,0,1-2.81,1.09A2.4,2.4,0,0,1,58.73,36.05ZM64,35.86v-1.3c-2.33.12-3,.63-3,1.3s.43.76,1.09.76A3,3,0,0,0,64,35.86Z"/><path d="M70,35v-2.8H68V30.4l2.1-.09.31-2.42h1.94v2.42h3.35v1.85H72.33v2.77c0,1.21.51,1.67,1.67,1.67a4.72,4.72,0,0,0,1.57-.29L76,38a8.74,8.74,0,0,1-2.6.43C70.88,38.45,70,37.05,70,35Z"/><path d="M77.38,34.29a4.05,4.05,0,1,1,8.1,0,4.05,4.05,0,1,1-8.1,0Zm5.69,0c0-1.38-.56-2.27-1.64-2.27s-1.64.89-1.64,2.27.56,2.26,1.64,2.26S83.07,35.66,83.07,34.29Z"/><path d="M86.63,30.31H88.4l.17,1h.05a1.8,1.8,0,0,1,1.72-1.17c.69,0,1.19.45,1.38,1.3a1.86,1.86,0,0,1,1.76-1.3c1.13,0,1.77,1,1.77,2.56v5.57H93v-5.4c0-.49-.12-.73-.43-.73s-.51.25-.73.78v5.35H90v-5.4c0-.49-.14-.73-.45-.73s-.5.25-.71.78v5.35H86.63Z"/><path d="M106,34.29c0-2.65,2.15-4.17,4.59-4.17a4.27,4.27,0,0,1,3,1.08l-1.08,1.46a2.9,2.9,0,0,0-1.76-.64,2.17,2.17,0,0,0-2.31,2.27,2.13,2.13,0,0,0,2.23,2.26,3.67,3.67,0,0,0,2.09-.76l1,1.49a5.16,5.16,0,0,1-3.26,1.17C107.94,38.45,106,36.92,106,34.29Z"/><path d="M115.37,36.05c0-1.78,1.47-2.68,5.22-2.91-.08-.71-.62-1.14-1.68-1.14a5.45,5.45,0,0,0-2.42.74l-.84-1.54a7.5,7.5,0,0,1,3.71-1.08c2.23,0,3.59,1.16,3.59,3.6v4.53H121l-.17-.89h-.06A4.86,4.86,0,0,1,118,38.45,2.4,2.4,0,0,1,115.37,36.05Zm5.22-.19v-1.3c-2.34.12-3,.63-3,1.3s.43.76,1.09.76A3,3,0,0,0,120.59,35.86Z"/><path d="M125,30.31h1.92l.17,1.06h.07a3.85,3.85,0,0,1,2.74-1.25c1.79,0,2.58,1.23,2.58,3.23v4.9h-2.35v-4.6c0-1-.31-1.52-1.17-1.52a2.2,2.2,0,0,0-1.6.83v5.29H125Z"/><path d="M143.69,36.05c0-1.78,1.47-2.68,5.22-2.91-.08-.71-.62-1.14-1.68-1.14a5.45,5.45,0,0,0-2.42.74L144,31.2a7.5,7.5,0,0,1,3.71-1.08c2.23,0,3.59,1.16,3.59,3.6v4.53h-1.93l-.17-.89h-.06a4.86,4.86,0,0,1-2.81,1.09A2.4,2.4,0,0,1,143.69,36.05Zm5.22-.19v-1.3c-2.34.12-3,.63-3,1.3s.43.76,1.09.76A3,3,0,0,0,148.91,35.86Z"/><path d="M153.22,34.29c0-2.65,2.15-4.17,4.59-4.17a4.27,4.27,0,0,1,3,1.08l-1.08,1.46a2.92,2.92,0,0,0-1.76-.64,2.16,2.16,0,0,0-2.31,2.27,2.13,2.13,0,0,0,2.23,2.26,3.67,3.67,0,0,0,2.09-.76l1,1.49a5.18,5.18,0,0,1-3.26,1.17C155.14,38.45,153.22,36.92,153.22,34.29Z"/><path d="M162.74,27h2.36v2.74L165,31.31H165a3.59,3.59,0,0,1,2.63-1.19c1.78,0,2.57,1.23,2.57,3.23v4.9h-2.35v-4.6c0-1-.31-1.52-1.17-1.52a2.18,2.18,0,0,0-1.6.83v5.29h-2.36Z"/><path d="M175.48,32.16h-3.2V30.31h5.56v7.94h-2.36ZM175,27.63a1.57,1.57,0,1,1,1.56,1.44A1.43,1.43,0,0,1,175,27.63Z"/><path d="M181.35,34.28a4,4,0,0,1,4.13-4.16,3.52,3.52,0,0,1,3.74,3.81,7.17,7.17,0,0,1-.1,1.06h-6V33.41h4.44l-.38.45c0-1.28-.55-1.95-1.59-1.95s-1.93.79-1.93,2.37a2.13,2.13,0,0,0,2.44,2.37,4.35,4.35,0,0,0,2.05-.55l.78,1.42a6.12,6.12,0,0,1-3.15.93A4.06,4.06,0,0,1,181.35,34.28Z"/><path d="M190.41,30.31h2.36L194,34.06c.26.79.48,1.61.71,2.44h.07c.24-.83.45-1.65.71-2.44l1.25-3.75H199l-2.91,7.94h-2.7Z"/><path d="M200.23,34.28a4,4,0,0,1,4.13-4.16,3.52,3.52,0,0,1,3.74,3.81A7.17,7.17,0,0,1,208,35h-6V33.41h4.43l-.37.45c0-1.28-.55-1.95-1.59-1.95s-1.93.79-1.93,2.37A2.13,2.13,0,0,0,205,36.65,4.35,4.35,0,0,0,207,36.1l.78,1.42a6.12,6.12,0,0,1-3.15.93A4.06,4.06,0,0,1,200.23,34.28Z"/><path d="M219,34.29c0-2.6,1.67-4.17,3.39-4.17a2.61,2.61,0,0,1,2,.85h.06l-.11-1.22V27h2.36V38.25h-1.92l-.17-.81h-.06a3.36,3.36,0,0,1-2.2,1C220.3,38.45,219,36.88,219,34.29Zm5.34,1.49v-3.2a1.88,1.88,0,0,0-1.33-.53c-.86,0-1.6.7-1.6,2.21s.58,2.26,1.54,2.26A1.63,1.63,0,0,0,224.32,35.78Z"/><path d="M228.66,35.22V30.31H231v4.6c0,1.06.28,1.53,1.16,1.53a1.8,1.8,0,0,0,1.54-.91V30.31h2.36v7.94h-1.93L234,37.11h-.06a3.44,3.44,0,0,1-2.68,1.34C229.42,38.45,228.66,37.22,228.66,35.22Z"/><path d="M238.26,30.31h1.92l.17.81h.06a3.67,3.67,0,0,1,2.36-1c2,0,3.19,1.59,3.19,4,0,2.72-1.67,4.29-3.45,4.29a2.83,2.83,0,0,1-1.95-.86h-.06l.11,1.29V41.2h-2.35Zm5.28,3.87c0-1.42-.46-2.13-1.46-2.13a2,2,0,0,0-1.47.74V36a2.09,2.09,0,0,0,1.37.53C242.84,36.52,243.54,35.83,243.54,34.18Z"/><path d="M249.84,35.15V28.89h-2.5V27h4.85v8.2a1.18,1.18,0,0,0,1.3,1.31,3.48,3.48,0,0,0,1.23-.26l.52,1.73a6.57,6.57,0,0,1-2.36.43C250.88,38.45,249.84,37.16,249.84,35.15Z"/><path d="M256.87,34.28A4,4,0,0,1,261,30.12a3.52,3.52,0,0,1,3.73,3.81,7.46,7.46,0,0,1-.09,1.06h-6V33.41H263l-.37.45c0-1.28-.55-1.95-1.6-1.95s-1.92.79-1.92,2.37a2.13,2.13,0,0,0,2.44,2.37,4.28,4.28,0,0,0,2-.55l.78,1.42a6.06,6.06,0,0,1-3.14.93A4.06,4.06,0,0,1,256.87,34.28Z"/><path d="M268.21,35v-2.8h-2V30.4l2.11-.09.3-2.42h1.95v2.42h3.35v1.85h-3.35v2.77c0,1.21.51,1.67,1.67,1.67a4.77,4.77,0,0,0,1.57-.29l.42,1.71a8.61,8.61,0,0,1-2.59.43C269.11,38.45,268.21,37.05,268.21,35Z"/><path d="M285.06,34.29a4.05,4.05,0,1,1,8.1,0,4.05,4.05,0,1,1-8.1,0Zm5.68,0c0-1.38-.55-2.27-1.63-2.27s-1.64.89-1.64,2.27.55,2.26,1.64,2.26S290.74,35.66,290.74,34.29Z"/><path d="M295.59,30.31h1.94l.18,1.74h.06A3.69,3.69,0,0,1,301,30.12a3.3,3.3,0,0,1,1.52.32l-.47,2a4.21,4.21,0,0,0-1.41-.23A3,3,0,0,0,298,34.12v4.13h-2.36Z"/><path d="M313.38,34.29a4.05,4.05,0,1,1,8.1,0,4.05,4.05,0,1,1-8.1,0Zm5.68,0c0-1.38-.55-2.27-1.63-2.27s-1.64.89-1.64,2.27.55,2.26,1.64,2.26S319.06,35.66,319.06,34.29Z"/><path d="M323.14,34.29c0-2.65,2.14-4.17,4.59-4.17a4.27,4.27,0,0,1,3,1.08l-1.08,1.46a2.94,2.94,0,0,0-1.76-.64,2.16,2.16,0,0,0-2.31,2.27,2.13,2.13,0,0,0,2.23,2.26,3.7,3.7,0,0,0,2.09-.76l.95,1.49a5.18,5.18,0,0,1-3.26,1.17C325.05,38.45,323.14,36.92,323.14,34.29Z"/><path d="M334.29,35v-2.8h-2V30.4l2.11-.09.3-2.42h1.95v2.42H340v1.85h-3.35v2.77c0,1.21.51,1.67,1.67,1.67a4.77,4.77,0,0,0,1.57-.29l.42,1.71a8.61,8.61,0,0,1-2.59.43C335.19,38.45,334.29,37.05,334.29,35Z"/><path d="M341.82,34.28A4.06,4.06,0,0,1,346,30.12a3.52,3.52,0,0,1,3.73,3.81A7.46,7.46,0,0,1,349.6,35h-6V33.41H348l-.37.45c0-1.28-.55-1.95-1.6-1.95s-1.92.79-1.92,2.37a2.13,2.13,0,0,0,2.44,2.37,4.28,4.28,0,0,0,2-.55l.78,1.42a6.06,6.06,0,0,1-3.14.93C343.75,38.45,341.82,36.92,341.82,34.28Z"/><path d="M353.17,35v-2.8h-2V30.4l2.11-.09.3-2.42h1.95v2.42h3.35v1.85h-3.35v2.77c0,1.21.51,1.67,1.67,1.67a4.77,4.77,0,0,0,1.57-.29l.42,1.71a8.67,8.67,0,0,1-2.59.43C354.07,38.45,353.17,37.05,353.17,35Z"/><path d="M20.87,53.48A4,4,0,0,1,25,49.32a3.52,3.52,0,0,1,3.74,3.81,7.17,7.17,0,0,1-.1,1.06h-6V52.61h4.43l-.37.45c0-1.28-.56-2-1.6-2s-1.93.79-1.93,2.37a2.13,2.13,0,0,0,2.44,2.37,4.35,4.35,0,0,0,2.05-.55l.78,1.42a6.12,6.12,0,0,1-3.15.93A4.07,4.07,0,0,1,20.87,53.48Z"/><path d="M32.72,54.35V48.09h-2.5V46.24h4.86v8.2a1.18,1.18,0,0,0,1.29,1.31,3.53,3.53,0,0,0,1.24-.26l.52,1.73a6.66,6.66,0,0,1-2.37.43C33.76,57.65,32.72,56.36,32.72,54.35Z"/><path d="M39.75,53.48a4,4,0,0,1,4.13-4.16,3.52,3.52,0,0,1,3.74,3.81,7.17,7.17,0,0,1-.1,1.06h-6V52.61h4.43l-.37.45c0-1.28-.56-2-1.6-2S42,51.9,42,53.48a2.13,2.13,0,0,0,2.44,2.37,4.35,4.35,0,0,0,2.05-.55l.78,1.42a6.12,6.12,0,0,1-3.15.93A4.07,4.07,0,0,1,39.75,53.48Z"/><path d="M49.38,53.49c0-2.64,2.15-4.17,4.59-4.17a4.25,4.25,0,0,1,3,1.08l-1.08,1.46a2.9,2.9,0,0,0-1.76-.64,2.17,2.17,0,0,0-2.31,2.27A2.13,2.13,0,0,0,54,55.75,3.67,3.67,0,0,0,56.11,55l1,1.49a5.16,5.16,0,0,1-3.26,1.17C51.3,57.65,49.38,56.12,49.38,53.49Z"/><path d="M60.54,54.16v-2.8h-2V49.6l2.1-.09L61,47.09h1.94v2.42h3.35v1.85H62.89v2.77c0,1.21.51,1.67,1.67,1.67a4.48,4.48,0,0,0,1.57-.29l.43,1.71a8.74,8.74,0,0,1-2.6.43C61.44,57.65,60.54,56.25,60.54,54.16Z"/><path d="M69,49.51H71l.19,1.74h0a3.69,3.69,0,0,1,3.22-1.93,3.37,3.37,0,0,1,1.53.32l-.48,2a4.21,4.21,0,0,0-1.41-.23,3,3,0,0,0-2.68,1.93v4.13H69Z"/><path d="M77.38,53.49a4.05,4.05,0,1,1,4.05,4.16A4,4,0,0,1,77.38,53.49Zm5.69,0c0-1.38-.56-2.27-1.64-2.27s-1.64.89-1.64,2.27.56,2.26,1.64,2.26S83.07,54.86,83.07,53.49Z"/><path d="M87.22,49.51h1.92l.17,1.06h.07a3.87,3.87,0,0,1,2.74-1.25c1.79,0,2.58,1.23,2.58,3.23v4.9H92.35v-4.6c0-1.05-.31-1.52-1.17-1.52a2.2,2.2,0,0,0-1.6.83v5.29H87.22Z"/><path d="M105.93,55.25c0-1.78,1.47-2.68,5.22-2.91-.08-.71-.62-1.14-1.68-1.14a5.45,5.45,0,0,0-2.42.74l-.84-1.54a7.5,7.5,0,0,1,3.71-1.08c2.23,0,3.59,1.16,3.59,3.6v4.53h-1.93l-.17-.89h-.06a4.86,4.86,0,0,1-2.81,1.09A2.4,2.4,0,0,1,105.93,55.25Zm5.22-.19v-1.3c-2.33.12-3,.63-3,1.3,0,.52.43.76,1.09.76A3,3,0,0,0,111.15,55.06Z"/><path d="M116.23,49.51h1.94l.19,1.74h0a3.69,3.69,0,0,1,3.22-1.93,3.37,3.37,0,0,1,1.53.32l-.48,2a4.21,4.21,0,0,0-1.41-.23,3,3,0,0,0-2.68,1.93v4.13h-2.36Z"/><path d="M125.68,49.51h1.93l.19,1.74h0a3.69,3.69,0,0,1,3.22-1.93,3.37,3.37,0,0,1,1.53.32l-.48,2a4.21,4.21,0,0,0-1.41-.23A3,3,0,0,0,128,53.32v4.13h-2.35Z"/><path d="M134.25,55.25c0-1.78,1.47-2.68,5.22-2.91-.08-.71-.62-1.14-1.68-1.14a5.45,5.45,0,0,0-2.42.74l-.84-1.54a7.5,7.5,0,0,1,3.71-1.08c2.23,0,3.59,1.16,3.59,3.6v4.53H139.9l-.17-.89h-.06a4.86,4.86,0,0,1-2.81,1.09A2.4,2.4,0,0,1,134.25,55.25Zm5.22-.19v-1.3c-2.34.12-3,.63-3,1.3,0,.52.43.76,1.09.76A3,3,0,0,0,139.47,55.06Z"/><path d="M143.86,49.51h1.92l.17,1.06H146a3.89,3.89,0,0,1,2.75-1.25c1.79,0,2.58,1.23,2.58,3.23v4.9H149v-4.6c0-1.05-.31-1.52-1.17-1.52a2.18,2.18,0,0,0-1.6.83v5.29h-2.36Z"/><path d="M153,58.8a1.84,1.84,0,0,1,1.23-1.59v-.07a1.51,1.51,0,0,1-.8-1.35,2,2,0,0,1,1-1.49v-.06a2.43,2.43,0,0,1-1.05-2c0-1.91,1.6-2.88,3.4-2.88a4.5,4.5,0,0,1,1.31.19h3.22v1.73h-1.6a1.87,1.87,0,0,1,.35,1c0,1.83-1.43,2.66-3.28,2.66a4.16,4.16,0,0,1-1.09-.16.64.64,0,0,0-.35.59c0,.42.41.59,1.35.59h1.46c2.09,0,3.23.58,3.23,2,0,1.66-1.84,2.86-4.74,2.86C154.51,60.83,153,60.22,153,58.8Zm6.09-.42c0-.51-.49-.61-1.4-.61h-1a4.57,4.57,0,0,1-1.21-.11c-.4.25-.56.49-.56.78,0,.6.77.9,2,.9S159.07,58.92,159.07,58.38Zm-1.15-6.18a1.21,1.21,0,1,0-1.21,1.32A1.18,1.18,0,0,0,157.92,52.2Z"/><path d="M162.47,53.48a4,4,0,0,1,4.13-4.16,3.52,3.52,0,0,1,3.74,3.81,7.17,7.17,0,0,1-.1,1.06h-6V52.61h4.44l-.38.45c0-1.28-.55-2-1.59-2s-1.93.79-1.93,2.37a2.13,2.13,0,0,0,2.44,2.37,4.35,4.35,0,0,0,2.05-.55l.78,1.42a6.12,6.12,0,0,1-3.15.93A4.06,4.06,0,0,1,162.47,53.48Z"/><path d="M171.59,49.51h1.77l.17,1h.05a1.8,1.8,0,0,1,1.72-1.17c.69,0,1.19.45,1.38,1.3a1.86,1.86,0,0,1,1.76-1.3c1.13,0,1.77,1,1.77,2.56v5.57H178v-5.4c0-.49-.12-.73-.43-.73s-.51.25-.73.78v5.35H175v-5.4c0-.49-.14-.73-.45-.73s-.5.25-.71.78v5.35h-2.23Z"/><path d="M181.35,53.48a4,4,0,0,1,4.13-4.16,3.52,3.52,0,0,1,3.74,3.81,7.17,7.17,0,0,1-.1,1.06h-6V52.61h4.44l-.38.45c0-1.28-.55-2-1.59-2s-1.93.79-1.93,2.37a2.13,2.13,0,0,0,2.44,2.37,4.35,4.35,0,0,0,2.05-.55l.78,1.42a6.12,6.12,0,0,1-3.15.93A4.06,4.06,0,0,1,181.35,53.48Z"/><path d="M191.06,49.51H193l.17,1.06h.06A3.89,3.89,0,0,1,196,49.32c1.79,0,2.58,1.23,2.58,3.23v4.9h-2.35v-4.6c0-1.05-.31-1.52-1.17-1.52a2.18,2.18,0,0,0-1.6.83v5.29h-2.36Z"/><path d="M202.14,54.16v-2.8h-2V49.6l2.11-.09.3-2.42h2v2.42h3.35v1.85h-3.35v2.77c0,1.21.51,1.67,1.67,1.67a4.52,4.52,0,0,0,1.57-.29l.42,1.71a8.61,8.61,0,0,1-2.59.43C203,57.65,202.14,56.25,202.14,54.16Z"/><path d="M214.49,49.44c0-.65-.52-1-1.19-1a2.44,2.44,0,0,0-1.64.74l-1.3-1.2a4.15,4.15,0,0,1,3.1-1.44c1.84,0,3.28.85,3.28,2.61,0,2.11-2.61,2.37-2.42,4.22h-2C211.93,51.23,214.49,50.64,214.49,49.44ZM211.76,56a1.6,1.6,0,1,1,3.2,0,1.6,1.6,0,1,1-3.2,0Z"/><path d="M40.56,78.48a1.32,1.32,0,1,1,1.32,1.3A1.3,1.3,0,0,1,40.56,78.48Z"/><path d="M61.32,75h.85l2,5.8h-.8l-1-3.24c-.21-.64-.4-1.28-.58-2h0c-.19.67-.37,1.31-.58,2l-1,3.24h-.76Zm-.92,3.44h2.66V79H60.4Z"/><path d="M66.12,79.13v-2H64.9v-.55l1.25,0,.1-1.37h.61V76.5H69v.6h-2.1v2c0,.77.25,1.16,1.08,1.16a3,3,0,0,0,1-.19l.16.54a3.82,3.82,0,0,1-1.35.25C66.53,80.9,66.12,80.19,66.12,79.13Z"/><path d="M70,78.66a2.12,2.12,0,1,1,2.12,2.24A2.1,2.1,0,0,1,70,78.66Zm3.49,0c0-1-.55-1.65-1.37-1.65s-1.37.66-1.37,1.65.55,1.63,1.37,1.63S73.53,79.64,73.53,78.66Z"/><path d="M75.23,76.5h.59l.06.57h0a1.06,1.06,0,0,1,1-.67c.43,0,.69.25.82.74.25-.46.51-.74,1-.74s1,.47,1,1.32V80.8h-.73v-3c0-.5-.14-.75-.45-.75s-.46.22-.69.66V80.8h-.67v-3c0-.5-.13-.75-.45-.75s-.49.22-.7.66V80.8h-.73Z"/><path d="M80.56,80.23l.33-.48a3.11,3.11,0,0,0,1.87.58c.72,0,1.07-.3,1.07-.66s-.16-.56-1.33-.8-1.68-.61-1.68-1.25.61-1.22,1.79-1.22a3.17,3.17,0,0,1,1.73.55l-.36.46A2.54,2.54,0,0,0,82.54,77c-.72,0-1,.3-1,.62s.38.53,1.26.72c1.42.31,1.77.66,1.77,1.32s-.68,1.28-1.91,1.28A3.7,3.7,0,0,1,80.56,80.23Z"/><path d="M91.05,78.66a2.23,2.23,0,0,1,2.4-2.26A2.14,2.14,0,0,1,95,77l-.36.46A1.77,1.77,0,0,0,93.47,77a1.64,1.64,0,1,0,0,3.28,2,2,0,0,0,1.32-.53l.33.47a2.54,2.54,0,0,1-1.71.67A2.17,2.17,0,0,1,91.05,78.66Z"/><path d="M96.26,79.68c0-1,.9-1.43,3.12-1.6A1,1,0,0,0,98.24,77a3,3,0,0,0-1.5.51L96.45,77a3.67,3.67,0,0,1,1.91-.62,1.6,1.6,0,0,1,1.75,1.77V80.8H99.5l-.06-.58h0a2.9,2.9,0,0,1-1.69.68C96.92,80.9,96.26,80.45,96.26,79.68Zm3.12,0V78.56c-1.84.14-2.39.51-2.39,1.07s.44.68.93.68A2.35,2.35,0,0,0,99.38,79.68Z"/><path d="M101.58,76.5h.61l.06.73h0a2.23,2.23,0,0,1,1.62-.83c1,0,1.48.6,1.48,1.73V80.8h-.73V78.23c0-.82-.28-1.2-1-1.2a1.84,1.84,0,0,0-1.35.77v3h-.74Z"/><path d="M111.89,79.68c0-1,.9-1.43,3.12-1.6A1,1,0,0,0,113.87,77a3,3,0,0,0-1.51.51l-.29-.49A3.74,3.74,0,0,1,114,76.4a1.6,1.6,0,0,1,1.75,1.77V80.8h-.61l-.06-.58h0a2.87,2.87,0,0,1-1.68.68C112.55,80.9,111.89,80.45,111.89,79.68Zm3.12,0V78.56c-1.84.14-2.4.51-2.4,1.07s.44.68.94.68A2.4,2.4,0,0,0,115,79.68Z"/><path d="M117.1,78.66a2.22,2.22,0,0,1,2.39-2.26,2.18,2.18,0,0,1,1.57.63l-.37.46a1.75,1.75,0,0,0-1.17-.48,1.57,1.57,0,0,0-1.67,1.65,1.55,1.55,0,0,0,1.65,1.63,2.06,2.06,0,0,0,1.33-.53l.32.47a2.51,2.51,0,0,1-1.7.67A2.16,2.16,0,0,1,117.1,78.66Z"/><path d="M122.42,74.51h.73v1.71l0,1h0a2.13,2.13,0,0,1,1.59-.84c1,0,1.49.6,1.49,1.73V80.8h-.73V78.23c0-.82-.29-1.2-1-1.2-.51,0-.85.26-1.35.77v3h-.73Z"/><path d="M129.59,77.1h-2v-.6h2.72v4.3h-.73ZM129.3,75a.58.58,0,0,1,1.16,0,.58.58,0,0,1-1.16,0Z"/><path d="M132.62,78.64a2.16,2.16,0,0,1,2.19-2.24,1.85,1.85,0,0,1,2,2,2.55,2.55,0,0,1,0,.44H133.1v-.56h3.2l-.18.2c0-1-.51-1.52-1.29-1.52a1.51,1.51,0,0,0-1.49,1.67A1.56,1.56,0,0,0,135,80.32a2.34,2.34,0,0,0,1.31-.41l.26.48a3,3,0,0,1-1.66.51A2.17,2.17,0,0,1,132.62,78.64Z"/><path d="M137.67,76.5h.75l1,2.43c.16.44.32.86.47,1.28h0c.15-.42.29-.84.47-1.28l1-2.43h.7l-1.78,4.3h-.82Z"/><path d="M143,78.64a2.17,2.17,0,0,1,2.2-2.24,1.85,1.85,0,0,1,2,2,2.55,2.55,0,0,1,0,.44h-3.63v-.56h3.2l-.19.2c0-1-.5-1.52-1.29-1.52a1.51,1.51,0,0,0-1.48,1.67,1.55,1.55,0,0,0,1.68,1.68,2.34,2.34,0,0,0,1.31-.41l.26.48a3,3,0,0,1-1.66.51A2.18,2.18,0,0,1,143,78.64Z"/><path d="M153.38,78.66a2.06,2.06,0,0,1,1.94-2.26,1.81,1.81,0,0,1,1.29.55h0l0-.79V74.51h.73V80.8h-.6l-.06-.57h0a2,2,0,0,1-1.4.67C154.12,80.9,153.38,80.09,153.38,78.66Zm3.22,1V77.51a1.59,1.59,0,0,0-1.12-.49,1.46,1.46,0,0,0-1.35,1.63c0,1,.48,1.64,1.27,1.64A1.64,1.64,0,0,0,156.6,79.65Z"/><path d="M158.74,79.17V76.5h.73v2.58c0,.8.29,1.19,1,1.19a1.71,1.71,0,0,0,1.34-.79v-3h.73v4.3h-.61l-.06-.75h0a2.08,2.08,0,0,1-1.6.85C159.21,80.9,158.74,80.3,158.74,79.17Z"/><path d="M164.09,76.5h.6l.06.55h0a2.27,2.27,0,0,1,1.48-.65c1.16,0,1.78.86,1.78,2.19a2.07,2.07,0,0,1-1.95,2.31,2,2,0,0,1-1.28-.55h0l0,.81v1.45h-.73Zm3.2,2.09c0-1-.35-1.57-1.21-1.57a1.84,1.84,0,0,0-1.26.63v2.14a1.83,1.83,0,0,0,1.14.5C166.72,80.29,167.29,79.65,167.29,78.59Z"/><path d="M170.65,79.36V75.1h-1.52v-.59h2.25v4.9a.77.77,0,0,0,.85.88,2,2,0,0,0,.81-.19l.18.55a2.58,2.58,0,0,1-1.15.25C171.15,80.9,170.65,80.37,170.65,79.36Z"/><path d="M174.29,78.64a2.16,2.16,0,0,1,2.19-2.24,1.85,1.85,0,0,1,2,2,2.55,2.55,0,0,1,0,.44h-3.63v-.56H178l-.18.2c0-1-.51-1.52-1.29-1.52A1.51,1.51,0,0,0,175,78.64a1.56,1.56,0,0,0,1.68,1.68,2.34,2.34,0,0,0,1.31-.41l.26.48a3,3,0,0,1-1.66.51A2.17,2.17,0,0,1,174.29,78.64Z"/><path d="M180.72,79.13v-2H179.5v-.55l1.24,0,.1-1.37h.61V76.5h2.1v.6h-2.1v2c0,.77.25,1.16,1.08,1.16a3,3,0,0,0,1-.19l.16.54a3.81,3.81,0,0,1-1.34.25C181.12,80.9,180.72,80.19,180.72,79.13Z"/><path d="M189.84,78.66A2.12,2.12,0,1,1,192,80.9,2.1,2.1,0,0,1,189.84,78.66Zm3.49,0c0-1-.55-1.65-1.37-1.65s-1.37.66-1.37,1.65.55,1.63,1.37,1.63S193.33,79.64,193.33,78.66Z"/><path d="M195.8,76.5h.61l.07,1h0a2.25,2.25,0,0,1,1.92-1.12,1.76,1.76,0,0,1,.85.18l-.17.62a2.1,2.1,0,0,0-.8-.14,2,2,0,0,0-1.76,1.23V80.8h-.74Z"/><path d="M205.47,78.66a2.12,2.12,0,1,1,2.12,2.24A2.1,2.1,0,0,1,205.47,78.66Zm3.49,0c0-1-.55-1.65-1.37-1.65s-1.37.66-1.37,1.65.55,1.63,1.37,1.63S209,79.64,209,78.66Z"/><path d="M210.86,78.66a2.22,2.22,0,0,1,2.39-2.26,2.14,2.14,0,0,1,1.56.63l-.36.46a1.75,1.75,0,0,0-1.17-.48,1.57,1.57,0,0,0-1.67,1.65,1.55,1.55,0,0,0,1.65,1.63,2,2,0,0,0,1.32-.53l.33.47a2.54,2.54,0,0,1-1.71.67A2.16,2.16,0,0,1,210.86,78.66Z"/><path d="M217.18,79.13v-2H216v-.55l1.24,0,.1-1.37h.61V76.5H220v.6h-2.1v2c0,.77.26,1.16,1.09,1.16a2.94,2.94,0,0,0,1-.19l.16.54a3.77,3.77,0,0,1-1.34.25C217.58,80.9,217.18,80.19,217.18,79.13Z"/><path d="M221.17,78.64a2.16,2.16,0,0,1,2.19-2.24,1.85,1.85,0,0,1,2,2,2.55,2.55,0,0,1,0,.44h-3.63v-.56h3.2l-.19.2c0-1-.5-1.52-1.29-1.52a1.51,1.51,0,0,0-1.48,1.67,1.55,1.55,0,0,0,1.68,1.68,2.34,2.34,0,0,0,1.31-.41l.26.48a3,3,0,0,1-1.66.51A2.17,2.17,0,0,1,221.17,78.64Z"/><path d="M227.59,79.13v-2h-1.22v-.55l1.25,0,.1-1.37h.61V76.5h2.1v.6h-2.1v2c0,.77.25,1.16,1.08,1.16a3,3,0,0,0,1-.19l.16.54a3.82,3.82,0,0,1-1.35.25C228,80.9,227.59,80.19,227.59,79.13Z"/><path d="M236.79,78.64A2.16,2.16,0,0,1,239,76.4a1.84,1.84,0,0,1,2,2,2.68,2.68,0,0,1,0,.44h-3.63v-.56h3.2l-.19.2c0-1-.5-1.52-1.29-1.52a1.51,1.51,0,0,0-1.48,1.67,1.55,1.55,0,0,0,1.68,1.68,2.31,2.31,0,0,0,1.3-.41l.27.48a3,3,0,0,1-1.66.51A2.18,2.18,0,0,1,236.79,78.64Z"/><path d="M243.57,79.36V75.1h-1.52v-.59h2.26v4.9a.77.77,0,0,0,.84.88,2,2,0,0,0,.81-.19l.18.55a2.54,2.54,0,0,1-1.14.25C244.08,80.9,243.57,80.37,243.57,79.36Z"/><path d="M247.21,78.64a2.16,2.16,0,0,1,2.19-2.24,1.84,1.84,0,0,1,2,2c0,.17,0,.33,0,.44H247.7v-.56h3.19l-.18.2c0-1-.51-1.52-1.29-1.52a1.51,1.51,0,0,0-1.49,1.67,1.56,1.56,0,0,0,1.68,1.68,2.31,2.31,0,0,0,1.31-.41l.27.48a3,3,0,0,1-1.67.51A2.17,2.17,0,0,1,247.21,78.64Z"/><path d="M252.53,78.66a2.22,2.22,0,0,1,2.39-2.26,2.14,2.14,0,0,1,1.56.63l-.36.46A1.75,1.75,0,0,0,255,77a1.57,1.57,0,0,0-1.67,1.65,1.55,1.55,0,0,0,1.65,1.63,2,2,0,0,0,1.32-.53l.33.47a2.54,2.54,0,0,1-1.71.67A2.16,2.16,0,0,1,252.53,78.66Z"/><path d="M258.85,79.13v-2h-1.22v-.55l1.24,0,.1-1.37h.61V76.5h2.1v.6h-2.1v2c0,.77.26,1.16,1.09,1.16a2.94,2.94,0,0,0,1-.19l.16.54a3.77,3.77,0,0,1-1.34.25C259.25,80.9,258.85,80.19,258.85,79.13Z"/><path d="M263.52,76.5h.61l.07,1h0a2.28,2.28,0,0,1,1.92-1.12,1.71,1.71,0,0,1,.85.18l-.17.62a2.09,2.09,0,0,0-.79-.14,2,2,0,0,0-1.77,1.23V80.8h-.73Z"/><path d="M268,78.66a2.12,2.12,0,1,1,2.12,2.24A2.1,2.1,0,0,1,268,78.66Zm3.49,0c0-1-.54-1.65-1.37-1.65s-1.36.66-1.36,1.65.54,1.63,1.36,1.63S271.46,79.64,271.46,78.66Z"/><path d="M273.47,76.5h.61l.06.73h0a2.23,2.23,0,0,1,1.62-.83c1,0,1.48.6,1.48,1.73V80.8h-.73V78.23c0-.82-.28-1.2-1-1.2a1.84,1.84,0,0,0-1.35.77v3h-.74Z"/><path d="M283.78,79.68c0-1,.9-1.43,3.12-1.6A1,1,0,0,0,285.76,77a3,3,0,0,0-1.51.51L284,77a3.7,3.7,0,0,1,1.92-.62,1.6,1.6,0,0,1,1.75,1.77V80.8H287l-.06-.58h0a2.87,2.87,0,0,1-1.69.68A1.3,1.3,0,0,1,283.78,79.68Zm3.12,0V78.56c-1.84.14-2.4.51-2.4,1.07s.44.68.94.68A2.4,2.4,0,0,0,286.9,79.68Z"/><path d="M289.56,76.5h.61l.07,1h0a2.25,2.25,0,0,1,1.92-1.12,1.7,1.7,0,0,1,.84.18l-.16.62a2.1,2.1,0,0,0-.8-.14,2,2,0,0,0-1.77,1.23V80.8h-.73Z"/><path d="M294.77,76.5h.61l.07,1h0a2.25,2.25,0,0,1,1.91-1.12,1.71,1.71,0,0,1,.85.18l-.17.62a2.05,2.05,0,0,0-.79-.14,2,2,0,0,0-1.77,1.23V80.8h-.73Z"/><path d="M299.4,79.68c0-1,.91-1.43,3.12-1.6A1,1,0,0,0,301.38,77a3,3,0,0,0-1.5.51l-.29-.49a3.7,3.7,0,0,1,1.92-.62,1.6,1.6,0,0,1,1.75,1.77V80.8h-.61l-.07-.58h0a2.9,2.9,0,0,1-1.69.68A1.31,1.31,0,0,1,299.4,79.68Zm3.12,0V78.56c-1.83.14-2.39.51-2.39,1.07s.44.68.94.68A2.35,2.35,0,0,0,302.52,79.68Z"/><path d="M304.73,76.5h.6l.06.73h0A2.21,2.21,0,0,1,307,76.4c1,0,1.49.6,1.49,1.73V80.8h-.74V78.23c0-.82-.28-1.2-1-1.2-.51,0-.85.26-1.35.77v3h-.73Z"/><path d="M309.75,81.58a1.2,1.2,0,0,1,.71-1v0a.79.79,0,0,1-.44-.71,1,1,0,0,1,.51-.81v0a1.37,1.37,0,0,1-.53-1.11,1.58,1.58,0,0,1,1.69-1.54,1.74,1.74,0,0,1,.63.1h1.78v.6H313a1.27,1.27,0,0,1,.37.86,1.51,1.51,0,0,1-1.66,1.48,1.79,1.79,0,0,1-.73-.16.58.58,0,0,0-.33.49c0,.34.32.5.89.5h1c1.11,0,1.64.28,1.64,1s-.93,1.5-2.39,1.5C310.48,82.78,309.75,82.34,309.75,81.58Zm3.65-.19c0-.41-.33-.52-1-.52h-.84a2.49,2.49,0,0,1-.65-.07c-.41.22-.55.47-.55.71,0,.45.48.74,1.4.74S313.4,81.83,313.4,81.39Zm-.72-3.45a1,1,0,1,0-1,1A1,1,0,0,0,312.68,77.94Z"/><path d="M314.92,78.64a2.16,2.16,0,0,1,2.19-2.24,1.85,1.85,0,0,1,2,2,2.55,2.55,0,0,1,0,.44h-3.63v-.56h3.2l-.19.2c0-1-.5-1.52-1.29-1.52a1.51,1.51,0,0,0-1.48,1.67,1.55,1.55,0,0,0,1.68,1.68,2.28,2.28,0,0,0,1.3-.41l.27.48a3,3,0,0,1-1.66.51A2.18,2.18,0,0,1,314.92,78.64Z"/><path d="M320,76.5h.59l.06.57h0a1.05,1.05,0,0,1,1-.67c.42,0,.69.25.81.74.25-.46.51-.74,1-.74s.95.47.95,1.32V80.8h-.72v-3c0-.5-.14-.75-.46-.75s-.46.22-.69.66V80.8h-.67v-3c0-.5-.13-.75-.44-.75s-.5.22-.71.66V80.8H320Z"/><path d="M325.34,78.64a2.16,2.16,0,0,1,2.19-2.24,1.84,1.84,0,0,1,2,2,2.68,2.68,0,0,1,0,.44h-3.63v-.56H329l-.19.2c0-1-.5-1.52-1.29-1.52a1.51,1.51,0,0,0-1.48,1.67,1.55,1.55,0,0,0,1.67,1.68,2.31,2.31,0,0,0,1.31-.41l.27.48a3,3,0,0,1-1.66.51A2.18,2.18,0,0,1,325.34,78.64Z"/><path d="M330.77,76.5h.6l.06.73h0a2.21,2.21,0,0,1,1.62-.83c1,0,1.48.6,1.48,1.73V80.8h-.73V78.23c0-.82-.29-1.2-1-1.2-.52,0-.86.26-1.36.77v3h-.73Z"/><path d="M337,79.13v-2h-1.22v-.55l1.25,0,.09-1.37h.61V76.5h2.11v.6h-2.11v2c0,.77.26,1.16,1.09,1.16a2.9,2.9,0,0,0,1-.19l.16.54a3.77,3.77,0,0,1-1.34.25C337.39,80.9,337,80.19,337,79.13Z"/><path d="M348.36,77.1h-2v-.6h2.72v4.3h-.73ZM348.07,75a.58.58,0,0,1,1.16,0,.58.58,0,0,1-1.16,0Z"/><path d="M351.61,76.5h.6l.06.73h0a2.23,2.23,0,0,1,1.62-.83c1,0,1.49.6,1.49,1.73V80.8h-.74V78.23c0-.82-.28-1.2-1-1.2a1.84,1.84,0,0,0-1.35.77v3h-.73Z"/><path d="M361.85,80.37c1.91-1.69,2.95-2.68,2.95-3.62,0-.64-.39-1.09-1.22-1.09a1.94,1.94,0,0,0-1.35.67l-.43-.42a2.53,2.53,0,0,1,1.87-.85,1.64,1.64,0,0,1,1.84,1.66c0,1.06-1.07,2.11-2.59,3.5.35,0,.71,0,1.05,0h1.84v.63h-4Z"/><path d="M371.69,76.5h.72l.52,2.5c.08.4.14.77.19,1.18h0A11.2,11.2,0,0,1,373.4,79l.53-2.23h.73l.51,2.23a11.86,11.86,0,0,1,.27,1.18h0c.07-.41.12-.78.2-1.18l.51-2.5h.67l-.92,4.3H375l-.49-2c-.07-.3-.14-.73-.21-1.27h0c-.07.54-.14,1-.21,1.27l-.48,2h-.93Z"/><path d="M377.54,79.68c0-1,.9-1.43,3.11-1.6A1,1,0,0,0,379.51,77a3,3,0,0,0-1.5.51l-.29-.49a3.7,3.7,0,0,1,1.92-.62,1.6,1.6,0,0,1,1.75,1.77V80.8h-.61l-.06-.58h0a2.9,2.9,0,0,1-1.69.68A1.3,1.3,0,0,1,377.54,79.68Zm3.11,0V78.56c-1.83.14-2.39.51-2.39,1.07s.44.68.94.68A2.35,2.35,0,0,0,380.65,79.68Z"/><path d="M382.63,82.56l.15-.59a1.28,1.28,0,0,0,.39.07,1.24,1.24,0,0,0,1.17-.91l.13-.32-2-4.31h.74l1.05,2.37.53,1.25h0l.46-1.25.93-2.37h.7L385,81.15a1.92,1.92,0,0,1-1.83,1.49A1.89,1.89,0,0,1,382.63,82.56Z"/><path d="M387.87,80.23l.34-.48a3.08,3.08,0,0,0,1.86.58c.73,0,1.08-.3,1.08-.66s-.17-.56-1.33-.8-1.68-.61-1.68-1.25.61-1.22,1.78-1.22a3.12,3.12,0,0,1,1.73.55l-.35.46a2.56,2.56,0,0,0-1.44-.45c-.72,0-1,.3-1,.62s.37.53,1.26.72c1.42.31,1.76.66,1.76,1.32s-.68,1.28-1.91,1.28A3.73,3.73,0,0,1,387.87,80.23Z"/><path d="M394.39,77a.72.72,0,1,1,1.43,0,.72.72,0,1,1-1.43,0Zm0,3.16a.72.72,0,1,1,1.43,0,.72.72,0,1,1-1.43,0Z"/><path d="M81.74,96h-2v-.59h2.72v4.29h-.73Zm-.29-2.06a.58.58,0,0,1,1.16,0,.58.58,0,0,1-1.16,0Z"/><path d="M85.24,100.85a4.68,4.68,0,0,0,0-7.28l.41-.37a5.05,5.05,0,0,1,0,8Z"/><path d="M101.1,94.5H99.18v-.63h4.58v.63h-1.92v5.17h-.74Z"/><path d="M104.85,93.38h.74v1.71l0,1h0a2.13,2.13,0,0,1,1.6-.84c1,0,1.48.6,1.48,1.73v2.67h-.73V97.1c0-.81-.28-1.19-1-1.19a1.83,1.83,0,0,0-1.35.76v3h-.74Z"/><path d="M110.52,95.38h.61l.07,1h0a2.25,2.25,0,0,1,1.92-1.12,1.7,1.7,0,0,1,.84.18l-.16.62a2.32,2.32,0,0,0-.8-.14,2,2,0,0,0-1.77,1.23v2.51h-.73Z"/><path d="M115,97.53a2.12,2.12,0,1,1,2.12,2.25A2.1,2.1,0,0,1,115,97.53Zm3.49,0c0-1-.55-1.65-1.37-1.65s-1.37.66-1.37,1.65.55,1.64,1.37,1.64S118.47,98.51,118.47,97.53Z"/><path d="M119.73,95.38h.72l.51,2.49c.08.4.15.77.2,1.18h0a11.78,11.78,0,0,1,.25-1.18l.53-2.23h.73l.51,2.23a9.56,9.56,0,0,1,.26,1.18h0c.07-.41.11-.78.19-1.18l.52-2.49h.67L124,99.67H123l-.49-2c-.07-.3-.14-.73-.22-1.27h0c-.07.54-.14,1-.21,1.27l-.48,2h-.94Z"/><path d="M130.78,98.56c0-1,.9-1.43,3.12-1.61a1,1,0,0,0-1.14-1.08,3.05,3.05,0,0,0-1.5.51l-.29-.49a3.67,3.67,0,0,1,1.91-.62A1.6,1.6,0,0,1,134.63,97v2.63H134l-.06-.58h0a2.91,2.91,0,0,1-1.69.69A1.31,1.31,0,0,1,130.78,98.56Zm3.12,0V97.43c-1.84.15-2.39.51-2.39,1.07s.44.68.93.68A2.35,2.35,0,0,0,133.9,98.55Z"/><path d="M135.35,95.38h.73l.51,2.49c.08.4.14.77.2,1.18h0a9.52,9.52,0,0,1,.25-1.18l.53-2.23h.72l.52,2.23a11.82,11.82,0,0,1,.26,1.18h0c.07-.41.11-.78.19-1.18l.51-2.49h.67l-.91,4.29h-.94l-.5-2c-.07-.3-.14-.73-.21-1.27h0a10.7,10.7,0,0,1-.22,1.27l-.47,2h-.94Z"/><path d="M141.2,98.56c0-1,.9-1.43,3.12-1.61a1,1,0,0,0-1.14-1.08,3,3,0,0,0-1.5.51l-.3-.49a3.74,3.74,0,0,1,1.92-.62A1.6,1.6,0,0,1,145.05,97v2.63h-.61l-.06-.58h0a2.88,2.88,0,0,1-1.68.69A1.31,1.31,0,0,1,141.2,98.56Zm3.12,0V97.43c-1.84.15-2.4.51-2.4,1.07s.44.68.94.68A2.37,2.37,0,0,0,144.32,98.55Z"/><path d="M146.29,101.43l.15-.59a1.28,1.28,0,0,0,.39.07A1.26,1.26,0,0,0,148,100l.12-.32-2-4.3h.75l1,2.36c.17.38.35.83.53,1.25h0l.46-1.25.93-2.36h.71l-1.9,4.64a1.93,1.93,0,0,1-1.82,1.5A1.89,1.89,0,0,1,146.29,101.43Z"/><path d="M157.94,98V96h-1.22v-.55l1.25,0,.09-1.38h.61v1.38h2.11V96h-2.11v2c0,.77.26,1.16,1.09,1.16a2.69,2.69,0,0,0,1-.19l.16.54a3.76,3.76,0,0,1-1.34.26C158.35,99.78,157.94,99.06,157.94,98Z"/><path d="M162.15,93.38h.73v1.71l0,1h0a2.16,2.16,0,0,1,1.6-.84c1,0,1.49.6,1.49,1.73v2.67h-.73V97.1c0-.81-.29-1.19-1-1.19-.51,0-.85.25-1.35.76v3h-.73Z"/><path d="M167.14,97.51a2.16,2.16,0,0,1,2.19-2.24,1.85,1.85,0,0,1,2,2,2.78,2.78,0,0,1,0,.45h-3.63v-.57h3.2l-.18.2c0-1-.51-1.52-1.29-1.52a1.51,1.51,0,0,0-1.49,1.67,1.56,1.56,0,0,0,1.68,1.68,2.41,2.41,0,0,0,1.31-.4l.26.47a2.87,2.87,0,0,1-1.66.52A2.18,2.18,0,0,1,167.14,97.51Z"/><path d="M177.55,97.51a2.17,2.17,0,0,1,2.2-2.24,1.85,1.85,0,0,1,2,2,2.78,2.78,0,0,1,0,.45H178v-.57h3.2l-.19.2c0-1-.5-1.52-1.29-1.52a1.51,1.51,0,0,0-1.48,1.67A1.55,1.55,0,0,0,180,99.19a2.41,2.41,0,0,0,1.31-.4l.26.47a2.87,2.87,0,0,1-1.66.52A2.19,2.19,0,0,1,177.55,97.51Z"/><path d="M184.35,97.44l-1.5-2.06h.81l.68.93a8.59,8.59,0,0,0,.5.73h0c.16-.23.34-.5.49-.74l.64-.92h.77l-1.52,2.13,1.65,2.16h-.81l-.75-1c-.18-.24-.38-.53-.56-.78h0c-.17.26-.35.51-.53.79l-.7,1h-.78Z"/><path d="M188.08,97.53a2.22,2.22,0,0,1,2.39-2.26,2.18,2.18,0,0,1,1.57.63l-.37.46a1.75,1.75,0,0,0-1.17-.48,1.65,1.65,0,1,0,0,3.29,2.07,2.07,0,0,0,1.33-.54l.32.47a2.52,2.52,0,0,1-1.7.68A2.17,2.17,0,0,1,188.08,97.53Z"/><path d="M193.18,97.51a2.16,2.16,0,0,1,2.19-2.24,1.84,1.84,0,0,1,2,2,2.9,2.9,0,0,1,0,.45h-3.63v-.57h3.19l-.18.2c0-1-.5-1.52-1.29-1.52a1.51,1.51,0,0,0-1.49,1.67,1.56,1.56,0,0,0,1.68,1.68,2.39,2.39,0,0,0,1.31-.4l.27.47a2.93,2.93,0,0,1-1.67.52A2.18,2.18,0,0,1,193.18,97.51Z"/><path d="M198.42,99.1l.33-.48a3.11,3.11,0,0,0,1.87.58c.72,0,1.07-.3,1.07-.66s-.16-.56-1.33-.8-1.68-.61-1.68-1.25.61-1.22,1.79-1.22a3.26,3.26,0,0,1,1.73.55l-.36.47a2.47,2.47,0,0,0-1.44-.45c-.72,0-1,.29-1,.61s.38.53,1.26.72c1.42.31,1.77.66,1.77,1.32s-.68,1.29-1.91,1.29A3.71,3.71,0,0,1,198.42,99.1Z"/><path d="M203.62,99.1l.34-.48a3.1,3.1,0,0,0,1.86.58c.73,0,1.08-.3,1.08-.66s-.17-.56-1.33-.8-1.68-.61-1.68-1.25.61-1.22,1.78-1.22a3.27,3.27,0,0,1,1.74.55l-.36.47a2.49,2.49,0,0,0-1.44-.45c-.72,0-1,.29-1,.61s.37.53,1.26.72c1.42.31,1.77.66,1.77,1.32s-.69,1.29-1.91,1.29A3.77,3.77,0,0,1,203.62,99.1Z"/><path d="M214,97.51a2.16,2.16,0,0,1,2.19-2.24,1.85,1.85,0,0,1,2,2,2.78,2.78,0,0,1,0,.45H214.5v-.57h3.2l-.19.2c0-1-.5-1.52-1.29-1.52a1.51,1.51,0,0,0-1.48,1.67,1.55,1.55,0,0,0,1.68,1.68,2.41,2.41,0,0,0,1.31-.4l.26.47a2.87,2.87,0,0,1-1.66.52A2.18,2.18,0,0,1,214,97.51Z"/><path d="M220.8,98.23V94h-1.52v-.59h2.25v4.9a.78.78,0,0,0,.85.89,2,2,0,0,0,.8-.2l.19.55a2.59,2.59,0,0,1-1.15.26C221.3,99.78,220.8,99.25,220.8,98.23Z"/><path d="M224.43,97.51a2.16,2.16,0,0,1,2.19-2.24,1.85,1.85,0,0,1,2,2,2.78,2.78,0,0,1,0,.45h-3.63v-.57h3.2l-.19.2c0-1-.5-1.52-1.29-1.52a1.51,1.51,0,0,0-1.48,1.67,1.55,1.55,0,0,0,1.68,1.68,2.35,2.35,0,0,0,1.3-.4l.27.47a2.9,2.9,0,0,1-1.66.52A2.19,2.19,0,0,1,224.43,97.51Z"/><path d="M229.75,97.53a2.22,2.22,0,0,1,2.39-2.26,2.18,2.18,0,0,1,1.57.63l-.37.46a1.75,1.75,0,0,0-1.17-.48,1.65,1.65,0,1,0,0,3.29,2.07,2.07,0,0,0,1.33-.54l.32.47a2.52,2.52,0,0,1-1.7.68A2.17,2.17,0,0,1,229.75,97.53Z"/><path d="M236.07,98V96h-1.22v-.55l1.25,0,.09-1.38h.61v1.38h2.11V96H236.8v2c0,.77.26,1.16,1.09,1.16a2.65,2.65,0,0,0,1-.19l.16.54a3.71,3.71,0,0,1-1.34.26C236.48,99.78,236.07,99.06,236.07,98Z"/><path d="M240.74,95.38h.61l.07,1h0a2.25,2.25,0,0,1,1.92-1.12,1.7,1.7,0,0,1,.84.18l-.17.62a2.26,2.26,0,0,0-.79-.14,2,2,0,0,0-1.77,1.23v2.51h-.73Z"/><path d="M245.2,97.53a2.12,2.12,0,1,1,2.12,2.25A2.1,2.1,0,0,1,245.2,97.53Zm3.49,0c0-1-.55-1.65-1.37-1.65s-1.37.66-1.37,1.65.55,1.64,1.37,1.64S248.69,98.51,248.69,97.53Z"/><path d="M250.7,95.38h.6l.06.72h0a2.21,2.21,0,0,1,1.61-.83c1,0,1.49.6,1.49,1.73v2.67h-.74V97.1c0-.81-.28-1.19-1-1.19-.51,0-.85.25-1.35.76v3h-.73Z"/><path d="M255.71,99.1l.34-.48a3.08,3.08,0,0,0,1.86.58c.73,0,1.08-.3,1.08-.66s-.17-.56-1.33-.8S256,97.13,256,96.49s.61-1.22,1.78-1.22a3.2,3.2,0,0,1,1.73.55l-.35.47a2.49,2.49,0,0,0-1.44-.45c-.72,0-1,.29-1,.61s.37.53,1.26.72c1.42.31,1.76.66,1.76,1.32s-.68,1.29-1.91,1.29A3.71,3.71,0,0,1,255.71,99.1Z"/><path d="M262.23,99a.72.72,0,1,1,.71.76A.72.72,0,0,1,262.23,99Z"/><path d="M81.74,114.84h-2v-.59h2.72v4.29h-.73Zm-.29-2.06a.58.58,0,1,1,.58.57A.55.55,0,0,1,81.45,112.78Z"/><path d="M87,114.84H85v-.59h2.72v4.29H87Zm-.29-2.06a.58.58,0,1,1,.58.57A.55.55,0,0,1,86.66,112.78Z"/><path d="M90.45,119.72a4.68,4.68,0,0,0,0-7.28l.41-.37a5.06,5.06,0,0,1,0,8Z"/><path d="M99.7,112.74h1.81c1.17,0,2,.43,2,1.64s-.86,1.71-2,1.71h-1.06v2.45H99.7Zm1.7,2.75c.9,0,1.4-.37,1.4-1.11s-.5-1-1.4-1h-1v2.14Zm.54,0,1.77,3h-.84l-1.51-2.65Z"/><path d="M104.63,116.39a2.16,2.16,0,0,1,2.19-2.25,1.84,1.84,0,0,1,2,2,2.9,2.9,0,0,1,0,.45h-3.63V116h3.2l-.19.2c0-1-.5-1.51-1.29-1.51a1.51,1.51,0,0,0-1.48,1.67,1.55,1.55,0,0,0,1.67,1.67,2.39,2.39,0,0,0,1.31-.4l.27.47a2.9,2.9,0,0,1-1.66.52A2.18,2.18,0,0,1,104.63,116.39Z"/><path d="M110,116.4a2.22,2.22,0,0,1,2.39-2.26,2.14,2.14,0,0,1,1.56.63l-.36.47a1.76,1.76,0,0,0-1.17-.49,1.65,1.65,0,1,0,0,3.29,2.07,2.07,0,0,0,1.33-.54l.32.47a2.52,2.52,0,0,1-1.7.68A2.17,2.17,0,0,1,110,116.4Z"/><path d="M115.05,116.39a2.16,2.16,0,0,1,2.19-2.25,1.84,1.84,0,0,1,2,2c0,.17,0,.33,0,.45h-3.64V116h3.2l-.18.2c0-1-.51-1.51-1.29-1.51a1.51,1.51,0,0,0-1.49,1.67,1.56,1.56,0,0,0,1.68,1.67,2.41,2.41,0,0,0,1.31-.4l.26.47a2.87,2.87,0,0,1-1.66.52A2.17,2.17,0,0,1,115.05,116.39Z"/><path d="M122.44,114.84h-2v-.59h2.72v4.29h-.73Zm-.29-2.06a.58.58,0,1,1,.58.57A.55.55,0,0,1,122.15,112.78Z"/><path d="M125.31,114.25h.75l1,2.43c.17.43.32.85.48,1.27h0c.15-.42.29-.84.47-1.27l1-2.43h.71l-1.79,4.29h-.82Z"/><path d="M132.86,114.84h-2v-.59h2.72v4.29h-.73Zm-.29-2.06a.58.58,0,1,1,.58.57A.55.55,0,0,1,132.57,112.78Z"/><path d="M136.11,114.25h.6l.06.72h0a2.23,2.23,0,0,1,1.62-.83c1,0,1.48.6,1.48,1.73v2.67h-.73V116c0-.81-.28-1.19-1-1.19a1.81,1.81,0,0,0-1.35.77v3h-.73Z"/><path d="M141.13,119.33a1.21,1.21,0,0,1,.7-1v0a.81.81,0,0,1-.44-.71,1,1,0,0,1,.52-.8v0a1.34,1.34,0,0,1-.53-1.11,1.57,1.57,0,0,1,1.68-1.54,1.79,1.79,0,0,1,.64.11h1.77v.59h-1.11a1.26,1.26,0,0,1,.36.86,1.51,1.51,0,0,1-1.66,1.48,1.78,1.78,0,0,1-.72-.16.6.6,0,0,0-.34.5c0,.33.33.49.9.49h1c1.1,0,1.63.28,1.63,1s-.92,1.5-2.38,1.5C141.85,120.52,141.13,120.09,141.13,119.33Zm3.65-.2c0-.4-.33-.52-1-.52H143a2.62,2.62,0,0,1-.66-.07c-.4.22-.54.47-.54.72,0,.45.48.73,1.4.73S144.78,119.57,144.78,119.13Zm-.73-3.45a1,1,0,1,0-1,1A1,1,0,0,0,144.05,115.68Z"/><path d="M151.51,116.39a2.16,2.16,0,0,1,2.19-2.25,1.84,1.84,0,0,1,2,2,2.9,2.9,0,0,1,0,.45H152V116h3.19l-.18.2c0-1-.5-1.51-1.29-1.51a1.51,1.51,0,0,0-1.49,1.67,1.56,1.56,0,0,0,1.68,1.67,2.39,2.39,0,0,0,1.31-.4l.27.47a2.93,2.93,0,0,1-1.67.52A2.17,2.17,0,0,1,151.51,116.39Z"/><path d="M158.29,117.1v-4.26h-1.52v-.59H159v4.9a.77.77,0,0,0,.84.89,2,2,0,0,0,.81-.2l.18.55a2.56,2.56,0,0,1-1.15.26C158.8,118.65,158.29,118.12,158.29,117.1Z"/><path d="M161.93,116.39a2.16,2.16,0,0,1,2.19-2.25,1.84,1.84,0,0,1,2,2,2.78,2.78,0,0,1,0,.45h-3.63V116h3.2l-.18.2c0-1-.51-1.51-1.29-1.51a1.51,1.51,0,0,0-1.49,1.67,1.56,1.56,0,0,0,1.68,1.67,2.41,2.41,0,0,0,1.31-.4l.26.47a2.87,2.87,0,0,1-1.66.52A2.17,2.17,0,0,1,161.93,116.39Z"/><path d="M167.24,116.4a2.23,2.23,0,0,1,2.4-2.26,2.16,2.16,0,0,1,1.56.63l-.36.47a1.8,1.8,0,0,0-1.18-.49,1.65,1.65,0,1,0,0,3.29,2,2,0,0,0,1.32-.54l.33.47a2.55,2.55,0,0,1-1.71.68A2.17,2.17,0,0,1,167.24,116.4Z"/><path d="M173.57,116.87v-2h-1.22v-.55l1.24,0,.1-1.38h.61v1.38h2.1v.59h-2.1v2c0,.77.25,1.17,1.08,1.17a2.74,2.74,0,0,0,1-.2l.16.54a3.8,3.8,0,0,1-1.34.26C174,118.65,173.57,117.93,173.57,116.87Z"/><path d="M178.23,114.25h.61l.07,1h0a2.25,2.25,0,0,1,1.92-1.12,1.74,1.74,0,0,1,.85.18l-.17.62a2.32,2.32,0,0,0-.8-.14A2,2,0,0,0,179,116v2.51h-.74Z"/><path d="M182.69,116.4a2.12,2.12,0,1,1,2.12,2.25A2.1,2.1,0,0,1,182.69,116.4Zm3.49,0c0-1-.55-1.65-1.37-1.65s-1.37.66-1.37,1.65S184,118,184.81,118,186.18,117.38,186.18,116.4Z"/><path d="M188.19,114.25h.6l.07.72h0a2.23,2.23,0,0,1,1.62-.83c1,0,1.48.6,1.48,1.73v2.67h-.73V116c0-.81-.28-1.19-1-1.19a1.81,1.81,0,0,0-1.35.77v3h-.74Z"/><path d="M193.21,118l.33-.48a3.11,3.11,0,0,0,1.87.58c.72,0,1.07-.3,1.07-.66s-.16-.56-1.33-.8-1.68-.6-1.68-1.25.61-1.22,1.79-1.22a3.26,3.26,0,0,1,1.73.55l-.35.47a2.52,2.52,0,0,0-1.45-.45c-.72,0-1,.29-1,.61s.37.53,1.25.72c1.42.31,1.77.66,1.77,1.33s-.68,1.28-1.91,1.28A3.71,3.71,0,0,1,193.21,118Z"/><path d="M203.91,114.29l1.24,0h2.5v.59h-3.74Zm1.23-.41a1.57,1.57,0,0,1,1.73-1.74,3.11,3.11,0,0,1,1.23.25l-.16.55a2.35,2.35,0,0,0-1-.2c-.77,0-1.08.43-1.08,1.12v4.68h-.72Z"/><path d="M209.49,114.25h.61l.07,1h0a2.25,2.25,0,0,1,1.91-1.12,1.71,1.71,0,0,1,.85.18l-.17.62a2.3,2.3,0,0,0-.79-.14,2,2,0,0,0-1.77,1.23v2.51h-.73Z"/><path d="M213.94,116.4a2.13,2.13,0,1,1,2.13,2.25A2.1,2.1,0,0,1,213.94,116.4Zm3.49,0c0-1-.54-1.65-1.36-1.65s-1.37.66-1.37,1.65.54,1.64,1.37,1.64S217.43,117.38,217.43,116.4Z"/><path d="M219.14,114.25h.58l.06.56h0a1.05,1.05,0,0,1,1-.67c.42,0,.69.25.81.74.25-.46.51-.74,1-.74s1,.47,1,1.33v3.07h-.72v-3c0-.5-.14-.75-.46-.75s-.46.22-.69.66v3.11H221v-3c0-.5-.12-.75-.44-.75s-.5.22-.71.66v3.11h-.72Z"/><path d="M229.57,116.4a2.12,2.12,0,1,1,2.12,2.25A2.1,2.1,0,0,1,229.57,116.4Zm3.49,0c0-1-.55-1.65-1.37-1.65s-1.37.66-1.37,1.65.55,1.64,1.37,1.64S233.06,117.38,233.06,116.4Z"/><path d="M236.07,116.87v-2h-1.22v-.55l1.25,0,.09-1.38h.61v1.38h2.11v.59H236.8v2c0,.77.26,1.17,1.09,1.17a2.65,2.65,0,0,0,1-.2l.16.54a3.71,3.71,0,0,1-1.34.26C236.48,118.65,236.07,117.93,236.07,116.87Z"/><path d="M240.28,112.25H241V114l0,1h0a2.13,2.13,0,0,1,1.6-.84c1,0,1.48.6,1.48,1.73v2.67h-.73V116c0-.81-.29-1.19-1-1.19-.51,0-.85.25-1.35.77v3h-.73Z"/><path d="M245.27,116.39a2.16,2.16,0,0,1,2.19-2.25,1.84,1.84,0,0,1,2,2c0,.17,0,.33,0,.45h-3.64V116H249l-.18.2c0-1-.51-1.51-1.29-1.51a1.51,1.51,0,0,0-1.49,1.67,1.56,1.56,0,0,0,1.68,1.67,2.41,2.41,0,0,0,1.31-.4l.26.47a2.87,2.87,0,0,1-1.66.52A2.17,2.17,0,0,1,245.27,116.39Z"/><path d="M251.16,114.25h.61l.07,1h0a2.25,2.25,0,0,1,1.91-1.12,1.71,1.71,0,0,1,.85.18l-.17.62a2.3,2.3,0,0,0-.79-.14,2,2,0,0,0-1.77,1.23v2.51h-.73Z"/><path d="M261,117.43c0-1,.9-1.43,3.12-1.61a1,1,0,0,0-1.14-1.08,3,3,0,0,0-1.5.51l-.29-.49a3.76,3.76,0,0,1,1.91-.62,1.6,1.6,0,0,1,1.75,1.77v2.63h-.61l-.06-.58h0a2.85,2.85,0,0,1-1.68.69C261.66,118.65,261,118.2,261,117.43Zm3.12,0v-1.11c-1.84.14-2.39.5-2.39,1.06s.44.68.93.68A2.37,2.37,0,0,0,264.12,117.42Z"/><path d="M267.32,116.87v-2H266.1v-.55l1.25,0,.1-1.38h.61v1.38h2.1v.59h-2.1v2c0,.77.25,1.17,1.08,1.17a2.74,2.74,0,0,0,1-.2l.16.54a3.81,3.81,0,0,1-1.35.26C267.73,118.65,267.32,117.93,267.32,116.87Z"/><path d="M271.24,116.4a2.12,2.12,0,1,1,2.12,2.25A2.1,2.1,0,0,1,271.24,116.4Zm3.49,0c0-1-.55-1.65-1.37-1.65s-1.37.66-1.37,1.65.55,1.64,1.37,1.64S274.73,117.38,274.73,116.4Z"/><path d="M276.43,114.25H277l.06.56h0a1.05,1.05,0,0,1,1-.67c.42,0,.69.25.81.74.25-.46.51-.74,1-.74s1,.47,1,1.33v3.07h-.72v-3c0-.5-.15-.75-.46-.75s-.46.22-.69.66v3.11h-.67v-3c0-.5-.13-.75-.45-.75s-.49.22-.7.66v3.11h-.73Z"/><path d="M281.76,118l.33-.48a3.11,3.11,0,0,0,1.87.58c.72,0,1.07-.3,1.07-.66s-.16-.56-1.33-.8S282,116,282,115.36s.61-1.22,1.79-1.22a3.26,3.26,0,0,1,1.73.55l-.35.47a2.52,2.52,0,0,0-1.45-.45c-.72,0-1,.29-1,.61s.37.53,1.25.72c1.42.31,1.77.66,1.77,1.33s-.68,1.28-1.91,1.28A3.71,3.71,0,0,1,281.76,118Z"/><path d="M288.27,117.9a.72.72,0,0,1,.72-.76.71.71,0,0,1,.71.76.7.7,0,0,1-.71.75A.71.71,0,0,1,288.27,117.9Z"/><path d="M99.41,136.66l.45-.51a2.43,2.43,0,0,0,1.69.71c.8,0,1.26-.38,1.26-.91s-.45-.79-1-1l-.84-.37a1.65,1.65,0,0,1-1.24-1.49c0-.89.79-1.54,1.9-1.54a2.53,2.53,0,0,1,1.78.71l-.39.48a2.06,2.06,0,0,0-1.42-.54c-.67,0-1.12.32-1.12.84s.54.76,1,1l.81.36c.72.28,1.29.69,1.29,1.55s-.78,1.65-2,1.65A3,3,0,0,1,99.41,136.66Z"/><path d="M104.85,131.12h.74v1.72l0,1h0a2.13,2.13,0,0,1,1.6-.84c1,0,1.48.6,1.48,1.73v2.67h-.73v-2.57c0-.81-.28-1.19-1-1.19a1.81,1.81,0,0,0-1.35.77v3h-.74Z"/><path d="M110,136.3c0-1,.9-1.43,3.12-1.61a1,1,0,0,0-1.14-1.08,3,3,0,0,0-1.51.52l-.29-.5a3.8,3.8,0,0,1,1.92-.62,1.6,1.6,0,0,1,1.75,1.77v2.63h-.61l-.06-.58h0a2.91,2.91,0,0,1-1.69.69A1.3,1.3,0,0,1,110,136.3Zm3.12,0v-1.11c-1.84.14-2.4.5-2.4,1.07s.44.68.94.68A2.36,2.36,0,0,0,113.07,136.29Z"/><path d="M115.73,133.12h.61l.07,1h0a2.27,2.27,0,0,1,1.91-1.12,1.83,1.83,0,0,1,.85.18l-.17.63a2.06,2.06,0,0,0-.79-.15,2,2,0,0,0-1.77,1.23v2.51h-.73Z"/><path d="M122.44,133.71h-2v-.59h2.72v4.29h-.73Zm-.29-2.06a.55.55,0,0,1,.58-.56.57.57,0,1,1-.58.56Z"/><path d="M125.69,133.12h.6l.06.72h0A2.21,2.21,0,0,1,128,133c1,0,1.49.6,1.49,1.73v2.67h-.74v-2.57c0-.81-.28-1.19-1-1.19-.51,0-.85.25-1.35.77v3h-.73Z"/><path d="M130.71,138.2a1.2,1.2,0,0,1,.71-1v0a.79.79,0,0,1-.44-.71,1,1,0,0,1,.51-.8v0a1.37,1.37,0,0,1-.53-1.11,1.58,1.58,0,0,1,1.69-1.54,1.73,1.73,0,0,1,.63.11h1.78v.59h-1.12a1.27,1.27,0,0,1,.37.87,1.51,1.51,0,0,1-1.66,1.47,1.79,1.79,0,0,1-.73-.16.58.58,0,0,0-.33.5c0,.33.32.49.89.49h1c1.11,0,1.64.28,1.64,1s-.93,1.5-2.39,1.5C131.44,139.39,130.71,139,130.71,138.2Zm3.65-.2c0-.4-.33-.52-1-.52h-.84a2.49,2.49,0,0,1-.65-.07c-.41.22-.55.47-.55.72,0,.45.48.73,1.4.73S134.36,138.44,134.36,138Zm-.72-3.45a1,1,0,1,0-2,0,1,1,0,1,0,2,0Z"/><path d="M141.09,135.26a2.17,2.17,0,0,1,2.19-2.25,1.85,1.85,0,0,1,2,2,2.85,2.85,0,0,1,0,.44h-3.63v-.57h3.2l-.19.21c0-1-.5-1.52-1.29-1.52a1.51,1.51,0,0,0-1.48,1.67,1.55,1.55,0,0,0,1.68,1.67,2.3,2.3,0,0,0,1.3-.4l.27.48a3,3,0,0,1-1.66.51A2.18,2.18,0,0,1,141.09,135.26Z"/><path d="M147.87,136v-4.26h-1.52v-.59h2.26V136a.78.78,0,0,0,.85.89,1.85,1.85,0,0,0,.8-.2l.18.55a2.52,2.52,0,0,1-1.14.26C148.38,137.52,147.87,137,147.87,136Z"/><path d="M151.51,135.26A2.16,2.16,0,0,1,153.7,133a1.85,1.85,0,0,1,2,2,2.85,2.85,0,0,1,0,.44H152v-.57h3.19l-.18.21c0-1-.5-1.52-1.29-1.52a1.51,1.51,0,0,0-1.49,1.67,1.56,1.56,0,0,0,1.68,1.67,2.31,2.31,0,0,0,1.31-.4l.27.48a3,3,0,0,1-1.67.51A2.17,2.17,0,0,1,151.51,135.26Z"/><path d="M156.83,135.27a2.22,2.22,0,0,1,2.39-2.26,2.14,2.14,0,0,1,1.56.63l-.36.47a1.76,1.76,0,0,0-1.17-.49,1.65,1.65,0,1,0,0,3.29,2,2,0,0,0,1.32-.54l.33.48a2.58,2.58,0,0,1-1.7.67A2.16,2.16,0,0,1,156.83,135.27Z"/><path d="M163.15,135.74v-2h-1.22v-.55l1.24,0,.1-1.38h.61v1.38H166v.59h-2.1v2c0,.77.26,1.17,1.09,1.17a2.73,2.73,0,0,0,1-.2l.16.54a3.76,3.76,0,0,1-1.34.26C163.55,137.52,163.15,136.8,163.15,135.74Z"/><path d="M167.82,133.12h.61l.07,1h0a2.27,2.27,0,0,1,1.91-1.12,1.83,1.83,0,0,1,.85.18l-.17.63a2.09,2.09,0,0,0-.79-.15,2,2,0,0,0-1.77,1.23v2.51h-.73Z"/><path d="M172.28,135.27a2.12,2.12,0,1,1,2.12,2.25A2.1,2.1,0,0,1,172.28,135.27Zm3.48,0c0-1-.54-1.65-1.36-1.65s-1.37.66-1.37,1.65.54,1.64,1.37,1.64S175.76,136.25,175.76,135.27Z"/><path d="M177.78,133.12h.6l.06.72h0a2.23,2.23,0,0,1,1.62-.83c1,0,1.48.6,1.48,1.73v2.67h-.73v-2.57c0-.81-.28-1.19-1-1.19a1.81,1.81,0,0,0-1.35.77v3h-.73Z"/><path d="M182.79,136.85l.34-.49a3.05,3.05,0,0,0,1.86.58c.72,0,1.08-.3,1.08-.66s-.17-.56-1.34-.79-1.67-.61-1.67-1.26.6-1.22,1.78-1.22a3.23,3.23,0,0,1,1.73.55l-.35.47a2.49,2.49,0,0,0-1.44-.45c-.73,0-1,.29-1,.62s.37.53,1.25.71c1.43.31,1.77.66,1.77,1.33s-.68,1.28-1.91,1.28A3.78,3.78,0,0,1,182.79,136.85Z"/></g></g></svg>