<svg xmlns="http://www.w3.org/2000/svg" viewBox="0 0 543.11 290.18"><defs><style>.cls-1{fill:#ff5349;}.cls-2{fill:none;stroke:#1a3c40;stroke-miterlimit:10;}.cls-3{fill:#8fbdd3;}.cls-4{fill:#417d7a;}</style></defs><title>Asset 14</title><g id="Layer_2" data-name="Layer 2"><g id="Layer_2-2" data-name="Layer 2"><circle class="cls-1" cx="446.33" cy="124.99" r="25.5"/><path d="M432.66,115.3h2.88l6.6,12.93,2,4.27h.07c-.1-2-.35-4.36-.35-6.53V115.3h2.51v20.59h-2.89L436.86,123l-2-4.27h-.07c.1,2.1.35,4.3.35,6.44v10.76h-2.51Z"/><path d="M450.74,128.23a7.66,7.66,0,0,1,7.78-8c4.4,0,7,2.86,7,7.16a9.73,9.73,0,0,1-.13,1.57h-12.9v-2h11.37l-.66.72c0-3.61-1.79-5.4-4.59-5.4s-5.27,2.14-5.27,5.93c0,4,2.57,6,6,6a8.32,8.32,0,0,0,4.65-1.45l.94,1.7a10.49,10.49,0,0,1-5.9,1.82C454.38,136.27,450.74,133.32,450.74,128.23Z"/><circle class="cls-2" cx="446.33" cy="124.99" r="57.88"/><circle class="cls-2" cx="446.33" cy="124.99" r="88.28"/><circle class="cls-3" cx="121.01" cy="121.01" r="26.11"/><path d="M109.82,109.83h2.53l2.29,7,.8,2.64h.1l.77-2.64,2.32-7h2.54v16.33h-2V118c0-1.6.25-4.38.35-5.78h-.07l-.92,3.19-2.34,6.42h-1.5l-2.29-6.42-.94-3.19h0c.15,1.4.35,4.18.35,5.78v8.16h-1.94Z"/><path d="M124.5,128.38a3.34,3.34,0,0,1,2-2.69v-.1a2.2,2.2,0,0,1-1.24-2,2.94,2.94,0,0,1,1.44-2.27v-.1a3.85,3.85,0,0,1-1.49-3.13c0-2.64,2.19-4.33,4.75-4.33a4.86,4.86,0,0,1,1.79.3h5v1.66h-3.14a3.66,3.66,0,0,1,1,2.44c0,2.59-2.06,4.16-4.68,4.16a5.2,5.2,0,0,1-2-.45,1.65,1.65,0,0,0-.94,1.39c0,1,.92,1.4,2.51,1.4h2.71c3.11,0,4.61.79,4.61,2.83,0,2.27-2.62,4.23-6.72,4.23C126.54,131.73,124.5,130.52,124.5,128.38Zm10.28-.55c0-1.15-.92-1.47-2.76-1.47h-2.37a6.82,6.82,0,0,1-1.84-.2c-1.14.62-1.54,1.32-1.54,2,0,1.27,1.37,2.06,4,2.06C133,130.24,134.78,129.07,134.78,127.83Zm-2-9.73A2.79,2.79,0,1,0,130,121,2.73,2.73,0,0,0,132.74,118.1Z"/><circle class="cls-2" cx="121.01" cy="121.01" r="59.25"/><rect class="cls-4" x="112.98" y="52.72" width="18.08" height="18.08" rx="9.04"/><rect class="cls-4" x="112.98" y="171.23" width="18.08" height="18.08" rx="9.04"/><circle class="cls-2" cx="121.01" cy="121.01" r="120.51"/><circle class="cls-2" cx="121.01" cy="121.01" r="90.38"/><rect class="cls-4" x="98.92" y="201.35" width="18.08" height="18.08" rx="9.04"/><rect class="cls-4" x="125.03" y="201.35" width="18.08" height="18.08" rx="9.04"/><rect class="cls-4" x="201.35" y="123.02" width="18.08" height="18.08" rx="9.04"/><rect class="cls-4" x="201.35" y="98.92" width="18.08" height="18.08" rx="9.04"/><rect class="cls-4" x="233.49" y="123.02" width="18.08" height="18.08" rx="9.04"/><rect class="cls-4" x="233.49" y="98.92" width="18.08" height="18.08" rx="9.04"/><rect class="cls-4" x="20.59" y="123.02" width="18.08" height="18.08" rx="9.04"/><rect class="cls-4" x="20.59" y="98.92" width="18.08" height="18.08" rx="9.04"/><rect class="cls-4" x="125.03" y="22.59" width="18.08" height="18.08" rx="9.04"/><rect class="cls-4" x="98.92" y="22.59" width="18.08" height="18.08" rx="9.04"/><polygon class="cls-4" points="454.4 60.08 452.27 57.94 445.3 64.92 438.32 57.94 436.19 60.08 443.17 67.05 436.19 74.02 438.32 76.15 445.3 69.18 452.27 76.15 454.4 74.02 447.43 67.05 454.4 60.08"/><polygon class="cls-4" points="457.09 176.54 454.96 174.41 447.99 181.38 441.01 174.41 438.88 176.54 445.85 183.51 438.88 190.49 441.01 192.62 447.99 185.64 454.96 192.62 457.09 190.49 450.12 183.51 457.09 176.54"/><polygon class="cls-4" points="368.38 101.27 366.25 99.14 359.28 106.12 352.31 99.14 350.18 101.27 357.15 108.25 350.18 115.22 352.31 117.35 359.28 110.38 366.25 117.35 368.38 115.22 361.41 108.25 368.38 101.27"/><polygon class="cls-4" points="368.38 128.16 366.25 126.02 359.28 133 352.31 126.02 350.18 128.16 357.15 135.13 350.18 142.1 352.31 144.23 359.28 137.26 366.25 144.23 368.38 142.1 361.41 135.13 368.38 128.16"/><polygon class="cls-4" points="543.11 101.27 540.98 99.14 534 106.12 527.03 99.14 524.9 101.27 531.87 108.25 524.9 115.22 527.03 117.35 534 110.38 540.98 117.35 543.11 115.22 536.13 108.25 543.11 101.27"/><polygon class="cls-4" points="543.11 128.16 540.98 126.02 534 133 527.03 126.02 524.9 128.16 531.87 135.13 524.9 142.1 527.03 144.23 534 137.26 540.98 144.23 543.11 142.1 536.13 135.13 543.11 128.16"/><polygon class="cls-4" points="446.34 206.11 444.21 203.98 437.23 210.95 430.26 203.98 428.13 206.11 435.1 213.08 428.13 220.05 430.26 222.19 437.23 215.21 444.21 222.19 446.34 220.05 439.37 213.08 446.34 206.11"/><polygon class="cls-4" points="473.22 206.11 471.09 203.98 464.11 210.95 457.14 203.98 455.01 206.11 461.98 213.08 455.01 220.05 457.14 222.19 464.11 215.21 471.09 222.19 473.22 220.05 466.25 213.08 473.22 206.11"/><polygon class="cls-4" points="443.65 31.39 441.52 29.25 434.55 36.23 427.57 29.25 425.44 31.39 432.41 38.36 425.44 45.33 427.57 47.46 434.55 40.49 441.52 47.46 443.65 45.33 436.68 38.36 443.65 31.39"/><polygon class="cls-4" points="473.22 31.39 471.09 29.25 464.11 36.23 457.14 29.25 455.01 31.39 461.98 38.36 455.01 45.33 457.14 47.46 464.11 40.49 471.09 47.46 473.22 45.33 466.25 38.36 473.22 31.39"/><path d="M46.06,276.1h1.63l1.47,4.48.51,1.69h.07l.49-1.69,1.49-4.48h1.63v10.5H52.07v-5.25c0-1,.16-2.82.23-3.72h0l-.59,2.05-1.51,4.13h-1l-1.47-4.13-.61-2.05h0c.1.9.22,2.69.22,3.72v5.25H46.06Z"/><path d="M55,284.58c0-1.75,1.64-2.6,5.65-2.91a1.84,1.84,0,0,0-2.06-2,5.39,5.39,0,0,0-2.72.93l-.53-.9a6.83,6.83,0,0,1,3.47-1.12A2.9,2.9,0,0,1,62,281.83v4.77h-1.1l-.11-1.06h0a5.26,5.26,0,0,1-3.06,1.25C56.18,286.79,55,286,55,284.58Zm5.65,0v-2c-3.33.25-4.33.91-4.33,1.93s.8,1.24,1.69,1.24A4.22,4.22,0,0,0,60.63,284.56Z"/><path d="M63.66,288a2.15,2.15,0,0,1,1.28-1.73v-.06a1.42,1.42,0,0,1-.8-1.28,1.88,1.88,0,0,1,.92-1.46v-.06a2.51,2.51,0,0,1-1-2,2.86,2.86,0,0,1,3.06-2.79,3.07,3.07,0,0,1,1.15.2h3.22v1.07h-2a2.31,2.31,0,0,1,.66,1.57,2.73,2.73,0,0,1-3,2.67,3.38,3.38,0,0,1-1.31-.29,1.06,1.06,0,0,0-.61.9c0,.61.59.9,1.62.9H68.6c2,0,3,.51,3,1.82,0,1.46-1.68,2.72-4.32,2.72C65,290.18,63.66,289.4,63.66,288Zm6.61-.35c0-.74-.6-.95-1.78-.95H67a4.74,4.74,0,0,1-1.19-.12c-.73.4-1,.84-1,1.29,0,.82.88,1.33,2.55,1.33S70.27,288.47,70.27,287.67ZM69,281.41a1.79,1.79,0,1,0-1.79,1.84A1.76,1.76,0,0,0,69,281.41Z"/><path d="M72.79,278.82h1.09l.11,1.31h.07A4,4,0,0,1,77,278.62c1.84,0,2.68,1.09,2.68,3.14v4.84H78.35v-4.66c0-1.48-.52-2.16-1.78-2.16-.93,0-1.55.46-2.45,1.39v5.43H72.79Z"/><path d="M81.19,282.69a3.92,3.92,0,0,1,4-4.07,3.35,3.35,0,0,1,3.55,3.65,5.58,5.58,0,0,1-.06.8H82.07v-1h5.8l-.34.37c0-1.84-.91-2.76-2.34-2.76a2.74,2.74,0,0,0-2.69,3,2.83,2.83,0,0,0,3,3,4.21,4.21,0,0,0,2.36-.74l.48.87a5.33,5.33,0,0,1-3,.93A3.94,3.94,0,0,1,81.19,282.69Z"/><path d="M90,285.57l.61-.88A5.53,5.53,0,0,0,94,285.75c1.32,0,2-.55,2-1.2s-.31-1-2.42-1.44-3-1.11-3-2.28,1.1-2.21,3.23-2.21a5.83,5.83,0,0,1,3.14,1l-.64.84a4.64,4.64,0,0,0-2.61-.81c-1.31,0-1.79.53-1.79,1.12s.67,1,2.27,1.3c2.58.56,3.2,1.2,3.2,2.4s-1.23,2.32-3.46,2.32A6.78,6.78,0,0,1,90,285.57Z"/><path d="M102.74,279.89h-3.6v-1.07h4.93v7.78h-1.33Zm-.52-3.73a1.06,1.06,0,1,1,1,1A1,1,0,0,1,102.22,276.16Z"/><path d="M107.73,283.65v-4.83h1.33v4.65c0,1.46.52,2.17,1.8,2.17a3.08,3.08,0,0,0,2.41-1.43v-5.39h1.33v7.78h-1.1l-.12-1.37h-.06a3.77,3.77,0,0,1-2.9,1.56C108.58,286.79,107.73,285.7,107.73,283.65Z"/><path d="M116.23,278.82h1.06l.11,1h0a1.94,1.94,0,0,1,1.78-1.22c.77,0,1.25.45,1.47,1.35.45-.83.93-1.35,1.83-1.35,1.08,0,1.72.85,1.72,2.4v5.58h-1.31v-5.48c0-.89-.25-1.36-.83-1.36s-.83.4-1.25,1.2v5.64h-1.22v-5.48c0-.89-.22-1.36-.8-1.36s-.89.4-1.28,1.2v5.64h-1.31Z"/><path d="M134.18,284.58c0-1.75,1.64-2.6,5.65-2.91a1.84,1.84,0,0,0-2.06-2,5.39,5.39,0,0,0-2.72.93l-.53-.9a6.83,6.83,0,0,1,3.47-1.12,2.9,2.9,0,0,1,3.17,3.21v4.77h-1.1l-.11-1.06h0a5.26,5.26,0,0,1-3.06,1.25C135.38,286.79,134.18,286,134.18,284.58Zm5.65,0v-2c-3.33.25-4.33.91-4.33,1.93s.8,1.24,1.69,1.24A4.22,4.22,0,0,0,139.83,284.56Z"/><path d="M145,283.57v-3.68h-2.21v-1l2.26-.08.17-2.5h1.11v2.5h3.81v1.07h-3.81v3.7c0,1.39.46,2.11,2,2.11a5,5,0,0,0,1.85-.35l.29,1a6.65,6.65,0,0,1-2.43.47C145.74,286.79,145,285.49,145,283.57Z"/><path d="M151.46,282.72a3.85,3.85,0,1,1,3.84,4.07A3.82,3.82,0,0,1,151.46,282.72Zm6.33,0c0-1.79-1-3-2.49-3s-2.48,1.2-2.48,3,1,3,2.48,3S157.79,284.5,157.79,282.72Z"/><path d="M160.23,278.82h1.06l.11,1h0a1.94,1.94,0,0,1,1.78-1.22c.77,0,1.25.45,1.47,1.35.45-.83.93-1.35,1.83-1.35,1.08,0,1.72.85,1.72,2.4v5.58h-1.31v-5.48c0-.89-.25-1.36-.83-1.36s-.83.4-1.25,1.2v5.64h-1.22v-5.48c0-.89-.22-1.36-.8-1.36s-.89.4-1.28,1.2v5.64h-1.31Z"/><path d="M171.24,289.17a2.88,2.88,0,0,0,2-2.8L173,284.9l.89,1.26a1.1,1.1,0,0,1-.89.37,1.15,1.15,0,0,1-1.25-1.2,1.2,1.2,0,0,1,1.28-1.22c.94,0,1.44.79,1.44,2.05a3.93,3.93,0,0,1-2.82,3.84Z"/><path d="M186.85,276.1h1.64l1.47,4.48.51,1.69h.07l.49-1.69,1.49-4.48h1.63v10.5h-1.28v-5.25c0-1,.16-2.82.23-3.72h0l-.59,2.05L191,283.81h-1l-1.47-4.13-.61-2.05h0c.09.9.22,2.69.22,3.72v5.25h-1.25Z"/><path d="M195.65,288a2.17,2.17,0,0,1,1.28-1.73v-.06a1.43,1.43,0,0,1-.8-1.28,1.9,1.9,0,0,1,.93-1.46v-.06a2.48,2.48,0,0,1-1-2,2.86,2.86,0,0,1,3.06-2.79,3.07,3.07,0,0,1,1.15.2h3.22v1.07h-2a2.36,2.36,0,0,1,.66,1.57,2.73,2.73,0,0,1-3,2.67,3.38,3.38,0,0,1-1.31-.29,1.06,1.06,0,0,0-.61.9c0,.61.59.9,1.61.9h1.75c2,0,3,.51,3,1.82,0,1.46-1.68,2.72-4.32,2.72C197,290.18,195.65,289.4,195.65,288Zm6.61-.35c0-.74-.59-.95-1.77-.95H199a4.74,4.74,0,0,1-1.19-.12c-.73.4-1,.84-1,1.29,0,.82.88,1.33,2.55,1.33S202.26,288.47,202.26,287.67ZM201,281.41a1.79,1.79,0,1,0-1.79,1.84A1.76,1.76,0,0,0,201,281.41Z"/><path d="M397.22,276.1h1.47l3.36,6.59,1,2.18h0c0-1-.18-2.23-.18-3.33V276.1h1.28v10.5h-1.47l-3.36-6.6-1-2.18h0c.05,1.08.18,2.2.18,3.29v5.49h-1.28Z"/><path d="M405.79,282.69a3.92,3.92,0,0,1,4-4.07,3.35,3.35,0,0,1,3.55,3.65,5.58,5.58,0,0,1-.06.8h-6.58v-1h5.8l-.34.37c0-1.84-.91-2.76-2.34-2.76a2.74,2.74,0,0,0-2.69,3,2.83,2.83,0,0,0,3,3,4.21,4.21,0,0,0,2.36-.74l.48.87a5.32,5.32,0,0,1-3,.93A4,4,0,0,1,405.79,282.69Z"/><path d="M414.46,282.72a3.85,3.85,0,1,1,3.84,4.07A3.82,3.82,0,0,1,414.46,282.72Zm6.33,0c0-1.79-1-3-2.49-3s-2.48,1.2-2.48,3,1,3,2.48,3S420.79,284.5,420.79,282.72Z"/><path d="M423.79,278.82h1.09l.11,1.31h.07a4,4,0,0,1,2.93-1.51c1.84,0,2.68,1.09,2.68,3.14v4.84h-1.32v-4.66c0-1.48-.52-2.16-1.78-2.16-.93,0-1.55.46-2.45,1.39v5.43h-1.33Z"/><path d="M441.18,284.58c0-1.75,1.64-2.6,5.65-2.91a1.84,1.84,0,0,0-2.06-2,5.39,5.39,0,0,0-2.72.93l-.53-.9a6.83,6.83,0,0,1,3.47-1.12,2.9,2.9,0,0,1,3.17,3.21v4.77h-1.1l-.11-1.06h-.05a5.26,5.26,0,0,1-3.06,1.25C442.38,286.79,441.18,286,441.18,284.58Zm5.65,0v-2c-3.33.25-4.33.91-4.33,1.93s.8,1.24,1.69,1.24A4.22,4.22,0,0,0,446.83,284.56Z"/><path d="M452,283.57v-3.68h-2.21v-1l2.26-.08.17-2.5h1.11v2.5h3.81v1.07h-3.81v3.7c0,1.39.46,2.11,2,2.11a5,5,0,0,0,1.85-.35l.29,1a6.65,6.65,0,0,1-2.43.47C452.74,286.79,452,285.49,452,283.57Z"/><path d="M458.46,282.72a3.85,3.85,0,1,1,3.84,4.07A3.82,3.82,0,0,1,458.46,282.72Zm6.33,0c0-1.79-1-3-2.49-3s-2.48,1.2-2.48,3,1,3,2.48,3S464.79,284.5,464.79,282.72Z"/><path d="M467.23,278.82h1.06l.11,1h0a1.94,1.94,0,0,1,1.78-1.22c.77,0,1.25.45,1.47,1.35.45-.83.93-1.35,1.83-1.35,1.08,0,1.72.85,1.72,2.4v5.58h-1.31v-5.48c0-.89-.25-1.36-.83-1.36s-.83.4-1.25,1.2v5.64h-1.22v-5.48c0-.89-.22-1.36-.8-1.36s-.89.4-1.28,1.2v5.64h-1.31Z"/><path d="M478.24,289.17a2.88,2.88,0,0,0,2-2.8L480,284.9l.89,1.26a1.1,1.1,0,0,1-.89.37,1.15,1.15,0,0,1-1.25-1.2,1.2,1.2,0,0,1,1.28-1.22c.94,0,1.44.79,1.44,2.05a3.93,3.93,0,0,1-2.82,3.84Z"/><path d="M494,276.1h1.48l3.36,6.59,1,2.18h0c-.05-1-.18-2.23-.18-3.33V276.1H501v10.5h-1.47l-3.36-6.6-1-2.18h0c.05,1.08.18,2.2.18,3.29v5.49H494Z"/><path d="M502.59,282.69a3.92,3.92,0,0,1,4-4.07,3.35,3.35,0,0,1,3.55,3.65,5.58,5.58,0,0,1-.06.8h-6.58v-1h5.79l-.33.37c0-1.84-.91-2.76-2.34-2.76a2.74,2.74,0,0,0-2.69,3,2.82,2.82,0,0,0,3,3,4.22,4.22,0,0,0,2.37-.74l.48.87a5.33,5.33,0,0,1-3,.93A3.94,3.94,0,0,1,502.59,282.69Z"/></g></g></svg>