<svg xmlns="http://www.w3.org/2000/svg" viewBox="0 0 361.5 100.5"><defs><style>.cls-1{fill:#1a3c40;}</style></defs><title>Asset 14</title><g id="Layer_2" data-name="Layer 2"><g id="Layer_2-2" data-name="Layer 2"><path class="cls-1" d="M0,0V100.5H361.5V0ZM358.5,48.66h-95V2.14h95Zm-196,0V2.14h98V48.66Zm98,1.72v48h-98v-48ZM159.5,2.14V48.66H3V2.14ZM3,50.38H159.5v48H3Zm260.5,48v-48h95v48Z"/><path d="M51.19,21.39h6.5v1.14H52.54v3.28h4.35V27H52.54v3.81h5.31v1.13H51.19Z"/><path d="M62.1,29.29V21.57H59.35V20.5h4.08v8.88A1.41,1.41,0,0,0,65,31a3.52,3.52,0,0,0,1.46-.35l.33,1a4.64,4.64,0,0,1-2.08.47C63,32.09,62.1,31.13,62.1,29.29Z"/><path d="M68.05,28a3.92,3.92,0,0,1,4-4.07,3.35,3.35,0,0,1,3.56,3.65,5.4,5.4,0,0,1-.07.8H68.93v-1h5.8l-.34.37c0-1.84-.91-2.76-2.33-2.76a2.74,2.74,0,0,0-2.69,3,2.82,2.82,0,0,0,3,3,4.24,4.24,0,0,0,2.37-.74l.48.87a5.35,5.35,0,0,1-3,.93A4,4,0,0,1,68.05,28Z"/><path d="M76.69,24.12h1.06l.11,1h0a1.94,1.94,0,0,1,1.78-1.22c.77,0,1.25.45,1.47,1.35.45-.83.93-1.35,1.83-1.35,1.09,0,1.73.85,1.73,2.4v5.57H83.38V26.42c0-.9-.25-1.36-.83-1.36s-.83.4-1.25,1.2v5.63H80.09V26.42c0-.9-.23-1.36-.8-1.36s-.9.4-1.28,1.2v5.63H76.69Z"/><path d="M85.65,28a3.92,3.92,0,0,1,4-4.07,3.35,3.35,0,0,1,3.56,3.65,5.4,5.4,0,0,1-.07.8H86.53v-1h5.8l-.34.37c0-1.84-.91-2.76-2.33-2.76A2.74,2.74,0,0,0,87,28a2.82,2.82,0,0,0,3,3,4.24,4.24,0,0,0,2.37-.74l.48.87a5.35,5.35,0,0,1-3,.93A4,4,0,0,1,85.65,28Z"/><path d="M94.85,24.12h1.09l.11,1.31h.07a4,4,0,0,1,2.93-1.51c1.84,0,2.69,1.09,2.69,3.14v4.83h-1.33V27.24c0-1.48-.51-2.16-1.78-2.16-.93,0-1.55.46-2.45,1.39v5.42H94.85Z"/><path d="M105.46,28.87V25.19h-2.21v-1l2.26-.08.18-2.5h1.1v2.5h3.81v1.07h-3.81v3.7c0,1.39.46,2.11,2,2.11a5.31,5.31,0,0,0,1.86-.35l.28,1a6.65,6.65,0,0,1-2.43.47C106.2,32.09,105.46,30.79,105.46,28.87Z"/><path d="M208,21.39h3.17c2.32,0,3.89.79,3.89,3.09s-1.59,3.25-3.89,3.25h-1.83v4.16H208Zm3,5.25c1.82,0,2.7-.67,2.7-2.16s-.89-2-2.7-2h-1.67v4.16Z"/><path d="M194.54,77.11c3.45-3.06,5.34-4.85,5.34-6.55,0-1.16-.7-2-2.21-2a3.53,3.53,0,0,0-2.45,1.21l-.76-.75a4.52,4.52,0,0,1,3.37-1.55c2,0,3.33,1.2,3.33,3s-1.92,3.83-4.69,6.34c.64,0,1.3-.08,1.91-.08h3.34v1.13h-7.18Z"/><path d="M205.67,76.73a1.3,1.3,0,1,1,2.59,0,1.3,1.3,0,1,1-2.59,0Z"/><path d="M212.05,75.29c0-1.41,1.09-2.21,2.2-2.73V72.5a2.87,2.87,0,0,1-1.56-2.38c0-1.57,1.33-2.63,3.16-2.63,2,0,3.17,1.14,3.17,2.72a3.2,3.2,0,0,1-1.56,2.43v.07c1.12.56,2,1.2,2,2.66s-1.32,2.72-3.66,2.72S212.05,76.9,212.05,75.29Zm6.15,0c0-1.41-1.42-1.78-3.2-2.37-1,.53-1.75,1.18-1.75,2.21s1,1.93,2.58,1.93S218.2,76.37,218.2,75.32Zm-.34-5a1.82,1.82,0,0,0-2-1.8,1.7,1.7,0,0,0-1.91,1.64c0,1.21,1.17,1.72,2.69,2.2A2.57,2.57,0,0,0,217.86,70.28Z"/><path d="M223.27,76.73a1.3,1.3,0,1,1,2.59,0,1.3,1.3,0,1,1-2.59,0Z"/><path d="M230.12,76.79h2.94V69.3h-2.29v-.87a7.48,7.48,0,0,0,2.63-.75h1v9.11h2.66v1.1h-6.93Z"/><path d="M304.54,77.11c3.45-3.06,5.34-4.85,5.34-6.55,0-1.16-.7-2-2.21-2a3.53,3.53,0,0,0-2.45,1.21l-.76-.75a4.52,4.52,0,0,1,3.37-1.55c2.05,0,3.33,1.2,3.33,3s-1.92,3.83-4.69,6.34c.64,0,1.3-.08,1.91-.08h3.34v1.13h-7.18Z"/><path d="M315.67,76.73a1.3,1.3,0,1,1,2.59,0,1.3,1.3,0,1,1-2.59,0Z"/><path d="M322.05,75.29c0-1.41,1.09-2.21,2.2-2.73V72.5a2.87,2.87,0,0,1-1.56-2.38c0-1.57,1.33-2.63,3.16-2.63,2,0,3.17,1.14,3.17,2.72a3.2,3.2,0,0,1-1.56,2.43v.07c1.12.56,2,1.2,2,2.66s-1.32,2.72-3.66,2.72S322.05,76.9,322.05,75.29Zm6.15,0c0-1.41-1.42-1.78-3.2-2.37-1,.53-1.75,1.18-1.75,2.21s1,1.93,2.58,1.93S328.2,76.37,328.2,75.32Zm-.34-5a1.82,1.82,0,0,0-2-1.8,1.7,1.7,0,0,0-1.91,1.64c0,1.21,1.17,1.72,2.69,2.2A2.57,2.57,0,0,0,327.86,70.28Z"/><path d="M312.13,26.6c0-3.4,1.67-5.4,4-5.4s4,2,4,5.4-1.66,5.49-4,5.49S312.13,30,312.13,26.6Zm6.68,0c0-2.64-1.06-4.21-2.64-4.21s-2.64,1.57-2.64,4.21S314.58,31,316.17,31,318.81,29.38,318.81,26.6Zm-3.35,5.31,1.41-.11a2.23,2.23,0,0,0,2.36,1.55,2.13,2.13,0,0,0,.78-.14l.24,1.07a3.22,3.22,0,0,1-1.18.22A3.65,3.65,0,0,1,315.46,31.91Z"/><path d="M47.39,59.39h6.5v1.14H48.74v3.28h4.35V65H48.74v3.81h5.31v1.13H47.39Z"/><path d="M58.3,67.29V59.57H55.55V58.5h4.08v8.88A1.41,1.41,0,0,0,61.17,69a3.52,3.52,0,0,0,1.46-.35l.33,1a4.64,4.64,0,0,1-2.08.47C59.22,70.09,58.3,69.13,58.3,67.29Z"/><path d="M64.25,66a3.92,3.92,0,0,1,4-4.07,3.35,3.35,0,0,1,3.56,3.65,4.32,4.32,0,0,1-.07.8H65.13v-1h5.8l-.34.37c0-1.84-.91-2.76-2.33-2.76a2.74,2.74,0,0,0-2.69,3,2.82,2.82,0,0,0,3,3A4.24,4.24,0,0,0,71,68.29l.48.87a5.35,5.35,0,0,1-3,.93A4,4,0,0,1,64.25,66Z"/><path d="M73.25,66a4,4,0,0,1,4.33-4.1,4,4,0,0,1,2.84,1.14l-.66.85A3.18,3.18,0,0,0,77.63,63a2.85,2.85,0,0,0-3,3,2.82,2.82,0,0,0,3,3A3.71,3.71,0,0,0,80,68l.59.86a4.61,4.61,0,0,1-3.09,1.22A3.92,3.92,0,0,1,73.25,66Z"/><path d="M84.06,66.87V63.19H81.85v-1l2.26-.08.18-2.5h1.1v2.5H89.2v1.07H85.39v3.7c0,1.39.47,2.11,2,2.11a5.31,5.31,0,0,0,1.86-.35l.28,1a6.65,6.65,0,0,1-2.43.47C84.8,70.09,84.06,68.79,84.06,66.87Z"/><path d="M91.89,62.12H93L93.12,64h0a4.1,4.1,0,0,1,3.47-2,3.28,3.28,0,0,1,1.54.32l-.3,1.14a3.87,3.87,0,0,0-1.44-.26c-1.17,0-2.28.6-3.21,2.23v4.54H91.89Z"/><path d="M99.33,66a3.85,3.85,0,1,1,3.84,4.07A3.81,3.81,0,0,1,99.33,66Zm6.32,0c0-1.79-1-3-2.48-3s-2.48,1.2-2.48,3,1,3,2.48,3S105.65,67.8,105.65,66Z"/><path d="M108.65,62.12h1.09l.11,1.31h.07a4,4,0,0,1,2.93-1.51c1.84,0,2.69,1.09,2.69,3.14v4.83h-1.33V65.24c0-1.48-.51-2.16-1.78-2.16-.93,0-1.55.46-2.45,1.39v5.42h-1.33Z"/><path d="M41.2,75.39h1.54l3.53,10.5H44.83L43,80c-.37-1.17-.73-2.33-1-3.54h-.07c-.34,1.21-.67,2.37-1,3.54L39,85.89H37.66Zm-1.66,6.23h4.81v1.09H39.54Z"/><path d="M48.29,78.12h1.1L49.52,80h0a4.1,4.1,0,0,1,3.48-2,3.26,3.26,0,0,1,1.53.32l-.3,1.14a3.84,3.84,0,0,0-1.44-.26c-1.17,0-2.28.6-3.2,2.23v4.54H48.29Z"/><path d="M57.09,78.12h1.1L58.32,80h0a4.1,4.1,0,0,1,3.48-2,3.26,3.26,0,0,1,1.53.32l-.3,1.14a3.84,3.84,0,0,0-1.44-.26c-1.17,0-2.28.6-3.2,2.23v4.54H57.09Z"/><path d="M64.85,83.88c0-1.75,1.63-2.59,5.65-2.92A1.85,1.85,0,0,0,68.43,79a5.39,5.39,0,0,0-2.72.93l-.53-.9a6.86,6.86,0,0,1,3.48-1.12,2.9,2.9,0,0,1,3.17,3.21v4.76H70.72l-.11-1h0a5.26,5.26,0,0,1-3.06,1.25C66.05,86.09,64.85,85.27,64.85,83.88Zm5.65,0v-2c-3.33.26-4.34.92-4.34,1.94S67,85,67.86,85A4.22,4.22,0,0,0,70.5,83.86Z"/><path d="M73.85,78.12h1.09l.12,1.31h.06a4,4,0,0,1,2.93-1.51c1.84,0,2.69,1.09,2.69,3.14v4.83H79.41V81.24c0-1.48-.51-2.16-1.78-2.16-.93,0-1.55.46-2.45,1.39v5.42H73.85Z"/><path d="M82.32,87.32a2.17,2.17,0,0,1,1.28-1.73v-.06a1.42,1.42,0,0,1-.8-1.28,1.87,1.87,0,0,1,.93-1.46v-.06a2.48,2.48,0,0,1-1-2,2.85,2.85,0,0,1,3-2.79,3.16,3.16,0,0,1,1.16.2h3.21v1.07h-2a2.35,2.35,0,0,1,.65,1.57,2.73,2.73,0,0,1-3,2.67,3.38,3.38,0,0,1-1.31-.29,1.08,1.08,0,0,0-.61.9c0,.61.6.89,1.62.89h1.74c2,0,3,.52,3,1.83s-1.69,2.72-4.33,2.72C83.63,89.48,82.32,88.7,82.32,87.32ZM88.93,87c0-.74-.59-1-1.78-1H85.63a4.18,4.18,0,0,1-1.18-.13c-.74.4-1,.85-1,1.3,0,.82.87,1.33,2.54,1.33S88.93,87.77,88.93,87Zm-1.31-6.26a1.8,1.8,0,1,0-1.8,1.84A1.76,1.76,0,0,0,87.62,80.71Z"/><path d="M91.05,82a3.92,3.92,0,0,1,4-4.07,3.35,3.35,0,0,1,3.56,3.65,5.4,5.4,0,0,1-.07.8H91.93v-1h5.8l-.34.37c0-1.84-.91-2.76-2.33-2.76a2.74,2.74,0,0,0-2.69,3,2.82,2.82,0,0,0,3,3,4.24,4.24,0,0,0,2.37-.74l.48.87a5.35,5.35,0,0,1-3,.93A4,4,0,0,1,91.05,82Z"/><path d="M99.69,78.12h1.06l.11,1h0a1.94,1.94,0,0,1,1.78-1.22c.77,0,1.25.45,1.47,1.35.45-.83.93-1.35,1.83-1.35,1.09,0,1.73.85,1.73,2.4v5.57h-1.32V80.42c0-.9-.25-1.36-.83-1.36s-.83.4-1.25,1.2v5.63h-1.21V80.42c0-.9-.23-1.36-.8-1.36s-.9.4-1.28,1.2v5.63H99.69Z"/><path d="M108.65,82a3.92,3.92,0,0,1,4-4.07,3.35,3.35,0,0,1,3.56,3.65,5.4,5.4,0,0,1-.07.8h-6.58v-1h5.8l-.34.37c0-1.84-.91-2.76-2.33-2.76A2.74,2.74,0,0,0,110,82a2.82,2.82,0,0,0,3,3,4.24,4.24,0,0,0,2.37-.74l.48.87a5.35,5.35,0,0,1-3,.93A4,4,0,0,1,108.65,82Z"/><path d="M117.85,78.12h1.09l.11,1.31h.07a4,4,0,0,1,2.93-1.51c1.84,0,2.69,1.09,2.69,3.14v4.83h-1.33V81.24c0-1.48-.51-2.16-1.78-2.16-.93,0-1.55.46-2.45,1.39v5.42h-1.33Z"/><path d="M128.46,82.87V79.19h-2.21v-1l2.26-.08.18-2.5h1.1v2.5h3.81v1.07h-3.81v3.7c0,1.39.47,2.11,2,2.11a5.31,5.31,0,0,0,1.86-.35l.29,1a6.75,6.75,0,0,1-2.44.47C129.2,86.09,128.46,84.79,128.46,82.87Z"/></g></g></svg>