<svg xmlns="http://www.w3.org/2000/svg" viewBox="0 0 428.46 238.11"><defs><style>.cls-1{fill:#c0d8c0;}.cls-2{fill:#417d7a;}.cls-3{fill:none;stroke:#1a3c40;stroke-miterlimit:10;}.cls-4{fill:#ecb390;}.cls-5{font-size:11.82px;}.cls-5,.cls-7{font-family:NotoSansSC-Regular-90ms-RKSJ-H, Noto Sans SC;}.cls-6{fill:#8fbdd3;}.cls-7{font-size:11.75px;}</style></defs><g id="Layer_2" data-name="Layer 2"><g id="Layer_2-2" data-name="Layer 2"><circle class="cls-1" cx="355.76" cy="86.2" r="19.29"/><path class="cls-2" d="M353.15,79.08h7.41v1.3h-5.87v4.07h5v1.3h-5v5.39h-1.54Z"/><circle class="cls-3" cx="355.76" cy="86.2" r="43.77"/><rect class="cls-4" x="349.83" y="35.75" width="13.35" height="13.35" rx="6.68"/><rect class="cls-4" x="349.83" y="123.29" width="13.35" height="13.35" rx="6.68"/><circle class="cls-3" cx="355.76" cy="86.2" r="66.76"/><rect class="cls-4" x="339.44" y="145.55" width="13.35" height="13.35" rx="6.68"/><rect class="cls-4" x="358.73" y="145.55" width="13.35" height="13.35" rx="6.68"/><rect class="cls-4" x="281.58" y="87.68" width="13.35" height="13.35" rx="6.68"/><rect class="cls-4" x="281.58" y="69.88" width="13.35" height="13.35" rx="6.68"/><rect class="cls-4" x="358.73" y="13.5" width="13.35" height="13.35" rx="6.68"/><rect class="cls-4" x="339.44" y="13.5" width="13.35" height="13.35" rx="6.68"/><rect class="cls-4" x="415.11" y="87.68" width="13.35" height="13.35" rx="6.68"/><text class="cls-5" transform="translate(343.46 208.21)">2.7</text><text class="cls-5" transform="translate(308.74 223.72)">Fluorine atom, F</text><circle class="cls-6" cx="89.03" cy="89.03" r="19.18"/><path d="M81,80.82h1.68l3.84,7.53,1.15,2.49h0c0-1.19-.2-2.55-.2-3.81V80.82H89v12H87.27l-3.83-7.53-1.16-2.49h0c0,1.23.2,2.51.2,3.75v6.27H81Z"/><path d="M91.74,90.51c0-2,1.86-3,6.45-3.33A2.11,2.11,0,0,0,95.83,85,6.25,6.25,0,0,0,92.72,86l-.6-1a7.75,7.75,0,0,1,4-1.28,3.3,3.3,0,0,1,3.62,3.65v5.45H98.45l-.13-1.21h-.06A6,6,0,0,1,94.77,93C93.11,93,91.74,92.1,91.74,90.51Zm6.45,0v-2.3c-3.8.29-5,1-5,2.21,0,1,.91,1.4,1.93,1.4A4.83,4.83,0,0,0,98.19,90.49Z"/><circle class="cls-3" cx="89.03" cy="89.03" r="43.53"/><rect class="cls-2" x="83.13" y="38.86" width="13.28" height="13.28" rx="6.64"/><rect class="cls-2" x="83.13" y="125.91" width="13.28" height="13.28" rx="6.64"/><circle class="cls-3" cx="89.03" cy="89.03" r="88.53"/><circle class="cls-3" cx="89.03" cy="89.03" r="66.4"/><rect class="cls-2" x="72.8" y="148.05" width="13.28" height="13.28" rx="6.64"/><rect class="cls-2" x="91.98" y="148.05" width="13.28" height="13.28" rx="6.64"/><rect class="cls-2" x="148.05" y="90.5" width="13.28" height="13.28" rx="6.64"/><rect class="cls-2" x="148.05" y="72.8" width="13.28" height="13.28" rx="6.64"/><rect class="cls-2" x="171.65" y="80.22" width="13.28" height="13.28" rx="6.64"/><rect class="cls-2" x="15.25" y="90.5" width="13.28" height="13.28" rx="6.64"/><rect class="cls-2" x="15.25" y="72.8" width="13.28" height="13.28" rx="6.64"/><rect class="cls-2" x="91.98" y="16.73" width="13.28" height="13.28" rx="6.64"/><rect class="cls-2" x="72.8" y="16.73" width="13.28" height="13.28" rx="6.64"/><text class="cls-7" transform="translate(76.8 210.36)">2.8.1</text><text class="cls-7" transform="translate(42.27 225.79)">Sodium atom, Na</text></g></g></svg>