<svg xmlns="http://www.w3.org/2000/svg" viewBox="0 0 306.98 158.15"><defs><style>.cls-1{fill:#c0d8c0;}.cls-2{fill:none;stroke:#1a3c40;stroke-miterlimit:10;}.cls-3{fill:#ecb390;}.cls-4{fill:#417d7a;}.cls-5{font-size:7.61px;}.cls-5,.cls-7{font-family:NotoSansSC-Regular-90ms-RKSJ-H, Noto Sans SC;}.cls-6{fill:#8fbdd3;}.cls-7{font-size:7.89px;}</style></defs><g id="Layer_2" data-name="Layer 2"><g id="Layer_2-2" data-name="Layer 2"><circle class="cls-1" cx="222.17" cy="57.22" r="13.1"/><path d="M221.17,53.16h5v.89h-4V56.8h3.37v.89h-3.37v3.66h-1.05Z"/><circle class="cls-2" cx="222.17" cy="57.22" r="29.73"/><rect class="cls-3" x="218.14" y="22.96" width="9.07" height="9.07" rx="4.53"/><rect class="cls-3" x="218.14" y="82.42" width="9.07" height="9.07" rx="4.53"/><circle class="cls-2" cx="222.17" cy="57.22" r="45.35"/><rect class="cls-3" x="211.09" y="97.53" width="9.07" height="9.07" rx="4.53"/><rect class="cls-3" x="224.19" y="97.53" width="9.07" height="9.07" rx="4.53"/><rect class="cls-3" x="262.48" y="58.23" width="9.07" height="9.07" rx="4.53"/><rect class="cls-3" x="262.48" y="46.14" width="9.07" height="9.07" rx="4.53"/><rect class="cls-4" x="171.78" y="58.23" width="9.07" height="9.07" rx="4.53"/><rect class="cls-3" x="171.78" y="46.14" width="9.07" height="9.07" rx="4.53"/><rect class="cls-3" x="224.19" y="7.84" width="9.07" height="9.07" rx="4.53"/><rect class="cls-3" x="211.09" y="7.84" width="9.07" height="9.07" rx="4.53"/><text class="cls-5" transform="translate(222.21 139.18)">2.8</text><text class="cls-5" transform="translate(199.85 149.17)">Fluorine ion, F</text><text class="cls-5" transform="translate(249.31 146.64) scale(0.58)">-</text><polygon points="272.06 1.15 272.06 2.09 288.01 2.09 288.01 114.21 272.06 114.21 272.06 115.15 288.95 115.15 288.95 1.15 272.06 1.15"/><polygon points="175.89 114.21 159.94 114.21 159.94 2.09 175.89 2.09 175.89 1.15 159 1.15 159 115.15 175.89 115.15 175.89 114.21"/><rect x="296.19" y="2.92" width="10.79" height="1.54"/><circle class="cls-6" cx="62.1" cy="58.04" r="12.88"/><path d="M56.71,52.53h1.13l2.58,5.06.77,1.67h0c0-.8-.13-1.71-.13-2.56V52.53h1v8H60.93l-2.58-5.06-.77-1.67h0c0,.82.14,1.68.14,2.52v4.21h-1Z"/><path d="M63.93,59c0-1.34,1.25-2,4.33-2.24a1.42,1.42,0,0,0-1.58-1.5,4.17,4.17,0,0,0-2.09.71l-.41-.68a5.18,5.18,0,0,1,2.67-.86,2.22,2.22,0,0,1,2.43,2.45v3.66h-.85l-.08-.81h0a4,4,0,0,1-2.35,1A1.81,1.81,0,0,1,63.93,59Zm4.33,0V57.48c-2.55.19-3.33.7-3.33,1.48s.62.95,1.3.95A3.24,3.24,0,0,0,68.26,59Z"/><circle class="cls-2" cx="62.1" cy="58.04" r="29.23"/><rect class="cls-4" x="58.14" y="24.36" width="8.92" height="8.92" rx="4.46"/><rect class="cls-4" x="58.14" y="82.81" width="8.92" height="8.92" rx="4.46"/><circle class="cls-2" cx="62.1" cy="58.04" r="44.58"/><rect class="cls-4" x="51.21" y="97.67" width="8.92" height="8.92" rx="4.46"/><rect class="cls-4" x="64.09" y="97.67" width="8.92" height="8.92" rx="4.46"/><rect class="cls-4" x="101.73" y="59.03" width="8.92" height="8.92" rx="4.46"/><rect class="cls-4" x="101.73" y="47.14" width="8.92" height="8.92" rx="4.46"/><rect class="cls-4" x="12.57" y="59.03" width="8.92" height="8.92" rx="4.46"/><rect class="cls-4" x="12.57" y="47.14" width="8.92" height="8.92" rx="4.46"/><rect class="cls-4" x="64.09" y="9.49" width="8.92" height="8.92" rx="4.46"/><rect class="cls-4" x="51.21" y="9.49" width="8.92" height="8.92" rx="4.46"/><text class="cls-7" transform="translate(58.33 139.52)">2.8</text><text class="cls-7" transform="translate(35.15 149.88)">Sodium ion, Na+</text><polygon points="111.15 2.91 111.15 3.84 126.83 3.84 126.83 114.07 111.15 114.07 111.15 114.99 127.76 114.99 127.76 2.91 111.15 2.91"/><polygon points="16.6 114.07 0.92 114.07 0.92 3.84 16.6 3.84 16.6 2.91 0 2.91 0 114.99 16.6 114.99 16.6 114.07"/><polygon points="145.48 5.83 145.48 4.47 141.02 4.47 141.02 0 139.65 0 139.65 4.47 135.19 4.47 135.19 5.83 139.65 5.83 139.65 10.3 141.02 10.3 141.02 5.83 145.48 5.83"/></g></g></svg>