<svg xmlns="http://www.w3.org/2000/svg" viewBox="0 0 1055.23 574.95"><defs><style>.cls-1{fill:#ece6db;stroke-width:3px;}.cls-1,.cls-5{stroke:#1a3d41;stroke-miterlimit:10;}.cls-2{font-size:11.79px;}.cls-2,.cls-4{fill:#010101;}.cls-2,.cls-7{font-family:NotoSansSC-Regular-90ms-RKSJ-H, Noto Sans SC;}.cls-3{fill:#c660a5;}.cls-5{fill:none;}.cls-6{fill:#437e7b;}.cls-7{font-size:16px;}.cls-7,.cls-8{fill:#231f20;}</style></defs><g id="Layer_2" data-name="Layer 2"><g id="Frame"><rect class="cls-1" x="1.5" y="1.5" width="1052.23" height="571.95" rx="60.33"/></g><g id="Layer_1-2" data-name="Layer 1"><text class="cls-2" transform="translate(158.05 268.96)">2.5</text><text class="cls-2" transform="translate(123.43 284.43)">Nitrogen atom, N</text><circle class="cls-3" cx="162.93" cy="151.29" r="18.38"/><path class="cls-4" d="M158.42,143.67h1.82l4.14,8.12,1.24,2.68h0c-.06-1.28-.22-2.74-.22-4.1v-6.7H167V156.6h-1.81l-4.14-8.12-1.25-2.68h0c.06,1.32.22,2.7.22,4v6.76h-1.58Z"/><circle class="cls-5" cx="162.93" cy="151.29" r="41.72"/><circle class="cls-5" cx="162.93" cy="151.29" r="63.64"/><text class="cls-2" transform="translate(405.05 268.96)">2.5</text><text class="cls-2" transform="translate(724.05 268.96)">2.8</text><text class="cls-2" transform="translate(860.05 268.96)">2.8</text><text class="cls-2" transform="translate(370.43 284.43)">Nitrogen atom, N</text><text class="cls-2" transform="translate(744.43 297.43)">Nitrogen molecule, N</text><text class="cls-2" transform="translate(858.09 301.35) scale(0.58)">2</text><ellipse class="cls-3" cx="409.92" cy="151.29" rx="18.37" ry="18.38"/><path class="cls-4" d="M405.41,143.67h1.81l4.14,8.12,1.24,2.68h0c-.06-1.28-.22-2.74-.22-4.1v-6.7H414V156.6h-1.81l-4.14-8.12-1.24-2.68h0c.06,1.32.22,2.7.22,4v6.76h-1.58Z"/><circle class="cls-5" cx="409.93" cy="151.29" r="41.72"/><circle class="cls-5" cx="409.93" cy="151.29" r="63.64"/><polygon class="cls-6" points="415.75 104.5 414.22 102.96 409.19 107.99 404.16 102.96 402.63 104.5 407.65 109.53 402.63 114.55 404.16 116.09 409.19 111.06 414.22 116.09 415.75 114.55 410.73 109.53 415.75 104.5"/><polygon class="cls-6" points="417.69 188.45 416.15 186.91 411.13 191.94 406.1 186.91 404.56 188.45 409.59 193.47 404.56 198.5 406.1 200.04 411.13 195.01 416.15 200.04 417.69 198.5 412.66 193.47 417.69 188.45"/><polygon class="cls-6" points="353.75 134.2 352.21 132.66 347.19 137.69 342.16 132.66 340.62 134.2 345.65 139.22 340.62 144.25 342.16 145.78 347.19 140.76 352.21 145.78 353.75 144.25 348.72 139.22 353.75 134.2"/><polygon class="cls-6" points="353.75 153.57 352.21 152.04 347.19 157.06 342.16 152.04 340.62 153.57 345.65 158.6 340.62 163.62 342.16 165.16 347.19 160.13 352.21 165.16 353.75 163.62 348.72 158.6 353.75 153.57"/><polygon class="cls-6" points="409.94 209.76 408.4 208.23 403.38 213.25 398.35 208.23 396.81 209.76 401.84 214.79 396.81 219.81 398.35 221.35 403.38 216.32 408.4 221.35 409.94 219.81 404.91 214.79 409.94 209.76"/><polygon class="cls-6" points="408 83.82 406.46 82.28 401.44 87.31 396.41 82.28 394.88 83.82 399.9 88.84 394.88 93.87 396.41 95.41 401.44 90.38 406.46 95.41 408 93.87 402.98 88.84 408 83.82"/><polygon class="cls-6" points="429.31 83.82 427.78 82.28 422.75 87.31 417.73 82.28 416.19 83.82 421.22 88.84 416.19 93.87 417.73 95.41 422.75 90.38 427.78 95.41 429.31 93.87 424.29 88.84 429.31 83.82"/><ellipse class="cls-3" cx="864.92" cy="151.29" rx="18.37" ry="18.38"/><path class="cls-4" d="M860.41,143.67h1.81l4.14,8.12,1.24,2.68h0c-.06-1.28-.22-2.74-.22-4.1v-6.7H869V156.6h-1.81l-4.14-8.12-1.24-2.68h0c.06,1.32.22,2.7.22,4v6.76h-1.58Z"/><circle class="cls-5" cx="864.93" cy="151.29" r="41.72"/><circle class="cls-5" cx="864.93" cy="151.29" r="82.8"/><polygon class="cls-6" points="870.75 104.5 869.22 102.96 864.19 107.99 859.16 102.96 857.63 104.5 862.65 109.53 857.63 114.55 859.16 116.09 864.19 111.06 869.22 116.09 870.75 114.55 865.73 109.53 870.75 104.5"/><polygon class="cls-6" points="872.69 188.45 871.15 186.91 866.13 191.94 861.1 186.91 859.57 188.45 864.59 193.47 859.57 198.5 861.1 200.04 866.13 195.01 871.15 200.04 872.69 198.5 867.66 193.47 872.69 188.45"/><polygon class="cls-6" points="804.32 124.82 802.78 123.28 797.75 128.31 792.73 123.28 791.19 124.82 796.22 129.84 791.19 134.87 792.73 136.41 797.75 131.38 802.78 136.41 804.32 134.87 799.29 129.84 804.32 124.82"/><polygon class="cls-4" points="285.89 149.68 285.89 147.64 279.22 147.64 279.22 140.97 277.19 140.97 277.19 147.64 270.52 147.64 270.52 149.68 277.19 149.68 277.19 156.35 279.22 156.35 279.22 149.68 285.89 149.68"/><polygon class="cls-4" points="591.93 148.85 582.04 138.59 582.04 145.58 539.37 145.58 539.37 151.64 582.04 151.64 582.04 159.1 591.93 148.85"/><text class="cls-7" transform="translate(93.59 357.75)">1.	The proton number of nitrogen atom is 7 <tspan x="0" y="26.2">2.	Hence, the electron arrangement of nitrogen atom is 2.5</tspan><tspan x="0" y="52.4">3.	The nitrogen atom, N needs three more electrons to achieve a stable octet electron arrangement. </tspan><tspan x="0" y="78.6">4.	Each nitrogen atom will contribute three valence electrons to be shared between two nitrogen atoms. </tspan><tspan x="0" y="104.8">5.	The sharing of three pairs of electrons to produce a covalent triple bond in a nitrogen molecule, N</tspan></text><text class="cls-7" transform="translate(850.66 467.88) scale(0.58)">2</text><text class="cls-7" transform="translate(93.59 488.75)">6.	Lewis structure.</text><path class="cls-4" d="M292.53,486.72h3.89l8.88,17.43L308,509.9h.08c-.13-2.75-.46-5.88-.46-8.8V486.72H311v27.75h-3.89L298.2,497l-2.67-5.75h-.08c.12,2.84.46,5.8.46,8.67v14.51h-3.38Z"/><path class="cls-4" d="M358,486.72h3.89l8.89,17.43,2.66,5.75h.09c-.13-2.75-.47-5.88-.47-8.8V486.72h3.38v27.75h-3.89L363.69,497,361,491.29h-.09c.13,2.84.47,5.8.47,8.67v14.51H358Z"/><path class="cls-8" d="M340.87,488.16l3.41-2.69v1.59l-1.56,1.19c-.41.28-.8.59-1.19.88v.07c.39.28.78.54,1.19.8l1.56,1.09v1.55L340.75,490l-3.59,2.91v-1.62l1.66-1.31c.44-.29.87-.62,1.28-.94v-.08c-.41-.31-.84-.61-1.28-.92l-1.66-1.19v-1.56Z"/><path class="cls-8" d="M396.87,505l3.41-2.69v1.6l-1.56,1.19c-.41.28-.8.58-1.19.88v.06c.39.28.78.54,1.19.8l1.56,1.09v1.55l-3.53-2.69-3.59,2.92v-1.63l1.66-1.3c.44-.3.87-.62,1.28-.95v-.08c-.41-.31-.84-.6-1.28-.91l-1.66-1.19v-1.57Z"/><path class="cls-8" d="M396.87,494l3.41-2.69v1.6l-1.56,1.19c-.41.28-.8.58-1.19.88v.06c.39.28.78.54,1.19.8l1.56,1.09v1.55l-3.53-2.69-3.59,2.92v-1.63l1.66-1.3c.44-.3.87-.62,1.28-.95v-.08c-.41-.31-.84-.6-1.28-.91l-1.66-1.19v-1.57Z"/><path class="cls-8" d="M340.87,498.16l3.41-2.69v1.59l-1.56,1.19c-.41.28-.8.59-1.19.88v.07c.39.28.78.54,1.19.8l1.56,1.09v1.55L340.75,500l-3.59,2.91v-1.62l1.66-1.31c.44-.29.87-.62,1.28-.94v-.08c-.41-.31-.84-.61-1.28-.92l-1.66-1.19v-1.56Z"/><path class="cls-8" d="M340.87,510l3.41-2.69v1.6l-1.56,1.19c-.41.28-.8.58-1.19.88v.06c.39.28.78.54,1.19.8l1.56,1.09v1.55l-3.53-2.69-3.59,2.92v-1.63l1.66-1.3c.44-.3.87-.62,1.28-.95v-.08c-.41-.31-.84-.6-1.28-.91l-1.66-1.19v-1.57Z"/><rect class="cls-8" x="323.4" y="485.93" width="7.12" height="7.12" rx="3.56"/><rect class="cls-8" x="270.28" y="503.55" width="7.12" height="7.12" rx="3.56" transform="translate(780.96 233.27) rotate(90)"/><rect class="cls-8" x="270.28" y="491.68" width="7.12" height="7.12" rx="3.56" transform="translate(769.08 221.4) rotate(90)"/><rect class="cls-8" x="323.28" y="507.55" width="7.12" height="7.12" rx="3.56" transform="translate(837.96 184.27) rotate(90)"/><rect class="cls-8" x="323.28" y="495.68" width="7.12" height="7.12" rx="3.56" transform="translate(826.08 172.4) rotate(90)"/><rect class="cls-6" x="165.41" y="81.86" width="12.94" height="12.94" rx="6.47"/><rect class="cls-6" x="146.72" y="81.86" width="12.94" height="12.94" rx="6.47"/><rect class="cls-6" x="94.07" y="154.2" width="12.94" height="12.94" rx="6.47" transform="translate(261.2 60.13) rotate(90)"/><rect class="cls-6" x="94.07" y="135.51" width="12.94" height="12.94" rx="6.47" transform="translate(242.52 41.45) rotate(90)"/><rect class="cls-6" x="146.72" y="208.86" width="12.94" height="12.94" rx="6.47"/><rect class="cls-6" x="156.41" y="102.86" width="12.94" height="12.94" rx="6.47"/><rect class="cls-6" x="156.41" y="186.86" width="12.94" height="12.94" rx="6.47"/><circle class="cls-3" cx="731.93" cy="151.29" r="18.38"/><path class="cls-4" d="M727.42,143.67h1.82l4.14,8.12,1.24,2.68h0c-.06-1.28-.22-2.74-.22-4.1v-6.7H736V156.6h-1.81l-4.14-8.12-1.25-2.68h0c.06,1.32.22,2.7.22,4v6.76h-1.58Z"/><circle class="cls-5" cx="731.93" cy="151.29" r="41.72"/><circle class="cls-5" cx="731.93" cy="151.29" r="80.2"/><rect class="cls-6" x="790.72" y="109.86" width="12.94" height="12.94" rx="6.47"/><polygon class="cls-6" points="804.32 151.82 802.78 150.28 797.75 155.31 792.73 150.28 791.19 151.82 796.22 156.84 791.19 161.87 792.73 163.41 797.75 158.38 802.78 163.41 804.32 161.87 799.29 156.84 804.32 151.82"/><rect class="cls-6" x="790.72" y="136.86" width="12.94" height="12.94" rx="6.47"/><polygon class="cls-6" points="804.32 178.82 802.78 177.28 797.75 182.31 792.73 177.28 791.19 178.82 796.22 183.84 791.19 188.87 792.73 190.41 797.75 185.38 802.78 190.41 804.32 188.87 799.29 183.84 804.32 178.82"/><rect class="cls-6" x="790.72" y="163.86" width="12.94" height="12.94" rx="6.47"/><rect class="cls-6" x="725.41" y="102.86" width="12.94" height="12.94" rx="6.47"/><rect class="cls-6" x="725.41" y="186.86" width="12.94" height="12.94" rx="6.47"/></g></g></svg>