<svg xmlns="http://www.w3.org/2000/svg" viewBox="0 0 362.12 135.14"><defs><style>.cls-1{fill:#fdb94b;}.cls-2{fill:#010101;}.cls-3{fill:none;stroke:#1a3d41;stroke-miterlimit:10;}.cls-4{fill:#437e7b;}.cls-5{fill:#c660a5;}</style></defs><g id="Layer_2" data-name="Layer 2"><g id="Layer_1-2" data-name="Layer 1"><circle class="cls-1" cx="69.31" cy="69.01" r="18.38"/><path class="cls-2" d="M65.1,61.39h1.67v6.46h.06l5.42-6.46h1.9L66.77,70.2v4.12H65.1Zm3.66,5.72,1-1.31,4.85,8.52H72.75Z"/><circle class="cls-3" cx="69.31" cy="69.01" r="41.72"/><circle class="cls-3" cx="69.31" cy="69.01" r="63.64"/><polygon class="cls-4" points="75.13 22.22 73.59 20.68 68.57 25.71 63.54 20.68 62 22.22 67.03 27.24 62 32.27 63.54 33.81 68.57 28.78 73.59 33.81 75.13 32.27 70.1 27.24 75.13 22.22"/><polygon class="cls-4" points="77.07 106.17 75.53 104.63 70.5 109.66 65.48 104.63 63.94 106.17 68.97 111.19 63.94 116.22 65.48 117.75 70.5 112.73 75.53 117.75 77.07 116.22 72.04 111.19 77.07 106.17"/><polygon class="cls-4" points="13.13 51.91 11.59 50.38 6.56 55.4 1.54 50.38 0 51.91 5.03 56.94 0 61.97 1.54 63.5 6.56 58.48 11.59 63.5 13.13 61.97 8.1 56.94 13.13 51.91"/><polygon class="cls-4" points="13.13 71.29 11.59 69.75 6.56 74.78 1.54 69.75 0 71.29 5.03 76.32 0 81.34 1.54 82.88 6.56 77.85 11.59 82.88 13.13 81.34 8.1 76.32 13.13 71.29"/><polygon class="cls-4" points="67.38 1.54 65.84 0 60.81 5.03 55.79 0 54.25 1.54 59.28 6.56 54.25 11.59 55.79 13.13 60.81 8.1 65.84 13.13 67.38 11.59 62.35 6.56 67.38 1.54"/><polygon class="cls-4" points="88.69 1.54 87.16 0 82.13 5.03 77.1 0 75.57 1.54 80.59 6.56 75.57 11.59 77.1 13.13 82.13 8.1 87.16 13.13 88.69 11.59 83.67 6.56 88.69 1.54"/><circle class="cls-1" cx="292.31" cy="71.01" r="18.38"/><path class="cls-2" d="M288.1,63.39h1.67v6.46h.06l5.42-6.46h1.9l-7.38,8.81v4.12H288.1Zm3.66,5.72,1-1.31,4.85,8.52h-1.87Z"/><circle class="cls-3" cx="292.31" cy="71.01" r="41.72"/><circle class="cls-3" cx="292.31" cy="71.01" r="63.64"/><polygon class="cls-4" points="298.13 24.22 296.59 22.68 291.57 27.71 286.54 22.68 285 24.22 290.03 29.24 285 34.27 286.54 35.81 291.57 30.78 296.59 35.81 298.13 34.27 293.1 29.24 298.13 24.22"/><polygon class="cls-4" points="300.07 108.17 298.53 106.63 293.5 111.66 288.48 106.63 286.94 108.17 291.97 113.19 286.94 118.22 288.48 119.75 293.5 114.73 298.53 119.75 300.07 118.22 295.04 113.19 300.07 108.17"/><polygon class="cls-4" points="362.13 53.91 360.59 52.38 355.56 57.4 350.54 52.38 349 53.91 354.03 58.94 349 63.97 350.54 65.5 355.56 60.48 360.59 65.5 362.13 63.97 357.1 58.94 362.13 53.91"/><polygon class="cls-4" points="362.13 73.29 360.59 71.75 355.56 76.78 350.54 71.75 349 73.29 354.03 78.32 349 83.34 350.54 84.88 355.56 79.85 360.59 84.88 362.13 83.34 357.1 78.32 362.13 73.29"/><polygon class="cls-4" points="290.38 3.54 288.84 2 283.81 7.03 278.79 2 277.25 3.54 282.28 8.56 277.25 13.59 278.79 15.13 283.81 10.1 288.84 15.13 290.38 13.59 285.35 8.56 290.38 3.54"/><polygon class="cls-4" points="311.69 3.54 310.15 2 305.13 7.03 300.1 2 298.57 3.54 303.59 8.56 298.57 13.59 300.1 15.13 305.13 10.1 310.15 15.13 311.69 13.59 306.67 8.56 311.69 3.54"/><circle class="cls-5" cx="180.31" cy="68.01" r="18.38"/><path class="cls-2" d="M175.76,71.41l1.05-1a3.35,3.35,0,0,0,2.78,1.7c1.83,0,2.66-.93,2.66-3.06V61.77h-5.4v-1.4h7.07v8.81c0,2.41-1.08,4.38-4.3,4.38A4.49,4.49,0,0,1,175.76,71.41Z"/><circle class="cls-3" cx="180.31" cy="68.01" r="41.72"/><circle class="cls-3" cx="180.31" cy="68.01" r="63.64"/><rect class="cls-4" x="118.44" y="56.92" width="12.94" height="12.94" rx="6.47" transform="translate(188.3 -61.53) rotate(90)"/><rect class="cls-4" x="173.79" y="19.57" width="12.94" height="12.94" rx="6.47"/><rect class="cls-4" x="173.79" y="103.57" width="12.94" height="12.94" rx="6.47"/><polygon class="cls-4" points="131.13 45.91 129.59 44.38 124.56 49.4 119.54 44.38 118 45.91 123.03 50.94 118 55.97 119.54 57.5 124.56 52.48 129.59 57.5 131.13 55.97 126.1 50.94 131.13 45.91"/><rect class="cls-4" x="118.44" y="81.92" width="12.94" height="12.94" rx="6.47" transform="translate(213.3 -36.53) rotate(90)"/><polygon class="cls-4" points="131.13 70.91 129.59 69.38 124.56 74.4 119.54 69.38 118 70.91 123.03 75.94 118 80.97 119.54 82.5 124.56 77.48 129.59 82.5 131.13 80.97 126.1 75.94 131.13 70.91"/><rect class="cls-4" x="229.44" y="57.92" width="12.94" height="12.94" rx="6.47" transform="translate(300.3 -171.53) rotate(90)"/><polygon class="cls-4" points="242.13 46.91 240.59 45.38 235.56 50.4 230.54 45.38 229 46.91 234.03 51.94 229 56.97 230.54 58.5 235.56 53.48 240.59 58.5 242.13 56.97 237.1 51.94 242.13 46.91"/><rect class="cls-4" x="229.44" y="82.92" width="12.94" height="12.94" rx="6.47" transform="translate(325.3 -146.53) rotate(90)"/><polygon class="cls-4" points="242.13 71.91 240.59 70.38 235.56 75.4 230.54 70.38 229 71.91 234.03 76.94 229 81.97 230.54 83.5 235.56 78.48 240.59 83.5 242.13 81.97 237.1 76.94 242.13 71.91"/></g></g></svg>