<svg xmlns="http://www.w3.org/2000/svg" viewBox="0 0 364.49 366.28"><defs><style>.cls-1{fill:#f1564e;}.cls-2{fill:#010101;}.cls-3{fill:none;stroke:#1a3d41;stroke-miterlimit:10;}.cls-4{fill:#c660a5;}.cls-5{fill:#437e7b;}</style></defs><g id="Layer_2" data-name="Layer 2"><g id="Layer_1-2" data-name="Layer 1"><circle class="cls-1" cx="294.18" cy="185.85" r="18.69"/><path class="cls-2" d="M286,185.89c0-3.76,2.19-6,5.24-6a4.36,4.36,0,0,1,3.2,1.42l-.85,1a3.1,3.1,0,0,0-2.35-1.05c-2.23,0-3.69,1.79-3.69,4.7s1.46,4.77,3.69,4.77a3.36,3.36,0,0,0,2.62-1.28l.85.9a4.52,4.52,0,0,1-3.61,1.7C288.25,192,286,189.7,286,185.89Z"/><path class="cls-2" d="M299.78,188.83v-8.58h-3.07v-1.2h4.54v9.89a1.57,1.57,0,0,0,1.71,1.78,4,4,0,0,0,1.62-.39l.38,1.1a5.23,5.23,0,0,1-2.32.52C300.79,192,299.78,190.88,299.78,188.83Z"/><circle class="cls-3" cx="294.18" cy="185.85" r="64.68"/><circle class="cls-1" cx="70.18" cy="185.85" r="18.69"/><path class="cls-2" d="M62,185.89c0-3.76,2.19-6,5.24-6a4.36,4.36,0,0,1,3.2,1.42l-.85,1a3.1,3.1,0,0,0-2.35-1.05c-2.23,0-3.69,1.79-3.69,4.7s1.46,4.77,3.69,4.77a3.36,3.36,0,0,0,2.62-1.28l.85.9a4.52,4.52,0,0,1-3.61,1.7C64.25,192,62,189.7,62,185.89Z"/><path class="cls-2" d="M75.78,188.83v-8.58H72.71v-1.2h4.54v9.89A1.57,1.57,0,0,0,79,190.72a4,4,0,0,0,1.62-.39l.38,1.1a5.23,5.23,0,0,1-2.32.52C76.79,192,75.78,190.88,75.78,188.83Z"/><circle class="cls-3" cx="70.18" cy="185.85" r="64.68"/><circle class="cls-1" cx="183.18" cy="71.85" r="18.69"/><path class="cls-2" d="M175,71.89c0-3.76,2.19-6,5.24-6a4.36,4.36,0,0,1,3.2,1.42l-.85.95a3.1,3.1,0,0,0-2.35-1c-2.23,0-3.69,1.79-3.69,4.7s1.46,4.77,3.69,4.77a3.36,3.36,0,0,0,2.62-1.28l.85.9a4.52,4.52,0,0,1-3.61,1.7C177.25,78,175,75.7,175,71.89Z"/><path class="cls-2" d="M188.78,74.83V66.25h-3.07v-1.2h4.54v9.89A1.57,1.57,0,0,0,192,76.72a4,4,0,0,0,1.62-.39l.38,1.1a5.23,5.23,0,0,1-2.32.52C189.79,78,188.78,76.88,188.78,74.83Z"/><circle class="cls-3" cx="183.18" cy="71.85" r="64.68"/><circle class="cls-1" cx="183.18" cy="295.85" r="18.69"/><path class="cls-2" d="M175,295.89c0-3.76,2.19-6.05,5.24-6.05a4.36,4.36,0,0,1,3.2,1.42l-.85.95a3.1,3.1,0,0,0-2.35-1c-2.23,0-3.69,1.79-3.69,4.7s1.46,4.77,3.69,4.77a3.36,3.36,0,0,0,2.62-1.28l.85.9a4.52,4.52,0,0,1-3.61,1.7C177.25,302,175,299.7,175,295.89Z"/><path class="cls-2" d="M188.78,298.83v-8.58h-3.07v-1.2h4.54v9.89a1.57,1.57,0,0,0,1.71,1.78,4,4,0,0,0,1.62-.39l.38,1.1a5.23,5.23,0,0,1-2.32.52C189.79,302,188.78,300.88,188.78,298.83Z"/><circle class="cls-3" cx="183.18" cy="295.85" r="64.68"/><circle class="cls-4" cx="182.58" cy="185.43" r="18.38"/><path class="cls-2" d="M177.73,184.28c0-4.16,2.43-6.7,5.8-6.7a4.87,4.87,0,0,1,3.55,1.57l-1,1a3.46,3.46,0,0,0-2.6-1.16c-2.47,0-4.08,2-4.08,5.2s1.61,5.28,4.08,5.28a3.73,3.73,0,0,0,2.9-1.42l.94,1a5,5,0,0,1-4,1.87C180.18,191,177.73,188.5,177.73,184.28Z"/><circle class="cls-3" cx="182.58" cy="185.43" r="63.64"/><polygon class="cls-5" points="243.4 168.64 241.86 167.11 236.83 172.13 231.81 167.11 230.27 168.64 235.3 173.67 230.27 178.69 231.81 180.23 236.83 175.21 241.86 180.23 243.4 178.69 238.37 173.67 243.4 168.64"/><polygon class="cls-5" points="133.4 168.64 131.86 167.11 126.83 172.13 121.81 167.11 120.27 168.64 125.3 173.67 120.27 178.69 121.81 180.23 126.83 175.21 131.86 180.23 133.4 178.69 128.37 173.67 133.4 168.64"/><polygon class="cls-5" points="180.4 123.64 178.86 122.11 173.83 127.13 168.81 122.11 167.27 123.64 172.3 128.67 167.27 133.69 168.81 135.23 173.83 130.21 178.86 135.23 180.4 133.69 175.37 128.67 180.4 123.64"/><polygon class="cls-5" points="180.4 235.64 178.86 234.11 173.83 239.13 168.81 234.11 167.27 235.64 172.3 240.67 167.27 245.69 168.81 247.23 173.83 242.21 178.86 247.23 180.4 245.69 175.37 240.67 180.4 235.64"/><rect class="cls-5" x="183.05" y="122" width="12.94" height="12.94" rx="6.47"/><rect class="cls-5" x="240.05" y="73" width="12.94" height="12.94" rx="6.47"/><rect class="cls-5" x="240.05" y="57" width="12.94" height="12.94" rx="6.47"/><rect class="cls-5" x="112.05" y="73" width="12.94" height="12.94" rx="6.47"/><rect class="cls-5" x="112.05" y="57" width="12.94" height="12.94" rx="6.47"/><rect class="cls-5" x="169.05" width="12.94" height="12.94" rx="6.47" transform="translate(181.99 -169.05) rotate(90)"/><rect class="cls-5" x="185.05" width="12.94" height="12.94" rx="6.47" transform="translate(197.99 -185.05) rotate(90)"/><rect class="cls-5" x="278.55" y="243.5" width="12.94" height="12.94" rx="6.47" transform="translate(534.99 -35.05) rotate(90)"/><rect class="cls-5" x="294.55" y="243.5" width="12.94" height="12.94" rx="6.47" transform="translate(550.99 -51.05) rotate(90)"/><rect class="cls-5" x="278.55" y="115.5" width="12.94" height="12.94" rx="6.47" transform="translate(406.99 -163.05) rotate(90)"/><rect class="cls-5" x="294.55" y="115.5" width="12.94" height="12.94" rx="6.47" transform="translate(422.99 -179.05) rotate(90)"/><rect class="cls-5" x="351.55" y="172.5" width="12.94" height="12.94" rx="6.47" transform="translate(716.05 357.94) rotate(-180)"/><rect class="cls-5" x="351.55" y="188.5" width="12.94" height="12.94" rx="6.47" transform="translate(716.05 389.94) rotate(-180)"/><rect class="cls-5" x="73" y="114.85" width="12.94" height="12.94" rx="6.47" transform="translate(-41.85 200.78) rotate(-90)"/><rect class="cls-5" x="57" y="114.85" width="12.94" height="12.94" rx="6.47" transform="translate(-57.85 184.78) rotate(-90)"/><rect class="cls-5" x="73" y="242.85" width="12.94" height="12.94" rx="6.47" transform="translate(-169.85 328.78) rotate(-90)"/><rect class="cls-5" x="57" y="242.85" width="12.94" height="12.94" rx="6.47" transform="translate(-185.85 312.78) rotate(-90)"/><rect class="cls-5" y="185.85" width="12.94" height="12.94" rx="6.47"/><rect class="cls-5" y="169.85" width="12.94" height="12.94" rx="6.47"/><rect class="cls-5" x="112.5" y="280.35" width="12.94" height="12.94" rx="6.47" transform="translate(237.94 573.63) rotate(-180)"/><rect class="cls-5" x="112.5" y="296.35" width="12.94" height="12.94" rx="6.47" transform="translate(237.94 605.63) rotate(180)"/><rect class="cls-5" x="240.5" y="280.35" width="12.94" height="12.94" rx="6.47" transform="translate(493.94 573.63) rotate(180)"/><rect class="cls-5" x="240.5" y="296.35" width="12.94" height="12.94" rx="6.47" transform="translate(493.94 605.63) rotate(180)"/><rect class="cls-5" x="183.5" y="353.35" width="12.94" height="12.94" rx="6.47" transform="translate(-169.85 549.78) rotate(-90)"/><rect class="cls-5" x="167.5" y="353.35" width="12.94" height="12.94" rx="6.47" transform="translate(-185.85 533.78) rotate(-90)"/><rect class="cls-5" x="231.05" y="186" width="12.94" height="12.94" rx="6.47"/><rect class="cls-5" x="121.05" y="186" width="12.94" height="12.94" rx="6.47"/><rect class="cls-5" x="183.05" y="234" width="12.94" height="12.94" rx="6.47"/></g></g></svg>