<svg xmlns="http://www.w3.org/2000/svg" viewBox="0 0 497.51 145.46"><defs><style>.cls-1{font-size:51.89px;font-family:NotoSansSC-Regular-90ms-RKSJ-H, Noto Sans SC;}.cls-1,.cls-3{fill:#193c40;}.cls-2{fill:#de4948;}.cls-4{fill:none;stroke:#193c40;stroke-miterlimit:10;}.cls-5{font-size:16px;fill:#231f20;font-family:NotoSansSC-Thin-90ms-RKSJ-H, Noto Sans SC;}</style></defs><g id="Layer_2" data-name="Layer 2"><g id="Layer_1-2" data-name="Layer 1"><text class="cls-1" transform="translate(18.16 62.62)">Cl</text><circle class="cls-2" cx="35.9" cy="5.32" r="5.32"/><circle class="cls-2" cx="52.52" cy="5.32" r="5.32"/><circle class="cls-2" cx="79.77" cy="33.9" r="5.32"/><circle class="cls-2" cx="5.32" cy="33.9" r="5.32"/><circle class="cls-2" cx="5.32" cy="50.52" r="5.32"/><circle class="cls-2" cx="35.9" cy="78.44" r="5.32"/><circle class="cls-2" cx="52.52" cy="78.44" r="5.32"/><text class="cls-1" transform="translate(356.53 62.62)">Cl</text><circle class="cls-2" cx="374.27" cy="5.32" r="5.32"/><circle class="cls-2" cx="390.89" cy="5.32" r="5.32"/><circle class="cls-2" cx="418.14" cy="33.9" r="5.32"/><circle class="cls-2" cx="343.69" cy="33.9" r="5.32"/><circle class="cls-2" cx="343.69" cy="50.52" r="5.32"/><circle class="cls-2" cx="374.27" cy="78.44" r="5.32"/><circle class="cls-2" cx="390.89" cy="78.44" r="5.32"/><text class="cls-1" transform="translate(164.41 62.62)">Cl</text><polygon class="cls-2" points="187.4 8.06 184.32 4.99 187.4 1.91 185.55 0.07 182.48 3.14 179.41 0.07 177.56 1.91 180.64 4.99 177.56 8.06 179.41 9.9 182.48 6.83 185.55 9.9 187.4 8.06"/><polygon class="cls-2" points="204.02 8.06 200.94 4.99 204.02 1.91 202.17 0.07 199.1 3.14 196.03 0.07 194.18 1.91 197.25 4.99 194.18 8.06 196.03 9.9 199.1 6.83 202.17 9.9 204.02 8.06"/><polygon class="cls-2" points="187.4 81.18 184.32 78.11 187.4 75.04 185.55 73.19 182.48 76.27 179.41 73.19 177.56 75.04 180.64 78.11 177.56 81.18 179.41 83.03 182.48 79.95 185.55 83.03 187.4 81.18"/><polygon class="cls-2" points="204.02 81.18 200.94 78.11 204.02 75.04 202.17 73.19 199.1 76.27 196.03 73.19 194.18 75.04 197.25 78.11 194.18 81.18 196.03 83.03 199.1 79.95 202.17 83.03 204.02 81.18"/><polygon class="cls-2" points="231.75 44.94 228.68 48.01 225.61 44.94 223.76 46.78 226.84 49.86 223.76 52.93 225.61 54.78 228.68 51.7 231.75 54.78 233.6 52.93 230.53 49.86 233.6 46.78 231.75 44.94"/><polygon class="cls-2" points="231.75 28.32 228.68 31.39 225.61 28.32 223.76 30.16 226.84 33.24 223.76 36.31 225.61 38.16 228.68 35.08 231.75 38.16 233.6 36.31 230.53 33.24 233.6 30.16 231.75 28.32"/><polygon class="cls-2" points="154.64 28.32 151.57 31.39 148.5 28.32 146.65 30.16 149.72 33.24 146.65 36.31 148.5 38.16 151.57 35.08 154.64 38.16 156.49 36.31 153.41 33.24 156.49 30.16 154.64 28.32"/><text class="cls-1" transform="translate(428.32 62.62)">Cl</text><polygon class="cls-2" points="451.31 8.06 448.24 4.99 451.31 1.91 449.47 0.07 446.39 3.14 443.32 0.07 441.48 1.91 444.55 4.99 441.48 8.06 443.32 9.9 446.39 6.83 449.47 9.9 451.31 8.06"/><polygon class="cls-2" points="467.93 8.06 464.86 4.99 467.93 1.91 466.09 0.07 463.01 3.14 459.94 0.07 458.1 1.91 461.17 4.99 458.1 8.06 459.94 9.9 463.01 6.83 466.09 9.9 467.93 8.06"/><polygon class="cls-2" points="451.31 81.18 448.24 78.11 451.31 75.04 449.47 73.19 446.39 76.27 443.32 73.19 441.48 75.04 444.55 78.11 441.48 81.18 443.32 83.03 446.39 79.95 449.47 83.03 451.31 81.18"/><polygon class="cls-2" points="467.93 81.18 464.86 78.11 467.93 75.04 466.09 73.19 463.01 76.27 459.94 73.19 458.1 75.04 461.17 78.11 458.1 81.18 459.94 83.03 463.01 79.95 466.09 83.03 467.93 81.18"/><polygon class="cls-2" points="495.67 44.94 492.6 48.01 489.52 44.94 487.68 46.78 490.75 49.86 487.68 52.93 489.52 54.78 492.6 51.7 495.67 54.78 497.51 52.93 494.44 49.86 497.51 46.78 495.67 44.94"/><polygon class="cls-2" points="495.67 28.32 492.6 31.39 489.52 28.32 487.68 30.16 490.75 33.24 487.68 36.31 489.52 38.16 492.6 35.08 495.67 38.16 497.51 36.31 494.44 33.24 497.51 30.16 495.67 28.32"/><polygon class="cls-2" points="421.22 45.6 418.14 48.68 415.07 45.6 413.22 47.45 416.3 50.52 413.22 53.6 415.07 55.44 418.14 52.37 421.22 55.44 423.06 53.6 419.99 50.52 423.06 47.45 421.22 45.6"/><polygon class="cls-3" points="122.98 40.35 119.53 40.35 119.53 36.9 117.46 36.9 117.46 40.35 114.01 40.35 114.01 42.42 117.46 42.42 117.46 45.87 119.53 45.87 119.53 42.42 122.98 42.42 122.98 40.35"/><line class="cls-4" x1="267.9" y1="40.88" x2="307.74" y2="40.88"/><path class="cls-3" d="M313.77,40.88a30.39,30.39,0,0,0-8.54,4.76L307,40.88l-1.72-4.75A30.12,30.12,0,0,0,313.77,40.88Z"/><text class="cls-5" transform="translate(10.05 123.33)">Lewis structure for the formation of chlorine molecule, Cl</text><text class="cls-5" transform="translate(453.2 128.66) scale(0.58)">2</text></g></g></svg>