<svg xmlns="http://www.w3.org/2000/svg" viewBox="0 0 361.5 100.5"><defs><style>.cls-1{fill:#1a3d41;}.cls-2{fill:#010101;}</style></defs><g id="Layer_2" data-name="Layer 2"><g id="Layer_1-2" data-name="Layer 1"><path class="cls-1" d="M0,0V100.5H361.5V0ZM358.5,48.66h-95V2.14h95Zm-196,0V2.14h98V48.66Zm98,1.72v48h-98v-48ZM159.5,2.14V48.66H3V2.14ZM3,50.38H159.5v48H3Zm260.5,48v-48h95v48Z"/><path class="cls-2" d="M51.19,21.39h6.5v1.14H52.54v3.28h4.35V27H52.54v3.81h5.31v1.13H51.19Z"/><path class="cls-2" d="M62.1,29.29V21.57H59.35V20.5h4.08v8.88A1.41,1.41,0,0,0,65,31a3.52,3.52,0,0,0,1.46-.35l.33,1a4.64,4.64,0,0,1-2.08.47C63,32.09,62.1,31.13,62.1,29.29Z"/><path class="cls-2" d="M68.05,28a3.92,3.92,0,0,1,4-4.07,3.35,3.35,0,0,1,3.56,3.65,5.4,5.4,0,0,1-.07.8H68.93v-1h5.8l-.34.37c0-1.84-.91-2.76-2.33-2.76a2.74,2.74,0,0,0-2.69,3,2.82,2.82,0,0,0,3,3,4.24,4.24,0,0,0,2.37-.74l.48.87a5.35,5.35,0,0,1-3,.93A4,4,0,0,1,68.05,28Z"/><path class="cls-2" d="M76.69,24.12h1.06l.11,1h0a1.94,1.94,0,0,1,1.78-1.22c.77,0,1.25.45,1.47,1.35.45-.83.93-1.35,1.83-1.35,1.09,0,1.73.85,1.73,2.4v5.57H83.38V26.42c0-.9-.25-1.36-.83-1.36s-.83.4-1.25,1.2v5.63H80.09V26.42c0-.9-.23-1.36-.8-1.36s-.9.4-1.28,1.2v5.63H76.69Z"/><path class="cls-2" d="M85.65,28a3.92,3.92,0,0,1,4-4.07,3.35,3.35,0,0,1,3.56,3.65,5.4,5.4,0,0,1-.07.8H86.53v-1h5.8l-.34.37c0-1.84-.91-2.76-2.33-2.76A2.74,2.74,0,0,0,87,28a2.82,2.82,0,0,0,3,3,4.24,4.24,0,0,0,2.37-.74l.48.87a5.35,5.35,0,0,1-3,.93A4,4,0,0,1,85.65,28Z"/><path class="cls-2" d="M94.85,24.12h1.09l.11,1.31h.07a4,4,0,0,1,2.93-1.51c1.84,0,2.69,1.09,2.69,3.14v4.83h-1.33V27.24c0-1.48-.51-2.16-1.78-2.16-.93,0-1.55.46-2.45,1.39v5.42H94.85Z"/><path class="cls-2" d="M105.46,28.87V25.19h-2.21v-1l2.26-.08.18-2.5h1.1v2.5h3.81v1.07h-3.81v3.7c0,1.39.46,2.11,2,2.11a5.31,5.31,0,0,0,1.86-.35l.28,1a6.65,6.65,0,0,1-2.43.47C106.2,32.09,105.46,30.79,105.46,28.87Z"/><path class="cls-2" d="M207.65,30.34l.85-.81a2.74,2.74,0,0,0,2.25,1.37c1.49,0,2.16-.75,2.16-2.48V22.51h-4.38V21.38h5.74v7.15c0,2-.88,3.56-3.49,3.56A3.64,3.64,0,0,1,207.65,30.34Z"/><path class="cls-2" d="M202.54,77.11c3.45-3.06,5.34-4.85,5.34-6.55,0-1.16-.7-2-2.21-2a3.53,3.53,0,0,0-2.45,1.21l-.76-.75a4.52,4.52,0,0,1,3.37-1.55c2,0,3.33,1.2,3.33,3s-1.92,3.83-4.69,6.34c.64,0,1.3-.08,1.91-.08h3.34v1.13h-7.18Z"/><path class="cls-2" d="M213.66,76.73A1.3,1.3,0,1,1,215,78.09,1.29,1.29,0,0,1,213.66,76.73Z"/><path class="cls-2" d="M224.83,70.87c0-.56,0-1.25.08-1.81h-.08c-.34.49-.71,1-1.05,1.49L221,74h6.63v1.08h-8.1V74.2l5.09-6.52h1.42V77.89h-1.24Z"/><path class="cls-2" d="M304.54,77.11c3.45-3.06,5.34-4.85,5.34-6.55,0-1.16-.7-2-2.21-2a3.53,3.53,0,0,0-2.45,1.21l-.76-.75a4.52,4.52,0,0,1,3.37-1.55c2.05,0,3.33,1.2,3.33,3s-1.92,3.83-4.69,6.34c.64,0,1.3-.08,1.91-.08h3.34v1.13h-7.18Z"/><path class="cls-2" d="M315.66,76.73A1.3,1.3,0,1,1,317,78.09,1.29,1.29,0,0,1,315.66,76.73Z"/><path class="cls-2" d="M322.17,73.17c0-4.09,2.05-5.68,4.27-5.68a4,4,0,0,1,2.85,1.09l-.74.83a3,3,0,0,0-2-.82c-1.66,0-3.1,1.17-3.1,4.58,0,2.52,1,3.88,2.65,3.88a2.13,2.13,0,0,0,2.15-2.24,2,2,0,0,0-2.16-2.17,3.59,3.59,0,0,0-2.68,1.44l0-1a4.33,4.33,0,0,1,3-1.39,2.9,2.9,0,0,1,3.18,3.16,3.29,3.29,0,0,1-3.41,3.28C323.85,78.09,322.17,76.45,322.17,73.17Z"/><path class="cls-2" d="M312.92,21.39h1.36v5.25h.05l4.4-5.25h1.54l-6,7.16v3.34h-1.36Zm3,4.65.81-1.06,3.94,6.91h-1.52Z"/><path class="cls-2" d="M47.39,59.39h6.5v1.14H48.74v3.28h4.35V65H48.74v3.81h5.31v1.13H47.39Z"/><path class="cls-2" d="M58.3,67.29V59.57H55.55V58.5h4.08v8.88A1.41,1.41,0,0,0,61.17,69a3.52,3.52,0,0,0,1.46-.35l.33,1a4.64,4.64,0,0,1-2.08.47C59.22,70.09,58.3,69.13,58.3,67.29Z"/><path class="cls-2" d="M64.25,66a3.92,3.92,0,0,1,4-4.07,3.35,3.35,0,0,1,3.56,3.65,4.32,4.32,0,0,1-.07.8H65.13v-1h5.8l-.34.37c0-1.84-.91-2.76-2.33-2.76a2.74,2.74,0,0,0-2.69,3,2.82,2.82,0,0,0,3,3A4.24,4.24,0,0,0,71,68.29l.48.87a5.35,5.35,0,0,1-3,.93A4,4,0,0,1,64.25,66Z"/><path class="cls-2" d="M73.25,66a4,4,0,0,1,4.33-4.1,4,4,0,0,1,2.84,1.14l-.66.85A3.18,3.18,0,0,0,77.63,63a2.85,2.85,0,0,0-3,3,2.82,2.82,0,0,0,3,3A3.71,3.71,0,0,0,80,68l.59.86a4.61,4.61,0,0,1-3.09,1.22A3.92,3.92,0,0,1,73.25,66Z"/><path class="cls-2" d="M84.06,66.87V63.19H81.85v-1l2.26-.08.18-2.5h1.1v2.5H89.2v1.07H85.39v3.7c0,1.39.47,2.11,2,2.11a5.31,5.31,0,0,0,1.86-.35l.28,1a6.65,6.65,0,0,1-2.43.47C84.8,70.09,84.06,68.79,84.06,66.87Z"/><path class="cls-2" d="M91.89,62.12H93L93.12,64h0a4.1,4.1,0,0,1,3.47-2,3.28,3.28,0,0,1,1.54.32l-.3,1.14a3.87,3.87,0,0,0-1.44-.26c-1.17,0-2.28.6-3.21,2.23v4.54H91.89Z"/><path class="cls-2" d="M99.33,66a3.85,3.85,0,1,1,3.84,4.07A3.81,3.81,0,0,1,99.33,66Zm6.32,0c0-1.79-1-3-2.48-3s-2.48,1.2-2.48,3,1,3,2.48,3S105.65,67.8,105.65,66Z"/><path class="cls-2" d="M108.65,62.12h1.09l.11,1.31h.07a4,4,0,0,1,2.93-1.51c1.84,0,2.69,1.09,2.69,3.14v4.83h-1.33V65.24c0-1.48-.51-2.16-1.78-2.16-.93,0-1.55.46-2.45,1.39v5.42h-1.33Z"/><path class="cls-2" d="M41.2,75.39h1.54l3.53,10.5H44.83L43,80c-.37-1.17-.73-2.33-1-3.54h-.07c-.34,1.21-.67,2.37-1,3.54L39,85.89H37.66Zm-1.66,6.23h4.81v1.09H39.54Z"/><path class="cls-2" d="M48.29,78.12h1.1L49.52,80h0a4.1,4.1,0,0,1,3.48-2,3.26,3.26,0,0,1,1.53.32l-.3,1.14a3.84,3.84,0,0,0-1.44-.26c-1.17,0-2.28.6-3.2,2.23v4.54H48.29Z"/><path class="cls-2" d="M57.09,78.12h1.1L58.32,80h0a4.1,4.1,0,0,1,3.48-2,3.26,3.26,0,0,1,1.53.32l-.3,1.14a3.84,3.84,0,0,0-1.44-.26c-1.17,0-2.28.6-3.2,2.23v4.54H57.09Z"/><path class="cls-2" d="M64.85,83.88c0-1.75,1.63-2.59,5.65-2.92A1.85,1.85,0,0,0,68.43,79a5.39,5.39,0,0,0-2.72.93l-.53-.9a6.86,6.86,0,0,1,3.48-1.12,2.89,2.89,0,0,1,3.17,3.2v4.77H70.72l-.11-1h0a5.26,5.26,0,0,1-3.06,1.25C66.05,86.09,64.85,85.27,64.85,83.88Zm5.65,0v-2c-3.33.26-4.34.92-4.34,1.94S67,85,67.86,85A4.22,4.22,0,0,0,70.5,83.86Z"/><path class="cls-2" d="M73.85,78.12h1.09l.12,1.31h.06a4,4,0,0,1,2.93-1.51c1.84,0,2.69,1.09,2.69,3.14v4.83H79.41V81.24c0-1.48-.51-2.16-1.78-2.16-.93,0-1.55.46-2.45,1.39v5.42H73.85Z"/><path class="cls-2" d="M82.32,87.32a2.17,2.17,0,0,1,1.28-1.73v-.06a1.42,1.42,0,0,1-.8-1.28,1.87,1.87,0,0,1,.93-1.46v-.06a2.48,2.48,0,0,1-1-2,2.85,2.85,0,0,1,3-2.79,3.16,3.16,0,0,1,1.16.2h3.21v1.07h-2a2.35,2.35,0,0,1,.65,1.57,2.73,2.73,0,0,1-3,2.67,3.38,3.38,0,0,1-1.31-.29,1.08,1.08,0,0,0-.61.9c0,.61.6.89,1.62.89h1.74c2,0,3,.52,3,1.83s-1.69,2.72-4.33,2.72C83.63,89.48,82.32,88.7,82.32,87.32ZM88.93,87c0-.74-.59-1-1.78-1H85.63a4.18,4.18,0,0,1-1.18-.13c-.74.4-1,.85-1,1.3,0,.82.87,1.33,2.54,1.33S88.93,87.77,88.93,87Zm-1.31-6.26a1.8,1.8,0,1,0-1.8,1.84A1.76,1.76,0,0,0,87.62,80.71Z"/><path class="cls-2" d="M91.05,82a3.92,3.92,0,0,1,4-4.07,3.35,3.35,0,0,1,3.56,3.65,5.4,5.4,0,0,1-.07.8H91.93v-1h5.8l-.34.37c0-1.84-.91-2.76-2.33-2.76a2.74,2.74,0,0,0-2.69,3,2.82,2.82,0,0,0,3,3,4.24,4.24,0,0,0,2.37-.74l.48.87a5.35,5.35,0,0,1-3,.93A4,4,0,0,1,91.05,82Z"/><path class="cls-2" d="M99.69,78.12h1.06l.11,1h0a1.94,1.94,0,0,1,1.78-1.22c.77,0,1.25.45,1.47,1.35.45-.83.93-1.35,1.83-1.35,1.09,0,1.73.85,1.73,2.4v5.57h-1.32V80.42c0-.9-.25-1.36-.83-1.36s-.83.4-1.25,1.2v5.63h-1.21V80.42c0-.9-.23-1.36-.8-1.36s-.9.4-1.28,1.2v5.63H99.69Z"/><path class="cls-2" d="M108.65,82a3.92,3.92,0,0,1,4-4.07,3.35,3.35,0,0,1,3.56,3.65,5.4,5.4,0,0,1-.07.8h-6.58v-1h5.8l-.34.37c0-1.84-.91-2.76-2.33-2.76A2.74,2.74,0,0,0,110,82a2.82,2.82,0,0,0,3,3,4.24,4.24,0,0,0,2.37-.74l.48.87a5.35,5.35,0,0,1-3,.93A4,4,0,0,1,108.65,82Z"/><path class="cls-2" d="M117.85,78.12h1.09l.11,1.31h.07a4,4,0,0,1,2.93-1.51c1.84,0,2.69,1.09,2.69,3.14v4.83h-1.33V81.24c0-1.48-.51-2.16-1.78-2.16-.93,0-1.55.46-2.45,1.39v5.42h-1.33Z"/><path class="cls-2" d="M128.46,82.87V79.19h-2.21v-1l2.26-.08.18-2.5h1.1v2.5h3.81v1.07h-3.81v3.7c0,1.39.47,2.11,2,2.11a5.31,5.31,0,0,0,1.86-.35l.29,1a6.75,6.75,0,0,1-2.44.47C129.2,86.09,128.46,84.79,128.46,82.87Z"/></g></g></svg>