<svg xmlns="http://www.w3.org/2000/svg" viewBox="0 0 1055.23 574.95"><defs><style>.cls-1{fill:#ece6db;stroke-width:3px;}.cls-1,.cls-5{stroke:#1a3d41;stroke-miterlimit:10;}.cls-2{font-size:11.79px;}.cls-2,.cls-4{fill:#010101;}.cls-2,.cls-7{font-family:NotoSansSC-Regular-90ms-RKSJ-H, Noto Sans SC;}.cls-3{fill:#f1564e;}.cls-5{fill:none;}.cls-6{fill:#437e7b;}.cls-7{font-size:16px;}.cls-7,.cls-8{fill:#231f20;}</style></defs><g id="Layer_2" data-name="Layer 2"><g id="Frame"><rect class="cls-1" x="1.5" y="1.5" width="1052.23" height="571.95" rx="60.33"/></g><g id="Layer_1-2" data-name="Layer 1"><text class="cls-2" transform="translate(160.99 265.92)">2.8.7</text><text class="cls-2" transform="translate(126.37 281.39)">Chlorine atom, Cl</text><text class="cls-2" transform="translate(391.72 265.92)">2.8.7</text><text class="cls-2" transform="translate(357.1 281.39)">Chlorine atom, Cl</text><text class="cls-2" transform="translate(731.72 265.92)">2.8.8</text><text class="cls-2" transform="translate(889.72 265.92)">2.8.8</text><text class="cls-2" transform="translate(764.1 285.39)">Chlorine molecule, Cl</text><text class="cls-2" transform="translate(878.75 289.31) scale(0.58)">2</text><circle class="cls-3" cx="165.88" cy="148.25" r="18.38"/><path class="cls-4" d="M156,149.1c0-4.16,2.43-6.71,5.8-6.71a4.84,4.84,0,0,1,3.55,1.58l-.95,1a3.5,3.5,0,0,0-2.6-1.16c-2.47,0-4.08,2-4.08,5.21s1.61,5.28,4.08,5.28a3.73,3.73,0,0,0,2.9-1.42l.94,1a5,5,0,0,1-4,1.87C158.48,155.8,156,153.31,156,149.1Z"/><path class="cls-4" d="M171.23,152.35v-9.5h-3.39v-1.32h5v10.94a1.73,1.73,0,0,0,1.89,2,4.34,4.34,0,0,0,1.8-.44l.41,1.23a5.89,5.89,0,0,1-2.56.57C172.36,155.8,171.23,154.62,171.23,152.35Z"/><circle class="cls-5" cx="165.88" cy="148.25" r="41.72"/><circle class="cls-5" cx="165.88" cy="148.25" r="86.26"/><circle class="cls-5" cx="165.88" cy="148.25" r="63.64"/><polygon class="cls-6" points="171.7 101.46 170.16 99.92 165.13 104.95 160.11 99.92 158.57 101.46 163.6 106.48 158.57 111.51 160.11 113.05 165.13 108.02 170.16 113.05 171.7 111.51 166.67 106.48 171.7 101.46"/><polygon class="cls-6" points="173.63 185.41 172.1 183.87 167.07 188.9 162.04 183.87 160.51 185.41 165.53 190.43 160.51 195.46 162.04 197 167.07 191.97 172.1 197 173.63 195.46 168.61 190.43 173.63 185.41"/><polygon class="cls-6" points="109.69 131.16 108.16 129.62 103.13 134.65 98.1 129.62 96.57 131.16 101.59 136.18 96.57 141.21 98.1 142.74 103.13 137.72 108.16 142.74 109.69 141.21 104.67 136.18 109.69 131.16"/><polygon class="cls-6" points="258.98 131.16 257.44 129.62 252.41 134.65 247.39 129.62 245.85 131.16 250.88 136.18 245.85 141.21 247.39 142.74 252.41 137.72 257.44 142.74 258.98 141.21 253.95 136.18 258.98 131.16"/><polygon class="cls-6" points="109.69 150.53 108.16 149 103.13 154.02 98.1 149 96.57 150.53 101.59 155.56 96.57 160.58 98.1 162.12 103.13 157.09 108.16 162.12 109.69 160.58 104.67 155.56 109.69 150.53"/><polygon class="cls-6" points="235.64 131.16 234.1 129.62 229.07 134.65 224.05 129.62 222.51 131.16 227.54 136.18 222.51 141.21 224.05 142.74 229.07 137.72 234.1 142.74 235.64 141.21 230.61 136.18 235.64 131.16"/><polygon class="cls-6" points="235.64 150.53 234.1 149 229.07 154.02 224.05 149 222.51 150.53 227.54 155.56 222.51 160.58 224.05 162.12 229.07 157.09 234.1 162.12 235.64 160.58 230.61 155.56 235.64 150.53"/><polygon class="cls-6" points="86.5 131.16 84.97 129.62 79.94 134.65 74.91 129.62 73.38 131.16 78.4 136.18 73.38 141.21 74.91 142.74 79.94 137.72 84.97 142.74 86.5 141.21 81.48 136.18 86.5 131.16"/><polygon class="cls-6" points="86.5 150.53 84.97 149 79.94 154.02 74.91 149 73.38 150.53 78.4 155.56 73.38 160.58 74.91 162.12 79.94 157.09 84.97 162.12 86.5 160.58 81.48 155.56 86.5 150.53"/><polygon class="cls-6" points="165.88 206.72 164.35 205.19 159.32 210.21 154.29 205.19 152.76 206.72 157.78 211.75 152.76 216.77 154.29 218.31 159.32 213.28 164.35 218.31 165.88 216.77 160.86 211.75 165.88 206.72"/><polygon class="cls-6" points="185.26 206.72 183.72 205.19 178.7 210.21 173.67 205.19 172.13 206.72 177.16 211.75 172.13 216.77 173.67 218.31 178.7 213.28 183.72 218.31 185.26 216.77 180.23 211.75 185.26 206.72"/><polygon class="cls-6" points="165.88 228.22 164.35 226.68 159.32 231.71 154.29 226.68 152.76 228.22 157.78 233.24 152.76 238.27 154.29 239.81 159.32 234.78 164.35 239.81 165.88 238.27 160.86 233.24 165.88 228.22"/><polygon class="cls-6" points="185.26 228.22 183.72 226.68 178.7 231.71 173.67 226.68 172.13 228.22 177.16 233.24 172.13 238.27 173.67 239.81 178.7 234.78 183.72 239.81 185.26 238.27 180.23 233.24 185.26 228.22"/><polygon class="cls-6" points="163.94 80.78 162.41 79.24 157.38 84.27 152.36 79.24 150.82 80.78 155.85 85.8 150.82 90.83 152.36 92.37 157.38 87.34 162.41 92.37 163.94 90.83 158.92 85.8 163.94 80.78"/><polygon class="cls-6" points="185.26 80.78 183.72 79.24 178.7 84.27 173.67 79.24 172.13 80.78 177.16 85.8 172.13 90.83 173.67 92.37 178.7 87.34 183.72 92.37 185.26 90.83 180.23 85.8 185.26 80.78"/><polygon class="cls-6" points="163.94 57.02 162.41 55.48 157.38 60.51 152.36 55.48 150.82 57.02 155.85 62.05 150.82 67.07 152.36 68.61 157.38 63.58 162.41 68.61 163.94 67.07 158.92 62.05 163.94 57.02"/><polygon class="cls-6" points="185.26 57.02 183.72 55.48 178.7 60.51 173.67 55.48 172.13 57.02 177.16 62.05 172.13 67.07 173.67 68.61 178.7 63.58 183.72 68.61 185.26 67.07 180.23 62.05 185.26 57.02"/><circle class="cls-3" cx="738.84" cy="148.25" r="18.38"/><path class="cls-4" d="M729,149.1c0-4.16,2.43-6.71,5.8-6.71a4.84,4.84,0,0,1,3.55,1.58l-1,1a3.5,3.5,0,0,0-2.6-1.16c-2.47,0-4.08,2-4.08,5.21s1.61,5.28,4.08,5.28a3.73,3.73,0,0,0,2.9-1.42l.94,1a5,5,0,0,1-4,1.87C731.44,155.8,729,153.31,729,149.1Z"/><path class="cls-4" d="M744.19,152.35v-9.5H740.8v-1.32h5v10.94a1.73,1.73,0,0,0,1.89,2,4.34,4.34,0,0,0,1.8-.44l.41,1.23a5.89,5.89,0,0,1-2.56.57C745.32,155.8,744.19,154.62,744.19,152.35Z"/><circle class="cls-5" cx="738.84" cy="148.25" r="41.72"/><circle class="cls-5" cx="738.84" cy="148.25" r="86.26"/><circle class="cls-5" cx="738.84" cy="148.25" r="63.64"/><polygon class="cls-6" points="744.65 101.46 743.12 99.92 738.09 104.95 733.07 99.92 731.53 101.46 736.56 106.48 731.53 111.51 733.07 113.05 738.09 108.02 743.12 113.05 744.65 111.51 739.63 106.48 744.65 101.46"/><polygon class="cls-6" points="746.59 185.41 745.06 183.87 740.03 188.9 735 183.87 733.47 185.41 738.49 190.43 733.47 195.46 735 197 740.03 191.97 745.06 197 746.59 195.46 741.57 190.43 746.59 185.41"/><polygon class="cls-6" points="682.65 131.16 681.12 129.62 676.09 134.65 671.06 129.62 669.53 131.16 674.55 136.18 669.53 141.21 671.06 142.74 676.09 137.72 681.12 142.74 682.65 141.21 677.63 136.18 682.65 131.16"/><polygon class="cls-6" points="682.65 150.53 681.12 149 676.09 154.02 671.06 149 669.53 150.53 674.55 155.56 669.53 160.58 671.06 162.12 676.09 157.09 681.12 162.12 682.65 160.58 677.63 155.56 682.65 150.53"/><polygon class="cls-6" points="808.6 131.16 807.06 129.62 802.03 134.65 797.01 129.62 795.47 131.16 800.5 136.18 795.47 141.21 797.01 142.74 802.03 137.72 807.06 142.74 808.6 141.21 803.57 136.18 808.6 131.16"/><polygon class="cls-6" points="808.6 150.53 807.06 149 802.03 154.02 797.01 149 795.47 150.53 800.5 155.56 795.47 160.58 797.01 162.12 802.03 157.09 807.06 162.12 808.6 160.58 803.57 155.56 808.6 150.53"/><polygon class="cls-6" points="659.46 131.16 657.93 129.62 652.9 134.65 647.87 129.62 646.34 131.16 651.36 136.18 646.34 141.21 647.87 142.74 652.9 137.72 657.93 142.74 659.46 141.21 654.44 136.18 659.46 131.16"/><polygon class="cls-6" points="659.46 150.53 657.93 149 652.9 154.02 647.87 149 646.34 150.53 651.36 155.56 646.34 160.58 647.87 162.12 652.9 157.09 657.93 162.12 659.46 160.58 654.44 155.56 659.46 150.53"/><polygon class="cls-6" points="738.84 206.72 737.31 205.19 732.28 210.21 727.25 205.19 725.72 206.72 730.74 211.75 725.72 216.77 727.25 218.31 732.28 213.28 737.31 218.31 738.84 216.77 733.82 211.75 738.84 206.72"/><polygon class="cls-6" points="758.22 206.72 756.68 205.19 751.66 210.21 746.63 205.19 745.09 206.72 750.12 211.75 745.09 216.77 746.63 218.31 751.66 213.28 756.68 218.31 758.22 216.77 753.19 211.75 758.22 206.72"/><polygon class="cls-6" points="738.84 228.22 737.31 226.68 732.28 231.71 727.25 226.68 725.72 228.22 730.74 233.24 725.72 238.27 727.25 239.81 732.28 234.78 737.31 239.81 738.84 238.27 733.82 233.24 738.84 228.22"/><polygon class="cls-6" points="758.22 228.22 756.68 226.68 751.66 231.71 746.63 226.68 745.09 228.22 750.12 233.24 745.09 238.27 746.63 239.81 751.66 234.78 756.68 239.81 758.22 238.27 753.19 233.24 758.22 228.22"/><polygon class="cls-6" points="736.9 80.78 735.37 79.24 730.34 84.27 725.32 79.24 723.78 80.78 728.81 85.8 723.78 90.83 725.32 92.37 730.34 87.34 735.37 92.37 736.9 90.83 731.88 85.8 736.9 80.78"/><polygon class="cls-6" points="758.22 80.78 756.68 79.24 751.66 84.27 746.63 79.24 745.09 80.78 750.12 85.8 745.09 90.83 746.63 92.37 751.66 87.34 756.68 92.37 758.22 90.83 753.19 85.8 758.22 80.78"/><polygon class="cls-6" points="736.9 57.02 735.37 55.48 730.34 60.51 725.32 55.48 723.78 57.02 728.81 62.05 723.78 67.07 725.32 68.61 730.34 63.58 735.37 68.61 736.9 67.07 731.88 62.05 736.9 57.02"/><polygon class="cls-6" points="758.22 57.02 756.68 55.48 751.66 60.51 746.63 55.48 745.09 57.02 750.12 62.05 745.09 67.07 746.63 68.61 751.66 63.58 756.68 68.61 758.22 67.07 753.19 62.05 758.22 57.02"/><polygon class="cls-4" points="288.84 146.64 288.84 144.6 282.17 144.6 282.17 137.93 280.13 137.93 280.13 144.6 273.46 144.6 273.46 146.64 280.13 146.64 280.13 153.31 282.17 153.31 282.17 146.64 288.84 146.64"/><circle class="cls-3" cx="399.48" cy="148.66" r="18.69"/><path class="cls-4" d="M391.34,148.71c0-3.76,2.19-6.06,5.24-6.06a4.36,4.36,0,0,1,3.2,1.43l-.85.94a3.14,3.14,0,0,0-2.35-1.05c-2.23,0-3.69,1.8-3.69,4.7s1.46,4.77,3.69,4.77a3.35,3.35,0,0,0,2.61-1.28l.86.91a4.51,4.51,0,0,1-3.61,1.69C393.55,154.76,391.34,152.52,391.34,148.71Z"/><path class="cls-4" d="M405.07,151.65v-8.59H402v-1.19h4.54v9.88a1.56,1.56,0,0,0,1.71,1.78,3.83,3.83,0,0,0,1.62-.39l.38,1.11a5.37,5.37,0,0,1-2.32.51C406.09,154.76,405.07,153.69,405.07,151.65Z"/><circle class="cls-5" cx="399.48" cy="148.66" r="42.4"/><rect class="cls-6" x="393.73" y="99.79" width="12.94" height="12.94" rx="6.47"/><rect class="cls-6" x="393.73" y="184.6" width="12.94" height="12.94" rx="6.47"/><circle class="cls-5" cx="399.48" cy="148.66" r="86.24"/><circle class="cls-5" cx="399.48" cy="148.66" r="64.68"/><rect class="cls-6" x="383.67" y="206.16" width="12.94" height="12.94" rx="6.47"/><rect class="cls-6" x="402.35" y="206.16" width="12.94" height="12.94" rx="6.47"/><rect class="cls-6" x="383.67" y="228.58" width="12.94" height="12.94" rx="6.47"/><rect class="cls-6" x="402.35" y="228.58" width="12.94" height="12.94" rx="6.47"/><rect class="cls-6" x="456.97" y="150.1" width="12.94" height="12.94" rx="6.47"/><rect class="cls-6" x="456.97" y="132.85" width="12.94" height="12.94" rx="6.47"/><rect class="cls-6" x="479.39" y="150.1" width="12.94" height="12.94" rx="6.47"/><rect class="cls-6" x="479.39" y="132.85" width="12.94" height="12.94" rx="6.47"/><rect class="cls-6" x="306.87" y="132.61" width="12.94" height="12.94" rx="6.47"/><rect class="cls-6" x="327.61" y="150.1" width="12.94" height="12.94" rx="6.47"/><rect class="cls-6" x="327.61" y="132.85" width="12.94" height="12.94" rx="6.47"/><rect class="cls-6" x="402.35" y="78.23" width="12.94" height="12.94" rx="6.47"/><rect class="cls-6" x="383.67" y="78.23" width="12.94" height="12.94" rx="6.47"/><rect class="cls-6" x="402.35" y="55.82" width="12.94" height="12.94" rx="6.47"/><rect class="cls-6" x="383.67" y="55.82" width="12.94" height="12.94" rx="6.47"/><circle class="cls-3" cx="899.38" cy="148.66" r="18.69"/><path class="cls-4" d="M891.24,148.71c0-3.76,2.19-6.06,5.24-6.06a4.36,4.36,0,0,1,3.2,1.43l-.85.94a3.16,3.16,0,0,0-2.35-1.05c-2.23,0-3.69,1.8-3.69,4.7s1.46,4.77,3.69,4.77a3.36,3.36,0,0,0,2.61-1.28l.86.91a4.52,4.52,0,0,1-3.62,1.69C893.45,154.76,891.24,152.52,891.24,148.71Z"/><path class="cls-4" d="M905,151.65v-8.59h-3.06v-1.19h4.54v9.88a1.56,1.56,0,0,0,1.71,1.78,3.86,3.86,0,0,0,1.62-.39l.37,1.11a5.36,5.36,0,0,1-2.31.51C906,154.76,905,153.69,905,151.65Z"/><circle class="cls-5" cx="899.38" cy="148.66" r="42.4"/><rect class="cls-6" x="893.63" y="99.79" width="12.94" height="12.94" rx="6.47"/><rect class="cls-6" x="893.63" y="184.6" width="12.94" height="12.94" rx="6.47"/><circle class="cls-5" cx="899.38" cy="148.66" r="86.24"/><circle class="cls-5" cx="899.38" cy="148.66" r="64.68"/><rect class="cls-6" x="883.57" y="206.16" width="12.94" height="12.94" rx="6.47"/><rect class="cls-6" x="902.25" y="206.16" width="12.94" height="12.94" rx="6.47"/><rect class="cls-6" x="883.57" y="228.58" width="12.94" height="12.94" rx="6.47"/><rect class="cls-6" x="902.25" y="228.58" width="12.94" height="12.94" rx="6.47"/><rect class="cls-6" x="956.87" y="150.1" width="12.94" height="12.94" rx="6.47"/><rect class="cls-6" x="956.87" y="132.85" width="12.94" height="12.94" rx="6.47"/><rect class="cls-6" x="979.29" y="150.1" width="12.94" height="12.94" rx="6.47"/><rect class="cls-6" x="979.29" y="132.85" width="12.94" height="12.94" rx="6.47"/><rect class="cls-6" x="830.07" y="147.54" width="12.94" height="12.94" rx="6.47"/><rect class="cls-6" x="830.07" y="130.29" width="12.94" height="12.94" rx="6.47"/><rect class="cls-6" x="902.25" y="78.23" width="12.94" height="12.94" rx="6.47"/><rect class="cls-6" x="883.57" y="78.23" width="12.94" height="12.94" rx="6.47"/><rect class="cls-6" x="902.25" y="55.82" width="12.94" height="12.94" rx="6.47"/><rect class="cls-6" x="883.57" y="55.82" width="12.94" height="12.94" rx="6.47"/><polygon class="cls-4" points="594.87 145.81 584.99 135.55 584.99 142.54 542.32 142.54 542.32 148.6 584.99 148.6 584.99 156.06 594.87 145.81"/><polygon class="cls-6" points="823.99 136.12 822.82 134.95 818.98 138.79 815.14 134.95 813.97 136.12 817.8 139.96 813.97 143.8 815.14 144.97 818.98 141.13 822.82 144.97 823.99 143.8 820.15 139.96 823.99 136.12"/><rect class="cls-6" x="814.56" y="147.02" width="9.88" height="9.88" rx="4.94"/><text class="cls-7" transform="translate(96.54 354.71)">1.	The proton number of chlorine atom, Cl is 17.<tspan x="0" y="26.2">2.	Hence, the electron arrangement of chlorine atom is 2.8.7</tspan><tspan x="0" y="52.4">3.	The chorine atom, needs one more electron to achieve a stable octet electron arrangement. </tspan><tspan x="0" y="78.6">4.	Each chlorine atom will contribute one electron to be shared between two chlorine atoms.</tspan><tspan x="0" y="104.8">5.	The sharing of one pair of electrons between two atoms forms a covalent single bond in a chlorine molecule Cl2.</tspan><tspan x="0" y="131">6.	Lewis Structure : </tspan></text><path class="cls-4" d="M283.75,511.56c0-8.93,5.2-14.38,12.44-14.38a10.38,10.38,0,0,1,7.61,3.38l-2,2.24a7.45,7.45,0,0,0-5.58-2.49c-5.29,0-8.76,4.27-8.76,11.16s3.47,11.34,8.76,11.34a8,8,0,0,0,6.22-3l2,2.16a10.73,10.73,0,0,1-8.59,4C289,525.94,283.75,520.61,283.75,511.56Z"/><path class="cls-4" d="M316.37,518.54V498.15h-7.28v-2.84h10.79v23.48c0,3,1.61,4.23,4.06,4.23a9.39,9.39,0,0,0,3.85-.93l.89,2.62a12.57,12.57,0,0,1-5.5,1.23C318.78,525.94,316.37,523.4,316.37,518.54Z"/><path class="cls-4" d="M350.25,511.56c0-8.93,5.2-14.38,12.43-14.38a10.4,10.4,0,0,1,7.62,3.38l-2,2.24a7.46,7.46,0,0,0-5.59-2.49c-5.28,0-8.75,4.27-8.75,11.16s3.47,11.34,8.75,11.34a8,8,0,0,0,6.22-3l2,2.16a10.73,10.73,0,0,1-8.59,4C355.49,525.94,350.25,520.61,350.25,511.56Z"/><path class="cls-4" d="M382.86,518.54V498.15h-7.27v-2.84h10.78v23.48c0,3,1.61,4.23,4.06,4.23a9.32,9.32,0,0,0,3.85-.93l.89,2.62a12.54,12.54,0,0,1-5.5,1.23C385.27,525.94,382.86,523.4,382.86,518.54Z"/><path class="cls-8" d="M363.83,482.3l-2.69-3.41h1.6l1.19,1.56c.28.41.59.8.88,1.19h.07c.27-.39.53-.78.79-1.19l1.1-1.56h1.54l-2.69,3.53,2.92,3.59h-1.63l-1.3-1.66c-.29-.44-.62-.87-.95-1.28h-.08c-.31.41-.6.84-.91,1.28L362.48,486h-1.56Z"/><path class="cls-8" d="M375.71,482.3,373,478.89h1.6l1.18,1.56c.28.41.59.8.88,1.19h.07c.28-.39.54-.78.8-1.19l1.09-1.56h1.55l-2.69,3.53,2.91,3.59h-1.62l-1.31-1.66c-.29-.44-.62-.87-.94-1.28h-.08c-.31.41-.61.84-.92,1.28L374.35,486h-1.56Z"/><path class="cls-8" d="M404.81,504.12l3.42-2.69V503l-1.57,1.19c-.4.28-.8.59-1.19.88v.07c.39.28.79.54,1.19.8l1.57,1.09v1.55l-3.53-2.69-3.6,2.91v-1.63l1.67-1.3c.43-.29.86-.62,1.27-.94v-.09l-1.27-.91-1.67-1.19V501.2Z"/><path class="cls-8" d="M404.81,516l3.42-2.69v1.6l-1.57,1.19c-.4.27-.8.58-1.19.88V517c.39.28.79.54,1.19.8l1.57,1.09v1.55l-3.53-2.69-3.6,2.92v-1.63l1.67-1.3c.43-.3.86-.62,1.27-.95v-.08c-.41-.31-.84-.6-1.27-.91l-1.67-1.19v-1.57Z"/><path class="cls-8" d="M337.57,516,341,513.3v1.6l-1.56,1.19c-.41.27-.8.58-1.19.88V517c.39.28.78.54,1.19.8l1.56,1.09v1.55l-3.53-2.69-3.59,2.92v-1.63l1.66-1.3c.44-.3.87-.62,1.28-.95v-.08c-.41-.31-.84-.6-1.28-.91l-1.66-1.19v-1.57Z"/><path class="cls-8" d="M363.83,539.3l-2.69-3.42h1.6l1.19,1.57c.28.4.59.8.88,1.19h.07c.27-.39.53-.79.79-1.19l1.1-1.57h1.54l-2.69,3.53,2.92,3.6h-1.63l-1.3-1.67c-.29-.43-.62-.86-.95-1.27h-.08c-.31.41-.6.84-.91,1.27L362.48,543h-1.56Z"/><path class="cls-8" d="M375.71,539.3,373,535.88h1.6l1.18,1.57c.28.4.59.8.88,1.19h.07c.28-.39.54-.79.8-1.19l1.09-1.57h1.55l-2.69,3.53,2.91,3.6h-1.62l-1.31-1.67c-.29-.43-.62-.86-.94-1.27h-.08c-.31.41-.61.84-.92,1.27L374.35,543h-1.56Z"/><rect class="cls-8" x="307.22" y="478.89" width="7.12" height="7.12" rx="3.56"/><rect class="cls-8" x="295.35" y="478.89" width="7.12" height="7.12" rx="3.56"/><rect class="cls-8" x="269.23" y="514.51" width="7.12" height="7.12" rx="3.56" transform="translate(790.86 245.29) rotate(90)"/><rect class="cls-8" x="269.23" y="502.64" width="7.12" height="7.12" rx="3.56" transform="translate(778.99 233.41) rotate(90)"/><rect class="cls-8" x="333.35" y="502.64" width="7.12" height="7.12" rx="3.56" transform="translate(843.11 169.29) rotate(90)"/><rect class="cls-8" x="307.22" y="535.88" width="7.12" height="7.12" rx="3.56"/><rect class="cls-8" x="295.35" y="535.88" width="7.12" height="7.12" rx="3.56"/></g></g></svg>