<svg xmlns="http://www.w3.org/2000/svg" viewBox="0 0 461.94 462.7"><defs><style>.cls-1{fill:#c660a5;}.cls-2{fill:#010101;}.cls-3{fill:none;stroke:#1a3d41;stroke-miterlimit:10;}.cls-4{fill:#f1564e;}.cls-5{fill:#437e7b;}</style></defs><g id="Layer_2" data-name="Layer 2"><g id="Layer_1-2" data-name="Layer 1"><circle class="cls-1" cx="231.49" cy="231.43" r="18.38"/><circle class="cls-1" cx="231.49" cy="231.43" r="18.38"/><path class="cls-2" d="M226.64,230.28c0-4.16,2.43-6.7,5.8-6.7a4.89,4.89,0,0,1,3.55,1.57l-1,1a3.46,3.46,0,0,0-2.6-1.16c-2.47,0-4.08,2-4.08,5.2s1.61,5.28,4.08,5.28a3.73,3.73,0,0,0,2.9-1.42l.94,1a5,5,0,0,1-4,1.87C229.09,237,226.64,234.5,226.64,230.28Z"/><circle class="cls-3" cx="231.49" cy="231.43" r="63.64"/><circle class="cls-3" cx="231.49" cy="231.43" r="43.64"/><circle class="cls-4" cx="369.09" cy="231.85" r="18.69"/><path class="cls-2" d="M361,231.89c0-3.76,2.19-6,5.24-6a4.36,4.36,0,0,1,3.2,1.42l-.85,1a3.1,3.1,0,0,0-2.35-1.05c-2.23,0-3.69,1.79-3.69,4.7s1.46,4.77,3.69,4.77a3.36,3.36,0,0,0,2.61-1.28l.86.9A4.53,4.53,0,0,1,366,238C363.16,238,361,235.7,361,231.89Z"/><path class="cls-2" d="M374.68,234.83v-8.58h-3.06v-1.2h4.54v9.89a1.57,1.57,0,0,0,1.71,1.78,4,4,0,0,0,1.62-.39l.38,1.1a5.3,5.3,0,0,1-2.32.52C375.7,238,374.68,236.88,374.68,234.83Z"/><circle class="cls-3" cx="369.09" cy="231.85" r="42.4"/><rect class="cls-5" x="363.34" y="182.98" width="12.94" height="12.94" rx="6.47"/><rect class="cls-5" x="363.34" y="267.78" width="12.94" height="12.94" rx="6.47"/><circle class="cls-3" cx="369.09" cy="231.85" r="86.24"/><circle class="cls-3" cx="369.09" cy="231.85" r="64.68"/><rect class="cls-5" x="353.28" y="289.34" width="12.94" height="12.94" rx="6.47"/><rect class="cls-5" x="371.96" y="289.34" width="12.94" height="12.94" rx="6.47"/><rect class="cls-5" x="353.28" y="311.76" width="12.94" height="12.94" rx="6.47"/><rect class="cls-5" x="371.96" y="311.76" width="12.94" height="12.94" rx="6.47"/><rect class="cls-5" x="426.58" y="233.29" width="12.94" height="12.94" rx="6.47"/><rect class="cls-5" x="426.58" y="216.04" width="12.94" height="12.94" rx="6.47"/><rect class="cls-5" x="449" y="233.29" width="12.94" height="12.94" rx="6.47"/><rect class="cls-5" x="449" y="216.04" width="12.94" height="12.94" rx="6.47"/><rect class="cls-5" x="281.48" y="215.79" width="12.94" height="12.94" rx="6.47"/><rect class="cls-5" x="297.22" y="233.29" width="12.94" height="12.94" rx="6.47"/><rect class="cls-5" x="297.22" y="216.04" width="12.94" height="12.94" rx="6.47"/><rect class="cls-5" x="371.96" y="161.42" width="12.94" height="12.94" rx="6.47"/><rect class="cls-5" x="353.28" y="161.42" width="12.94" height="12.94" rx="6.47"/><rect class="cls-5" x="371.96" y="139" width="12.94" height="12.94" rx="6.47"/><rect class="cls-5" x="353.28" y="139" width="12.94" height="12.94" rx="6.47"/><circle class="cls-4" cx="233.09" cy="369.85" r="18.69"/><path class="cls-2" d="M225,369.89c0-3.76,2.19-6.05,5.24-6.05a4.36,4.36,0,0,1,3.2,1.42l-.85.95a3.1,3.1,0,0,0-2.35-1c-2.23,0-3.69,1.79-3.69,4.7s1.46,4.77,3.69,4.77a3.36,3.36,0,0,0,2.61-1.28l.86.9A4.53,4.53,0,0,1,230,376C227.16,376,225,373.7,225,369.89Z"/><path class="cls-2" d="M238.68,372.83v-8.58h-3.06v-1.2h4.54v9.89a1.57,1.57,0,0,0,1.71,1.78,4,4,0,0,0,1.62-.39l.38,1.1a5.3,5.3,0,0,1-2.32.52C239.7,376,238.68,374.88,238.68,372.83Z"/><circle class="cls-3" cx="233.09" cy="369.85" r="42.4"/><rect class="cls-5" x="227.34" y="320.98" width="12.94" height="12.94" rx="6.47"/><rect class="cls-5" x="227.34" y="405.78" width="12.94" height="12.94" rx="6.47"/><circle class="cls-3" cx="233.09" cy="369.85" r="86.24"/><circle class="cls-3" cx="233.09" cy="369.85" r="64.68"/><rect class="cls-5" x="217.28" y="427.34" width="12.94" height="12.94" rx="6.47"/><rect class="cls-5" x="235.96" y="427.34" width="12.94" height="12.94" rx="6.47"/><rect class="cls-5" x="217.28" y="449.76" width="12.94" height="12.94" rx="6.47"/><rect class="cls-5" x="235.96" y="449.76" width="12.94" height="12.94" rx="6.47"/><rect class="cls-5" x="290.58" y="371.29" width="12.94" height="12.94" rx="6.47"/><rect class="cls-5" x="290.58" y="354.04" width="12.94" height="12.94" rx="6.47"/><rect class="cls-5" x="313" y="371.29" width="12.94" height="12.94" rx="6.47"/><rect class="cls-5" x="313" y="354.04" width="12.94" height="12.94" rx="6.47"/><rect class="cls-5" x="140" y="371.29" width="12.94" height="12.94" rx="6.47"/><rect class="cls-5" x="140" y="354.04" width="12.94" height="12.94" rx="6.47"/><rect class="cls-5" x="161.22" y="371.29" width="12.94" height="12.94" rx="6.47"/><rect class="cls-5" x="161.22" y="354.04" width="12.94" height="12.94" rx="6.47"/><rect class="cls-5" x="235.96" y="299.42" width="12.94" height="12.94" rx="6.47"/><rect class="cls-5" x="217.28" y="299.42" width="12.94" height="12.94" rx="6.47"/><circle class="cls-4" cx="232.09" cy="92.85" r="18.69"/><path class="cls-2" d="M224,92.89c0-3.76,2.19-6,5.24-6a4.36,4.36,0,0,1,3.2,1.42l-.85.95a3.1,3.1,0,0,0-2.35-1c-2.23,0-3.69,1.79-3.69,4.7s1.46,4.77,3.69,4.77a3.36,3.36,0,0,0,2.61-1.28l.86.9A4.53,4.53,0,0,1,229,99C226.16,99,224,96.7,224,92.89Z"/><path class="cls-2" d="M237.68,95.83V87.25h-3.06v-1.2h4.54v9.89a1.57,1.57,0,0,0,1.71,1.78,4,4,0,0,0,1.62-.39l.38,1.1a5.3,5.3,0,0,1-2.32.52C238.7,99,237.68,97.88,237.68,95.83Z"/><circle class="cls-3" cx="232.09" cy="92.85" r="42.4"/><rect class="cls-5" x="226.34" y="43.98" width="12.94" height="12.94" rx="6.47"/><rect class="cls-5" x="226.34" y="128.78" width="12.94" height="12.94" rx="6.47"/><circle class="cls-3" cx="232.09" cy="92.85" r="86.24"/><circle class="cls-3" cx="232.09" cy="92.85" r="64.68"/><rect class="cls-5" x="216.28" y="150.34" width="12.94" height="12.94" rx="6.47"/><rect class="cls-5" x="234.96" y="150.34" width="12.94" height="12.94" rx="6.47"/><rect class="cls-5" x="289.58" y="94.29" width="12.94" height="12.94" rx="6.47"/><rect class="cls-5" x="289.58" y="77.04" width="12.94" height="12.94" rx="6.47"/><rect class="cls-5" x="312" y="94.29" width="12.94" height="12.94" rx="6.47"/><rect class="cls-5" x="312" y="77.04" width="12.94" height="12.94" rx="6.47"/><rect class="cls-5" x="139" y="94.29" width="12.94" height="12.94" rx="6.47"/><rect class="cls-5" x="139" y="77.04" width="12.94" height="12.94" rx="6.47"/><rect class="cls-5" x="217.48" y="165.79" width="12.94" height="12.94" rx="6.47"/><rect class="cls-5" x="217.48" y="282.79" width="12.94" height="12.94" rx="6.47"/><rect class="cls-5" x="160.22" y="94.29" width="12.94" height="12.94" rx="6.47"/><rect class="cls-5" x="160.22" y="77.04" width="12.94" height="12.94" rx="6.47"/><rect class="cls-5" x="234.96" y="22.42" width="12.94" height="12.94" rx="6.47"/><rect class="cls-5" x="216.28" y="22.42" width="12.94" height="12.94" rx="6.47"/><rect class="cls-5" x="234.96" width="12.94" height="12.94" rx="6.47"/><rect class="cls-5" x="216.28" width="12.94" height="12.94" rx="6.47"/><circle class="cls-4" cx="93.09" cy="231.85" r="18.69"/><path class="cls-2" d="M85,231.89c0-3.76,2.19-6,5.24-6a4.36,4.36,0,0,1,3.2,1.42l-.85,1a3.1,3.1,0,0,0-2.35-1.05c-2.23,0-3.69,1.79-3.69,4.7s1.46,4.77,3.69,4.77a3.36,3.36,0,0,0,2.61-1.28l.86.9A4.53,4.53,0,0,1,90,238C87.16,238,85,235.7,85,231.89Z"/><path class="cls-2" d="M98.68,234.83v-8.58H95.62v-1.2h4.54v9.89a1.57,1.57,0,0,0,1.71,1.78,4,4,0,0,0,1.62-.39l.38,1.1a5.3,5.3,0,0,1-2.32.52C99.7,238,98.68,236.88,98.68,234.83Z"/><circle class="cls-3" cx="93.09" cy="231.85" r="42.4"/><rect class="cls-5" x="87.34" y="182.98" width="12.94" height="12.94" rx="6.47"/><rect class="cls-5" x="87.34" y="267.78" width="12.94" height="12.94" rx="6.47"/><circle class="cls-3" cx="93.09" cy="231.85" r="86.24"/><circle class="cls-3" cx="93.09" cy="231.85" r="64.68"/><rect class="cls-5" x="77.28" y="289.34" width="12.94" height="12.94" rx="6.47"/><rect class="cls-5" x="95.96" y="289.34" width="12.94" height="12.94" rx="6.47"/><rect class="cls-5" x="77.28" y="311.76" width="12.94" height="12.94" rx="6.47"/><rect class="cls-5" x="95.96" y="311.76" width="12.94" height="12.94" rx="6.47"/><rect class="cls-5" x="150.58" y="233.29" width="12.94" height="12.94" rx="6.47"/><rect class="cls-5" x="150.58" y="216.04" width="12.94" height="12.94" rx="6.47"/><rect class="cls-5" y="233.29" width="12.94" height="12.94" rx="6.47"/><rect class="cls-5" y="216.04" width="12.94" height="12.94" rx="6.47"/><rect class="cls-5" x="167.48" y="215.79" width="12.94" height="12.94" rx="6.47"/><rect class="cls-5" x="21.22" y="233.29" width="12.94" height="12.94" rx="6.47"/><rect class="cls-5" x="21.22" y="216.04" width="12.94" height="12.94" rx="6.47"/><rect class="cls-5" x="95.96" y="161.42" width="12.94" height="12.94" rx="6.47"/><rect class="cls-5" x="77.28" y="161.42" width="12.94" height="12.94" rx="6.47"/><rect class="cls-5" x="95.96" y="139" width="12.94" height="12.94" rx="6.47"/><rect class="cls-5" x="77.28" y="139" width="12.94" height="12.94" rx="6.47"/><polygon class="cls-5" points="238.31 182.64 236.77 181.11 231.74 186.13 226.72 181.11 225.18 182.64 230.21 187.67 225.18 192.69 226.72 194.23 231.74 189.21 236.77 194.23 238.31 192.69 233.28 187.67 238.31 182.64"/><polygon class="cls-5" points="246.31 168.64 244.77 167.11 239.74 172.13 234.72 167.11 233.18 168.64 238.21 173.67 233.18 178.69 234.72 180.23 239.74 175.21 244.77 180.23 246.31 178.69 241.28 173.67 246.31 168.64"/><polygon class="cls-5" points="246.31 284.64 244.77 283.11 239.74 288.13 234.72 283.11 233.18 284.64 238.21 289.67 233.18 294.69 234.72 296.23 239.74 291.2 244.77 296.23 246.31 294.69 241.28 289.67 246.31 284.64"/><polygon class="cls-5" points="294.31 233.64 292.77 232.11 287.74 237.13 282.72 232.11 281.18 233.64 286.21 238.67 281.18 243.69 282.72 245.23 287.74 240.21 292.77 245.23 294.31 243.69 289.28 238.67 294.31 233.64"/><polygon class="cls-5" points="238.31 269.64 236.77 268.11 231.74 273.13 226.72 268.11 225.18 269.64 230.21 274.67 225.18 279.69 226.72 281.23 231.74 276.2 236.77 281.23 238.31 279.69 233.28 274.67 238.31 269.64"/><polygon class="cls-5" points="180.31 234.64 178.77 233.11 173.74 238.13 168.72 233.11 167.18 234.64 172.21 239.67 167.18 244.69 168.72 246.23 173.74 241.21 178.77 246.23 180.31 244.69 175.28 239.67 180.31 234.64"/></g></g></svg>