<svg xmlns="http://www.w3.org/2000/svg" viewBox="0 0 732.5 399.87"><defs><style>.cls-1{fill:none;}.cls-1,.cls-6{stroke:#193c40;stroke-miterlimit:10;stroke-width:2px;}.cls-2,.cls-6{fill:#193c40;}.cls-3{fill:#ecb390;}.cls-4,.cls-5{fill:#231f20;}.cls-5{font-size:16px;font-family:NotoSansSC-Regular-90ms-RKSJ-H, Noto Sans SC;}</style></defs><g id="Layer_2" data-name="Layer 2"><g id="Layer_1-2" data-name="Layer 1"><polyline class="cls-1" points="555 183 555 347 578 347"/><line class="cls-1" x1="578" y1="240" x2="555.06" y2="240"/><rect class="cls-2" x="278" y="2.99" width="194.5" height="62.01" rx="14.22"/><rect class="cls-3" x="273" width="194.5" height="62.01" rx="14.22"/><path class="cls-4" d="M342.62,17.11h-3.55V15.85h8.59v1.26h-3.55V27.6h-1.49Z"/><path class="cls-4" d="M352.22,23l-3.52-7.18h1.59l1.5,3.33c.38.86.74,1.68,1.15,2.56H353c.41-.88.81-1.7,1.16-2.56l1.53-3.33h1.53L353.71,23V27.6h-1.49Z"/><path class="cls-4" d="M359.61,15.85H363c2.63,0,4.39.89,4.39,3.45s-1.74,3.64-4.32,3.64H361.1V27.6h-1.49Zm3.24,5.89c2.06,0,3-.76,3-2.44s-1-2.24-3.11-2.24H361.1v4.68Z"/><path class="cls-4" d="M370.52,15.85h6.78v1.26H372v3.68h4.45v1.27H372v4.27h5.46V27.6h-7Z"/><path class="cls-4" d="M384.44,21.69c0-3.76,2.07-6.05,5-6.05s5,2.29,5,6.05-2.06,6.11-5,6.11S384.44,25.45,384.44,21.69Zm8.5,0c0-3-1.39-4.75-3.48-4.75S386,18.74,386,21.69s1.37,4.82,3.49,4.82S392.94,24.62,392.94,21.69Z"/><path class="cls-4" d="M397.79,15.85h6.77v1.26h-5.28v4h4.48v1.25h-4.48V27.6h-1.49Z"/><path class="cls-4" d="M304,40.94c0-3.8,2.23-6.1,5.2-6.1a4.31,4.31,0,0,1,3.22,1.46l-.8,1a3.19,3.19,0,0,0-2.4-1.12c-2.23,0-3.7,1.82-3.7,4.75s1.41,4.82,3.65,4.82a3.58,3.58,0,0,0,2.72-1.31l.82.92a4.51,4.51,0,0,1-3.6,1.68C306.21,47,304,44.75,304,40.94Z"/><path class="cls-4" d="M314.52,40.89c0-3.76,2.06-6,5-6s5,2.29,5,6-2.07,6.11-5,6.11S314.52,44.65,314.52,40.89Zm8.5,0c0-3-1.4-4.75-3.49-4.75S316,37.94,316,40.89s1.37,4.82,3.49,4.82S323,43.82,323,40.89Z"/><path class="cls-4" d="M326.1,35.05h1.55l1.91,6.37c.41,1.37.69,2.49,1.13,3.87h.07c.43-1.38.72-2.5,1.14-3.87l1.88-6.37h1.51L331.56,46.8h-1.71Z"/><path class="cls-4" d="M339.88,35.05h1.65l4,11.75h-1.57l-1.12-3.59h-4.29L337.4,46.8h-1.51Zm-1,7h3.56l-.56-1.8c-.44-1.33-.81-2.61-1.19-4h-.06c-.37,1.38-.76,2.64-1.17,4Z"/><path class="cls-4" d="M348,35.05h1.49V45.53h5.12V46.8H348Z"/><path class="cls-4" d="M357.45,35.05h6.77v1.26h-5.29V40h4.45v1.27h-4.45v4.27h5.46V46.8h-6.94Z"/><path class="cls-4" d="M367.65,35.05h1.54l4.27,7.41,1.25,2.42h.08c-.08-1.19-.19-2.5-.19-3.72V35.05H376V46.8h-1.52l-4.28-7.42L369,37h-.06c.06,1.18.17,2.43.17,3.66V46.8h-1.41Z"/><path class="cls-4" d="M382.45,36.31H378.9V35.05h8.6v1.26h-3.56V46.8h-1.49Z"/><path class="cls-4" d="M394.77,35.05h3.49c2.39,0,4,.81,4,2.88a2.56,2.56,0,0,1-1.72,2.54v.08a2.71,2.71,0,0,1,2.39,2.8c0,2.31-1.83,3.45-4.45,3.45h-3.75Zm3.24,5c2,0,2.83-.76,2.83-1.94,0-1.38-.94-1.89-2.77-1.89h-1.81v3.83Zm.3,5.55c2,0,3.2-.72,3.2-2.3s-1.15-2.13-3.2-2.13h-2.05v4.43Z"/><path class="cls-4" d="M405.41,40.89c0-3.76,2.07-6,5-6s5,2.29,5,6-2.06,6.11-5,6.11S405.41,44.65,405.41,40.89Zm8.5,0c0-3-1.39-4.75-3.49-4.75s-3.49,1.8-3.49,4.75,1.38,4.82,3.49,4.82S413.91,43.82,413.91,40.89Z"/><path class="cls-4" d="M418.76,35.05h1.53l4.28,7.41,1.25,2.42h.08c-.08-1.19-.2-2.5-.2-3.72V35.05h1.41V46.8h-1.52l-4.27-7.42L420.05,37H420c.06,1.18.18,2.43.18,3.66V46.8h-1.41Z"/><path class="cls-4" d="M431.11,35.05h2.94c3.61,0,5.54,2.11,5.54,5.84s-1.93,5.91-5.47,5.91h-3Zm2.82,10.53c2.76,0,4.13-1.73,4.13-4.69s-1.37-4.63-4.13-4.63H432.6v9.32Z"/><rect class="cls-2" x="5" y="120.99" width="194.5" height="62.01" rx="14.22"/><rect class="cls-3" y="118" width="194.5" height="62.01" rx="14.22"/><text class="cls-5" transform="translate(47.97 152.6)">Single Bond</text><rect class="cls-2" x="47.9" y="211.99" width="151.6" height="62.01" rx="12.56"/><rect class="cls-3" x="44" y="209" width="151.6" height="62.01" rx="12.56"/><rect class="cls-2" x="47.9" y="304.55" width="151.6" height="94.45" rx="15.5"/><rect class="cls-3" x="44" y="300" width="151.6" height="94.45" rx="15.5"/><rect class="cls-2" x="316.9" y="318.62" width="151.6" height="54.38" rx="11.76"/><rect class="cls-3" x="313" y="316" width="151.6" height="54.38" rx="11.76"/><rect class="cls-2" x="580.9" y="319.62" width="151.6" height="54.38" rx="11.76"/><rect class="cls-3" x="577" y="317" width="151.6" height="54.38" rx="11.76"/><path class="cls-4" d="M62.36,234.06l.89-1a4.57,4.57,0,0,0,3.24,1.46c1.53,0,2.46-.77,2.46-1.92s-.85-1.59-2-2.08l-1.7-.74a3.31,3.31,0,0,1-2.38-3c0-1.81,1.57-3.12,3.7-3.12a4.77,4.77,0,0,1,3.45,1.46l-.78.94a3.81,3.81,0,0,0-2.67-1.1c-1.33,0-2.2.67-2.2,1.72s1,1.57,1.94,2l1.68.72c1.36.59,2.42,1.39,2.42,3.13s-1.54,3.33-4,3.33A5.6,5.6,0,0,1,62.36,234.06Z"/><path class="cls-4" d="M73.43,222.85h1.46v3.49l0,1.8a4.07,4.07,0,0,1,2.88-1.46c1.82,0,2.66,1.18,2.66,3.41v5.51H78.92v-5.32c0-1.63-.5-2.32-1.65-2.32-.9,0-1.5.45-2.38,1.33v6.31H73.43Z"/><path class="cls-4" d="M83.4,233.34c0-1.89,1.65-2.83,5.34-3.25,0-1.12-.36-2.19-1.79-2.19a4.75,4.75,0,0,0-2.61.93l-.57-1a6.46,6.46,0,0,1,3.42-1.14c2.11,0,3,1.42,3,3.57v5.35H89l-.13-1h-.05a4.69,4.69,0,0,1-2.88,1.24A2.35,2.35,0,0,1,83.4,233.34Zm5.34.14v-2.43c-2.93.35-3.92,1.07-3.92,2.19s.67,1.4,1.54,1.4A3.5,3.5,0,0,0,88.74,233.48Z"/><path class="cls-4" d="M93.77,226.9H95l.12,1.59h0a3,3,0,0,1,2.47-1.81,1.93,1.93,0,0,1,.93.19l-.28,1.28a2.08,2.08,0,0,0-.85-.14c-.72,0-1.61.51-2.19,2v5.59H93.77Z"/><path class="cls-4" d="M99.94,231.26c0-2.82,1.91-4.58,3.92-4.58,2.21,0,3.46,1.6,3.46,4.08a5.92,5.92,0,0,1-.06.83H101.4a2.88,2.88,0,0,0,2.88,3,3.77,3.77,0,0,0,2.18-.69l.52,1a5.18,5.18,0,0,1-2.88.89C101.8,235.8,99.94,234.12,99.94,231.26Zm6.1-.72c0-1.75-.8-2.69-2.16-2.69a2.67,2.67,0,0,0-2.5,2.69Z"/><path class="cls-4" d="M114,231.26c0-2.9,1.9-4.58,4-4.58s4,1.68,4,4.58-1.91,4.54-4,4.54S114,234.14,114,231.26Zm6.56,0c0-2-1-3.36-2.53-3.36s-2.51,1.36-2.51,3.36,1,3.33,2.51,3.33S120.55,233.26,120.55,231.26Z"/><path class="cls-4" d="M125.14,226.9h1.2l.13,1.25h0a4.19,4.19,0,0,1,2.91-1.47c1.82,0,2.66,1.18,2.66,3.41v5.51h-1.46v-5.32c0-1.63-.5-2.32-1.65-2.32a3.31,3.31,0,0,0-2.38,1.33v6.31h-1.46Z"/><path class="cls-4" d="M135.06,231.26c0-2.82,1.91-4.58,3.92-4.58,2.21,0,3.46,1.6,3.46,4.08a5.92,5.92,0,0,1-.06.83h-5.86a2.88,2.88,0,0,0,2.88,3,3.77,3.77,0,0,0,2.18-.69l.52,1a5.21,5.21,0,0,1-2.88.89C136.92,235.8,135.06,234.12,135.06,231.26Zm6.1-.72c0-1.75-.8-2.69-2.16-2.69a2.67,2.67,0,0,0-2.5,2.69Z"/><path class="cls-4" d="M149.76,226.9H151l.13,1h0a4.65,4.65,0,0,1,2.77-1.22c2.24,0,3.46,1.76,3.46,4.43,0,3-1.78,4.69-3.78,4.69a3.91,3.91,0,0,1-2.4-1l0,1.52v2.94h-1.46Zm6.09,4.23c0-1.92-.64-3.22-2.29-3.22a3.64,3.64,0,0,0-2.34,1.2v4.56a3.35,3.35,0,0,0,2.13.92C154.79,234.59,155.85,233.29,155.85,231.13Z"/><path class="cls-4" d="M159.68,233.34c0-1.89,1.65-2.83,5.35-3.25,0-1.12-.37-2.19-1.79-2.19a4.75,4.75,0,0,0-2.61.93l-.58-1a6.46,6.46,0,0,1,3.43-1.14c2.11,0,3,1.42,3,3.57v5.35h-1.2l-.13-1h0a4.69,4.69,0,0,1-2.88,1.24A2.35,2.35,0,0,1,159.68,233.34Zm5.35.14v-2.43c-2.93.35-3.92,1.07-3.92,2.19s.67,1.4,1.54,1.4A3.54,3.54,0,0,0,165,233.48Z"/><path class="cls-4" d="M169.81,224.14a1,1,0,1,1,1,1A.92.92,0,0,1,169.81,224.14Zm.24,2.76h1.46v8.7h-1.46Z"/><path class="cls-4" d="M175.25,226.9h1.2l.13,1.59h0a3,3,0,0,1,2.46-1.81,1.88,1.88,0,0,1,.93.19l-.27,1.28a2.11,2.11,0,0,0-.85-.14c-.72,0-1.61.51-2.19,2v5.59h-1.46Z"/><path class="cls-4" d="M87.92,250.46c0-2.82,1.9-4.58,3.92-4.58,2.21,0,3.46,1.6,3.46,4.08a5.73,5.73,0,0,1-.07.83H89.37a2.89,2.89,0,0,0,2.88,3.05,3.77,3.77,0,0,0,2.18-.69l.53,1a5.23,5.23,0,0,1-2.88.89C89.77,255,87.92,253.32,87.92,250.46Zm6.1-.72c0-1.75-.81-2.69-2.17-2.69a2.66,2.66,0,0,0-2.49,2.69Z"/><path class="cls-4" d="M98.24,253.07v-11h1.45v11.11c0,.45.2.63.42.63a1.33,1.33,0,0,0,.3,0l.21,1.12a2.29,2.29,0,0,1-.85.12C98.69,255,98.24,254.3,98.24,253.07Z"/><path class="cls-4" d="M102.94,250.46c0-2.82,1.91-4.58,3.92-4.58,2.21,0,3.46,1.6,3.46,4.08a5.92,5.92,0,0,1-.06.83H104.4a2.88,2.88,0,0,0,2.88,3.05,3.79,3.79,0,0,0,2.18-.69l.52,1a5.21,5.21,0,0,1-2.88.89C104.8,255,102.94,253.32,102.94,250.46Zm6.1-.72c0-1.75-.8-2.69-2.16-2.69a2.67,2.67,0,0,0-2.5,2.69Z"/><path class="cls-4" d="M112.6,250.46a4.23,4.23,0,0,1,4.2-4.58,3.72,3.72,0,0,1,2.54,1l-.75,1a2.56,2.56,0,0,0-1.73-.77c-1.58,0-2.74,1.36-2.74,3.36s1.09,3.33,2.69,3.33a3,3,0,0,0,2-.87l.64,1a4.21,4.21,0,0,1-2.81,1.1C114.38,255,112.6,253.34,112.6,250.46Z"/><path class="cls-4" d="M122.28,252.11v-4.82H121v-1.11l1.36-.08.17-2.44h1.22v2.44h2.35v1.19h-2.35v4.85c0,1.07.34,1.68,1.35,1.68a3.15,3.15,0,0,0,1-.22l.29,1.08a5.55,5.55,0,0,1-1.6.32C122.91,255,122.28,253.84,122.28,252.11Z"/><path class="cls-4" d="M128.86,246.1h1.2l.13,1.59h.05a3,3,0,0,1,2.46-1.81,1.88,1.88,0,0,1,.93.19l-.27,1.28a2.11,2.11,0,0,0-.85-.14c-.72,0-1.62.51-2.19,2v5.59h-1.46Z"/><path class="cls-4" d="M135,250.46c0-2.9,1.9-4.58,4-4.58s4,1.68,4,4.58-1.9,4.54-4,4.54S135,253.34,135,250.46Zm6.56,0c0-2-1-3.36-2.53-3.36s-2.51,1.36-2.51,3.36,1,3.33,2.51,3.33S141.6,252.46,141.6,250.46Z"/><path class="cls-4" d="M146.19,246.1h1.2l.13,1.25h0a4.21,4.21,0,0,1,2.92-1.47c1.82,0,2.66,1.18,2.66,3.41v5.51h-1.46v-5.32c0-1.63-.5-2.32-1.65-2.32-.9,0-1.5.45-2.38,1.33v6.31h-1.46Z"/><rect class="cls-2" x="316.9" y="211.99" width="151.6" height="62.01" rx="12.56"/><rect class="cls-3" x="313" y="209" width="151.6" height="62.01" rx="12.56"/><path class="cls-4" d="M331.28,234.06l.89-1a4.57,4.57,0,0,0,3.24,1.46c1.53,0,2.46-.77,2.46-1.92s-.85-1.59-1.95-2.08l-1.7-.74a3.31,3.31,0,0,1-2.38-3c0-1.81,1.57-3.12,3.7-3.12A4.77,4.77,0,0,1,339,225.1l-.78.94a3.81,3.81,0,0,0-2.67-1.1c-1.33,0-2.2.67-2.2,1.72s1,1.57,1.94,2l1.68.72c1.36.59,2.42,1.39,2.42,3.13s-1.54,3.33-4,3.33A5.6,5.6,0,0,1,331.28,234.06Z"/><path class="cls-4" d="M342.35,222.85h1.46v3.49l-.05,1.8a4.07,4.07,0,0,1,2.88-1.46c1.82,0,2.66,1.18,2.66,3.41v5.51h-1.46v-5.32c0-1.63-.5-2.32-1.65-2.32-.9,0-1.5.45-2.38,1.33v6.31h-1.46Z"/><path class="cls-4" d="M352.32,233.34c0-1.89,1.65-2.83,5.34-3.25,0-1.12-.37-2.19-1.79-2.19a4.75,4.75,0,0,0-2.61.93l-.57-1a6.46,6.46,0,0,1,3.42-1.14c2.11,0,3,1.42,3,3.57v5.35h-1.2l-.13-1h-.05a4.69,4.69,0,0,1-2.88,1.24A2.35,2.35,0,0,1,352.32,233.34Zm5.34.14v-2.43c-2.93.35-3.92,1.07-3.92,2.19s.67,1.4,1.54,1.4A3.52,3.52,0,0,0,357.66,233.48Z"/><path class="cls-4" d="M362.69,226.9h1.2l.12,1.59h.05a3,3,0,0,1,2.47-1.81,1.93,1.93,0,0,1,.93.19l-.28,1.28a2.08,2.08,0,0,0-.85-.14c-.72,0-1.61.51-2.19,2v5.59h-1.45Z"/><path class="cls-4" d="M368.86,231.26c0-2.82,1.91-4.58,3.92-4.58,2.21,0,3.46,1.6,3.46,4.08a5.92,5.92,0,0,1-.06.83h-5.86a2.88,2.88,0,0,0,2.88,3,3.77,3.77,0,0,0,2.18-.69l.52,1a5.18,5.18,0,0,1-2.88.89C370.72,235.8,368.86,234.12,368.86,231.26Zm6.1-.72c0-1.75-.8-2.69-2.16-2.69a2.67,2.67,0,0,0-2.5,2.69Z"/><path class="cls-4" d="M383.82,232.91v-4.82h-1.3V227l1.36-.08.18-2.44h1.22v2.44h2.35v1.19h-2.35v4.85c0,1.07.33,1.68,1.34,1.68a3,3,0,0,0,1-.22l.29,1.08a5.42,5.42,0,0,1-1.6.32C384.45,235.8,383.82,234.64,383.82,232.91Z"/><path class="cls-4" d="M389.36,226.9h1.49l1.29,5c.18.83.35,1.62.51,2.43h.08c.2-.81.37-1.61.6-2.43l1.34-5h1.43l1.36,5c.2.83.4,1.62.6,2.43h.07c.19-.81.35-1.6.54-2.43l1.28-5h1.38L399,235.6h-1.76L396,230.91c-.23-.82-.39-1.62-.59-2.5h-.09c-.19.88-.36,1.7-.59,2.53l-1.21,4.66h-1.72Z"/><path class="cls-4" d="M403.31,231.26c0-2.9,1.9-4.58,4-4.58s4,1.68,4,4.58-1.91,4.54-4,4.54S403.31,234.14,403.31,231.26Zm6.56,0c0-2-1-3.36-2.53-3.36s-2.51,1.36-2.51,3.36,1,3.33,2.51,3.33S409.87,233.26,409.87,231.26Z"/><path class="cls-4" d="M418.84,226.9H420l.13,1h.05a4.65,4.65,0,0,1,2.77-1.22c2.24,0,3.46,1.76,3.46,4.43,0,3-1.78,4.69-3.78,4.69a3.91,3.91,0,0,1-2.4-1l0,1.52v2.94h-1.46Zm6.09,4.23c0-1.92-.64-3.22-2.29-3.22a3.64,3.64,0,0,0-2.34,1.2v4.56a3.35,3.35,0,0,0,2.13.92C423.87,234.59,424.93,233.29,424.93,231.13Z"/><path class="cls-4" d="M428.76,233.34c0-1.89,1.65-2.83,5.35-3.25,0-1.12-.37-2.19-1.79-2.19a4.75,4.75,0,0,0-2.61.93l-.58-1a6.49,6.49,0,0,1,3.43-1.14c2.11,0,3,1.42,3,3.57v5.35h-1.2l-.13-1h-.05a4.69,4.69,0,0,1-2.88,1.24A2.35,2.35,0,0,1,428.76,233.34Zm5.35.14v-2.43c-2.93.35-3.92,1.07-3.92,2.19s.67,1.4,1.54,1.4A3.54,3.54,0,0,0,434.11,233.48Z"/><path class="cls-4" d="M438.89,224.14a1,1,0,1,1,1,1A.92.92,0,0,1,438.89,224.14Zm.24,2.76h1.46v8.7h-1.46Z"/><path class="cls-4" d="M444.33,226.9h1.2l.13,1.59h0a3,3,0,0,1,2.46-1.81,1.88,1.88,0,0,1,.93.19l-.27,1.28A2.11,2.11,0,0,0,448,228c-.72,0-1.61.51-2.19,2v5.59h-1.46Z"/><path class="cls-4" d="M356.92,250.46c0-2.82,1.9-4.58,3.92-4.58,2.21,0,3.46,1.6,3.46,4.08a5.73,5.73,0,0,1-.07.83h-5.86a2.89,2.89,0,0,0,2.88,3.05,3.77,3.77,0,0,0,2.18-.69l.53,1a5.23,5.23,0,0,1-2.88.89C358.77,255,356.92,253.32,356.92,250.46Zm6.1-.72c0-1.75-.81-2.69-2.17-2.69a2.66,2.66,0,0,0-2.49,2.69Z"/><path class="cls-4" d="M367.24,253.07v-11h1.45v11.11c0,.45.2.63.42.63a1.33,1.33,0,0,0,.3,0l.21,1.12a2.29,2.29,0,0,1-.85.12C367.69,255,367.24,254.3,367.24,253.07Z"/><path class="cls-4" d="M371.94,250.46c0-2.82,1.91-4.58,3.92-4.58,2.21,0,3.46,1.6,3.46,4.08a5.92,5.92,0,0,1-.06.83H373.4a2.88,2.88,0,0,0,2.88,3.05,3.79,3.79,0,0,0,2.18-.69l.52,1a5.21,5.21,0,0,1-2.88.89C373.8,255,371.94,253.32,371.94,250.46Zm6.1-.72c0-1.75-.8-2.69-2.16-2.69a2.67,2.67,0,0,0-2.5,2.69Z"/><path class="cls-4" d="M381.6,250.46a4.23,4.23,0,0,1,4.2-4.58,3.72,3.72,0,0,1,2.54,1l-.75,1a2.56,2.56,0,0,0-1.73-.77c-1.58,0-2.74,1.36-2.74,3.36s1.09,3.33,2.69,3.33a3,3,0,0,0,2.05-.87l.64,1a4.21,4.21,0,0,1-2.81,1.1C383.38,255,381.6,253.34,381.6,250.46Z"/><path class="cls-4" d="M391.28,252.11v-4.82H390v-1.11l1.36-.08.17-2.44h1.22v2.44h2.35v1.19h-2.35v4.85c0,1.07.34,1.68,1.35,1.68a3.15,3.15,0,0,0,1-.22l.29,1.08a5.55,5.55,0,0,1-1.6.32C391.91,255,391.28,253.84,391.28,252.11Z"/><path class="cls-4" d="M397.86,246.1h1.2l.13,1.59h.05a3,3,0,0,1,2.46-1.81,1.88,1.88,0,0,1,.93.19l-.27,1.28a2.11,2.11,0,0,0-.85-.14c-.72,0-1.62.51-2.19,2v5.59h-1.46Z"/><path class="cls-4" d="M404,250.46c0-2.9,1.9-4.58,4-4.58s4,1.68,4,4.58-1.9,4.54-4,4.54S404,253.34,404,250.46Zm6.56,0c0-2-1-3.36-2.53-3.36s-2.51,1.36-2.51,3.36,1,3.33,2.51,3.33S410.6,252.46,410.6,250.46Z"/><path class="cls-4" d="M415.19,246.1h1.2l.13,1.25h0a4.21,4.21,0,0,1,2.92-1.47c1.82,0,2.66,1.18,2.66,3.41v5.51h-1.46v-5.32c0-1.63-.5-2.32-1.65-2.32-.9,0-1.5.45-2.38,1.33v6.31h-1.46Z"/><rect class="cls-2" x="578.9" y="211.99" width="151.6" height="62.01" rx="12.56"/><rect class="cls-3" x="575" y="209" width="151.6" height="62.01" rx="12.56"/><path class="cls-4" d="M587,234.06l.9-1a4.55,4.55,0,0,0,3.23,1.46c1.54,0,2.47-.77,2.47-1.92s-.85-1.59-2-2.08l-1.69-.74a3.32,3.32,0,0,1-2.39-3c0-1.81,1.57-3.12,3.7-3.12a4.8,4.8,0,0,1,3.46,1.46l-.79.94a3.8,3.8,0,0,0-2.67-1.1c-1.33,0-2.19.67-2.19,1.72s1,1.57,1.93,2l1.69.72c1.36.59,2.41,1.39,2.41,3.13s-1.53,3.33-4,3.33A5.63,5.63,0,0,1,587,234.06Z"/><path class="cls-4" d="M598,222.85h1.46v3.49l0,1.8a4.09,4.09,0,0,1,2.88-1.46c1.83,0,2.66,1.18,2.66,3.41v5.51h-1.45v-5.32c0-1.63-.5-2.32-1.65-2.32a3.31,3.31,0,0,0-2.39,1.33v6.31H598Z"/><path class="cls-4" d="M608,233.34c0-1.89,1.65-2.83,5.35-3.25,0-1.12-.37-2.19-1.79-2.19a4.75,4.75,0,0,0-2.61.93l-.58-1a6.46,6.46,0,0,1,3.43-1.14c2.11,0,3,1.42,3,3.57v5.35h-1.2l-.13-1h0a4.69,4.69,0,0,1-2.88,1.24A2.35,2.35,0,0,1,608,233.34Zm5.35.14v-2.43c-2.93.35-3.92,1.07-3.92,2.19s.67,1.4,1.53,1.4A3.54,3.54,0,0,0,613.36,233.48Z"/><path class="cls-4" d="M618.38,226.9h1.2l.13,1.59h0a3,3,0,0,1,2.46-1.81,1.88,1.88,0,0,1,.93.19l-.27,1.28A2.11,2.11,0,0,0,622,228c-.72,0-1.62.51-2.19,2v5.59h-1.46Z"/><path class="cls-4" d="M624.56,231.26c0-2.82,1.9-4.58,3.92-4.58,2.21,0,3.46,1.6,3.46,4.08a5.73,5.73,0,0,1-.07.83H626a2.89,2.89,0,0,0,2.88,3,3.77,3.77,0,0,0,2.18-.69l.53,1a5.23,5.23,0,0,1-2.88.89C626.41,235.8,624.56,234.12,624.56,231.26Zm6.1-.72c0-1.75-.81-2.69-2.17-2.69a2.66,2.66,0,0,0-2.49,2.69Z"/><path class="cls-4" d="M639.52,232.91v-4.82h-1.3V227l1.36-.08.18-2.44H641v2.44h2.36v1.19H641v4.85c0,1.07.34,1.68,1.35,1.68a3.15,3.15,0,0,0,1-.22l.29,1.08a5.48,5.48,0,0,1-1.6.32C640.14,235.8,639.52,234.64,639.52,232.91Z"/><path class="cls-4" d="M646.09,222.85h1.46v3.49l0,1.8a4.09,4.09,0,0,1,2.88-1.46c1.83,0,2.66,1.18,2.66,3.41v5.51h-1.46v-5.32c0-1.63-.49-2.32-1.65-2.32a3.31,3.31,0,0,0-2.38,1.33v6.31h-1.46Z"/><path class="cls-4" d="M656.6,226.9h1.2l.13,1.59H658a3,3,0,0,1,2.47-1.81,1.87,1.87,0,0,1,.92.19l-.27,1.28a2.08,2.08,0,0,0-.85-.14c-.72,0-1.61.51-2.19,2v5.59H656.6Z"/><path class="cls-4" d="M662.78,231.26c0-2.82,1.91-4.58,3.92-4.58,2.21,0,3.46,1.6,3.46,4.08a5.92,5.92,0,0,1-.06.83h-5.86a2.88,2.88,0,0,0,2.88,3,3.74,3.74,0,0,0,2.17-.69l.53,1a5.21,5.21,0,0,1-2.88.89C664.64,235.8,662.78,234.12,662.78,231.26Zm6.1-.72c0-1.75-.8-2.69-2.16-2.69a2.67,2.67,0,0,0-2.5,2.69Z"/><path class="cls-4" d="M672.44,231.26c0-2.82,1.91-4.58,3.93-4.58,2.2,0,3.45,1.6,3.45,4.08a5.92,5.92,0,0,1-.06.83H673.9a2.89,2.89,0,0,0,2.88,3A3.77,3.77,0,0,0,679,234l.53,1a5.23,5.23,0,0,1-2.88.89C674.3,235.8,672.44,234.12,672.44,231.26Zm6.1-.72c0-1.75-.8-2.69-2.16-2.69a2.67,2.67,0,0,0-2.5,2.69Z"/><path class="cls-4" d="M687.15,226.9h1.2l.13,1h0a4.68,4.68,0,0,1,2.77-1.22c2.24,0,3.46,1.76,3.46,4.43,0,3-1.78,4.69-3.78,4.69a3.93,3.93,0,0,1-2.4-1l0,1.52v2.94h-1.45Zm6.08,4.23c0-1.92-.64-3.22-2.29-3.22a3.67,3.67,0,0,0-2.34,1.2v4.56a3.37,3.37,0,0,0,2.13.92C692.17,234.59,693.23,233.29,693.23,231.13Z"/><path class="cls-4" d="M697.07,233.34c0-1.89,1.65-2.83,5.34-3.25,0-1.12-.36-2.19-1.79-2.19a4.75,4.75,0,0,0-2.61.93l-.57-1a6.46,6.46,0,0,1,3.42-1.14c2.11,0,3,1.42,3,3.57v5.35h-1.2l-.13-1h0a4.67,4.67,0,0,1-2.88,1.24A2.35,2.35,0,0,1,697.07,233.34Zm5.34.14v-2.43c-2.93.35-3.92,1.07-3.92,2.19s.68,1.4,1.54,1.4A3.5,3.5,0,0,0,702.41,233.48Z"/><path class="cls-4" d="M707.2,224.14a1,1,0,1,1,1,1A.91.91,0,0,1,707.2,224.14Zm.24,2.76h1.45v8.7h-1.45Z"/><path class="cls-4" d="M712.64,226.9h1.2l.12,1.59h0a3,3,0,0,1,2.47-1.81,1.93,1.93,0,0,1,.93.19l-.28,1.28a2,2,0,0,0-.84-.14c-.73,0-1.62.51-2.2,2v5.59h-1.45Z"/><path class="cls-4" d="M618.92,250.46c0-2.82,1.9-4.58,3.92-4.58,2.21,0,3.46,1.6,3.46,4.08a5.73,5.73,0,0,1-.07.83h-5.86a2.89,2.89,0,0,0,2.88,3.05,3.77,3.77,0,0,0,2.18-.69l.53,1a5.23,5.23,0,0,1-2.88.89C620.77,255,618.92,253.32,618.92,250.46Zm6.1-.72c0-1.75-.81-2.69-2.17-2.69a2.66,2.66,0,0,0-2.49,2.69Z"/><path class="cls-4" d="M629.24,253.07v-11h1.45v11.11c0,.45.2.63.42.63a1.33,1.33,0,0,0,.3,0l.21,1.12a2.29,2.29,0,0,1-.85.12C629.69,255,629.24,254.3,629.24,253.07Z"/><path class="cls-4" d="M633.94,250.46c0-2.82,1.91-4.58,3.92-4.58,2.21,0,3.46,1.6,3.46,4.08a5.92,5.92,0,0,1-.06.83H635.4a2.88,2.88,0,0,0,2.88,3.05,3.79,3.79,0,0,0,2.18-.69l.52,1a5.21,5.21,0,0,1-2.88.89C635.8,255,633.94,253.32,633.94,250.46Zm6.1-.72c0-1.75-.8-2.69-2.16-2.69a2.67,2.67,0,0,0-2.5,2.69Z"/><path class="cls-4" d="M643.6,250.46a4.23,4.23,0,0,1,4.2-4.58,3.72,3.72,0,0,1,2.54,1l-.75,1a2.56,2.56,0,0,0-1.73-.77c-1.58,0-2.74,1.36-2.74,3.36s1.09,3.33,2.69,3.33a3,3,0,0,0,2.05-.87l.64,1a4.21,4.21,0,0,1-2.81,1.1C645.38,255,643.6,253.34,643.6,250.46Z"/><path class="cls-4" d="M653.28,252.11v-4.82H652v-1.11l1.36-.08.17-2.44h1.22v2.44h2.35v1.19h-2.35v4.85c0,1.07.34,1.68,1.35,1.68a3.15,3.15,0,0,0,1-.22l.29,1.08a5.55,5.55,0,0,1-1.6.32C653.91,255,653.28,253.84,653.28,252.11Z"/><path class="cls-4" d="M659.86,246.1h1.2l.13,1.59h0a3,3,0,0,1,2.46-1.81,1.88,1.88,0,0,1,.93.19l-.27,1.28a2.11,2.11,0,0,0-.85-.14c-.72,0-1.62.51-2.19,2v5.59h-1.46Z"/><path class="cls-4" d="M666,250.46c0-2.9,1.9-4.58,4-4.58s4,1.68,4,4.58-1.9,4.54-4,4.54S666,253.34,666,250.46Zm6.56,0c0-2-1-3.36-2.53-3.36s-2.51,1.36-2.51,3.36,1,3.33,2.51,3.33S672.6,252.46,672.6,250.46Z"/><path class="cls-4" d="M677.19,246.1h1.2l.13,1.25h0a4.21,4.21,0,0,1,2.92-1.47c1.82,0,2.66,1.18,2.66,3.41v5.51h-1.46v-5.32c0-1.63-.5-2.32-1.65-2.32-.9,0-1.5.45-2.38,1.33v6.31h-1.46Z"/><rect class="cls-2" x="276" y="120.99" width="194.5" height="62.01" rx="14.22"/><rect class="cls-3" x="271" y="118" width="194.5" height="62.01" rx="14.22"/><text class="cls-5" transform="translate(322.2 152.6)">Double Bond</text><rect class="cls-2" x="535" y="120.99" width="194.5" height="62.01" rx="14.22"/><rect class="cls-3" x="530" y="118" width="194.5" height="62.01" rx="14.22"/><text class="cls-5" transform="translate(586.7 152.6)">Triple Bond</text><line class="cls-6" x1="375.25" y1="65" x2="375.25" y2="118"/><polyline class="cls-1" points="627.25 118 627.25 91 97 91 97 118"/><text class="cls-5" transform="translate(104.61 325.5)">H-H<tspan x="-1.96" y="19.2">H-Cl</tspan><tspan x="-3.92" y="38.4">Cl-Cl</tspan><tspan x="-9.51" y="57.6">H-O-H</tspan></text><text class="cls-5" transform="translate(372.17 337.22)">O=O<tspan x="-10.34" y="19.2">O=C=O</tspan></text><text class="cls-5" transform="translate(635.76 347.22)"><tspan xml:space="preserve">N   N</tspan></text><rect class="cls-4" x="649" y="337" width="11" height="1"/><rect class="cls-4" x="649" y="345" width="11" height="1"/><rect class="cls-4" x="649" y="341" width="11" height="1"/><polyline class="cls-1" points="21 183 21 347 44 347"/><line class="cls-1" x1="44" y1="240" x2="21.06" y2="240"/><polyline class="cls-1" points="290 183 290 347 313 347"/><line class="cls-1" x1="313" y1="240" x2="290.06" y2="240"/></g></g></svg>