<svg xmlns="http://www.w3.org/2000/svg" viewBox="0 0 354.37 354.37"><defs><style>.cls-1{fill:#f1564e;}.cls-2{fill:#010101;}.cls-3{fill:none;stroke:#1a3d41;stroke-miterlimit:10;}.cls-4{fill:#c660a5;}.cls-5{fill:#437e7b;}</style></defs><g id="Layer_2" data-name="Layer 2"><g id="Layer_1-2" data-name="Layer 1"><circle class="cls-1" cx="289.18" cy="179.18" r="18.69"/><path class="cls-2" d="M281.05,179.23c0-3.76,2.19-6.06,5.23-6.06a4.39,4.39,0,0,1,3.21,1.43l-.86.94a3.12,3.12,0,0,0-2.35-1c-2.23,0-3.69,1.8-3.69,4.7s1.46,4.77,3.69,4.77a3.36,3.36,0,0,0,2.62-1.28l.85.91a4.49,4.49,0,0,1-3.61,1.69C283.25,185.28,281.05,183,281.05,179.23Z"/><path class="cls-2" d="M294.78,182.16v-8.58h-3.06v-1.19h4.54v9.88a1.56,1.56,0,0,0,1.71,1.78,3.9,3.9,0,0,0,1.62-.39l.37,1.1a5.22,5.22,0,0,1-2.31.52C295.79,185.28,294.78,184.21,294.78,182.16Z"/><circle class="cls-3" cx="289.18" cy="179.18" r="64.68"/><circle class="cls-1" cx="65.18" cy="179.18" r="18.69"/><path class="cls-2" d="M57.05,179.23c0-3.76,2.19-6.06,5.23-6.06a4.39,4.39,0,0,1,3.21,1.43l-.86.94a3.12,3.12,0,0,0-2.35-1c-2.23,0-3.69,1.8-3.69,4.7S60.05,184,62.28,184a3.36,3.36,0,0,0,2.62-1.28l.85.91a4.49,4.49,0,0,1-3.61,1.69C59.25,185.28,57.05,183,57.05,179.23Z"/><path class="cls-2" d="M70.78,182.16v-8.58H67.72v-1.19h4.54v9.88A1.56,1.56,0,0,0,74,184.05a3.9,3.9,0,0,0,1.62-.39l.37,1.1a5.22,5.22,0,0,1-2.31.52C71.79,185.28,70.78,184.21,70.78,182.16Z"/><circle class="cls-3" cx="65.18" cy="179.18" r="64.68"/><circle class="cls-1" cx="178.18" cy="65.18" r="18.69"/><path class="cls-2" d="M170.05,65.23c0-3.76,2.19-6.06,5.23-6.06a4.39,4.39,0,0,1,3.21,1.43l-.86.94a3.12,3.12,0,0,0-2.35-1c-2.23,0-3.69,1.8-3.69,4.7S173.05,70,175.28,70a3.36,3.36,0,0,0,2.62-1.28l.85.91a4.49,4.49,0,0,1-3.61,1.69C172.25,71.28,170.05,69,170.05,65.23Z"/><path class="cls-2" d="M183.78,68.16V59.58h-3.06V58.39h4.54v9.88A1.56,1.56,0,0,0,187,70.05a3.9,3.9,0,0,0,1.62-.39l.37,1.1a5.22,5.22,0,0,1-2.31.52C184.79,71.28,183.78,70.21,183.78,68.16Z"/><circle class="cls-3" cx="178.18" cy="65.18" r="64.68"/><circle class="cls-1" cx="178.18" cy="289.18" r="18.69"/><path class="cls-2" d="M170.05,289.23c0-3.76,2.19-6.06,5.23-6.06a4.39,4.39,0,0,1,3.21,1.43l-.86.94a3.12,3.12,0,0,0-2.35-1.05c-2.23,0-3.69,1.8-3.69,4.7s1.46,4.77,3.69,4.77a3.36,3.36,0,0,0,2.62-1.28l.85.91a4.49,4.49,0,0,1-3.61,1.69C172.25,295.28,170.05,293,170.05,289.23Z"/><path class="cls-2" d="M183.78,292.16v-8.58h-3.06v-1.19h4.54v9.88a1.56,1.56,0,0,0,1.71,1.78,3.9,3.9,0,0,0,1.62-.39l.37,1.1a5.22,5.22,0,0,1-2.31.52C184.79,295.28,183.78,294.21,183.78,292.16Z"/><circle class="cls-3" cx="178.18" cy="289.18" r="64.68"/><circle class="cls-4" cx="177.58" cy="178.77" r="18.38"/><path class="cls-2" d="M172.74,177.61c0-4.16,2.42-6.7,5.79-6.7a4.84,4.84,0,0,1,3.55,1.58l-1,1a3.45,3.45,0,0,0-2.6-1.16c-2.46,0-4.08,2-4.08,5.2s1.62,5.29,4.08,5.29a3.73,3.73,0,0,0,2.9-1.42l.95,1a5,5,0,0,1-4,1.88C175.18,184.32,172.74,181.83,172.74,177.61Z"/><circle class="cls-3" cx="177.58" cy="178.77" r="41.72"/><circle class="cls-3" cx="177.58" cy="178.77" r="63.64"/><polygon class="cls-5" points="238.4 161.98 236.86 160.44 231.84 165.47 226.81 160.44 225.27 161.98 230.3 167 225.27 172.03 226.81 173.56 231.84 168.54 236.86 173.56 238.4 172.03 233.37 167 238.4 161.98"/><polygon class="cls-5" points="128.4 161.98 126.86 160.44 121.84 165.47 116.81 160.44 115.27 161.98 120.3 167 115.27 172.03 116.81 173.56 121.84 168.54 126.86 173.56 128.4 172.03 123.37 167 128.4 161.98"/><polygon class="cls-5" points="175.4 116.98 173.86 115.44 168.84 120.47 163.81 115.44 162.27 116.98 167.3 122 162.27 127.03 163.81 128.56 168.84 123.54 173.86 128.56 175.4 127.03 170.37 122 175.4 116.98"/><polygon class="cls-5" points="175.4 228.98 173.86 227.44 168.84 232.47 163.81 227.44 162.27 228.98 167.3 234 162.27 239.03 163.81 240.56 168.84 235.54 173.86 240.56 175.4 239.03 170.37 234 175.4 228.98"/><rect class="cls-5" x="178.06" y="115.33" width="12.94" height="12.94" rx="6.47"/><rect class="cls-5" x="226.06" y="179.33" width="12.94" height="12.94" rx="6.47"/><rect class="cls-5" x="116.06" y="179.33" width="12.94" height="12.94" rx="6.47"/><rect class="cls-5" x="178.06" y="227.33" width="12.94" height="12.94" rx="6.47"/></g></g></svg>