<svg xmlns="http://www.w3.org/2000/svg" viewBox="0 0 690 321.25"><defs><style>.cls-1{fill:#417d7a;}.cls-2{fill:#ece6db;}.cls-3{fill:#193c40;}.cls-4{font-size:17.09px;font-family:NotoSansSC-Bold-90ms-RKSJ-H, Noto Sans SC;}.cls-4,.cls-5,.cls-7{fill:#231f20;}.cls-6{fill:#de4948;}.cls-7{font-size:11.38px;font-family:NotoSansSC-Regular-90ms-RKSJ-H, Noto Sans SC;}.cls-8{fill:none;stroke:#193c40;stroke-miterlimit:10;stroke-width:4px;}</style></defs><g id="Layer_2" data-name="Layer 2"><g id="Layer_1-2" data-name="Layer 1"><ellipse class="cls-1" cx="345" cy="55.66" rx="57.25" ry="55.66"/><ellipse class="cls-2" cx="345" cy="55.66" rx="50.09" ry="48.7"/><ellipse class="cls-3" cx="226.99" cy="156.72" rx="54.74" ry="53.22"/><ellipse class="cls-2" cx="226.99" cy="156.72" rx="47.9" ry="46.56"/><text class="cls-4" transform="translate(208.41 152.02) scale(0.89 1)">Ionic <tspan x="-1.4" y="20.5">Bond</tspan></text><ellipse class="cls-3" cx="463.52" cy="156.72" rx="54.74" ry="53.22"/><ellipse class="cls-2" cx="463.52" cy="156.72" rx="47.9" ry="46.56"/><text class="cls-4" transform="translate(430.27 152.02) scale(0.89 1)">Covalent <tspan x="15.24" y="20.5">Bond</tspan></text><path class="cls-5" d="M329.07,32.33H330v8.35h-.94Z"/><path class="cls-5" d="M332,34.5h.76l.08.89h0a2.57,2.57,0,0,1,1.85-1c1.15,0,1.68.85,1.68,2.43v3.91h-.92V36.91c0-1.17-.32-1.66-1.05-1.66-.56,0-.95.32-1.51,1v4.48H332Z"/><path class="cls-5" d="M337.36,34.5h1l1,3.52c.17.6.34,1.24.51,1.82h0c.18-.58.35-1.22.51-1.82l1.05-3.52h.91l-2,6.18h-1.07Z"/><path class="cls-5" d="M343,37.6c0-2.06,1.21-3.26,2.56-3.26s2.55,1.2,2.55,3.26-1.2,3.23-2.55,3.23S343,39.65,343,37.6Zm4.16,0c0-1.42-.65-2.39-1.6-2.39s-1.6,1-1.6,2.39.64,2.37,1.6,2.37S347.15,39,347.15,37.6Z"/><path class="cls-5" d="M349.56,39.46V31.62h.92v7.9c0,.32.12.45.26.45a.62.62,0,0,0,.2,0l.13.8a1.25,1.25,0,0,1-.54.09C349.84,40.83,349.56,40.33,349.56,39.46Z"/><path class="cls-5" d="M351.65,34.5h1l1,3.52c.17.6.34,1.24.51,1.82h0c.18-.58.35-1.22.51-1.82l1.05-3.52h.91l-2,6.18h-1.07Z"/><path class="cls-5" d="M357.28,37.6c0-2,1.21-3.26,2.49-3.26S362,35.48,362,37.25a4.69,4.69,0,0,1,0,.59H358.2C358.26,39.16,359,40,360,40a2.19,2.19,0,0,0,1.38-.49l.33.69a3,3,0,0,1-1.82.63C358.46,40.83,357.28,39.64,357.28,37.6Zm3.87-.51c0-1.24-.51-1.92-1.37-1.92s-1.48.71-1.59,1.92Z"/><path class="cls-5" d="M327.32,49.22h1l1,3.52c.18.6.35,1.24.52,1.82h0c.17-.58.35-1.22.51-1.82l1-3.52h.92l-2,6.18h-1.08Z"/><path class="cls-5" d="M332.85,53.79c0-1.34,1-2,3.38-2.31,0-.79-.23-1.56-1.13-1.56a2.86,2.86,0,0,0-1.66.66l-.36-.71a3.83,3.83,0,0,1,2.17-.81c1.34,0,1.91,1,1.91,2.54v3.8h-.76l-.08-.74h0a2.82,2.82,0,0,1-1.83.89A1.59,1.59,0,0,1,332.85,53.79Zm3.38.11V52.17c-1.85.25-2.48.76-2.48,1.56a.89.89,0,0,0,1,1A2.16,2.16,0,0,0,336.23,53.9Z"/><path class="cls-5" d="M338.92,54.17V46.34h.92v7.9c0,.32.12.44.26.44l.19,0,.14.8a1.47,1.47,0,0,1-.54.09C339.2,55.55,338.92,55.05,338.92,54.17Z"/><path class="cls-5" d="M341.39,52.31c0-2,1.21-3.25,2.49-3.25s2.19,1.14,2.19,2.9a4.42,4.42,0,0,1,0,.59h-3.72c.07,1.32.79,2.17,1.83,2.17a2.23,2.23,0,0,0,1.38-.49l.34.68a3.08,3.08,0,0,1-1.83.64C342.57,55.55,341.39,54.35,341.39,52.31Zm3.87-.51c0-1.24-.51-1.91-1.37-1.91s-1.47.71-1.59,1.91Z"/><path class="cls-5" d="M347.43,49.22h.76l.08.89h0a2.57,2.57,0,0,1,1.85-1c1.16,0,1.68.84,1.68,2.42V55.4h-.92V51.62c0-1.16-.31-1.65-1.05-1.65-.56,0-.95.32-1.51.94V55.4h-.92Z"/><path class="cls-5" d="M353.21,52.31c0-2.06,1.25-3.25,2.66-3.25a2.25,2.25,0,0,1,1.62.73l-.48.68a1.56,1.56,0,0,0-1.1-.55c-1,0-1.73,1-1.73,2.39s.69,2.37,1.7,2.37a1.84,1.84,0,0,0,1.3-.61l.41.69a2.54,2.54,0,0,1-1.79.79C354.34,55.55,353.21,54.36,353.21,52.31Z"/><path class="cls-5" d="M358.14,52.31c0-2,1.2-3.25,2.48-3.25s2.19,1.14,2.19,2.9a4.42,4.42,0,0,1,0,.59h-3.71c.06,1.32.78,2.17,1.83,2.17a2.27,2.27,0,0,0,1.38-.49l.33.68a3.06,3.06,0,0,1-1.83.64C359.31,55.55,358.14,54.35,358.14,52.31ZM362,51.8c0-1.24-.5-1.91-1.37-1.91s-1.47.71-1.58,1.91Z"/><path class="cls-5" d="M312.36,67c0-2,1.21-3.26,2.49-3.26S317,64.91,317,66.68a4.69,4.69,0,0,1,0,.59h-3.72c.06,1.32.78,2.16,1.83,2.16a2.19,2.19,0,0,0,1.38-.49l.34.68a3,3,0,0,1-1.83.64C313.54,70.26,312.36,69.07,312.36,67Zm3.87-.51c0-1.24-.51-1.92-1.37-1.92s-1.47.71-1.59,1.92Z"/><path class="cls-5" d="M318.4,68.88V61.05h.92V69c0,.32.12.45.27.45a.54.54,0,0,0,.19,0l.13.8a1.22,1.22,0,0,1-.54.09C318.68,70.26,318.4,69.76,318.4,68.88Z"/><path class="cls-5" d="M320.88,67c0-2,1.2-3.26,2.48-3.26s2.19,1.14,2.19,2.91a4.69,4.69,0,0,1,0,.59H321.8c.06,1.32.78,2.16,1.82,2.16a2.17,2.17,0,0,0,1.38-.49l.34.68a3,3,0,0,1-1.83.64C322.05,70.26,320.88,69.07,320.88,67Zm3.86-.51c0-1.24-.51-1.92-1.37-1.92s-1.47.71-1.58,1.92Z"/><path class="cls-5" d="M326.5,67c0-2.06,1.25-3.26,2.66-3.26a2.26,2.26,0,0,1,1.61.73l-.48.69a1.54,1.54,0,0,0-1.09-.55c-1,0-1.74,1-1.74,2.39s.69,2.37,1.71,2.37a1.81,1.81,0,0,0,1.29-.62l.41.7a2.53,2.53,0,0,1-1.79.78C327.62,70.26,326.5,69.08,326.5,67Z"/><path class="cls-5" d="M332.13,68.2V64.78h-.82V64l.86-.06.11-1.74h.77v1.74h1.49v.85h-1.49v3.44c0,.77.22,1.2.86,1.2a1.83,1.83,0,0,0,.63-.16l.18.77a3,3,0,0,1-1,.23C332.53,70.26,332.13,69.43,332.13,68.2Z"/><path class="cls-5" d="M335.79,63.93h.76l.09,1.13h0a1.91,1.91,0,0,1,1.56-1.29,1.1,1.1,0,0,1,.59.14l-.17.91a1.21,1.21,0,0,0-.54-.1c-.46,0-1,.36-1.39,1.42v4h-.93Z"/><path class="cls-5" d="M339.2,67c0-2.06,1.21-3.26,2.56-3.26s2.56,1.2,2.56,3.26-1.21,3.23-2.56,3.23S339.2,69.08,339.2,67Zm4.16,0c0-1.42-.65-2.39-1.6-2.39s-1.59,1-1.59,2.39.64,2.37,1.59,2.37S343.36,68.45,343.36,67Z"/><path class="cls-5" d="M345.77,63.93h.76l.08.89h0a2.57,2.57,0,0,1,1.85-1c1.16,0,1.68.85,1.68,2.43v3.91h-.92V66.33c0-1.16-.31-1.65-1-1.65-.57,0-1,.32-1.52.95v4.48h-.92Z"/><path class="cls-5" d="M351.35,69.41l.46-.68a2.36,2.36,0,0,0,1.63.72,1,1,0,0,0,1.09-1c0-.64-.65-.91-1.26-1.18-.77-.31-1.61-.74-1.61-1.78a1.75,1.75,0,0,1,1.9-1.76,2.63,2.63,0,0,1,1.71.7l-.45.67a1.89,1.89,0,0,0-1.25-.55c-.7,0-1,.41-1,.89s.57.81,1.19,1.07c.8.34,1.68.71,1.68,1.88a1.82,1.82,0,0,1-2,1.83A3.12,3.12,0,0,1,351.35,69.41Z"/><path class="cls-5" d="M358.58,67c0-2.06,1.21-3.26,2.56-3.26s2.55,1.2,2.55,3.26-1.21,3.23-2.55,3.23S358.58,69.08,358.58,67Zm4.16,0c0-1.42-.65-2.39-1.6-2.39s-1.6,1-1.6,2.39.64,2.37,1.6,2.37S362.74,68.45,362.74,67Z"/><path class="cls-5" d="M365.14,63.93h.76l.09.89h0a2.54,2.54,0,0,1,1.84-1c1.16,0,1.69.85,1.69,2.43v3.91h-.93V66.33c0-1.16-.31-1.65-1-1.65-.57,0-.95.32-1.51.95v4.48h-.93Z"/><path class="cls-5" d="M371.35,68.88V61.05h.92V69c0,.32.12.45.26.45a.62.62,0,0,0,.2,0l.13.8a1.25,1.25,0,0,1-.54.09C371.63,70.26,371.35,69.76,371.35,68.88Z"/><path class="cls-5" d="M373.68,72.65l.18-.83a1.13,1.13,0,0,0,.42.1c.63,0,1-.56,1.25-1.33l.12-.46-2.21-6.2h1l1.13,3.44.52,1.73h.05c.16-.56.32-1.18.47-1.73l1-3.44h.9l-2.08,6.7c-.38,1.21-1,2.15-2.05,2.15A1.5,1.5,0,0,1,373.68,72.65Z"/><ellipse class="cls-6" cx="575.5" cy="55.66" rx="57.25" ry="55.66"/><ellipse class="cls-2" cx="575.5" cy="55.66" rx="50.09" ry="48.7"/><text class="cls-7" transform="translate(551.57 49.47) scale(0.89 1)">Sharing of <tspan x="2.45" y="14.71">electrons</tspan></text><ellipse class="cls-6" cx="632.75" cy="160.14" rx="57.25" ry="55.66"/><ellipse class="cls-2" cx="632.75" cy="160.14" rx="50.09" ry="48.7"/><text class="cls-7" transform="translate(612.19 145.16) scale(0.89 1)">Between <tspan x="-4.28" y="14.71">non-metal </tspan><tspan x="6.73" y="29.43">atoms</tspan></text><ellipse class="cls-6" cx="57.25" cy="160.14" rx="57.25" ry="55.66"/><ellipse class="cls-2" cx="57.25" cy="160.14" rx="50.09" ry="48.7"/><text class="cls-7" transform="translate(22 145.16) scale(0.89 1)">Between metal <tspan x="11.72" y="14.71">atoms and </tspan><tspan x="9.53" y="29.43">non-metals </tspan><tspan x="23.21" y="44.14">atoms</tspan></text><ellipse class="cls-6" cx="575.5" cy="265.59" rx="57.25" ry="55.66"/><ellipse class="cls-2" cx="575.5" cy="265.59" rx="50.09" ry="48.7"/><text class="cls-7" transform="translate(556.88 261.36) scale(0.89 1)">Forms a <tspan x="-6.15" y="14.71">molecules</tspan></text><ellipse class="cls-1" cx="345" cy="265.59" rx="57.25" ry="55.66"/><ellipse class="cls-2" cx="345" cy="265.59" rx="50.09" ry="48.7"/><text class="cls-7" transform="translate(311.84 248.67) scale(0.89 1)">Atoms achieve <tspan x="0.65" y="14.71">stable octet or </tspan><tspan x="-2.14" y="29.43">duplet electron </tspan><tspan x="4.01" y="44.14">arrangement</tspan></text><ellipse class="cls-6" cx="115" cy="265.59" rx="57.25" ry="55.66"/><ellipse class="cls-2" cx="115" cy="265.59" rx="50.09" ry="48.7"/><text class="cls-7" transform="translate(97.32 239.88) scale(0.89 1)">Forms a <tspan x="-4.47" y="14.71">positively </tspan><tspan x="-21.64" y="29.43">charged ion and </tspan><tspan x="-6.06" y="44.14">negatively </tspan><tspan x="-10.14" y="58.86">charged ion</tspan></text><ellipse class="cls-6" cx="115" cy="55.66" rx="57.25" ry="55.66"/><ellipse class="cls-2" cx="115" cy="55.66" rx="50.09" ry="48.7"/><text class="cls-7" transform="translate(90.98 51.91) scale(0.89 1)">Transfer of <tspan x="3.6" y="14.71">electrons</tspan></text><line class="cls-8" x1="192.1" y1="115.71" x2="161.64" y2="87.94"/><line class="cls-8" x1="172.25" y1="156.72" x2="114.5" y2="156.72"/><line class="cls-8" x1="192.1" y1="197.73" x2="161.7" y2="230.93"/><line class="cls-8" x1="261.87" y1="115.71" x2="296.79" y2="85.93"/><line class="cls-8" x1="427.36" y1="115.71" x2="393.21" y2="85.93"/><line class="cls-8" x1="261.87" y1="197.73" x2="297.79" y2="233.86"/><line class="cls-8" x1="392.03" y1="233.86" x2="427.36" y2="197.73"/><line class="cls-8" x1="499.67" y1="115.71" x2="527.29" y2="85.93"/><line class="cls-8" x1="498.4" y1="197.73" x2="530.71" y2="230.93"/><line class="cls-8" x1="518.25" y1="156.72" x2="575.5" y2="158.71"/></g></g></svg>