<svg xmlns="http://www.w3.org/2000/svg" viewBox="0 0 682.73 265.19"><defs><style>.cls-1,.cls-4,.cls-5{fill:none;stroke-miterlimit:10;}.cls-1{stroke:#417d7a;stroke-width:4px;stroke-dasharray:8;}.cls-2{fill:#ecb390;}.cls-3{font-size:57.54px;}.cls-3,.cls-6,.cls-9{fill:#193c40;}.cls-3,.cls-7,.cls-9{font-family:NotoSansSC-Regular-90ms-RKSJ-H, Noto Sans SC;}.cls-4{stroke:#193c40;stroke-width:3px;}.cls-5{stroke:#de4948;stroke-width:8px;}.cls-7{font-size:18.61px;fill:#ece6db;}.cls-8{fill:#c1d9c1;}.cls-9{font-size:20.88px;}</style></defs><g id="Layer_2" data-name="Layer 2"><g id="Layer_1-2" data-name="Layer 1"><line class="cls-1" x1="261.63" y1="180.05" x2="302.83" y2="180.05"/><ellipse class="cls-2" cx="433.65" cy="180.39" rx="130.81" ry="80"/><ellipse class="cls-2" cx="130.81" cy="180.39" rx="130.81" ry="80.01"/><text class="cls-3" transform="translate(92.96 144.2) scale(0.58)">H</text><text class="cls-3" transform="translate(505.66 188.84) scale(0.58)">H</text><text class="cls-3" transform="translate(464.88 188.84) scale(0.58)">O</text><text class="cls-3" transform="translate(427.59 188.84) scale(0.58)">C</text><text class="cls-3" transform="translate(390.3 188.84) scale(0.58)">C</text><text class="cls-3" transform="translate(176.74 188.84) scale(0.58)">C</text><text class="cls-3" transform="translate(134.85 188.84) scale(0.58)">C</text><text class="cls-3" transform="translate(390.3 230.04) scale(0.58)">H</text><line class="cls-4" x1="105.41" y1="193.09" x2="105.41" y2="202.02"/><line class="cls-4" x1="439.83" y1="193.09" x2="439.83" y2="202.02"/><line class="cls-4" x1="439.83" y1="149.14" x2="439.83" y2="158.07"/><line class="cls-4" x1="402.74" y1="149.14" x2="402.74" y2="158.07"/><line class="cls-4" x1="402.74" y1="193.09" x2="402.74" y2="202.02"/><line class="cls-4" x1="189.18" y1="193.09" x2="189.18" y2="202.02"/><line class="cls-4" x1="147.3" y1="193.09" x2="147.3" y2="202.02"/><line class="cls-4" x1="147.3" y1="149.83" x2="147.3" y2="158.76"/><line class="cls-4" x1="503.35" y1="176.27" x2="494.42" y2="176.27"/><line class="cls-4" x1="461.46" y1="176.27" x2="452.53" y2="176.27"/><line class="cls-4" x1="424.38" y1="176.27" x2="415.45" y2="176.27"/><line class="cls-4" x1="386.61" y1="176.27" x2="377.68" y2="176.27"/><line class="cls-4" x1="172.36" y1="176.27" x2="163.43" y2="176.27"/><line class="cls-4" x1="128.41" y1="176.27" x2="119.48" y2="176.27"/><line class="cls-4" x1="88.58" y1="176.27" x2="79.66" y2="176.27"/><line class="cls-4" x1="104.38" y1="149.83" x2="104.38" y2="158.76"/><text class="cls-3" transform="translate(427.38 230.04) scale(0.58)">H</text><text class="cls-3" transform="translate(427.38 144.2) scale(0.58)">H</text><text class="cls-3" transform="translate(390.3 144.2) scale(0.58)">H</text><text class="cls-3" transform="translate(134.85 144.2) scale(0.58)">H</text><text class="cls-3" transform="translate(348.41 188.84) scale(0.58)">H</text><text class="cls-3" transform="translate(51.07 188.84) scale(0.58)">H</text><text class="cls-3" transform="translate(176.74 230.04) scale(0.58)">H</text><text class="cls-3" transform="translate(134.85 230.04) scale(0.58)">H</text><text class="cls-3" transform="translate(92.96 230.04) scale(0.58)">H</text><text class="cls-3" transform="translate(92.96 188.84) scale(0.58)">C</text><line class="cls-5" x1="641.38" y1="154.76" x2="632.45" y2="164.38"/><line class="cls-5" x1="644.92" y1="193.06" x2="633.93" y2="184.24"/><circle class="cls-6" cx="656.51" cy="196.51" r="15"/><text class="cls-7" transform="translate(663.28 202.29) rotate(-94.26)">H</text><circle class="cls-6" cx="652.96" cy="148.9" r="15"/><text class="cls-7" transform="translate(659.73 154.68) rotate(-94.26)">H</text><circle class="cls-8" cx="621.21" cy="175.2" r="16.82"/><text class="cls-9" transform="translate(628.85 182.36) rotate(-94.26)">O</text><line class="cls-1" x1="477.25" y1="160.13" x2="477.25" y2="81.16"/><line class="cls-5" x1="486.87" y1="51.98" x2="493.26" y2="40.52"/><line class="cls-5" x1="474.36" y1="15.61" x2="487.12" y2="21.58"/><circle class="cls-6" cx="462.28" cy="15" r="15"/><text class="cls-7" transform="matrix(0.31, 0.95, -0.95, 0.31, 454.43, 10.99)">H</text><circle class="cls-6" cx="477" cy="60.42" r="15"/><text class="cls-7" transform="matrix(0.31, 0.95, -0.95, 0.31, 469.15, 56.41)">H</text><circle class="cls-8" cx="501.62" cy="27.35" r="16.82"/><text class="cls-9" transform="matrix(0.31, 0.95, -0.95, 0.31, 492.6, 22.2)">O</text><line class="cls-1" x1="541.8" y1="175.92" x2="592.62" y2="175.92"/></g></g></svg>