<svg xmlns="http://www.w3.org/2000/svg" viewBox="0 0 713 264"><defs><style>.cls-1,.cls-4,.cls-5{fill:none;}.cls-1,.cls-5{stroke:#de4948;}.cls-1,.cls-10,.cls-4,.cls-5{stroke-miterlimit:10;}.cls-1{stroke-width:5px;}.cls-2{fill:#de4948;}.cls-3{fill:#fff;}.cls-4{stroke:#8fbdd3;stroke-width:2px;stroke-dasharray:2;}.cls-5{stroke-width:8px;}.cls-6,.cls-9{fill:#193c40;}.cls-7{font-size:19.94px;}.cls-11,.cls-14,.cls-7{fill:#ece6db;}.cls-13,.cls-14,.cls-7,.cls-9{font-family:NotoSansSC-Regular-90ms-RKSJ-H, Noto Sans SC;}.cls-8{fill:#c1d9c1;}.cls-9{font-size:22.37px;}.cls-10{fill:#417d7a;stroke:#193c40;stroke-width:3px;}.cls-12,.cls-13{fill:#ecb390;}.cls-13,.cls-14{font-size:12px;}</style></defs><g id="Layer_2" data-name="Layer 2"><g id="Layer_1-2" data-name="Layer 1"><line class="cls-1" x1="484.5" y1="34.08" x2="413.03" y2="42.39"/><path class="cls-2" d="M392.51,46l.66-.05A2.36,2.36,0,0,0,396,48.39,1.6,1.6,0,0,0,398.38,50a7,7,0,0,1,3.67-.47c2.45.17,5.29.59,7.93-1.4a.45.45,0,0,1,.63.1c.17.29.18,1.22.95,1.15l2.89-.34c1-.12,1.68-1.72,1.11-6.5-.6-5-.88-6.93-2.94-6.71s-2.59.3-2.59.3c-.64.1-.69.54-.76.83a.37.37,0,0,1-.45.21,20.3,20.3,0,0,0-5.19-.87c-2.08,0-2.95-.51-4.3-.13-1.61.44-6.91.88-8.5,1s-4,1-7.27,1.26c-3.15.29-2.75,3.93.06,3.44,2.22-.39,2.33-.13,3.09-.32a20.35,20.35,0,0,1,3.91-.38,17,17,0,0,1,2.42-.25A10.13,10.13,0,0,0,391.23,42C389.71,43,391,46,392.51,46Z"/><path class="cls-3" d="M411.38,42.45a36,36,0,0,1,.22,5.79c-.07.31.17.47.61.38s1.85-.24,1.85-.24c.68-.07,1.43-.87.81-6.17-.67-5.47-1-6.15-2.59-6l-2,.29a.39.39,0,0,0-.25.25C409.91,37.12,410.66,37.45,411.38,42.45Z"/><path class="cls-3" d="M406.76,43.53a.31.31,0,0,1,.12.3c-.15.37-.58.15-.9.16s-1.68-.06-2.16.33a3.9,3.9,0,0,0-1.6,2.59,2.1,2.1,0,0,1-1,1.39c-.46.2-.32.67.08.67a19.18,19.18,0,0,0,4.82,0c2.65-.46,5.09-1.27,4.85-4.84a27.09,27.09,0,0,0-1-5.63c-.41-1-1.22-.86-2-1.15-3.12-.93-5.1-.62-6.79-.79a2,2,0,0,0-2,.41c-1.61,1.44-3.68,2.11-4.16,2.54-.33.27-.42.4-.46.53s-.43.3-.71.59a2.06,2.06,0,0,1-.48.37c.34.36.55-.11,1.06.68a1,1,0,0,1,0,.67c-.15.36-.87.5-1.15.59l-.74.22c-.67.21-.95-.47-.95-.22,0,1.27,1.67.81,2.21.66a9.8,9.8,0,0,0,1.5-.64c.22-.21,1.48-.4,1.36-1.29,0-.15-.06-.46.35-.36s1.74-.11,1.91-.54a.72.72,0,0,1,.35-.45c.19-.12.32,0,.32.22s.07.7.5.74a.86.86,0,0,0,.8-.14c.26-.18.73-.58,1-.59s.37.18-.06.44a1,1,0,0,0,0,1.64c1.16,1,.84,1.12,4.49.82A.52.52,0,0,1,406.76,43.53Z"/><path class="cls-3" d="M400.81,44.29c.4-.66.75-.91.23-1.46-.07-.1-.24-.08-.68.07-.23.08-.91,1.14-.14,1.7C400.39,44.68,400.59,44.72,400.81,44.29Z"/><path class="cls-3" d="M401.79,46.1c.3.06.61-1.34.58-1.42s-.08-.27-.68-.25a1,1,0,0,0-.57,1.17C401.2,46,401.73,46.09,401.79,46.1Z"/><path class="cls-3" d="M399,43c.22-.32.74-.91.54-1.18s-.48-.45-1.05-.17a.9.9,0,0,0-.16,1.62C398.59,43.33,398.69,43.41,399,43Z"/><path class="cls-3" d="M396.54,48.31c-.22,1.78,1.68,1.43,2.4.88,1.16-.88,2.21-1.19,2.58-1.73.21-.31.47-1.06.12-1.06a1.51,1.51,0,0,1-.81-.35c-.07-.06,0-.55-.13-.53s.11.51-1,1.24a16.62,16.62,0,0,1-1.94,1,8.62,8.62,0,0,1-1.1.41C396.55,48.21,396.54,48.27,396.54,48.31Z"/><path class="cls-3" d="M393.9,45.83a15.35,15.35,0,0,1,2.16-.24,2.71,2.71,0,0,0,2.58-1.22c.3-.35.36-.62.59-.86s.38-.57.3,0c0,.28-.24.48,0,.91a1.47,1.47,0,0,0,.78.65c.06,0,.12,0,.08,0a2.35,2.35,0,0,1-1.5,1.52c-1.75.67-2.49,1.21-2.86,1.32a1,1,0,0,1-.25,0,1.46,1.46,0,0,1-1-.15c-.19-.12-1.2-.8-1.07-1.79C393.77,45.92,393.82,45.83,393.9,45.83Z"/><path class="cls-3" d="M391.11,43.07c-.13,0-.12,2,1.3,2.34a4.63,4.63,0,0,0,1.7-.11c1.13-.19,2.06-.21,2.52-.28a2.12,2.12,0,0,0,1.52-.73c.16-.22.54-.58.25-.66a1.06,1.06,0,0,1-.76-.53c-.38-.55,0-1-.37-.8a2.67,2.67,0,0,0-.62.47c-1.19,1.06-5.17,2.52-5.32.45C391.3,43.07,391.16,43,391.11,43.07Z"/><path class="cls-3" d="M393,41.41a1.2,1.2,0,0,0-.54.28c-.25.14-1.15.41-.66.89s1.68-.12,2.1-.32a.36.36,0,0,0,.22-.4C394.12,41.7,394,41.31,393,41.41Z"/><path class="cls-3" d="M385.73,38.65c1-.1,3.29-.91,4.55-.81a43.85,43.85,0,0,1,5-.64,26.32,26.32,0,0,1,3.53-.41,13,13,0,0,1-3.19,1.9A2.7,2.7,0,0,0,394.06,40a9.74,9.74,0,0,1-3.26.5c-.06-.08-.09-.18-.32-.1s-.09.11-.49.17c-2,.3-3.12.39-3.12.39-.46,0-.32-.17-.49-.19s0,.12-.49.23a20.28,20.28,0,0,1-2.71.4c-1.59.23-2.25-2.15.45-2.58C385.46,38.57,385.46,38.74,385.73,38.65Z"/><line class="cls-1" x1="507.5" y1="204.5" x2="441.22" y2="183.1"/><path class="cls-2" d="M421.08,177.82l.63.23a2.35,2.35,0,0,0,1.55,3.44,1.6,1.6,0,0,0,1.5,2.4A7,7,0,0,1,428.3,185c2.16,1.16,4.57,2.72,7.79,2a.45.45,0,0,1,.53.35c0,.34-.34,1.18.39,1.44l2.77.9c1,.31,2.24-.88,3.71-5.46,1.52-4.78,2.07-6.67.1-7.32s-2.47-.8-2.47-.8a.84.84,0,0,0-1,.43.35.35,0,0,1-.49,0,20.66,20.66,0,0,0-4.37-2.94c-1.89-.84-2.47-1.68-3.85-1.91-1.65-.26-6.66-2.06-8.16-2.57s-4-.79-7.14-1.88-4.14,2.44-1.37,3.15c2.18.57,2.17.86,2.94,1a20.56,20.56,0,0,1,3.71,1.27,19.26,19.26,0,0,1,2.31.78,10.41,10.41,0,0,0-2.12.28C419.74,174,419.68,177.27,421.08,177.82Z"/><path class="cls-3" d="M439.7,182.47a35.32,35.32,0,0,1-2.2,5.36c-.19.25,0,.5.39.59s1.79.56,1.79.56c.65.21,1.66-.2,3.3-5.28,1.66-5.26,1.67-6,.11-6.5l-1.93-.57a.41.41,0,0,0-.34.13C440.58,177,441.12,177.62,439.7,182.47Z"/><path class="cls-3" d="M435.05,181.53a.29.29,0,0,1,0,.32c-.28.28-.59-.1-.88-.22s-1.51-.76-2.1-.6a3.91,3.91,0,0,0-2.53,1.69,2.09,2.09,0,0,1-1.5.84c-.5,0-.57.49-.2.65a18.63,18.63,0,0,0,4.39,2c2.6.68,5.16,1,6.41-2.39a26.86,26.86,0,0,0,1.46-5.52c0-1-.75-1.29-1.33-1.87-2.45-2.14-4.38-2.68-5.84-3.54a2,2,0,0,0-1.94-.43c-2.07.64-4.23.38-4.84.58-.41.11-.55.19-.64.3s-.52.08-.9.23a2.11,2.11,0,0,1-.59.14c.17.46.56.13.69,1.06a1,1,0,0,1-.27.61c-.29.27-1,.1-1.29.06l-.77-.11c-.69-.08-.67-.82-.77-.59-.51,1.16,1.18,1.43,1.74,1.52a9.78,9.78,0,0,0,1.63,0c.29-.1,1.51.25,1.77-.61.06-.13.14-.45.47-.19s1.63.63,2,.3a.79.79,0,0,1,.5-.26c.22,0,.3.13.2.34s-.22.66.15.88a.88.88,0,0,0,.79.2,3.1,3.1,0,0,1,1.13-.13c.16.12.26.31-.24.38a1,1,0,0,0-.69,1.49c.63,1.38.29,1.36,3.74,2.6A.49.49,0,0,1,435.05,181.53Z"/><path class="cls-3" d="M429.32,179.75c.65-.43,1.06-.51.81-1.23,0-.12-.17-.17-.64-.21-.24,0-1.31.65-.84,1.48C428.78,179.94,428.94,180.05,429.32,179.75Z"/><path class="cls-3" d="M429.46,181.81c.25.18,1.11-1,1.12-1.06s0-.27-.52-.5c-.25-.08-.88.26-1,.83C429,181.46,429.41,181.78,429.46,181.81Z"/><path class="cls-3" d="M428.21,177.82c.34-.2,1.05-.53,1-.85s-.24-.61-.88-.59a.91.91,0,0,0-.82,1.41C427.7,178,427.76,178.07,428.21,177.82Z"/><path class="cls-3" d="M423.77,181.63c-.94,1.54.94,2,1.82,1.81,1.41-.32,2.5-.16,3.06-.51.32-.19.88-.77.55-.91a1.53,1.53,0,0,1-.59-.66c0-.08.2-.51.1-.53s-.11.51-1.43.7a17.51,17.51,0,0,1-2.18.12c-.31,0-.65,0-1.18-.08A.12.12,0,0,0,423.77,181.63Z"/><path class="cls-3" d="M422.4,178.28a14.89,14.89,0,0,1,2.06.69,2.71,2.71,0,0,0,2.86-.05c.41-.19.58-.41.89-.53s.58-.37.28.12c-.15.23-.42.33-.39.82a1.57,1.57,0,0,0,.45.92s.1.06.05.07a2.37,2.37,0,0,1-2,.76c-1.86-.11-2.77.07-3.15,0a1,1,0,0,1-.24-.08c-.52-.2-.69-.35-.81-.54a2.09,2.09,0,0,1-.24-2.07C422.24,178.32,422.32,178.26,422.4,178.28Z"/><path class="cls-3" d="M421,174.62a2.09,2.09,0,0,0,.22,2.66c.56.44,1,.38,1.59.61,1.11.3,2,.66,2.41.79a2.11,2.11,0,0,0,1.68,0c.24-.13.74-.31.5-.5a1,1,0,0,1-.47-.8c-.12-.66.4-.91,0-.87a2.66,2.66,0,0,0-.76.16c-1.52.48-5.75.15-5-1.8C421.17,174.7,421.08,174.55,421,174.62Z"/><path class="cls-3" d="M423.43,173.91a1.13,1.13,0,0,0-.61,0c-.28,0-1.21-.1-1,.54s1.58.59,2,.58a.36.36,0,0,0,.36-.27C424.31,174.62,424.33,174.2,423.43,173.91Z"/><path class="cls-3" d="M418,168.36c1,.33,3.36.54,4.47,1.15a45.46,45.46,0,0,1,4.79,1.49,25.85,25.85,0,0,1,3.39,1.09,13.37,13.37,0,0,1-3.7.41,2.67,2.67,0,0,0-1.95.57,9.45,9.45,0,0,1-3.18-.9c0-.09,0-.2-.25-.22s-.12.06-.51,0c-2-.58-3-.95-3-.95-.42-.17-.23-.28-.37-.37s-.06.09-.54,0a19.6,19.6,0,0,1-2.63-.75c-1.54-.46-1.15-2.9,1.48-2.16C417.73,168.18,417.66,168.33,418,168.36Z"/><line class="cls-1" x1="238.5" y1="112.74" x2="303.96" y2="147.76"/><path class="cls-2" d="M321.74,158.6l-.6-.29a2.35,2.35,0,0,1-3.55,1.27,1.6,1.6,0,0,1-2.77.58,7,7,0,0,0-3.25-1.77c-2.34-.75-5.14-1.4-6.87-4.22a.45.45,0,0,0-.61-.14c-.27.21-.62,1.07-1.31.72l-2.57-1.37c-.91-.49-.93-2.22,1.36-6.46,2.38-4.41,3.36-6.12,5.2-5.16s2.29,1.23,2.29,1.23a.86.86,0,0,1,.41,1,.35.35,0,0,0,.34.36,19.7,19.7,0,0,1,5.15,1.1c1.92.78,2.92.61,4.05,1.45,1.33,1,6.1,3.35,7.52,4.09s3.34,2.34,6.3,3.83,1.11,4.67-1.32,3.18c-1.92-1.18-2.12-1-2.76-1.42a21.19,21.19,0,0,0-3.49-1.8,18.06,18.06,0,0,0-2.16-1.11c.59.53.52.73,1.27,1.71C325.42,156.91,323.11,159.23,321.74,158.6Z"/><path class="cls-3" d="M305.47,148.42a35.91,35.91,0,0,0-2.33,5.31c-.05.31-.33.37-.7.13s-1.64-.9-1.64-.9c-.61-.32-1-1.34,1.51-6s3.16-5.37,4.6-4.6l1.75,1a.36.36,0,0,1,.14.32C308.79,144,308,144,305.47,148.42Z"/><path class="cls-3" d="M309.37,151.12a.32.32,0,0,0-.22.24c0,.4.48.35.77.48s1.6.55,1.9,1.09a3.93,3.93,0,0,1,.54,3,2,2,0,0,0,.43,1.66c.35.36,0,.75-.33.59a18.69,18.69,0,0,1-4.48-1.77c-2.29-1.4-4.27-3-2.73-6.28a27.65,27.65,0,0,1,3-4.88c.73-.75,1.45-.36,2.26-.34,3.25.28,5,1.29,6.61,1.75.64.18,1.2.19,1.65,1.1,1,1.93,2.66,3.31,2.95,3.88a1.25,1.25,0,0,1,.23.67c0,.23.29.43.45.81a2.11,2.11,0,0,0,.31.52c-.45.2-.48-.31-1.24.24a1.08,1.08,0,0,0-.25.62c0,.39.62.79.85,1l.61.48c.54.43,1.06-.09,1,.14-.48,1.17-1.85.15-2.3-.2a9.67,9.67,0,0,1-1.16-1.15c-.12-.27-1.23-.91-.79-1.69.05-.14.23-.41-.19-.47s-1.58-.73-1.58-1.2a.75.75,0,0,0-.16-.55c-.13-.17-.29-.13-.38.09s-.32.63-.73.51a.91.91,0,0,1-.7-.43c-.17-.26-.47-.8-.69-.9s-.41,0-.1.43a1,1,0,0,1-.59,1.53c-1.45.51-1.19.74-4.48-.88A.47.47,0,0,0,309.37,151.12Z"/><path class="cls-3" d="M314.63,154c-.13-.77-.36-1.12.32-1.44.1-.07.25,0,.6.31.19.17.44,1.4-.49,1.64C314.87,154.52,314.68,154.49,314.63,154Z"/><path class="cls-3" d="M313.05,155.34c-.3-.06-.07-1.48,0-1.55s.17-.21.72,0a1.07,1.07,0,0,1,.1,1.3C313.64,155.44,313.11,155.35,313.05,155.34Z"/><path class="cls-3" d="M316.79,153.46c-.09-.37-.35-1.11-.07-1.29s.61-.25,1,.23a.9.9,0,0,1-.44,1.56C317.05,153.93,316.92,154,316.79,153.46Z"/><path class="cls-3" d="M317.13,159.31c-.46,1.74-2.1.72-2.56-.05-.75-1.25-1.62-1.92-1.76-2.56-.08-.36-.06-1.17.27-1a1.44,1.44,0,0,0,.88,0c.09,0,.23-.49.32-.43s-.29.43.49,1.52a15.4,15.4,0,0,0,1.43,1.64,8.71,8.71,0,0,0,.88.8A.12.12,0,0,1,317.13,159.31Z"/><path class="cls-3" d="M320.49,158a13.67,13.67,0,0,0-1.93-1,2.71,2.71,0,0,1-1.94-2.08c-.15-.44-.11-.71-.24-1s-.13-.67-.27-.11c-.07.27,0,.52-.33.84a1.47,1.47,0,0,1-1,.32c-.06,0-.12,0-.09,0a2.35,2.35,0,0,0,.84,2c1.38,1.27,1.87,2,2.18,2.28a.91.91,0,0,0,.22.12,1.43,1.43,0,0,0,1,.21c.22,0,1.41-.3,1.66-1.27C320.58,158.11,320.57,158,320.49,158Z"/><path class="cls-3" d="M324.1,156.44c.11.06-.62,1.89-2.06,1.69-.71-.1-1-.43-1.55-.72-1-.6-1.84-1-2.24-1.18a2.09,2.09,0,0,1-1.14-1.25c-.07-.26-.29-.74,0-.7a1.05,1.05,0,0,0,.89-.21c.56-.38.39-.93.64-.61a2.88,2.88,0,0,1,.41.66c.71,1.42,3.88,4.24,4.78,2.37C323.93,156.36,324.09,156.33,324.1,156.44Z"/><path class="cls-3" d="M322.92,154.19c.23.1.32.33.41.45s.92.81.29,1.08-1.52-.73-1.84-1.07a.37.37,0,0,1-.06-.45C321.8,154.05,322.09,153.75,322.92,154.19Z"/><path class="cls-3" d="M330.73,154.29c-.91-.46-2.73-2-3.94-2.42a40.78,40.78,0,0,0-4.4-2.41,24.19,24.19,0,0,0-3.13-1.68,13.16,13.16,0,0,0,2.27,2.94,2.65,2.65,0,0,1,.94,1.8,9.47,9.47,0,0,0,2.85,1.66c.08-.05.15-.13.34,0s0,.13.38.34c1.79,1,2.77,1.5,2.77,1.5.41.19.36,0,.52,0s0,.11.38.39a19.43,19.43,0,0,0,2.37,1.37c1.4.79,2.88-1.18.52-2.56C331,154.32,331,154.47,330.73,154.29Z"/><line class="cls-4" x1="357.37" y1="131.26" x2="357.37" y2="88.57"/><line class="cls-4" x1="389.09" y1="175.27" x2="422.78" y2="149.06"/><line class="cls-5" x1="376.5" y1="169.52" x2="366.93" y2="159.22"/><line class="cls-5" x1="335.29" y1="170.26" x2="345.59" y2="159.22"/><circle class="cls-6" cx="330.68" cy="182.37" r="16.07"/><text class="cls-7" transform="translate(324.01 189.1)">H</text><circle class="cls-6" cx="381.85" cy="182.37" r="16.07"/><text class="cls-7" transform="translate(375.18 189.1)">H</text><circle class="cls-8" cx="356.26" cy="146.34" r="18.03"/><text class="cls-9" transform="translate(348.05 153.89)">O</text><line class="cls-5" x1="432.53" y1="112.19" x2="431.48" y2="126.21"/><line class="cls-5" x1="461.08" y1="141.92" x2="445.99" y2="141.86"/><circle class="cls-6" cx="473.1" cy="137.07" r="16.07"/><text class="cls-7" transform="translate(482.54 137.43) rotate(-132.82)">H</text><circle class="cls-6" cx="438.32" cy="99.53" r="16.07"/><text class="cls-7" transform="translate(447.76 99.9) rotate(-132.82)">H</text><circle class="cls-8" cx="429.29" cy="142.79" r="18.03"/><text class="cls-9" transform="translate(440.38 143.74) rotate(-132.82)">O</text><line class="cls-5" x1="357.07" y1="74.81" x2="357.59" y2="60.76"/><line class="cls-5" x1="327.41" y1="46.19" x2="342.5" y2="45.67"/><circle class="cls-6" cx="315.58" cy="51.5" r="16.07"/><text class="cls-7" transform="translate(306.15 51.57) rotate(45)">H</text><circle class="cls-6" cx="351.76" cy="87.68" r="16.07"/><text class="cls-7" transform="translate(342.33 87.75) rotate(45)">H</text><circle class="cls-8" cx="359.15" cy="44.11" r="18.03"/><text class="cls-9" transform="translate(348.05 43.67) rotate(45)">O</text><rect class="cls-10" x="484.5" y="1.5" width="158" height="49" rx="7.73"/><path class="cls-11" d="M497.05,17.06c0-2.82,1.55-4.53,3.75-4.53s3.76,1.71,3.76,4.53-1.55,4.58-3.76,4.58S497.05,19.88,497.05,17.06Zm6.37,0c0-2.21-1.05-3.56-2.62-3.56s-2.61,1.35-2.61,3.56,1,3.61,2.61,3.61S503.42,19.26,503.42,17.06Z"/><path class="cls-11" d="M508,18.09,506,15h1.17l.88,1.42c.2.37.43.73.64,1.09h0c.21-.36.4-.72.59-1.09l.8-1.42h1.14l-2,3.22,2.15,3.29h-1.2l-1-1.53c-.21-.39-.45-.79-.69-1.16h-.06c-.23.37-.45.77-.68,1.16L507,21.49h-1.15Z"/><path class="cls-11" d="M512.7,24.16l.21-.87a1.85,1.85,0,0,0,.49.1c.75,0,1.22-.6,1.48-1.4l.14-.49L512.41,15h1.14l1.33,3.62.62,1.82h.06c.18-.59.37-1.25.56-1.82L517.28,15h1.07L515.89,22c-.45,1.28-1.13,2.26-2.43,2.26A1.85,1.85,0,0,1,512.7,24.16Z"/><path class="cls-11" d="M519.72,22.73a1.81,1.81,0,0,1,1-1.47v-.05a1.17,1.17,0,0,1-.6-1.07,1.57,1.57,0,0,1,.73-1.21v-.05a2.27,2.27,0,0,1-.85-1.75,2.31,2.31,0,0,1,2.44-2.32,2.6,2.6,0,0,1,.92.17h2.26v.83h-1.33a1.87,1.87,0,0,1,.53,1.35,2.23,2.23,0,0,1-2.38,2.26,2.33,2.33,0,0,1-1-.22A1,1,0,0,0,521,20c0,.42.27.7,1.14.7h1.27c1.51,0,2.28.48,2.28,1.55s-1.28,2.26-3.3,2.26C520.81,24.49,519.72,23.86,519.72,22.73Zm4.91-.33c0-.6-.46-.8-1.33-.8h-1.12a3.73,3.73,0,0,1-.84-.11,1.34,1.34,0,0,0-.66,1.1c0,.7.7,1.15,1.88,1.15S524.63,23.08,524.63,22.4Zm-.84-5.27a1.4,1.4,0,1,0-2.78,0,1.4,1.4,0,1,0,2.78,0Z"/><path class="cls-11" d="M526.89,18.24a3.15,3.15,0,0,1,2.94-3.43c1.66,0,2.59,1.2,2.59,3.06a3.61,3.61,0,0,1,0,.62H528a2.17,2.17,0,0,0,2.16,2.28,2.75,2.75,0,0,0,1.63-.52l.4.72a3.9,3.9,0,0,1-2.16.67A3.11,3.11,0,0,1,526.89,18.24Zm4.57-.54c0-1.31-.6-2-1.62-2a2,2,0,0,0-1.87,2Z"/><path class="cls-11" d="M534.63,15h.9l.1.93h0a3.15,3.15,0,0,1,2.19-1.1c1.36,0,2,.88,2,2.55v4.13h-1.09v-4c0-1.23-.37-1.74-1.24-1.74a2.48,2.48,0,0,0-1.79,1v4.73h-1.09Z"/><path class="cls-11" d="M545.44,19.8c0-1.42,1.24-2.13,4-2.44,0-.84-.28-1.64-1.34-1.64a3.66,3.66,0,0,0-2,.69l-.43-.75a4.84,4.84,0,0,1,2.57-.85c1.58,0,2.25,1.06,2.25,2.67v4h-.9l-.09-.78h0a3.49,3.49,0,0,1-2.16.93A1.77,1.77,0,0,1,545.44,19.8Zm4,.1V18.08c-2.19.27-2.94.8-2.94,1.64s.51,1.05,1.15,1.05A2.65,2.65,0,0,0,549.45,19.9Z"/><path class="cls-11" d="M553.23,19.47V15.86h-1V15l1,0,.13-1.84h.91V15h1.77v.88h-1.77V19.5c0,.8.26,1.26,1,1.26a2.35,2.35,0,0,0,.74-.17l.22.81a4.06,4.06,0,0,1-1.2.24C553.7,21.64,553.23,20.77,553.23,19.47Z"/><path class="cls-11" d="M557.49,18.24a3,3,0,1,1,6,0,3,3,0,1,1-6,0Zm4.92,0c0-1.5-.77-2.52-1.9-2.52s-1.88,1-1.88,2.52.76,2.49,1.88,2.49S562.41,19.74,562.41,18.24Z"/><path class="cls-11" d="M565.86,15h.9l.09.94h0a2.85,2.85,0,0,1,2-1.11,1.71,1.71,0,0,1,1.79,1.24,3.1,3.1,0,0,1,2.15-1.24c1.34,0,2,.88,2,2.55v4.13h-1.09v-4c0-1.23-.39-1.74-1.21-1.74a2.4,2.4,0,0,0-1.65,1v4.73H569.8v-4c0-1.23-.38-1.74-1.21-1.74a2.4,2.4,0,0,0-1.64,1v4.73h-1.09Z"/><path class="cls-11" d="M577.1,23.12a1.8,1.8,0,0,0,1.2-1.63h-.13a.75.75,0,0,1-.81-.77.78.78,0,0,1,.83-.77c.58,0,.93.5.93,1.3a2.69,2.69,0,0,1-1.76,2.51Z"/><path class="cls-11" d="M584.38,17.06c0-2.82,1.55-4.53,3.76-4.53s3.75,1.71,3.75,4.53-1.55,4.58-3.75,4.58S584.38,19.88,584.38,17.06Zm6.37,0c0-2.21-1-3.56-2.61-3.56s-2.62,1.35-2.62,3.56,1,3.61,2.62,3.61S590.75,19.26,590.75,17.06Z"/><path class="cls-11" d="M597.58,11.94h1.09v2.62l0,1.34a3.05,3.05,0,0,1,2.16-1.09c1.37,0,2,.88,2,2.55v4.13H601.7v-4c0-1.23-.37-1.74-1.24-1.74a2.48,2.48,0,0,0-1.79,1v4.73h-1.09Z"/><path class="cls-11" d="M605.06,19.8c0-1.42,1.23-2.13,4-2.44,0-.84-.28-1.64-1.35-1.64a3.63,3.63,0,0,0-2,.69l-.43-.75a4.83,4.83,0,0,1,2.56-.85c1.59,0,2.26,1.06,2.26,2.67v4h-.9l-.1-.78h0a3.54,3.54,0,0,1-2.16.93A1.77,1.77,0,0,1,605.06,19.8Zm4,.1V18.08c-2.2.27-2.94.8-2.94,1.64s.5,1.05,1.15,1.05A2.67,2.67,0,0,0,609.07,19.9Z"/><path class="cls-11" d="M612.1,20.74l.54-.72a3,3,0,0,0,1.94.77c.86,0,1.28-.45,1.28-1s-.77-1-1.49-1.23c-.91-.34-1.91-.78-1.91-1.89s.84-1.84,2.26-1.84a3.27,3.27,0,0,1,2,.73l-.52.71a2.38,2.38,0,0,0-1.48-.58c-.83,0-1.21.43-1.21.94s.67.85,1.4,1.12c1,.36,2,.75,2,2,0,1.06-.84,1.93-2.37,1.93A3.94,3.94,0,0,1,612.1,20.74Z"/><path class="cls-12" d="M497.46,26.34h1.09V29l0,1.34a3.05,3.05,0,0,1,2.16-1.09c1.37,0,2,.88,2,2.55v4.13h-1.09v-4c0-1.23-.37-1.74-1.24-1.74a2.46,2.46,0,0,0-1.78,1v4.73h-1.09Z"/><path class="cls-12" d="M505.16,27.3a.73.73,0,1,1,.73.73A.69.69,0,0,1,505.16,27.3Zm.18,2.08h1.09v6.51h-1.09Z"/><path class="cls-12" d="M508.75,37.13a1.83,1.83,0,0,1,1-1.47v0a1.17,1.17,0,0,1-.6-1.07,1.57,1.57,0,0,1,.73-1.21v0a2.27,2.27,0,0,1-.85-1.75,2.32,2.32,0,0,1,2.45-2.32,2.54,2.54,0,0,1,.91.17h2.26v.83h-1.33a1.87,1.87,0,0,1,.53,1.35,2.23,2.23,0,0,1-2.37,2.26,2.34,2.34,0,0,1-1-.22,1,1,0,0,0-.42.78c0,.42.27.7,1.14.7h1.28c1.51,0,2.27.48,2.27,1.55s-1.28,2.26-3.29,2.26C509.84,38.89,508.75,38.26,508.75,37.13Zm4.92-.33c0-.6-.47-.8-1.34-.8h-1.12a3.8,3.8,0,0,1-.84-.11,1.34,1.34,0,0,0-.66,1.1c0,.7.71,1.15,1.88,1.15S513.67,37.48,513.67,36.8Zm-.84-5.27a1.4,1.4,0,1,0-2.79,0,1.4,1.4,0,1,0,2.79,0Z"/><path class="cls-12" d="M516.6,26.34h1.09V29l0,1.34a3.05,3.05,0,0,1,2.16-1.09c1.37,0,2,.88,2,2.55v4.13h-1.09v-4c0-1.23-.37-1.74-1.24-1.74a2.46,2.46,0,0,0-1.78,1v4.73H516.6Z"/><path class="cls-12" d="M527.28,32.64a3.15,3.15,0,0,1,2.93-3.43c1.66,0,2.6,1.2,2.6,3.06a5,5,0,0,1,0,.62h-4.39a2.16,2.16,0,0,0,2.16,2.28,2.78,2.78,0,0,0,1.63-.52l.39.72a3.87,3.87,0,0,1-2.16.67A3.11,3.11,0,0,1,527.28,32.64Zm4.57-.54c0-1.31-.6-2-1.62-2a2,2,0,0,0-1.87,2Z"/><path class="cls-12" d="M535,34.59V26.34h1.09v8.32c0,.34.14.47.31.47l.23,0,.15.84a1.65,1.65,0,0,1-.63.09C535.35,36,535,35.52,535,34.59Z"/><path class="cls-12" d="M538.54,32.64a3.15,3.15,0,0,1,2.94-3.43c1.66,0,2.59,1.2,2.59,3.06a5.23,5.23,0,0,1,0,.62h-4.39a2.15,2.15,0,0,0,2.15,2.28,2.79,2.79,0,0,0,1.64-.52l.39.72a3.87,3.87,0,0,1-2.16.67A3.12,3.12,0,0,1,538.54,32.64Zm4.57-.54c0-1.31-.6-2-1.61-2a2,2,0,0,0-1.88,2Z"/><path class="cls-12" d="M545.79,32.64a3.17,3.17,0,0,1,3.14-3.43,2.81,2.81,0,0,1,1.91.76l-.56.72a2,2,0,0,0-1.3-.57c-1.19,0-2.05,1-2.05,2.52s.82,2.49,2,2.49a2.25,2.25,0,0,0,1.53-.65l.48.74a3.19,3.19,0,0,1-2.11.82C547.12,36,545.79,34.8,545.79,32.64Z"/><path class="cls-12" d="M553.05,33.87V30.26h-1v-.83l1-.05.13-1.84h.91v1.84h1.77v.88h-1.77V33.9c0,.8.26,1.26,1,1.26a2.35,2.35,0,0,0,.74-.17l.22.81a4.06,4.06,0,0,1-1.2.24C553.52,36,553.05,35.17,553.05,33.87Z"/><path class="cls-12" d="M558,29.38h.9l.1,1.18h0a2.22,2.22,0,0,1,1.84-1.35,1.39,1.39,0,0,1,.7.14l-.21,1a1.57,1.57,0,0,0-.63-.11c-.54,0-1.21.39-1.64,1.5v4.19H558Z"/><path class="cls-12" d="M562.62,32.64a3,3,0,1,1,6,0,3,3,0,1,1-6,0Zm4.91,0c0-1.5-.76-2.52-1.89-2.52s-1.88,1-1.88,2.52.75,2.49,1.88,2.49S567.53,34.14,567.53,32.64Z"/><path class="cls-12" d="M571,29.38h.9l.1.93h0a3.15,3.15,0,0,1,2.18-1.1c1.37,0,2,.88,2,2.55v4.13h-1.1v-4c0-1.23-.37-1.74-1.23-1.74a2.48,2.48,0,0,0-1.79,1v4.73H571Z"/><path class="cls-12" d="M578.42,32.64a3.15,3.15,0,0,1,2.94-3.43c1.65,0,2.59,1.2,2.59,3.06a5,5,0,0,1-.05.62h-4.39a2.16,2.16,0,0,0,2.16,2.28,2.75,2.75,0,0,0,1.63-.52l.4.72a3.9,3.9,0,0,1-2.16.67A3.11,3.11,0,0,1,578.42,32.64ZM583,32.1c0-1.31-.6-2-1.62-2a2,2,0,0,0-1.87,2Z"/><path class="cls-12" d="M585.54,37.13a1.81,1.81,0,0,1,1-1.47v0a1.17,1.17,0,0,1-.6-1.07,1.57,1.57,0,0,1,.73-1.21v0a2.27,2.27,0,0,1-.85-1.75,2.31,2.31,0,0,1,2.44-2.32,2.5,2.5,0,0,1,.91.17h2.27v.83h-1.33a1.87,1.87,0,0,1,.53,1.35,2.23,2.23,0,0,1-2.38,2.26,2.33,2.33,0,0,1-1-.22,1,1,0,0,0-.42.78c0,.42.27.7,1.14.7h1.27c1.51,0,2.28.48,2.28,1.55s-1.28,2.26-3.3,2.26C586.63,38.89,585.54,38.26,585.54,37.13Zm4.91-.33c0-.6-.46-.8-1.33-.8H588a3.66,3.66,0,0,1-.84-.11,1.34,1.34,0,0,0-.66,1.1c0,.7.7,1.15,1.88,1.15S590.45,37.48,590.45,36.8Zm-.84-5.27a1.4,1.4,0,1,0-2.78,0,1.4,1.4,0,1,0,2.78,0Z"/><path class="cls-12" d="M592.76,34.2c0-1.42,1.24-2.13,4-2.44,0-.84-.28-1.64-1.35-1.64a3.63,3.63,0,0,0-1.95.69l-.43-.75a4.83,4.83,0,0,1,2.56-.85c1.59,0,2.26,1.06,2.26,2.67v4H597l-.1-.78h0a3.54,3.54,0,0,1-2.16.93A1.77,1.77,0,0,1,592.76,34.2Zm4,.1V32.48c-2.2.27-2.94.8-2.94,1.64s.5,1.05,1.15,1.05A2.67,2.67,0,0,0,596.77,34.3Z"/><path class="cls-12" d="M600.55,33.87V30.26h-1v-.83l1-.05.13-1.84h.91v1.84h1.76v.88h-1.76V33.9c0,.8.25,1.26,1,1.26a2.48,2.48,0,0,0,.74-.17l.22.81a4.19,4.19,0,0,1-1.2.24C601,36,600.55,35.17,600.55,33.87Z"/><path class="cls-12" d="M605.3,27.3A.73.73,0,1,1,606,28,.69.69,0,0,1,605.3,27.3Zm.18,2.08h1.09v6.51h-1.09Z"/><path class="cls-12" d="M608.43,29.38h1.14l1.22,3.7c.21.64.41,1.31.62,1.92h.05c.2-.61.4-1.28.59-1.92l1.24-3.7h1.08l-2.32,6.51h-1.27Z"/><path class="cls-12" d="M616.05,27.3a.73.73,0,1,1,.73.73A.69.69,0,0,1,616.05,27.3Zm.18,2.08h1.09v6.51h-1.09Z"/><path class="cls-12" d="M620.32,33.87V30.26h-1v-.83l1-.05.13-1.84h.92v1.84h1.76v.88h-1.76V33.9c0,.8.25,1.26,1,1.26a2.47,2.47,0,0,0,.75-.17l.21.81a4.06,4.06,0,0,1-1.2.24C620.79,36,620.32,35.17,620.32,33.87Z"/><path class="cls-12" d="M624.6,38.56l.21-.87a1.85,1.85,0,0,0,.49.1c.75,0,1.21-.6,1.48-1.4l.14-.49-2.61-6.52h1.14L626.78,33l.62,1.82h.06c.18-.59.37-1.25.55-1.82l1.17-3.62h1.07l-2.46,7.05c-.45,1.28-1.13,2.26-2.43,2.26A1.85,1.85,0,0,1,624.6,38.56Z"/><rect class="cls-10" x="507.5" y="146.5" width="204" height="116" rx="13.51"/><text class="cls-13" transform="translate(522.54 172.02)">Attraction forces<tspan class="cls-11" x="101.93" y="0" xml:space="preserve"> between </tspan><tspan class="cls-11"><tspan x="0" y="14.4">hydrogen atom, H in water </tspan><tspan x="0" y="28.8">molecule with oxygen atom, </tspan><tspan x="0" y="43.2">O from another water </tspan><tspan x="0" y="57.6">molecule forms a </tspan><tspan class="cls-12" x="109.37" y="57.6">hydrogen </tspan></tspan><tspan x="0" y="72">bond.</tspan></text><rect class="cls-10" x="1.5" y="50.5" width="237" height="116" rx="14.56"/><text class="cls-14" transform="translate(16.54 76.02)">Water molecule, H</text><text class="cls-14" transform="translate(128.66 80.02) scale(0.58)">2</text><text class="cls-14" transform="translate(132.89 76.02)">O consists of <tspan x="-116.35" y="14.4">two hydrogen atoms, H and one </tspan><tspan x="-116.35" y="28.8">oxygen atom, O. Hydrogen, H and </tspan><tspan x="-116.35" y="43.2">oxygen, O are bonded by sharing </tspan><tspan x="-116.35" y="57.6">electrons with one another. This </tspan><tspan x="-116.35" y="72">type of bond is a </tspan><tspan class="cls-12" x="-10.93" y="72">covalent bond.</tspan></text></g></g></svg>