<svg xmlns="http://www.w3.org/2000/svg" viewBox="0 0 199.51 203.31"><defs><style>.cls-1{font-size:38.94px;font-family:NotoSansSC-Regular-90ms-RKSJ-H, Noto Sans SC;}.cls-1,.cls-3{fill:#231f20;}.cls-2{fill:#de4948;}</style></defs><g id="Layer_2" data-name="Layer 2"><g id="Layer_1-2" data-name="Layer 1"><text class="cls-1" transform="translate(69.01 109.41) scale(0.98 1)">N</text><ellipse class="cls-2" cx="100.88" cy="89.24" rx="3.1" ry="3.15"/><ellipse class="cls-2" cx="100.88" cy="99.76" rx="3.1" ry="3.15"/><ellipse class="cls-2" cx="65.19" cy="89.76" rx="3.1" ry="3.15"/><ellipse class="cls-2" cx="65.19" cy="99.76" rx="3.1" ry="3.15"/><ellipse class="cls-2" cx="77.6" cy="73.48" rx="3.1" ry="3.15"/><ellipse class="cls-2" cx="87.95" cy="73.48" rx="3.1" ry="3.15"/><ellipse class="cls-2" cx="77.95" cy="116.58" rx="3.1" ry="3.15"/><ellipse class="cls-2" cx="87.95" cy="116.58" rx="3.1" ry="3.15"/><text class="cls-1" transform="translate(69.01 55.33) scale(0.98 1)">H</text><text class="cls-1" transform="translate(69.01 162.49) scale(0.98 1)">H</text><text class="cls-1" transform="translate(126.43 109.41) scale(0.98 1)">H</text><text class="cls-1" transform="translate(14.17 109.41) scale(0.98 1)">H</text><text class="cls-1" transform="translate(178.27 34.27) scale(0.98 1)">+</text><polygon class="cls-3" points="142.06 18.4 142.06 20.24 165.81 20.24 165.81 170.04 142.06 170.04 142.06 171.89 167.1 171.89 167.1 18.4 142.06 18.4"/><polygon class="cls-3" points="23.75 170.04 1.29 170.04 1.29 20.24 23.75 20.24 23.75 18.4 0 18.4 0 171.89 23.75 171.89 23.75 170.04"/></g></g></svg>