<svg xmlns="http://www.w3.org/2000/svg" viewBox="0 0 654.09 274.68"><defs><style>.cls-1{fill:#417d7a;stroke:#193c40;}.cls-1,.cls-3,.cls-5,.cls-9{stroke-miterlimit:10;}.cls-1,.cls-5{stroke-width:3px;}.cls-2{font-size:11.94px;fill:#ece6db;}.cls-2,.cls-6{font-family:NotoSansSC-Regular-90ms-RKSJ-H, Noto Sans SC;}.cls-3,.cls-5,.cls-9{fill:none;stroke:#231f20;}.cls-3{stroke-width:4px;}.cls-4,.cls-6{fill:#231f20;}.cls-6{font-size:27.25px;}.cls-7{fill:#de4948;}.cls-8{fill:#1e5d64;}.cls-9{stroke-width:2px;}</style></defs><g id="Layer_2" data-name="Layer 2"><g id="Layer_1-2" data-name="Layer 1"><rect class="cls-1" x="491.04" y="153.65" width="161.55" height="94.5" rx="10.85"/><text class="cls-2" transform="translate(501.87 174.01) scale(0.98 1)">O donates a pair of <tspan x="0" y="14.32">electrons to share with </tspan><tspan x="0" y="28.65">H</tspan></text><text class="cls-2" transform="translate(511.01 198.69) scale(0.57 0.58)">+</text><text class="cls-2" transform="translate(515.15 202.66) scale(0.98 1)"><tspan xml:space="preserve"> ion, forming a dative </tspan><tspan x="-13.5" y="14.32">bond in H</tspan></text><text class="cls-2" transform="translate(560.22 220.96) scale(0.57 0.58)">3</text><text class="cls-2" transform="translate(564.37 216.99) scale(0.98 1)">O</text><text class="cls-2" transform="translate(573.67 213.01) scale(0.57 0.58)">+</text><text class="cls-2" transform="translate(577.82 216.99) scale(0.98 1)"><tspan xml:space="preserve"> ion. </tspan></text><rect class="cls-1" x="248.23" y="153.65" width="161.55" height="94.5" rx="10.85"/><text class="cls-2" transform="translate(259.06 174.01) scale(0.98 1)">H</text><text class="cls-2" transform="translate(268.2 170.04) scale(0.57 0.58)">+</text><text class="cls-2" transform="translate(272.34 174.01) scale(0.98 1)"><tspan xml:space="preserve"> ion acts as the </tspan><tspan x="-13.5" y="14.32">acceptor to accept the </tspan><tspan x="-13.5" y="28.65">pair of electrons.</tspan></text><rect class="cls-1" x="1.5" y="153.65" width="161.55" height="94.5" rx="10.85"/><line class="cls-3" x1="439.57" y1="63.65" x2="467.74" y2="63.65"/><polygon class="cls-4" points="479.04 63.65 463.12 70.15 466.9 63.65 463.12 57.14 479.04 63.65"/><line class="cls-3" x1="182.25" y1="63.65" x2="210.42" y2="63.65"/><polygon class="cls-4" points="221.71 63.65 205.79 70.15 209.57 63.65 205.79 57.14 221.71 63.65"/><line class="cls-5" x1="47.97" y1="71" x2="33.12" y2="79.46"/><line class="cls-5" x1="33.12" y1="45.99" x2="47.97" y2="54.45"/><text class="cls-6" transform="translate(87.29 73.28) scale(0.98 1)">+</text><ellipse class="cls-7" cx="72.23" cy="59.23" rx="2.17" ry="2.21"/><ellipse class="cls-7" cx="72.23" cy="66.59" rx="2.17" ry="2.21"/><ellipse class="cls-7" cx="55.21" cy="48.19" rx="2.17" ry="2.21"/><ellipse class="cls-7" cx="62.45" cy="48.19" rx="2.17" ry="2.21"/><text class="cls-6" transform="translate(11.18 97.99) scale(0.98 1)">H</text><text class="cls-6" transform="translate(11.18 48.69) scale(0.98 1)">H</text><text class="cls-6" transform="translate(116.18 73.34) scale(0.98 1)">H</text><text class="cls-6" transform="translate(135.71 64.27) scale(0.57 0.58)">+</text><text class="cls-6" transform="translate(49.19 73.34) scale(0.98 1)">O</text><polygon class="cls-8" points="565.17 67.58 564.05 66.44 565.17 65.31 564.5 64.64 563.39 65.77 562.27 64.64 561.61 65.31 562.72 66.44 561.61 67.58 562.27 68.25 563.39 67.12 564.5 68.25 565.17 67.58"/><polygon class="cls-8" points="555.75 48.45 554.64 47.32 555.75 46.19 555.09 45.51 553.97 46.64 552.86 45.51 552.19 46.19 553.3 47.32 552.19 48.45 552.86 49.13 553.97 47.99 555.09 49.13 555.75 48.45"/><ellipse class="cls-7" cx="579.13" cy="47.46" rx="2.17" ry="2.21"/><ellipse class="cls-7" cx="579.13" cy="54.82" rx="2.17" ry="2.21"/><ellipse class="cls-7" cx="554.15" cy="54.82" rx="2.17" ry="2.21"/><ellipse class="cls-7" cx="562.84" cy="36.42" rx="2.17" ry="2.21"/><ellipse class="cls-7" cx="570.08" cy="36.42" rx="2.17" ry="2.21"/><ellipse class="cls-7" cx="570.08" cy="66.59" rx="2.17" ry="2.21"/><text class="cls-6" transform="translate(556.82 98.72) scale(0.98 1)">H</text><text class="cls-6" transform="translate(597.01 61.57) scale(0.98 1)">H</text><text class="cls-6" transform="translate(518.44 61.57) scale(0.98 1)">H</text><text class="cls-6" transform="translate(556.82 61.57) scale(0.98 1)">O</text><text class="cls-6" transform="translate(633.29 23.98) scale(0.98 1)">+</text><polygon class="cls-4" points="607.95 12.88 607.95 14.17 624.57 14.17 624.57 119.01 607.95 119.01 607.95 120.3 625.48 120.3 625.48 12.88 607.95 12.88"/><polygon class="cls-4" points="525.15 119.01 509.43 119.01 509.43 14.17 525.15 14.17 525.15 12.88 508.53 12.88 508.53 120.3 525.15 120.3 525.15 119.01"/><line class="cls-9" x1="345.3" y1="63.65" x2="361.02" y2="63.65"/><polygon class="cls-4" points="366.67 63.65 358.7 66.9 360.59 63.65 358.7 60.39 366.67 63.65"/><line class="cls-5" x1="311.63" y1="71" x2="296.78" y2="79.46"/><line class="cls-5" x1="296.78" y1="45.99" x2="311.63" y2="54.45"/><ellipse class="cls-7" cx="335.89" cy="59.23" rx="2.17" ry="2.21"/><ellipse class="cls-7" cx="335.89" cy="66.59" rx="2.17" ry="2.21"/><ellipse class="cls-7" cx="318.87" cy="48.19" rx="2.17" ry="2.21"/><ellipse class="cls-7" cx="326.11" cy="48.19" rx="2.17" ry="2.21"/><text class="cls-6" transform="translate(274.84 97.99) scale(0.98 1)">H</text><text class="cls-6" transform="translate(274.84 48.69) scale(0.98 1)">H</text><text class="cls-6" transform="translate(372.96 73.34) scale(0.98 1)">H</text><text class="cls-6" transform="translate(312.86 73.34) scale(0.98 1)">O</text><text class="cls-6" transform="translate(422.27 23.98) scale(0.98 1)">+</text><polygon class="cls-4" points="387.22 12.88 387.22 14.17 410.48 14.17 410.48 119.01 387.22 119.01 387.22 120.3 411.75 120.3 411.75 12.88 387.22 12.88"/><polygon class="cls-4" points="271.34 119.01 249.35 119.01 249.35 14.17 271.34 14.17 271.34 12.88 248.08 12.88 248.08 120.3 271.34 120.3 271.34 119.01"/><text class="cls-2" transform="translate(12.33 174.01) scale(0.98 1)">The oxygen atom in a <tspan x="0" y="14.32">water molecule has two </tspan><tspan x="0" y="28.65">pairs of unshared </tspan><tspan x="0" y="42.97">electrons and acts as </tspan><tspan x="0" y="57.3">the donor atom</tspan></text></g></g></svg>