<svg xmlns="http://www.w3.org/2000/svg" viewBox="0 0 635 160.01"><defs><style>.cls-1{fill:none;stroke:#231f20;}.cls-1,.cls-5{stroke-miterlimit:10;stroke-width:3px;}.cls-2,.cls-3{fill:#231f20;}.cls-3{font-size:74.09px;font-family:NotoSansSC-Regular-90ms-RKSJ-H, Noto Sans SC;}.cls-4{fill:#de4948;}.cls-5{fill:#417d7a;stroke:#193c40;}.cls-6{fill:#ece6db;}</style></defs><g id="Layer_2" data-name="Layer 2"><g id="Layer_1-2" data-name="Layer 1"><line class="cls-1" x1="368" y1="35.51" x2="435.41" y2="35.51"/><polygon class="cls-2" points="446 35.51 431.08 41.6 434.62 35.51 431.08 29.41 446 35.51"/><text class="cls-3" transform="translate(185.59 65.2)">+</text><circle class="cls-4" cx="556" cy="25.01" r="10"/><circle class="cls-4" cx="556" cy="52.01" r="10"/><circle class="cls-4" cx="116" cy="25.01" r="10"/><circle class="cls-4" cx="116" cy="52.01" r="10"/><text class="cls-3" transform="translate(571.38 65.36)">B</text><text class="cls-3" transform="translate(276.38 65.36)">B</text><text class="cls-3" transform="translate(493.38 65.36)">A</text><text class="cls-3" transform="translate(47.38 65.36)">A</text><rect class="cls-5" x="478.5" y="101.51" width="155" height="57" rx="8.25"/><path class="cls-6" d="M493.39,113.64h-2.66v-1h6.44v1H494.5v7.85h-1.11Z"/><path class="cls-6" d="M498,115h1.11l1,3.77c.13.62.26,1.21.38,1.82h.06c.14-.61.28-1.21.44-1.82l1-3.77h1.07l1,3.77c.15.62.3,1.21.45,1.82h.05c.15-.61.27-1.2.41-1.82l1-3.77h1l-1.75,6.51h-1.32L503,118c-.17-.61-.29-1.21-.44-1.87h-.06c-.14.66-.28,1.27-.44,1.89l-.92,3.49h-1.28Z"/><path class="cls-6" d="M508.47,118.24a3,3,0,1,1,3,3.41A3.13,3.13,0,0,1,508.47,118.24Zm4.92,0c0-1.5-.77-2.51-1.89-2.51s-1.89,1-1.89,2.51.76,2.5,1.89,2.5S513.39,119.74,513.39,118.24Z"/><path class="cls-6" d="M519.63,118.24a3.15,3.15,0,0,1,2.94-3.43c1.66,0,2.59,1.2,2.59,3.06a3.65,3.65,0,0,1,0,.63h-4.39a2.16,2.16,0,0,0,2.16,2.27,2.79,2.79,0,0,0,1.63-.51l.4.72a3.9,3.9,0,0,1-2.16.67A3.11,3.11,0,0,1,519.63,118.24Zm4.57-.54c0-1.3-.6-2-1.62-2a2,2,0,0,0-1.87,2Z"/><path class="cls-6" d="M527.37,120.2V112h1.09v8.32c0,.34.15.47.32.47a.73.73,0,0,0,.22,0l.16.84a1.71,1.71,0,0,1-.64.1C527.71,121.65,527.37,121.12,527.37,120.2Z"/><path class="cls-6" d="M530.9,118.24a3.15,3.15,0,0,1,2.94-3.43c1.65,0,2.59,1.2,2.59,3.06a3.65,3.65,0,0,1,0,.63H532a2.15,2.15,0,0,0,2.16,2.27,2.82,2.82,0,0,0,1.63-.51l.4.72a3.9,3.9,0,0,1-2.16.67A3.11,3.11,0,0,1,530.9,118.24Zm4.57-.54c0-1.3-.6-2-1.62-2a2,2,0,0,0-1.87,2Z"/><path class="cls-6" d="M538.15,118.24a3.17,3.17,0,0,1,3.14-3.43,2.79,2.79,0,0,1,1.91.77l-.57.72a1.94,1.94,0,0,0-1.29-.57c-1.19,0-2.05,1-2.05,2.51s.81,2.5,2,2.5a2.32,2.32,0,0,0,1.54-.65l.48.73a3.15,3.15,0,0,1-2.11.83C539.48,121.65,538.15,120.4,538.15,118.24Z"/><path class="cls-6" d="M545.41,119.48v-3.61h-1V115l1-.06.13-1.83h.91V115h1.76v.89H546.5v3.63c0,.81.25,1.26,1,1.26a2.1,2.1,0,0,0,.74-.17l.22.82a4.19,4.19,0,0,1-1.2.24C545.88,121.65,545.41,120.77,545.41,119.48Z"/><path class="cls-6" d="M550.34,115h.9l.09,1.19h0a2.26,2.26,0,0,1,1.85-1.36,1.33,1.33,0,0,1,.69.15l-.2,1a1.46,1.46,0,0,0-.64-.11c-.54,0-1.21.38-1.64,1.5v4.18h-1.09Z"/><path class="cls-6" d="M555,118.24a3,3,0,1,1,3,3.41A3.13,3.13,0,0,1,555,118.24Zm4.92,0c0-1.5-.77-2.51-1.9-2.51s-1.88,1-1.88,2.51.76,2.5,1.88,2.5S559.89,119.74,559.89,118.24Z"/><path class="cls-6" d="M563.34,115h.9l.09.94h0a3.12,3.12,0,0,1,2.18-1.11c1.37,0,2,.89,2,2.56v4.12h-1.09v-4c0-1.22-.37-1.74-1.24-1.74-.67,0-1.12.34-1.78,1v4.72h-1.09Z"/><path class="cls-6" d="M570.54,120.75l.54-.72a2.92,2.92,0,0,0,1.93.77c.86,0,1.28-.46,1.28-1s-.77-1-1.49-1.24c-.91-.33-1.9-.78-1.9-1.88s.84-1.85,2.25-1.85a3.33,3.33,0,0,1,2,.74l-.53.7a2.43,2.43,0,0,0-1.48-.57c-.83,0-1.21.43-1.21.93s.67.85,1.4,1.13c.95.36,2,.74,2,2,0,1-.84,1.93-2.38,1.93A3.89,3.89,0,0,1,570.54,120.75Z"/><path class="cls-6" d="M580,120.75l.54-.72a2.92,2.92,0,0,0,1.93.77c.86,0,1.28-.46,1.28-1s-.76-1-1.48-1.24c-.92-.33-1.91-.78-1.91-1.88s.84-1.85,2.25-1.85a3.28,3.28,0,0,1,2,.74l-.53.7a2.4,2.4,0,0,0-1.47-.57c-.83,0-1.21.43-1.21.93s.67.85,1.4,1.13c.95.36,2,.74,2,2,0,1-.84,1.93-2.38,1.93A3.89,3.89,0,0,1,580,120.75Z"/><path class="cls-6" d="M587,112h1.09v2.61l0,1.35a3.06,3.06,0,0,1,2.16-1.1c1.37,0,2,.89,2,2.56v4.12H591.1v-4c0-1.22-.37-1.74-1.23-1.74-.68,0-1.13.34-1.79,1v4.72H587Z"/><path class="cls-6" d="M594.46,119.8c0-1.41,1.24-2.12,4-2.43,0-.84-.28-1.64-1.34-1.64a3.58,3.58,0,0,0-2,.69l-.43-.75a4.84,4.84,0,0,1,2.57-.86c1.58,0,2.25,1.07,2.25,2.68v4h-.9l-.09-.78h0a3.47,3.47,0,0,1-2.16.94A1.77,1.77,0,0,1,594.46,119.8Zm4,.11v-1.82c-2.19.26-2.94.8-2.94,1.64s.51,1,1.15,1A2.68,2.68,0,0,0,598.47,119.91Z"/><path class="cls-6" d="M602.24,115h.9l.09,1.19h0a2.26,2.26,0,0,1,1.85-1.36,1.33,1.33,0,0,1,.69.15l-.2,1a1.46,1.46,0,0,0-.64-.11c-.54,0-1.21.38-1.64,1.5v4.18h-1.09Z"/><path class="cls-6" d="M606.87,118.24a3.15,3.15,0,0,1,2.94-3.43c1.65,0,2.59,1.2,2.59,3.06a3.65,3.65,0,0,1,0,.63H608a2.16,2.16,0,0,0,2.16,2.27,2.82,2.82,0,0,0,1.63-.51l.4.72a3.9,3.9,0,0,1-2.16.67A3.11,3.11,0,0,1,606.87,118.24Zm4.57-.54c0-1.3-.6-2-1.62-2a2,2,0,0,0-1.87,2Z"/><path class="cls-6" d="M614.14,118.24c0-2.11,1.33-3.43,2.82-3.43a2.67,2.67,0,0,1,1.84.77l0-1.13V112h1.08v9.54h-.89l-.1-.76h0a2.93,2.93,0,0,1-2,.92C615.2,121.65,614.14,120.41,614.14,118.24Zm4.61,1.6v-3.42a2.34,2.34,0,0,0-1.6-.68c-1,0-1.88,1-1.88,2.49s.65,2.51,1.8,2.51A2.28,2.28,0,0,0,618.75,119.84Z"/><path class="cls-6" d="M492.48,135.22h-.05l-.1.67h-.87v-9.54h1.09V129l0,1.18a3.27,3.27,0,0,1,2-.93c1.69,0,2.6,1.32,2.6,3.31,0,2.25-1.33,3.53-2.83,3.53A2.85,2.85,0,0,1,492.48,135.22Zm3.53-2.67c0-1.44-.47-2.41-1.71-2.41a2.67,2.67,0,0,0-1.75.9v3.42a2.49,2.49,0,0,0,1.59.68C495.22,135.14,496,134.17,496,132.55Z"/><path class="cls-6" d="M499,132.64a3.15,3.15,0,0,1,2.94-3.43c1.65,0,2.59,1.2,2.59,3.06a3.65,3.65,0,0,1-.05.63h-4.39a2.15,2.15,0,0,0,2.16,2.27,2.82,2.82,0,0,0,1.63-.51l.4.72a3.9,3.9,0,0,1-2.16.67A3.11,3.11,0,0,1,499,132.64Zm4.57-.54c0-1.3-.6-2-1.62-2a2,2,0,0,0-1.87,2Z"/><path class="cls-6" d="M506.78,133.88v-3.61h-1v-.83l1-.06.13-1.83h.91v1.83h1.76v.89h-1.76v3.63c0,.81.25,1.26,1,1.26a2.1,2.1,0,0,0,.74-.17l.22.82a4.06,4.06,0,0,1-1.2.24C507.25,136.05,506.78,135.17,506.78,133.88Z"/><path class="cls-6" d="M510.93,129.38h1.12l1,3.77c.13.62.26,1.21.38,1.82h.06c.15-.61.28-1.21.45-1.82l1-3.77H516l1,3.77c.16.62.3,1.21.46,1.82h0c.14-.61.26-1.2.4-1.82l1-3.77h1l-1.75,6.51h-1.32l-.94-3.51c-.17-.61-.29-1.21-.45-1.87h-.06c-.14.66-.27,1.27-.44,1.89l-.91,3.49h-1.29Z"/><path class="cls-6" d="M521.4,132.64a3.15,3.15,0,0,1,2.93-3.43c1.66,0,2.6,1.2,2.6,3.06a5,5,0,0,1,0,.63h-4.39a2.15,2.15,0,0,0,2.16,2.27,2.84,2.84,0,0,0,1.63-.51l.39.72a3.87,3.87,0,0,1-2.16.67A3.11,3.11,0,0,1,521.4,132.64Zm4.57-.54c0-1.3-.6-2-1.62-2a2,2,0,0,0-1.87,2Z"/><path class="cls-6" d="M528.64,132.64a3.15,3.15,0,0,1,2.94-3.43c1.66,0,2.59,1.2,2.59,3.06a5.27,5.27,0,0,1,0,.63h-4.39a2.15,2.15,0,0,0,2.16,2.27,2.84,2.84,0,0,0,1.63-.51l.39.72a3.87,3.87,0,0,1-2.16.67A3.12,3.12,0,0,1,528.64,132.64Zm4.57-.54c0-1.3-.6-2-1.61-2a2,2,0,0,0-1.88,2Z"/><path class="cls-6" d="M536.38,129.38h.9l.1.94h0a3.12,3.12,0,0,1,2.18-1.11c1.37,0,2,.89,2,2.56v4.12H540.5v-4c0-1.22-.37-1.74-1.24-1.74-.67,0-1.12.34-1.78,1v4.72h-1.1Z"/><path class="cls-6" d="M549.52,127.09h1.24l3,8.8h-1.18l-.84-2.68h-3.21l-.86,2.68h-1.12Zm-.73,5.23h2.66L551,131c-.32-1-.6-2-.88-3h0c-.28,1-.56,2-.88,3Z"/><path class="cls-6" d="M558.37,134.2c0-1.41,1.23-2.12,4-2.43,0-.84-.27-1.65-1.34-1.65a3.56,3.56,0,0,0-1.95.7l-.44-.75a4.87,4.87,0,0,1,2.57-.86c1.58,0,2.26,1.07,2.26,2.68v4h-.9l-.1-.78h0a3.45,3.45,0,0,1-2.15.94A1.76,1.76,0,0,1,558.37,134.2Zm4,.11v-1.82c-2.19.26-2.93.8-2.93,1.64s.5,1,1.15,1A2.66,2.66,0,0,0,562.37,134.31Z"/><path class="cls-6" d="M566.14,129.38h.9l.1.94h0a3.12,3.12,0,0,1,2.18-1.11c1.37,0,2,.89,2,2.56v4.12h-1.09v-4c0-1.22-.37-1.74-1.24-1.74-.67,0-1.12.34-1.78,1v4.72h-1.1Z"/><path class="cls-6" d="M573.61,132.64c0-2.11,1.33-3.43,2.82-3.43a2.64,2.64,0,0,1,1.83.77l0-1.13v-2.5h1.08v9.54h-.88l-.1-.76h0a2.91,2.91,0,0,1-2,.92C574.66,136.05,573.61,134.81,573.61,132.64Zm4.6,1.6v-3.42a2.32,2.32,0,0,0-1.59-.68c-1.06,0-1.88,1-1.88,2.49s.64,2.51,1.8,2.51A2.28,2.28,0,0,0,578.21,134.24Z"/><path class="cls-6" d="M585.5,127.09h2.61c1.79,0,3,.61,3,2.16a1.93,1.93,0,0,1-1.29,1.91v.06a2,2,0,0,1,1.79,2.1c0,1.72-1.37,2.57-3.33,2.57H585.5Zm2.42,3.75c1.51,0,2.13-.56,2.13-1.45S589.34,128,588,128h-1.35v2.86Zm.23,4.17c1.51,0,2.4-.54,2.4-1.73s-.86-1.6-2.4-1.6h-1.53V135Z"/><path class="cls-6" d="M597,127.31a.73.73,0,1,1,.73.73A.69.69,0,0,1,597,127.31Zm.18,2.07h1.09v6.51h-1.09Z"/><path class="cls-6" d="M601.08,129.38h.9l.09.94h0a3.12,3.12,0,0,1,2.18-1.11c1.37,0,2,.89,2,2.56v4.12h-1.09v-4c0-1.22-.37-1.74-1.24-1.74-.67,0-1.12.34-1.78,1v4.72h-1.09Z"/><path class="cls-6" d="M611.89,134.2c0-1.41,1.23-2.12,4-2.43,0-.84-.27-1.65-1.34-1.65a3.53,3.53,0,0,0-1.95.7l-.44-.75a4.87,4.87,0,0,1,2.57-.86c1.58,0,2.26,1.07,2.26,2.68v4h-.9l-.1-.78h0a3.45,3.45,0,0,1-2.16.94A1.76,1.76,0,0,1,611.89,134.2Zm4,.11v-1.82c-2.19.26-2.93.8-2.93,1.64s.5,1,1.15,1A2.66,2.66,0,0,0,615.89,134.31Z"/><path class="cls-6" d="M491,147c0-2.11,1.33-3.43,2.82-3.43a2.62,2.62,0,0,1,1.83.77l-.05-1.13v-2.5h1.08v9.54h-.88l-.1-.76h0a2.88,2.88,0,0,1-2,.92C492,150.45,491,149.21,491,147Zm4.6,1.6v-3.42a2.32,2.32,0,0,0-1.59-.68c-1.06,0-1.88,1-1.88,2.49s.64,2.51,1.8,2.51A2.26,2.26,0,0,0,495.59,148.64Z"/><path class="cls-6" d="M499.09,148.6c0-1.41,1.23-2.12,4-2.43,0-.84-.27-1.65-1.34-1.65a3.56,3.56,0,0,0-1.95.7l-.43-.75a4.8,4.8,0,0,1,2.56-.86c1.58,0,2.26,1.07,2.26,2.68v4h-.9l-.1-.78h0a3.5,3.5,0,0,1-2.16.94A1.76,1.76,0,0,1,499.09,148.6Zm4,.11v-1.82c-2.19.26-2.93.8-2.93,1.64s.5,1,1.15,1A2.66,2.66,0,0,0,503.09,148.71Z"/><path class="cls-6" d="M506.88,148.28v-3.61h-1v-.83l1-.06.14-1.83H508v1.83h1.76v.89H508v3.63c0,.81.25,1.26,1,1.26a2.21,2.21,0,0,0,.74-.17l.21.82a4.06,4.06,0,0,1-1.19.24C507.34,150.45,506.88,149.57,506.88,148.28Z"/><path class="cls-6" d="M511.63,141.71a.73.73,0,1,1,.73.73A.69.69,0,0,1,511.63,141.71Zm.18,2.07h1.09v6.51h-1.09Z"/><path class="cls-6" d="M514.76,143.78h1.14l1.22,3.71c.21.63.41,1.3.62,1.92h0c.21-.62.41-1.29.6-1.92l1.24-3.71h1.08l-2.32,6.51h-1.27Z"/><path class="cls-6" d="M522,147a3.15,3.15,0,0,1,2.94-3.43c1.65,0,2.59,1.2,2.59,3.06a3.65,3.65,0,0,1,0,.63h-4.39a2.15,2.15,0,0,0,2.16,2.27,2.82,2.82,0,0,0,1.63-.51l.4.72a3.9,3.9,0,0,1-2.16.67A3.11,3.11,0,0,1,522,147Zm4.57-.54c0-1.3-.6-2-1.62-2a2,2,0,0,0-1.87,2Z"/><path class="cls-6" d="M534.07,149.62H534l-.1.67h-.87v-9.54h1.09v2.61l0,1.18a3.27,3.27,0,0,1,2-.93c1.69,0,2.61,1.32,2.61,3.31,0,2.25-1.34,3.53-2.83,3.53A2.87,2.87,0,0,1,534.07,149.62Zm3.54-2.67c0-1.44-.48-2.41-1.72-2.41a2.67,2.67,0,0,0-1.75.9v3.41a2.48,2.48,0,0,0,1.6.69C536.81,149.54,537.61,148.57,537.61,147Z"/><path class="cls-6" d="M540.57,147a3,3,0,1,1,3,3.41A3.13,3.13,0,0,1,540.57,147Zm4.92,0c0-1.5-.77-2.52-1.9-2.52s-1.88,1-1.88,2.52.76,2.5,1.88,2.5S545.49,148.54,545.49,147Z"/><path class="cls-6" d="M548.94,143.78h.9l.09.94h0a3.12,3.12,0,0,1,2.18-1.11c1.37,0,2,.89,2,2.56v4.12h-1.09v-4c0-1.22-.37-1.74-1.24-1.74-.67,0-1.12.34-1.78,1v4.72h-1.09Z"/><path class="cls-6" d="M556.4,147c0-2.11,1.33-3.43,2.82-3.43a2.62,2.62,0,0,1,1.83.77l0-1.13v-2.5h1.07v9.54h-.88l-.1-.76h0a2.93,2.93,0,0,1-2,.92C557.46,150.45,556.4,149.21,556.4,147Zm4.61,1.6v-3.42a2.36,2.36,0,0,0-1.6-.68c-1,0-1.88,1-1.88,2.49s.65,2.51,1.8,2.51A2.29,2.29,0,0,0,561,148.64Z"/><rect class="cls-5" x="217.5" y="101.51" width="170" height="49" rx="8.01"/><path class="cls-6" d="M232.38,112.69h1.23l3,8.8h-1.18l-.84-2.68h-3.21l-.85,2.68h-1.13Zm-.74,5.23h2.67l-.42-1.34c-.33-1-.6-2-.89-3H233c-.27,1-.56,2-.87,3Z"/><path class="cls-6" d="M238.35,119.48v-3.61h-1V115l1-.06.13-1.83h.91V115h1.77v.89h-1.77v3.63c0,.81.26,1.26,1,1.26a2.21,2.21,0,0,0,.75-.17l.21.82a4.06,4.06,0,0,1-1.2.24C238.82,121.65,238.35,120.77,238.35,119.48Z"/><path class="cls-6" d="M242.61,118.24a3,3,0,1,1,3,3.41A3.13,3.13,0,0,1,242.61,118.24Zm4.92,0c0-1.5-.77-2.51-1.9-2.51s-1.88,1-1.88,2.51.76,2.5,1.88,2.5S247.53,119.74,247.53,118.24Z"/><path class="cls-6" d="M251,115h.9l.09,1h0a2.86,2.86,0,0,1,2-1.12,1.71,1.71,0,0,1,1.79,1.25,3.11,3.11,0,0,1,2.15-1.25c1.34,0,2,.89,2,2.56v4.12h-1.09v-4c0-1.22-.39-1.74-1.21-1.74a2.42,2.42,0,0,0-1.65,1v4.72h-1.09v-4c0-1.22-.38-1.74-1.21-1.74a2.42,2.42,0,0,0-1.64,1v4.72H251Z"/><path class="cls-6" d="M266.07,112.69h2.62c1.78,0,3,.61,3,2.16a1.93,1.93,0,0,1-1.28,1.91v.06a2,2,0,0,1,1.78,2.1c0,1.72-1.36,2.57-3.33,2.57h-2.81Zm2.43,3.75c1.51,0,2.12-.56,2.12-1.45s-.71-1.41-2.08-1.41h-1.35v2.86Zm.22,4.17c1.51,0,2.4-.54,2.4-1.73s-.86-1.6-2.4-1.6h-1.53v3.33Z"/><path class="cls-6" d="M277.28,118.24c0-2.11,1.33-3.43,2.82-3.43a2.62,2.62,0,0,1,1.83.77l0-1.13V112H283v9.54h-.89l-.1-.76h0a2.93,2.93,0,0,1-2,.92C278.34,121.65,277.28,120.41,277.28,118.24Zm4.61,1.6v-3.42a2.36,2.36,0,0,0-1.6-.68c-1.05,0-1.88,1-1.88,2.49s.65,2.51,1.8,2.51A2.29,2.29,0,0,0,281.89,119.84Z"/><path class="cls-6" d="M285.3,118.24a3,3,0,1,1,3,3.41A3.12,3.12,0,0,1,285.3,118.24Zm4.91,0c0-1.5-.76-2.51-1.89-2.51s-1.88,1-1.88,2.51.75,2.5,1.88,2.5S290.21,119.74,290.21,118.24Z"/><path class="cls-6" d="M293.17,118.24a3.15,3.15,0,0,1,2.94-3.43c1.65,0,2.59,1.2,2.59,3.06a5,5,0,0,1-.05.63h-4.39a2.15,2.15,0,0,0,2.16,2.27,2.84,2.84,0,0,0,1.63-.51l.4.72a3.92,3.92,0,0,1-2.16.67A3.11,3.11,0,0,1,293.17,118.24Zm4.57-.54c0-1.3-.6-2-1.62-2a2,2,0,0,0-1.87,2Z"/><path class="cls-6" d="M300.18,120.75l.54-.72a2.92,2.92,0,0,0,1.93.77c.86,0,1.28-.46,1.28-1s-.77-1-1.49-1.24c-.91-.33-1.9-.78-1.9-1.88s.84-1.85,2.25-1.85a3.33,3.33,0,0,1,2,.74l-.53.7a2.43,2.43,0,0,0-1.48-.57c-.82,0-1.21.43-1.21.93s.67.85,1.41,1.13c.94.36,2,.74,2,2,0,1-.84,1.93-2.38,1.93A3.89,3.89,0,0,1,300.18,120.75Z"/><path class="cls-6" d="M310.41,115h.9l.1.94h0a3.16,3.16,0,0,1,2.19-1.11c1.36,0,2,.89,2,2.56v4.12h-1.09v-4c0-1.22-.38-1.74-1.24-1.74a2.49,2.49,0,0,0-1.79,1v4.72h-1.09Z"/><path class="cls-6" d="M317.85,118.24a3,3,0,1,1,3,3.41A3.13,3.13,0,0,1,317.85,118.24Zm4.92,0c0-1.5-.77-2.51-1.9-2.51s-1.88,1-1.88,2.51.76,2.5,1.88,2.5S322.77,119.74,322.77,118.24Z"/><path class="cls-6" d="M326.18,119.48v-3.61h-1V115l1-.06.13-1.83h.91V115H329v.89h-1.76v3.63c0,.81.25,1.26,1,1.26a2.1,2.1,0,0,0,.74-.17l.22.82a4.13,4.13,0,0,1-1.2.24C326.65,121.65,326.18,120.77,326.18,119.48Z"/><path class="cls-6" d="M230,132.64a3.18,3.18,0,0,1,3.15-3.43,2.75,2.75,0,0,1,1.9.77l-.56.72a2,2,0,0,0-1.29-.58c-1.19,0-2.06,1-2.06,2.52s.82,2.5,2,2.5a2.28,2.28,0,0,0,1.53-.65l.48.73a3.13,3.13,0,0,1-2.11.83C231.3,136.05,230,134.8,230,132.64Z"/><path class="cls-6" d="M236.38,132.64a3,3,0,1,1,3,3.41A3.13,3.13,0,0,1,236.38,132.64Zm4.92,0c0-1.5-.76-2.52-1.89-2.52s-1.89,1-1.89,2.52.76,2.5,1.89,2.5S241.3,134.14,241.3,132.64Z"/><path class="cls-6" d="M244.75,129.38h.9l.09.94h0a3.14,3.14,0,0,1,2.18-1.11c1.37,0,2,.89,2,2.56v4.12h-1.09v-4c0-1.22-.37-1.74-1.23-1.74a2.49,2.49,0,0,0-1.79,1v4.72h-1.09Z"/><path class="cls-6" d="M252.87,133.88v-3.61h-1v-.83l1-.06.13-1.83H254v1.83h1.77v.89H254v3.63c0,.81.26,1.26,1,1.26a2.1,2.1,0,0,0,.74-.17l.22.82a4.06,4.06,0,0,1-1.2.24C253.34,136.05,252.87,135.17,252.87,133.88Z"/><path class="cls-6" d="M257.8,129.38h.9l.1,1.19h0a2.24,2.24,0,0,1,1.84-1.36,1.39,1.39,0,0,1,.7.15l-.21,1a1.42,1.42,0,0,0-.63-.11c-.54,0-1.21.38-1.64,1.5v4.18h-1.1Z"/><path class="cls-6" d="M262.88,127.31a.73.73,0,1,1,.73.73A.69.69,0,0,1,262.88,127.31Zm.18,2.07h1.09v6.51h-1.09Z"/><path class="cls-6" d="M268,135.22h-.05l-.09.67H267v-9.54h1.09V129l0,1.18a3.25,3.25,0,0,1,2-.93c1.7,0,2.61,1.32,2.61,3.31,0,2.25-1.33,3.53-2.83,3.53A2.87,2.87,0,0,1,268,135.22Zm3.54-2.67c0-1.44-.48-2.41-1.72-2.41a2.69,2.69,0,0,0-1.75.9v3.42a2.54,2.54,0,0,0,1.6.68C270.73,135.14,271.52,134.17,271.52,132.55Z"/><path class="cls-6" d="M274.89,133.51v-4.13H276v4c0,1.21.36,1.72,1.23,1.72.67,0,1.14-.32,1.76-1.1v-4.62h1.09v6.51h-.91l-.08-1h0a2.79,2.79,0,0,1-2.16,1.18C275.5,136.05,274.89,135.16,274.89,133.51Z"/><path class="cls-6" d="M283.05,133.88v-3.61h-1v-.83l1-.06.13-1.83h.91v1.83h1.77v.89h-1.77v3.63c0,.81.26,1.26,1,1.26a2.1,2.1,0,0,0,.74-.17l.22.82a4.06,4.06,0,0,1-1.2.24C283.52,136.05,283.05,135.17,283.05,133.88Z"/><path class="cls-6" d="M287.31,132.64a3.15,3.15,0,0,1,2.94-3.43c1.66,0,2.59,1.2,2.59,3.06a3.65,3.65,0,0,1,0,.63H288.4a2.16,2.16,0,0,0,2.16,2.27,2.82,2.82,0,0,0,1.63-.51l.4.72a3.9,3.9,0,0,1-2.16.67A3.11,3.11,0,0,1,287.31,132.64Zm4.57-.54c0-1.3-.6-2-1.62-2a2,2,0,0,0-1.87,2Z"/><path class="cls-6" d="M297.93,134.2c0-1.41,1.24-2.12,4-2.43,0-.84-.28-1.65-1.35-1.65a3.59,3.59,0,0,0-1.95.7l-.43-.75a4.83,4.83,0,0,1,2.56-.86c1.59,0,2.26,1.07,2.26,2.68v4h-.9l-.1-.78h0a3.5,3.5,0,0,1-2.16.94A1.77,1.77,0,0,1,297.93,134.2Zm4,.11v-1.82c-2.2.26-2.94.8-2.94,1.64s.5,1,1.15,1A2.68,2.68,0,0,0,301.94,134.31Z"/><path class="cls-6" d="M305.71,129.38h.9l.09.94h0a3.12,3.12,0,0,1,2.18-1.11c1.37,0,2,.89,2,2.56v4.12h-1.09v-4c0-1.22-.37-1.74-1.23-1.74a2.49,2.49,0,0,0-1.79,1v4.72h-1.09Z"/><path class="cls-6" d="M313,138.57l.22-.88a1.47,1.47,0,0,0,.49.11c.74,0,1.21-.6,1.47-1.4l.15-.49-2.62-6.53h1.14l1.33,3.62c.19.57.42,1.24.63,1.83h.06c.18-.59.37-1.25.55-1.83l1.16-3.62h1.07l-2.46,7.05c-.44,1.29-1.13,2.27-2.42,2.27A2.09,2.09,0,0,1,313,138.57Z"/><path class="cls-6" d="M323.29,132.64a3.15,3.15,0,0,1,2.94-3.43c1.65,0,2.59,1.2,2.59,3.06a5,5,0,0,1-.05.63h-4.39a2.15,2.15,0,0,0,2.16,2.27,2.84,2.84,0,0,0,1.63-.51l.4.72a3.92,3.92,0,0,1-2.16.67A3.11,3.11,0,0,1,323.29,132.64Zm4.57-.54c0-1.3-.6-2-1.62-2a2,2,0,0,0-1.87,2Z"/><path class="cls-6" d="M331,134.6v-8.25h1.09v8.32c0,.34.14.47.31.47a.79.79,0,0,0,.23,0l.16.84a1.71,1.71,0,0,1-.64.1C331.36,136.05,331,135.52,331,134.6Z"/><path class="cls-6" d="M334.56,132.64a3.15,3.15,0,0,1,2.93-3.43c1.66,0,2.59,1.2,2.59,3.06a5.27,5.27,0,0,1,0,.63h-4.39a2.15,2.15,0,0,0,2.16,2.27,2.84,2.84,0,0,0,1.63-.51l.39.72a3.87,3.87,0,0,1-2.16.67A3.11,3.11,0,0,1,334.56,132.64Zm4.56-.54c0-1.3-.59-2-1.61-2a2,2,0,0,0-1.87,2Z"/><path class="cls-6" d="M341.8,132.64a3.18,3.18,0,0,1,3.15-3.43,2.75,2.75,0,0,1,1.9.77l-.56.72a2,2,0,0,0-1.3-.58c-1.18,0-2.05,1-2.05,2.52s.82,2.5,2,2.5a2.28,2.28,0,0,0,1.53-.65l.48.73a3.13,3.13,0,0,1-2.11.83C343.14,136.05,341.8,134.8,341.8,132.64Z"/><path class="cls-6" d="M349.06,133.88v-3.61h-1v-.83l1-.06.13-1.83h.91v1.83h1.77v.89h-1.77v3.63c0,.81.26,1.26,1,1.26a2.21,2.21,0,0,0,.75-.17l.21.82a4.06,4.06,0,0,1-1.2.24C349.53,136.05,349.06,135.17,349.06,133.88Z"/><path class="cls-6" d="M354,129.38h.89l.1,1.19h0a2.24,2.24,0,0,1,1.84-1.36,1.37,1.37,0,0,1,.7.15l-.2,1a1.49,1.49,0,0,0-.64-.11c-.54,0-1.21.38-1.64,1.5v4.18H354Z"/><path class="cls-6" d="M358.63,132.64a3,3,0,1,1,3,3.41A3.12,3.12,0,0,1,358.63,132.64Zm4.91,0c0-1.5-.76-2.52-1.89-2.52s-1.88,1-1.88,2.52.75,2.5,1.88,2.5S363.54,134.14,363.54,132.64Z"/><path class="cls-6" d="M367,129.38h.9l.1.94h0a3.16,3.16,0,0,1,2.19-1.11c1.36,0,2,.89,2,2.56v4.12h-1.1v-4c0-1.22-.37-1.74-1.23-1.74a2.49,2.49,0,0,0-1.79,1v4.72H367Z"/><path class="cls-6" d="M374.19,135.15l.54-.72a2.92,2.92,0,0,0,1.93.77c.87,0,1.29-.46,1.29-1s-.77-1-1.49-1.24c-.91-.33-1.91-.78-1.91-1.88s.84-1.85,2.26-1.85a3.27,3.27,0,0,1,2,.74l-.53.7a2.4,2.4,0,0,0-1.47-.57c-.83,0-1.21.43-1.21.93s.67.85,1.4,1.13c.95.36,2,.74,2,2,0,1-.84,1.93-2.37,1.93A3.9,3.9,0,0,1,374.19,135.15Z"/><rect class="cls-5" x="1.5" y="101.51" width="165" height="49" rx="7.9"/><path class="cls-6" d="M16.38,112.69h1.23l3,8.8H19.42l-.84-2.68H15.37l-.85,2.68H13.39Zm-.74,5.23h2.67l-.42-1.34c-.33-1-.6-2-.89-3H17c-.27,1-.56,2-.87,3Z"/><path class="cls-6" d="M22.35,119.48v-3.61h-1V115l1-.06.13-1.83h.91V115h1.77v.89H23.44v3.63c0,.81.26,1.26,1,1.26a2.21,2.21,0,0,0,.75-.17l.21.82a4.06,4.06,0,0,1-1.2.24C22.82,121.65,22.35,120.77,22.35,119.48Z"/><path class="cls-6" d="M26.61,118.24a3,3,0,1,1,3,3.41A3.13,3.13,0,0,1,26.61,118.24Zm4.92,0c0-1.5-.77-2.51-1.9-2.51s-1.88,1-1.88,2.51.76,2.5,1.88,2.5S31.53,119.74,31.53,118.24Z"/><path class="cls-6" d="M35,115h.9l.09,1h0a2.86,2.86,0,0,1,2-1.12,1.71,1.71,0,0,1,1.79,1.25A3.11,3.11,0,0,1,42,114.81c1.34,0,2,.89,2,2.56v4.12H42.87v-4c0-1.22-.39-1.74-1.21-1.74a2.42,2.42,0,0,0-1.65,1v4.72H38.92v-4c0-1.22-.38-1.74-1.21-1.74a2.42,2.42,0,0,0-1.64,1v4.72H35Z"/><path class="cls-6" d="M51.9,112.69h1.23l3,8.8H54.94l-.84-2.68H50.89L50,121.49H48.91Zm-.74,5.23h2.67l-.42-1.34c-.33-1-.6-2-.89-3h-.05c-.27,1-.56,2-.87,3Z"/><path class="cls-6" d="M60.66,118.24a3.17,3.17,0,0,1,3.14-3.43,2.79,2.79,0,0,1,1.91.77l-.57.72a1.94,1.94,0,0,0-1.29-.57c-1.19,0-2.05,1-2.05,2.51s.81,2.5,2,2.5a2.32,2.32,0,0,0,1.54-.65l.48.73a3.18,3.18,0,0,1-2.12.83C62,121.65,60.66,120.4,60.66,118.24Z"/><path class="cls-6" d="M67.08,118.24a3,3,0,1,1,3,3.41A3.12,3.12,0,0,1,67.08,118.24Zm4.91,0c0-1.5-.76-2.51-1.89-2.51s-1.88,1-1.88,2.51.75,2.5,1.88,2.5S72,119.74,72,118.24Z"/><path class="cls-6" d="M75.44,115h.9l.1.94h0a3.16,3.16,0,0,1,2.18-1.11c1.37,0,2,.89,2,2.56v4.12h-1.1v-4c0-1.22-.37-1.74-1.23-1.74a2.49,2.49,0,0,0-1.79,1v4.72H75.44Z"/><path class="cls-6" d="M83.56,119.48v-3.61h-1V115l1-.06.13-1.83h.92V115h1.76v.89H84.66v3.63c0,.81.25,1.26,1,1.26a2.21,2.21,0,0,0,.75-.17l.21.82a4.06,4.06,0,0,1-1.2.24C84,121.65,83.56,120.77,83.56,119.48Z"/><path class="cls-6" d="M88.5,115h.9l.09,1.19h0a2.24,2.24,0,0,1,1.84-1.36,1.37,1.37,0,0,1,.7.15l-.2,1a1.49,1.49,0,0,0-.64-.11c-.54,0-1.21.38-1.64,1.5v4.18H88.5Z"/><path class="cls-6" d="M93.57,112.91a.74.74,0,0,1,1.47,0,.74.74,0,0,1-1.47,0Zm.18,2.07h1.09v6.51H93.75Z"/><path class="cls-6" d="M98.67,120.82h0l-.09.67h-.88V112h1.09v2.61l0,1.18a3.25,3.25,0,0,1,2-.93c1.69,0,2.6,1.32,2.6,3.31,0,2.25-1.33,3.53-2.83,3.53A2.89,2.89,0,0,1,98.67,120.82Zm3.54-2.67c0-1.44-.48-2.41-1.71-2.41a2.69,2.69,0,0,0-1.76.9v3.41a2.5,2.5,0,0,0,1.6.69C101.42,120.74,102.21,119.77,102.21,118.15Z"/><path class="cls-6" d="M105.58,119.11V115h1.1v4c0,1.21.36,1.72,1.22,1.72.67,0,1.14-.32,1.76-1.1V115h1.09v6.51h-.91l-.08-1h0a2.79,2.79,0,0,1-2.16,1.18C106.2,121.65,105.58,120.76,105.58,119.11Z"/><path class="cls-6" d="M113.74,119.48v-3.61h-1V115l1-.06.13-1.83h.91V115h1.77v.89h-1.77v3.63c0,.81.26,1.26,1,1.26a2.21,2.21,0,0,0,.75-.17l.21.82a4.06,4.06,0,0,1-1.2.24C114.21,121.65,113.74,120.77,113.74,119.48Z"/><path class="cls-6" d="M118,118.24a3.15,3.15,0,0,1,2.94-3.43c1.66,0,2.59,1.2,2.59,3.06a5.27,5.27,0,0,1,0,.63H119.1a2.15,2.15,0,0,0,2.15,2.27,2.85,2.85,0,0,0,1.64-.51l.39.72a3.87,3.87,0,0,1-2.16.67A3.12,3.12,0,0,1,118,118.24Zm4.57-.54c0-1.3-.6-2-1.61-2a2,2,0,0,0-1.88,2Z"/><path class="cls-6" d="M125,120.75l.54-.72a2.94,2.94,0,0,0,1.93.77c.87,0,1.29-.46,1.29-1s-.77-1-1.49-1.24c-.91-.33-1.91-.78-1.91-1.88s.84-1.85,2.26-1.85a3.27,3.27,0,0,1,2,.74l-.53.7a2.4,2.4,0,0,0-1.47-.57c-.83,0-1.21.43-1.21.93s.67.85,1.4,1.13c1,.36,2,.74,2,2,0,1-.84,1.93-2.37,1.93A3.92,3.92,0,0,1,125,120.75Z"/><path class="cls-6" d="M135.44,119.48v-3.61h-1V115l1-.06.13-1.83h.91V115h1.76v.89h-1.76v3.63c0,.81.25,1.26,1,1.26a2.1,2.1,0,0,0,.74-.17l.22.82a4.13,4.13,0,0,1-1.2.24C135.91,121.65,135.44,120.77,135.44,119.48Z"/><path class="cls-6" d="M139.59,115h1.12l1,3.77c.13.62.26,1.21.38,1.82h.06c.15-.61.28-1.21.45-1.82l1-3.77h1.07l1,3.77c.16.62.3,1.21.46,1.82h0c.14-.61.26-1.2.4-1.82l1-3.77h1l-1.75,6.51h-1.32l-.94-3.51c-.17-.61-.29-1.21-.45-1.87H144c-.14.66-.27,1.27-.44,1.89l-.91,3.49H141.4Z"/><path class="cls-6" d="M150.06,118.24a3,3,0,1,1,3,3.41A3.12,3.12,0,0,1,150.06,118.24Zm4.91,0c0-1.5-.76-2.51-1.89-2.51s-1.88,1-1.88,2.51.75,2.5,1.88,2.5S155,119.74,155,118.24Z"/><path class="cls-6" d="M14,132.64a3.15,3.15,0,0,1,2.94-3.43c1.66,0,2.59,1.2,2.59,3.06a5.27,5.27,0,0,1,0,.63H15.06a2.15,2.15,0,0,0,2.16,2.27,2.84,2.84,0,0,0,1.63-.51l.39.72a3.87,3.87,0,0,1-2.16.67A3.12,3.12,0,0,1,14,132.64Zm4.58-.54c0-1.3-.61-2-1.62-2a2,2,0,0,0-1.88,2Z"/><path class="cls-6" d="M21.71,134.6v-8.25H22.8v8.32c0,.34.14.47.31.47a.79.79,0,0,0,.23,0l.15.84a1.61,1.61,0,0,1-.63.1C22,136.05,21.71,135.52,21.71,134.6Z"/><path class="cls-6" d="M25.23,132.64a3.15,3.15,0,0,1,2.94-3.43c1.66,0,2.59,1.2,2.59,3.06a3.65,3.65,0,0,1-.05.63H26.32a2.16,2.16,0,0,0,2.16,2.27,2.82,2.82,0,0,0,1.63-.51l.4.72a3.9,3.9,0,0,1-2.16.67A3.11,3.11,0,0,1,25.23,132.64Zm4.57-.54c0-1.3-.6-2-1.62-2a2,2,0,0,0-1.87,2Z"/><path class="cls-6" d="M32.48,132.64a3.17,3.17,0,0,1,3.14-3.43,2.79,2.79,0,0,1,1.91.77l-.56.72a2,2,0,0,0-1.3-.58c-1.19,0-2.05,1-2.05,2.52s.82,2.5,2,2.5a2.32,2.32,0,0,0,1.54-.65l.48.73a3.15,3.15,0,0,1-2.11.83C33.81,136.05,32.48,134.8,32.48,132.64Z"/><path class="cls-6" d="M39.74,133.88v-3.61h-1v-.83l1-.06.13-1.83h.91v1.83h1.76v.89H40.83v3.63c0,.81.25,1.26,1,1.26a2.1,2.1,0,0,0,.74-.17l.22.82a4.06,4.06,0,0,1-1.2.24C40.21,136.05,39.74,135.17,39.74,133.88Z"/><path class="cls-6" d="M44.67,129.38h.9l.1,1.19h0a2.26,2.26,0,0,1,1.85-1.36,1.39,1.39,0,0,1,.7.15l-.21,1a1.42,1.42,0,0,0-.63-.11c-.54,0-1.21.38-1.65,1.5v4.18H44.67Z"/><path class="cls-6" d="M49.3,132.64a3,3,0,1,1,3,3.41A3.13,3.13,0,0,1,49.3,132.64Zm4.92,0c0-1.5-.76-2.52-1.89-2.52s-1.89,1-1.89,2.52.76,2.5,1.89,2.5S54.22,134.14,54.22,132.64Z"/><path class="cls-6" d="M57.67,129.38h.9l.09.94h0a3.12,3.12,0,0,1,2.18-1.11c1.37,0,2,.89,2,2.56v4.12H61.78v-4c0-1.22-.37-1.74-1.23-1.74a2.49,2.49,0,0,0-1.79,1v4.72H57.67Z"/><path class="cls-6" d="M64.87,135.15l.54-.72a2.92,2.92,0,0,0,1.93.77c.86,0,1.28-.46,1.28-1s-.76-1-1.48-1.24c-.92-.33-1.91-.78-1.91-1.88s.84-1.85,2.25-1.85a3.3,3.3,0,0,1,2,.74l-.53.7a2.4,2.4,0,0,0-1.47-.57c-.83,0-1.22.43-1.22.93s.68.85,1.41,1.13c.94.36,2,.74,2,2,0,1-.84,1.93-2.38,1.93A3.89,3.89,0,0,1,64.87,135.15Z"/></g></g></svg>