<svg xmlns="http://www.w3.org/2000/svg" viewBox="0 0 721.38 367.72"><defs><style>.cls-1{fill:#193c40;}.cls-2{fill:#bdccd4;}.cls-3{fill:#ecb390;stroke-width:0.5px;}.cls-3,.cls-4{stroke:#193c40;stroke-miterlimit:10;}.cls-4{fill:#de4948;}.cls-5{fill:#ece6db;}</style></defs><g id="Layer_2" data-name="Layer 2"><g id="Layer_1-2" data-name="Layer 1"><path class="cls-1" d="M9.21,4.44H19.79v2.4H9.21Z" transform="translate(-1.73)"/><path class="cls-1" d="M9.21,358.88H19.79v2.4H9.21Z" transform="translate(-1.73)"/><path class="cls-1" d="M710.18,9.28h-5.65V5.93h5.65V0h3.45V5.93h5.65V9.28h-5.65v5.93h-3.45Z" transform="translate(-1.73)"/><path class="cls-1" d="M710.18,361.79h-5.65v-3.34h5.65v-5.94h3.45v5.94h5.65v3.34h-5.65v5.93h-3.45Z" transform="translate(-1.73)"/><path class="cls-1" d="M720.73,72.12v5.34c0,3.27-1.17,5.91-4.81,5.91s-5.08-2.71-5.08-5.91V75.53h-5.08V72.12Zm-7.2,5.15c0,1.87.83,2.75,2.39,2.75s2.12-1,2.12-2.75V75.53h-4.51Z" transform="translate(-1.73)"/><path class="cls-1" d="M711.45,84.2a5.85,5.85,0,1,1-6,5.84A5.73,5.73,0,0,1,711.45,84.2Zm0,8.21c2,0,3.26-.8,3.26-2.37s-1.28-2.36-3.26-2.36-3.24.8-3.24,2.36S709.48,92.41,711.45,92.41Z" transform="translate(-1.73)"/><path class="cls-1" d="M707.23,97.05l2.11,1.44a8.79,8.79,0,0,0-1.35,4.63c0,1.26.41,1.82,1,1.82s.86-.56,1.33-2.81c.67-3.12,1.81-4.36,3.57-4.36,2.12,0,3.56,2,3.56,5.27a9.32,9.32,0,0,1-1.55,5l-2-1.53a7.43,7.43,0,0,0,1.09-3.75c0-1.06-.38-1.59-.92-1.59s-.78.71-1.21,2.65c-.79,3.54-1.79,4.53-3.65,4.53-2.06,0-3.68-2-3.68-5.66A10.7,10.7,0,0,1,707.23,97.05Z" transform="translate(-1.73)"/><path class="cls-1" d="M714.51,115v-4.62h2.65v8h-11.4V115Zm6.5-.72a2.27,2.27,0,0,1,0,4.52,2.27,2.27,0,0,1,0-4.52Z" transform="translate(-1.73)"/><path class="cls-1" d="M710.48,125.28h4v-2.89H717l.13,3,3.48.44v2.81h-3.48v4.84h-2.65v-4.84h-4c-1.74,0-2.39.74-2.39,2.41a6.65,6.65,0,0,0,.41,2.27l-2.45.61a12.61,12.61,0,0,1-.62-3.75C705.48,126.58,707.49,125.28,710.48,125.28Z" transform="translate(-1.73)"/><path class="cls-1" d="M714.51,140.39v-4.61h2.65v8h-11.4v-3.41Zm6.5-.71a2.27,2.27,0,0,1,0,4.52,2.27,2.27,0,0,1,0-4.52Z" transform="translate(-1.73)"/><path class="cls-1" d="M717.16,147.4v3.41l-5.37,1.81c-1.15.37-2.32.69-3.51,1v.09c1.19.35,2.36.65,3.51,1l5.37,1.8v3.25l-11.4-4.2v-3.9Z" transform="translate(-1.73)"/><path class="cls-1" d="M711.47,160.66a5.83,5.83,0,0,1,6,6c0,3.54-2.37,5.4-5.47,5.4a9,9,0,0,1-1.51-.15v-8.7h2.27v6.4l-.65-.53c1.83,0,2.79-.8,2.79-2.31,0-1.68-1.13-2.78-3.39-2.78s-3.41,1.29-3.41,3.52a6.37,6.37,0,0,0,.79,3l-2,1.12a8.71,8.71,0,0,1-1.34-4.54C705.48,163.44,707.68,160.66,711.47,160.66Z" transform="translate(-1.73)"/><path class="cls-1" d="M717.89,190.05v-4.52h2.84V198h-2.84v-4.51H705.76v-3.41Z" transform="translate(-1.73)"/><path class="cls-1" d="M711.47,198.8a5.83,5.83,0,0,1,6,6c0,3.54-2.37,5.4-5.47,5.4a9,9,0,0,1-1.51-.15v-8.7h2.27v6.4l-.65-.53c1.83,0,2.79-.8,2.79-2.31,0-1.68-1.13-2.78-3.39-2.78s-3.41,1.29-3.41,3.52a6.37,6.37,0,0,0,.79,3l-2,1.13a8.78,8.78,0,0,1-1.34-4.55C705.48,201.58,707.68,198.8,711.47,198.8Z" transform="translate(-1.73)"/><path class="cls-1" d="M717.16,212.91v2.8l-2.49.27v.08a5.34,5.34,0,0,1,2.76,4.65,4.83,4.83,0,0,1-.45,2.2l-2.85-.69a6,6,0,0,0,.34-2,4.27,4.27,0,0,0-2.78-3.87h-5.93v-3.41Z" transform="translate(-1.73)"/><path class="cls-1" d="M717.16,223.76v2.56l-1.41.25v.08a2.59,2.59,0,0,1,1.68,2.48,2,2,0,0,1-1.86,2,2.69,2.69,0,0,1,1.86,2.54c0,1.64-1.4,2.56-3.67,2.56h-8V233h7.76c.7,0,1-.17,1-.61s-.36-.74-1.11-1.06h-7.69v-2.65h7.76c.7,0,1-.21,1-.66s-.36-.71-1.11-1h-7.69v-3.23Z" transform="translate(-1.73)"/><path class="cls-1" d="M714.51,242.1v-4.62h2.65v8h-11.4V242.1Zm6.5-.71a2.27,2.27,0,0,1,0,4.52,2.27,2.27,0,0,1,0-4.52Z" transform="translate(-1.73)"/><path class="cls-1" d="M717.16,250.05v2.77l-1.52.25v.09a5.58,5.58,0,0,1,1.79,4c0,2.6-1.76,3.74-4.63,3.74h-7v-3.4h6.6c1.52,0,2.19-.44,2.19-1.69a3.21,3.21,0,0,0-1.18-2.32h-7.61v-3.4Z" transform="translate(-1.73)"/><path class="cls-1" d="M708.92,262.51c2.55,0,3.85,2.13,4.18,7.55,1-.12,1.65-.9,1.65-2.44a8,8,0,0,0-1.07-3.49l2.21-1.21a10.9,10.9,0,0,1,1.54,5.36c0,3.23-1.66,5.18-5.15,5.18h-6.52v-2.78l1.28-.24v-.09a7.07,7.07,0,0,1-1.56-4.07A3.46,3.46,0,0,1,708.92,262.51Zm.27,7.55h1.87c-.17-3.38-.9-4.28-1.87-4.28-.73,0-1.09.62-1.09,1.58A4.45,4.45,0,0,0,709.19,270.06Z" transform="translate(-1.73)"/><path class="cls-1" d="M710.22,278.56h9V275h2.66v7H710.08a1.7,1.7,0,0,0-1.87,1.87,4.79,4.79,0,0,0,.38,1.78l-2.49.76a9.6,9.6,0,0,1-.62-3.43C705.48,280.06,707.33,278.56,710.22,278.56Z" transform="translate(-1.73)"/><path class="cls-1" d="M4.1,283.07v-3.49l7.45-3.17,3.29-1.29V275c-1.58.15-3.68.47-5.44.47H4.1v-3.25h15v3.49l-7.46,3.17-3.28,1.29v.08c1.66-.15,3.66-.47,5.43-.47h5.31v3.25Z" transform="translate(-1.73)"/><path class="cls-1" d="M13.37,270.61a5.83,5.83,0,0,1-6-6c0-3.54,2.38-5.4,5.47-5.4a9.35,9.35,0,0,1,1.52.14v8.7H12.12v-6.4l.65.54c-1.83,0-2.8.8-2.8,2.3,0,1.68,1.14,2.79,3.4,2.79s3.41-1.3,3.41-3.53a6.2,6.2,0,0,0-.8-3l2-1.13a8.77,8.77,0,0,1,1.33,4.55C19.35,267.83,17.16,270.61,13.37,270.61Z" transform="translate(-1.73)"/><path class="cls-1" d="M21,258a2.66,2.66,0,0,1-2.29-1.78h-.09a2.18,2.18,0,0,1-1.94,1.16A2.82,2.82,0,0,1,14.55,256h-.09a3.46,3.46,0,0,1-2.93,1.52c-2.73,0-4.13-2.31-4.13-4.91a5.85,5.85,0,0,1,.28-1.88V246h2.48v2.32a2.63,2.63,0,0,1,1.49-.5c2.62,0,3.82,2.07,3.82,4.73a6,6,0,0,1-.23,1.58.94.94,0,0,0,.84.51c.61,0,.86-.61.86-1.95V250.6c0-3,.83-4.66,2.88-4.66,2.37,0,4.11,2.66,4.11,6.84C23.93,255.76,23.05,258,21,258Zm-9.48-7.13a1.73,1.73,0,1,0,0,3.46,1.74,1.74,0,1,0,0-3.46Zm8.87-1.66c-.72,0-.87.7-.87,2v1.45a7.34,7.34,0,0,1-.15,1.74c.36.58.7.82,1.11.82.86,0,1.3-1.12,1.3-2.91S21.19,249.18,20.4,249.18Z" transform="translate(-1.73)"/><path class="cls-1" d="M15.92,245c-2.56,0-3.86-2.12-4.18-7.54-1,.12-1.65.89-1.65,2.43a8,8,0,0,0,1.07,3.5l-2.22,1.21a11,11,0,0,1-1.54-5.37c0-3.22,1.67-5.17,5.16-5.17h6.52v2.78l-1.29.24v.09a7,7,0,0,1,1.56,4.06A3.46,3.46,0,0,1,15.92,245Zm-.27-7.54H13.78c.17,3.37.89,4.28,1.87,4.28.73,0,1.09-.62,1.09-1.58A4.45,4.45,0,0,0,15.65,237.5Z" transform="translate(-1.73)"/><path class="cls-1" d="M14.35,229.72h-4v2.89H7.81l-.13-3.05-3.49-.43v-2.82H7.68v-4.83h2.65v4.83h4c1.73,0,2.39-.73,2.39-2.41a6.84,6.84,0,0,0-.41-2.26l2.45-.62a12.7,12.7,0,0,1,.61,3.75C19.35,228.42,17.34,229.72,14.35,229.72Z" transform="translate(-1.73)"/><path class="cls-1" d="M3.83,215.31a2.27,2.27,0,1,1,2.07-2.26A2.07,2.07,0,0,1,3.83,215.31Zm6.5-.71v4.62H7.68v-8h11.4v3.4Z" transform="translate(-1.73)"/><path class="cls-1" d="M7.68,207.6v-3.42l5.37-1.8c1.14-.38,2.31-.69,3.51-1v-.09c-1.2-.34-2.37-.65-3.51-1l-5.37-1.81v-3.25l11.4,4.2v3.9Z" transform="translate(-1.73)"/><path class="cls-1" d="M13.37,194.33a5.83,5.83,0,0,1-6-6c0-3.54,2.38-5.4,5.47-5.4a9.35,9.35,0,0,1,1.52.14v8.7H12.12v-6.4l.65.54c-1.83,0-2.8.8-2.8,2.3,0,1.68,1.14,2.79,3.4,2.79s3.41-1.3,3.41-3.53a6.2,6.2,0,0,0-.8-2.95l2-1.13A8.77,8.77,0,0,1,19.35,188C19.35,191.55,17.16,194.33,13.37,194.33Z" transform="translate(-1.73)"/><path class="cls-1" d="M6.94,165v4.51H4.1V157H6.94v4.52H19.08V165Z" transform="translate(-1.73)"/><path class="cls-1" d="M13.37,156.19a5.83,5.83,0,0,1-6-6c0-3.54,2.38-5.4,5.47-5.4a9.35,9.35,0,0,1,1.52.14v8.7H12.12v-6.4l.65.54c-1.83,0-2.8.8-2.8,2.3,0,1.68,1.14,2.79,3.4,2.79s3.41-1.3,3.41-3.53a6.2,6.2,0,0,0-.8-3l2-1.13a8.77,8.77,0,0,1,1.33,4.55C19.35,153.41,17.16,156.19,13.37,156.19Z" transform="translate(-1.73)"/><path class="cls-1" d="M7.68,142.08v-2.79l2.49-.27v-.08a5.35,5.35,0,0,1-2.77-4.65,4.79,4.79,0,0,1,.46-2.2l2.84.69a6,6,0,0,0-.33,2,4.25,4.25,0,0,0,2.78,3.87h5.93v3.4Z" transform="translate(-1.73)"/><path class="cls-1" d="M7.68,131.23v-2.56l1.4-.24v-.08a2.61,2.61,0,0,1-1.68-2.49,2,2,0,0,1,1.87-2,2.68,2.68,0,0,1-1.87-2.54c0-1.63,1.4-2.56,3.68-2.56h8V122H11.32c-.71,0-1,.17-1,.62s.36.73,1.11,1h7.69v2.66H11.32c-.71,0-1,.21-1,.66s.36.71,1.11,1h7.69v3.23Z" transform="translate(-1.73)"/><path class="cls-1" d="M3.83,113.61a2.27,2.27,0,0,1,0-4.52,2.27,2.27,0,0,1,0,4.52Zm6.5-.72v4.62H7.68v-8h11.4v3.4Z" transform="translate(-1.73)"/><path class="cls-1" d="M13.38,105.06c-3.79,0-6-3.1-6-6.63A6.24,6.24,0,0,1,9,94.14l2.1,1.56a4.25,4.25,0,0,0-.92,2.54,3.12,3.12,0,0,0,3.25,3.34,3.07,3.07,0,0,0,3.24-3.22,5.32,5.32,0,0,0-1.08-3L17.67,94a7.42,7.42,0,0,1,1.68,4.71C19.35,102.29,17.17,105.06,13.38,105.06Z" transform="translate(-1.73)"/><path class="cls-1" d="M15.92,92.48c-2.56,0-3.86-2.12-4.18-7.54-1,.12-1.65.89-1.65,2.43a8,8,0,0,0,1.07,3.5L8.94,92.08A11,11,0,0,1,7.4,86.71c0-3.22,1.67-5.17,5.16-5.17h6.52v2.77l-1.29.25v.09a7,7,0,0,1,1.56,4.06A3.46,3.46,0,0,1,15.92,92.48Zm-.27-7.54H13.78c.17,3.37.89,4.28,1.87,4.28.73,0,1.09-.62,1.09-1.58A4.42,4.42,0,0,0,15.65,84.94Z" transform="translate(-1.73)"/><path class="cls-1" d="M14.62,76.43h-9V80H3V73H14.76a1.69,1.69,0,0,0,1.86-1.87,5.06,5.06,0,0,0-.37-1.79l2.49-.75A9.77,9.77,0,0,1,19.35,72C19.35,74.93,17.51,76.43,14.62,76.43Z" transform="translate(-1.73)"/><rect class="cls-2" x="30.52" y="1.01" width="658.93" height="366"/><rect class="cls-1" x="30.52" y="1.01" width="22.99" height="366"/><rect class="cls-1" x="666.47" y="1.01" width="22.99" height="366"/><polygon class="cls-1" points="159.34 32.38 151.92 29.33 153.46 32 122.05 32 122.05 32.75 153.46 32.75 151.92 35.43 159.34 32.38"/><rect class="cls-3" x="106.38" y="24.13" width="16.41" height="16.5" rx="8.2"/><ellipse class="cls-4" cx="115.05" cy="65.93" rx="24.83" ry="24.97"/><path class="cls-1" d="M115.38,67.26H108.9V64.59h6.48V57.66h2.8v6.93h6.48v2.67h-6.48v6.93h-2.8Z" transform="translate(-1.73)"/><polygon class="cls-1" points="295.46 32.38 288.04 29.33 289.58 32 258.17 32 258.17 32.75 289.58 32.75 288.04 35.43 295.46 32.38"/><rect class="cls-3" x="242.5" y="24.13" width="16.41" height="16.5" rx="8.2"/><ellipse class="cls-4" cx="251.17" cy="65.93" rx="24.83" ry="24.97"/><path class="cls-1" d="M251.5,67.26H245V64.59h6.48V57.66h2.81v6.93h6.48v2.67h-6.48v6.93H251.5Z" transform="translate(-1.73)"/><polygon class="cls-1" points="431.58 32.38 424.16 29.33 425.71 32 394.29 32 394.29 32.75 425.71 32.75 424.16 35.43 431.58 32.38"/><rect class="cls-3" x="378.63" y="24.13" width="16.41" height="16.5" rx="8.2"/><ellipse class="cls-4" cx="387.3" cy="65.93" rx="24.83" ry="24.97"/><path class="cls-1" d="M387.62,67.26h-6.48V64.59h6.48V57.66h2.81v6.93h6.48v2.67h-6.48v6.93h-2.81Z" transform="translate(-1.73)"/><polygon class="cls-1" points="567.71 32.38 560.29 29.33 561.83 32 530.41 32 530.41 32.75 561.83 32.75 560.29 35.43 567.71 32.38"/><rect class="cls-3" x="514.75" y="24.13" width="16.41" height="16.5" rx="8.2"/><ellipse class="cls-4" cx="523.42" cy="65.93" rx="24.83" ry="24.97"/><path class="cls-1" d="M523.74,67.26h-6.47V64.59h6.47V57.66h2.81v6.93H533v2.67h-6.48v6.93h-2.81Z" transform="translate(-1.73)"/><polygon class="cls-1" points="159.34 194.62 151.92 191.57 153.46 194.24 122.05 194.24 122.05 194.99 153.46 194.99 151.92 197.67 159.34 194.62"/><rect class="cls-3" x="106.38" y="186.37" width="16.41" height="16.5" rx="8.2"/><ellipse class="cls-4" cx="115.05" cy="228.17" rx="24.83" ry="24.97"/><path class="cls-1" d="M115.38,229.5H108.9v-2.67h6.48V219.9h2.8v6.93h6.48v2.67h-6.48v6.93h-2.8Z" transform="translate(-1.73)"/><polygon class="cls-1" points="295.46 194.62 288.04 191.57 289.58 194.24 258.17 194.24 258.17 194.99 289.58 194.99 288.04 197.67 295.46 194.62"/><rect class="cls-3" x="242.5" y="186.37" width="16.41" height="16.5" rx="8.2"/><ellipse class="cls-4" cx="251.17" cy="228.17" rx="24.83" ry="24.97"/><path class="cls-1" d="M251.5,229.5H245v-2.67h6.48V219.9h2.81v6.93h6.48v2.67h-6.48v6.93H251.5Z" transform="translate(-1.73)"/><polygon class="cls-1" points="431.58 194.62 424.16 191.57 425.71 194.24 394.29 194.24 394.29 194.99 425.71 194.99 424.16 197.67 431.58 194.62"/><rect class="cls-3" x="378.63" y="186.37" width="16.41" height="16.5" rx="8.2"/><ellipse class="cls-4" cx="387.3" cy="228.17" rx="24.83" ry="24.97"/><path class="cls-1" d="M387.62,229.5h-6.48v-2.67h6.48V219.9h2.81v6.93h6.48v2.67h-6.48v6.93h-2.81Z" transform="translate(-1.73)"/><polygon class="cls-1" points="567.71 194.62 560.29 191.57 561.83 194.24 530.41 194.24 530.41 194.99 561.83 194.99 560.29 197.67 567.71 194.62"/><rect class="cls-3" x="514.75" y="186.37" width="16.41" height="16.5" rx="8.2"/><ellipse class="cls-4" cx="523.42" cy="228.17" rx="24.83" ry="24.97"/><path class="cls-1" d="M523.74,229.5h-6.47v-2.67h6.47V219.9h2.81v6.93H533v2.67h-6.48v6.93h-2.81Z" transform="translate(-1.73)"/><polygon class="cls-1" points="224.88 113.5 217.46 110.45 219 113.12 187.59 113.12 187.59 113.87 219 113.87 217.46 116.55 224.88 113.5"/><rect class="cls-3" x="171.92" y="105.25" width="16.41" height="16.5" rx="8.2"/><ellipse class="cls-4" cx="180.59" cy="147.05" rx="24.83" ry="24.97"/><path class="cls-1" d="M180.92,148.38h-6.48v-2.67h6.48v-6.93h2.8v6.93h6.48v2.67h-6.48v6.93h-2.8Z" transform="translate(-1.73)"/><polygon class="cls-1" points="361 113.5 353.58 110.45 355.13 113.12 323.71 113.12 323.71 113.87 355.13 113.87 353.58 116.55 361 113.5"/><rect class="cls-3" x="308.05" y="105.25" width="16.41" height="16.5" rx="8.2"/><ellipse class="cls-4" cx="316.71" cy="147.05" rx="24.83" ry="24.97"/><path class="cls-1" d="M317,148.38h-6.48v-2.67H317v-6.93h2.81v6.93h6.48v2.67h-6.48v6.93H317Z" transform="translate(-1.73)"/><polygon class="cls-1" points="497.13 113.5 489.7 110.45 491.25 113.12 459.83 113.12 459.83 113.87 491.25 113.87 489.7 116.55 497.13 113.5"/><rect class="cls-3" x="444.17" y="105.25" width="16.41" height="16.5" rx="8.2"/><ellipse class="cls-4" cx="452.84" cy="147.05" rx="24.83" ry="24.97"/><path class="cls-1" d="M453.16,148.38h-6.48v-2.67h6.48v-6.93H456v6.93h6.48v2.67H456v6.93h-2.81Z" transform="translate(-1.73)"/><polygon class="cls-1" points="633.25 113.5 625.83 110.45 627.37 113.12 595.96 113.12 595.96 113.87 627.37 113.87 625.83 116.55 633.25 113.5"/><rect class="cls-3" x="580.29" y="105.25" width="16.41" height="16.5" rx="8.2"/><ellipse class="cls-4" cx="588.96" cy="147.05" rx="24.83" ry="24.97"/><path class="cls-1" d="M589.28,148.38h-6.47v-2.67h6.47v-6.93h2.81v6.93h6.48v2.67h-6.48v6.93h-2.81Z" transform="translate(-1.73)"/><polygon class="cls-1" points="224.88 275.74 217.46 272.69 219 275.36 187.59 275.36 187.59 276.11 219 276.11 217.46 278.79 224.88 275.74"/><rect class="cls-3" x="171.92" y="267.49" width="16.41" height="16.5" rx="8.2"/><ellipse class="cls-4" cx="180.59" cy="309.29" rx="24.83" ry="24.97"/><path class="cls-1" d="M180.92,310.62h-6.48V308h6.48V301h2.8V308h6.48v2.67h-6.48v6.93h-2.8Z" transform="translate(-1.73)"/><polygon class="cls-1" points="361 275.74 353.58 272.69 355.13 275.36 323.71 275.36 323.71 276.11 355.13 276.11 353.58 278.79 361 275.74"/><rect class="cls-3" x="308.05" y="267.49" width="16.41" height="16.5" rx="8.2"/><ellipse class="cls-4" cx="316.71" cy="309.29" rx="24.83" ry="24.97"/><path class="cls-1" d="M317,310.62h-6.48V308H317V301h2.81V308h6.48v2.67h-6.48v6.93H317Z" transform="translate(-1.73)"/><polygon class="cls-1" points="497.13 275.74 489.7 272.69 491.25 275.36 459.83 275.36 459.83 276.11 491.25 276.11 489.7 278.79 497.13 275.74"/><rect class="cls-3" x="444.17" y="267.49" width="16.41" height="16.5" rx="8.2"/><ellipse class="cls-4" cx="452.84" cy="309.29" rx="24.83" ry="24.97"/><path class="cls-1" d="M453.16,310.62h-6.48V308h6.48V301H456V308h6.48v2.67H456v6.93h-2.81Z" transform="translate(-1.73)"/><polygon class="cls-1" points="633.25 275.74 625.83 272.69 627.37 275.36 595.96 275.36 595.96 276.11 627.37 276.11 625.83 278.79 633.25 275.74"/><rect class="cls-3" x="580.29" y="267.49" width="16.41" height="16.5" rx="8.2"/><ellipse class="cls-4" cx="588.96" cy="309.29" rx="24.83" ry="24.97"/><path class="cls-1" d="M589.28,310.62h-6.47V308h6.47V301h2.81V308h6.48v2.67h-6.48v6.93h-2.81Z" transform="translate(-1.73)"/><path class="cls-5" d="M677.68,14h-3.79V11.7h3.79v-4H680v4h3.79V14H680v4h-2.33Z" transform="translate(-1.73)"/><path class="cls-5" d="M677.68,62.44h-3.79V60.19h3.79v-4H680v4h3.79v2.25H680v4h-2.33Z" transform="translate(-1.73)"/><path class="cls-5" d="M677.68,110.93h-3.79v-2.25h3.79v-4H680v4h3.79v2.25H680v4h-2.33Z" transform="translate(-1.73)"/><path class="cls-5" d="M677.68,159.42h-3.79v-2.25h3.79v-4H680v4h3.79v2.25H680v4h-2.33Z" transform="translate(-1.73)"/><path class="cls-5" d="M677.68,207.91h-3.79v-2.25h3.79v-4H680v4h3.79v2.25H680v4h-2.33Z" transform="translate(-1.73)"/><path class="cls-5" d="M677.68,256.4h-3.79v-2.25h3.79v-4H680v4h3.79v2.25H680v4h-2.33Z" transform="translate(-1.73)"/><path class="cls-5" d="M677.68,304.89h-3.79v-2.25h3.79v-4H680v4h3.79v2.25H680v4h-2.33Z" transform="translate(-1.73)"/><path class="cls-5" d="M677.68,353.38h-3.79v-2.25h3.79v-4H680v4h3.79v2.25H680v4h-2.33Z" transform="translate(-1.73)"/><path class="cls-5" d="M37.94,10.22H48.52v2.4H37.94Z" transform="translate(-1.73)"/><path class="cls-5" d="M37.94,58.93H48.52v2.4H37.94Z" transform="translate(-1.73)"/><path class="cls-5" d="M37.94,107.64H48.52V110H37.94Z" transform="translate(-1.73)"/><path class="cls-5" d="M37.94,156.35H48.52v2.4H37.94Z" transform="translate(-1.73)"/><path class="cls-5" d="M37.94,205.05H48.52v2.4H37.94Z" transform="translate(-1.73)"/><path class="cls-5" d="M37.94,253.76H48.52v2.4H37.94Z" transform="translate(-1.73)"/><path class="cls-5" d="M37.94,302.47H48.52v2.4H37.94Z" transform="translate(-1.73)"/><path class="cls-5" d="M37.94,351.18H48.52v2.4H37.94Z" transform="translate(-1.73)"/></g></g></svg>