<svg xmlns="http://www.w3.org/2000/svg" viewBox="0 0 537.06 206"><defs><style>.cls-1{fill:#193c40;}.cls-2{fill:#ecb390;stroke-width:0.5px;}.cls-2,.cls-3{stroke:#193c40;stroke-miterlimit:10;}.cls-3{fill:#de4948;}.cls-4{font-size:12px;fill:#ece6db;font-family:MyriadPro-Regular, Myriad Pro;}</style></defs><g id="Layer_2" data-name="Layer 2"><g id="Layer_1-2" data-name="Layer 1"><rect class="cls-1" x="52" y="15.53" width="81" height="3"/><rect class="cls-1" x="58" y="103.53" width="81" height="3"/><rect class="cls-1" x="5" y="95.53" width="65" height="20"/><rect class="cls-1" y="8.53" width="116" height="17"/><rect class="cls-2" x="137.06" y="8.25" width="16.41" height="16.5" rx="8.2"/><rect class="cls-2" x="201.06" y="49.25" width="16.41" height="16.5" rx="8.2"/><rect class="cls-2" x="193.06" y="116.25" width="16.41" height="16.5" rx="8.2"/><rect class="cls-2" x="278.06" y="58.25" width="16.41" height="16.5" rx="8.2"/><rect class="cls-2" x="262.06" y="0.25" width="16.41" height="16.5" rx="8.2"/><rect class="cls-2" x="399.06" y="29.25" width="16.41" height="16.5" rx="8.2"/><rect class="cls-2" x="344.06" y="63.25" width="16.41" height="16.5" rx="8.2"/><rect class="cls-2" x="332.06" y="119.25" width="16.41" height="16.5" rx="8.2"/><rect class="cls-2" x="201.06" y="189.25" width="16.41" height="16.5" rx="8.2"/><rect class="cls-2" x="278.06" y="140.25" width="16.41" height="16.5" rx="8.2"/><rect class="cls-2" x="262.06" y="107.25" width="16.41" height="16.5" rx="8.2"/><rect class="cls-2" x="241.06" y="133.25" width="16.41" height="16.5" rx="8.2"/><rect class="cls-2" x="399.06" y="145.25" width="16.41" height="16.5" rx="8.2"/><rect class="cls-2" x="401.06" y="87.25" width="16.41" height="16.5" rx="8.2"/><rect class="cls-2" x="472.06" y="44.25" width="16.41" height="16.5" rx="8.2"/><rect class="cls-2" x="467.06" y="124.25" width="16.41" height="16.5" rx="8.2"/><rect class="cls-2" x="475.06" y="181.25" width="16.41" height="16.5" rx="8.2"/><ellipse class="cls-3" cx="169.73" cy="41.05" rx="24.83" ry="24.97"/><path class="cls-1" d="M168.32,42.38h-6.47V39.72h6.47V32.79h2.81v6.93h6.48v2.66h-6.48v6.93h-2.81Z"/><ellipse class="cls-3" cx="169.73" cy="107.05" rx="24.83" ry="24.97"/><path class="cls-1" d="M168.32,108.38h-6.47v-2.66h6.47V98.79h2.81v6.93h6.48v2.66h-6.48v6.93h-2.81Z"/><ellipse class="cls-3" cx="169.73" cy="173.05" rx="24.83" ry="24.97"/><path class="cls-1" d="M168.32,174.38h-6.47v-2.66h6.47v-6.93h2.81v6.93h6.48v2.66h-6.48v6.93h-2.81Z"/><ellipse class="cls-3" cx="237.73" cy="41.05" rx="24.83" ry="24.97"/><path class="cls-1" d="M236.32,42.38h-6.47V39.72h6.47V32.79h2.81v6.93h6.48v2.66h-6.48v6.93h-2.81Z"/><ellipse class="cls-3" cx="237.73" cy="107.05" rx="24.83" ry="24.97"/><path class="cls-1" d="M236.32,108.38h-6.47v-2.66h6.47V98.79h2.81v6.93h6.48v2.66h-6.48v6.93h-2.81Z"/><ellipse class="cls-3" cx="237.73" cy="173.05" rx="24.83" ry="24.97"/><path class="cls-1" d="M236.32,174.38h-6.47v-2.66h6.47v-6.93h2.81v6.93h6.48v2.66h-6.48v6.93h-2.81Z"/><ellipse class="cls-3" cx="307.73" cy="41.05" rx="24.83" ry="24.97"/><path class="cls-1" d="M306.32,42.38h-6.47V39.72h6.47V32.79h2.81v6.93h6.48v2.66h-6.48v6.93h-2.81Z"/><ellipse class="cls-3" cx="307.73" cy="107.05" rx="24.83" ry="24.97"/><path class="cls-1" d="M306.32,108.38h-6.47v-2.66h6.47V98.79h2.81v6.93h6.48v2.66h-6.48v6.93h-2.81Z"/><ellipse class="cls-3" cx="307.73" cy="173.05" rx="24.83" ry="24.97"/><path class="cls-1" d="M306.32,174.38h-6.47v-2.66h6.47v-6.93h2.81v6.93h6.48v2.66h-6.48v6.93h-2.81Z"/><ellipse class="cls-3" cx="373.73" cy="41.05" rx="24.83" ry="24.97"/><path class="cls-1" d="M372.32,42.38h-6.47V39.72h6.47V32.79h2.81v6.93h6.48v2.66h-6.48v6.93h-2.81Z"/><ellipse class="cls-3" cx="373.73" cy="107.05" rx="24.83" ry="24.97"/><path class="cls-1" d="M372.32,108.38h-6.47v-2.66h6.47V98.79h2.81v6.93h6.48v2.66h-6.48v6.93h-2.81Z"/><ellipse class="cls-3" cx="373.73" cy="173.05" rx="24.83" ry="24.97"/><path class="cls-1" d="M372.32,174.38h-6.47v-2.66h6.47v-6.93h2.81v6.93h6.48v2.66h-6.48v6.93h-2.81Z"/><ellipse class="cls-3" cx="441.73" cy="41.05" rx="24.83" ry="24.97"/><path class="cls-1" d="M440.32,42.38h-6.47V39.72h6.47V32.79h2.81v6.93h6.48v2.66h-6.48v6.93h-2.81Z"/><ellipse class="cls-3" cx="441.73" cy="107.05" rx="24.83" ry="24.97"/><path class="cls-1" d="M440.32,108.38h-6.47v-2.66h6.47V98.79h2.81v6.93h6.48v2.66h-6.48v6.93h-2.81Z"/><ellipse class="cls-3" cx="441.73" cy="173.05" rx="24.83" ry="24.97"/><path class="cls-1" d="M440.32,174.38h-6.47v-2.66h6.47v-6.93h2.81v6.93h6.48v2.66h-6.48v6.93h-2.81Z"/><ellipse class="cls-3" cx="511.73" cy="41.05" rx="24.83" ry="24.97"/><path class="cls-1" d="M510.32,42.38h-6.47V39.72h6.47V32.79h2.81v6.93h6.48v2.66h-6.48v6.93h-2.81Z"/><ellipse class="cls-3" cx="511.73" cy="107.05" rx="24.83" ry="24.97"/><path class="cls-1" d="M510.32,108.38h-6.47v-2.66h6.47V98.79h2.81v6.93h6.48v2.66h-6.48v6.93h-2.81Z"/><ellipse class="cls-3" cx="511.73" cy="173.05" rx="24.83" ry="24.97"/><path class="cls-1" d="M510.32,174.38h-6.47v-2.66h6.47v-6.93h2.81v6.93h6.48v2.66h-6.48v6.93h-2.81Z"/><text class="cls-4" transform="translate(5.27 20.2)">Delocalised electrons</text><text class="cls-4" transform="translate(11.27 109.2)">Metal ions</text></g></g></svg>