<svg xmlns="http://www.w3.org/2000/svg" viewBox="0 0 772.01 639.35"><defs><style>.cls-1,.cls-10,.cls-12,.cls-15{fill:#193c40;}.cls-13,.cls-2{fill:none;}.cls-14,.cls-16,.cls-2{stroke:#193c40;}.cls-13,.cls-14,.cls-16,.cls-17,.cls-2{stroke-miterlimit:10;}.cls-13,.cls-16,.cls-2{stroke-width:2px;}.cls-3{fill:#ece6db;}.cls-4{fill:#4ac4d0;}.cls-5{fill:#fcc015;}.cls-6{fill:#128995;}.cls-7{fill:#d1ecf2;}.cls-8{fill:#fff;opacity:0.3;}.cls-9{fill:#010101;opacity:0.2;}.cls-10{font-size:16px;}.cls-10,.cls-12{font-family:NotoSansSC-Regular-90ms-RKSJ-H, Noto Sans SC;}.cls-11,.cls-14{fill:#de4948;}.cls-12{font-size:12px;}.cls-13{stroke:#417d7a;}.cls-14{stroke-width:3px;}.cls-15{font-size:13px;font-family:NotoSansSC-Medium-90ms-RKSJ-H, Noto Sans SC;}.cls-16,.cls-17{fill:#c1d9c1;}.cls-17{stroke:#de4948;stroke-width:4px;}</style></defs><g id="Layer_2" data-name="Layer 2"><g id="Layer_1-2" data-name="Layer 1"><rect class="cls-1" x="411.85" y="452.35" width="7" height="7" rx="3.5"/><rect class="cls-1" x="411.85" y="494.35" width="7" height="7" rx="3.5"/><rect class="cls-2" x="398.85" y="431.85" width="352" height="165.5"/><path class="cls-1" d="M398.85,400.35h165a32,32,0,0,1,32,32v0a0,0,0,0,1,0,0h-197a0,0,0,0,1,0,0v-32A0,0,0,0,1,398.85,400.35Z"/><path class="cls-3" d="M448.88,424.06h3.78c4,0,6.58,2.08,6.58,6.78s-2.61,6.91-6.4,6.91h-4Zm3.61,11.19c2.13,0,3.58-1.14,3.58-4.41s-1.45-4.28-3.58-4.28H452v8.69Z" transform="translate(-3.1 -16.1)"/><path class="cls-3" d="M458.89,432.54A5.31,5.31,0,1,1,464.2,438,5.23,5.23,0,0,1,458.89,432.54Zm7.46,0c0-1.8-.72-3-2.15-3s-2.15,1.17-2.15,3,.73,3,2.15,3S466.35,434.34,466.35,432.54Z" transform="translate(-3.1 -16.1)"/><path class="cls-3" d="M480.31,441.61l.55-2.36a3,3,0,0,0,.81.13,2.12,2.12,0,0,0,2.18-1.36l.21-.54-4.51-10.15h3.07l1.75,4.48c.37,1,.7,2,1,3.12h.09c.28-1,.63-2.11.95-3.12l1.52-4.48h2.93l-4.11,10.53c-1,2.6-2.25,4-4.88,4A6.13,6.13,0,0,1,480.31,441.61Z" transform="translate(-3.1 -16.1)"/><path class="cls-3" d="M490.39,432.54A5.31,5.31,0,1,1,495.7,438,5.22,5.22,0,0,1,490.39,432.54Zm7.46,0c0-1.8-.73-3-2.15-3s-2.15,1.17-2.15,3,.73,3,2.15,3S497.85,434.34,497.85,432.54Z" transform="translate(-3.1 -16.1)"/><path class="cls-3" d="M501.2,433.76v-6.43h3.09v6c0,1.38.37,2,1.52,2a2.36,2.36,0,0,0,2-1.18v-6.85h3.09v10.42H508.4l-.23-1.5h-.08a4.47,4.47,0,0,1-3.51,1.75C502.21,438,501.2,436.39,501.2,433.76Z" transform="translate(-3.1 -16.1)"/><path class="cls-3" d="M522.49,423h3.09v8.48h.08l3.83-4.19h3.37l-7.28,7.8v2.62h-3.09Zm4.33,10,1.78-1.93,4.6,6.65h-3.36Z" transform="translate(-3.1 -16.1)"/><path class="cls-3" d="M532.92,427.33h2.51l.23,1.39h.08a5,5,0,0,1,3.6-1.64c2.35,0,3.39,1.61,3.39,4.23v6.44h-3.09v-6c0-1.38-.4-2-1.53-2a2.89,2.89,0,0,0-2.1,1.08v7h-3.09Z" transform="translate(-3.1 -16.1)"/><path class="cls-3" d="M542.89,432.54A5.31,5.31,0,1,1,548.2,438,5.22,5.22,0,0,1,542.89,432.54Zm7.46,0c0-1.8-.73-3-2.15-3s-2.15,1.17-2.15,3,.73,3,2.15,3S550.35,434.34,550.35,432.54Z" transform="translate(-3.1 -16.1)"/><path class="cls-3" d="M552.48,427.33h3l.65,4.83c.12,1,.21,2,.34,3.09h.07a27.31,27.31,0,0,1,.48-3.09l.65-3.44h2.24l.67,3.44c.2,1,.38,2,.52,3.09h.09c.14-1.06.18-2.06.29-3.09l.58-4.83h2.87l-1.6,10.42H559.7l-.57-3.39c-.14-.9-.26-1.89-.39-3.09h-.08c-.09.88-.19,1.78-.35,3.09l-.56,3.39h-3.56Z" transform="translate(-3.1 -16.1)"/><path class="cls-3" d="M570.38,427.24c0-.86-.68-1.32-1.55-1.32a3.16,3.16,0,0,0-2.16,1L565,425.32a5.47,5.47,0,0,1,4.08-1.89c2.41,0,4.3,1.11,4.3,3.42,0,2.77-3.42,3.11-3.17,5.53h-2.7C567,429.58,570.38,428.81,570.38,427.24Zm-3.57,8.62a2.1,2.1,0,0,1,4.2,0,2.1,2.1,0,1,1-4.2,0Z" transform="translate(-3.1 -16.1)"/><path class="cls-4" d="M408.66,398.08a18.29,18.29,0,0,0-12.88,31.28,12.67,12.67,0,0,1,3.41,5.92l.63,4H417.5l.63-4a12.6,12.6,0,0,1,3.42-5.92,18.29,18.29,0,0,0-12.89-31.27Z" transform="translate(-3.1 -16.1)"/><path class="cls-5" d="M412,440.73a.74.74,0,0,1-.74-.74c0-.46.07-11.44,6.42-26.45a.73.73,0,0,1,1.35.57c-6.23,14.74-6.3,25.77-6.3,25.88a.74.74,0,0,1-.73.74Z" transform="translate(-3.1 -16.1)"/><path class="cls-5" d="M405.38,440.73a.74.74,0,0,1-.74-.74c0-.11-.07-11.16-6.3-25.88a.74.74,0,0,1,.39-1,.73.73,0,0,1,1,.39c6.35,15,6.42,26,6.42,26.45A.74.74,0,0,1,405.38,440.73Z" transform="translate(-3.1 -16.1)"/><path class="cls-5" d="M417.56,415.37a3.18,3.18,0,0,1-2.49-1.3,2.33,2.33,0,0,0-3.91,0,3,3,0,0,1-5,0,2.34,2.34,0,0,0-3.92,0,3.18,3.18,0,0,1-2.49,1.3.37.37,0,1,1,0-.73,2.51,2.51,0,0,0,2-1.07,3,3,0,0,1,5,0,2.32,2.32,0,0,0,3.91,0,3,3,0,0,1,5,0,2.5,2.5,0,0,0,2,1.07.37.37,0,0,1,0,.73Z" transform="translate(-3.1 -16.1)"/><path class="cls-6" d="M413.84,452.66H403.48a3.66,3.66,0,0,1-3.66-3.67v-9.73H417.5V449A3.66,3.66,0,0,1,413.84,452.66Z" transform="translate(-3.1 -16.1)"/><path class="cls-7" d="M399.82,447.3V449a4,4,0,0,0,.15,1h17.38a3.59,3.59,0,0,0,.15-1V447.3Z" transform="translate(-3.1 -16.1)"/><rect class="cls-7" x="396.72" y="425.84" width="17.68" height="2.68"/><path class="cls-5" d="M408.66,454.3c1.82,0,3.29-.74,3.29-1.64h-6.57C405.38,453.56,406.85,454.3,408.66,454.3Z" transform="translate(-3.1 -16.1)"/><path class="cls-5" d="M408.66,392.27a.89.89,0,0,1-.88-.88v-4.8a.88.88,0,1,1,1.76,0v4.8A.88.88,0,0,1,408.66,392.27Z" transform="translate(-3.1 -16.1)"/><path class="cls-5" d="M395.85,395.7a.88.88,0,0,1-.76-.44l-2.4-4.16a.88.88,0,0,1,.32-1.2.9.9,0,0,1,1.21.32l2.39,4.16a.88.88,0,0,1-.76,1.32Z" transform="translate(-3.1 -16.1)"/><path class="cls-5" d="M386.47,405.07A.88.88,0,0,1,386,405l-4.15-2.39a.87.87,0,0,1-.32-1.2.88.88,0,0,1,1.2-.33l4.15,2.4a.88.88,0,0,1-.44,1.64Z" transform="translate(-3.1 -16.1)"/><path class="cls-5" d="M383,417.88h-4.79a.88.88,0,0,1,0-1.76H383a.88.88,0,0,1,0,1.76Z" transform="translate(-3.1 -16.1)"/><path class="cls-5" d="M382.31,433.09a.88.88,0,0,1-.44-1.64l4.15-2.4a.88.88,0,0,1,1.2.33.87.87,0,0,1-.32,1.2L382.75,433A.88.88,0,0,1,382.31,433.09Z" transform="translate(-3.1 -16.1)"/><path class="cls-5" d="M435,433.1a.87.87,0,0,1-.44-.11l-4.15-2.4a.88.88,0,0,1,.88-1.53l4.15,2.4a.89.89,0,0,1,.33,1.2A.88.88,0,0,1,435,433.1Z" transform="translate(-3.1 -16.1)"/><path class="cls-5" d="M439.07,417.9h-4.79a.88.88,0,1,1,0-1.75h4.79a.88.88,0,0,1,0,1.76Z" transform="translate(-3.1 -16.1)"/><path class="cls-5" d="M430.85,405.08a.88.88,0,0,1-.44-1.64l4.15-2.39a.88.88,0,1,1,.88,1.52L431.29,405A.88.88,0,0,1,430.85,405.08Z" transform="translate(-3.1 -16.1)"/><path class="cls-5" d="M421.47,395.7a.87.87,0,0,1-.44-.11.89.89,0,0,1-.32-1.21l2.4-4.15a.88.88,0,0,1,1.52.88l-2.4,4.15A.86.86,0,0,1,421.47,395.7Z" transform="translate(-3.1 -16.1)"/><path class="cls-8" d="M394.44,416.29c2.91,2.91,8.22,2.32,11.87-1.33s4.23-8.95,1.32-11.86-8.22-2.32-11.86,1.32S391.53,413.38,394.44,416.29Z" transform="translate(-3.1 -16.1)"/><path class="cls-8" d="M407.2,421.25c1.09,1.09,3.07.86,4.44-.5s1.58-3.35.49-4.44-3.07-.87-4.44.5S406.11,420.16,407.2,421.25Z" transform="translate(-3.1 -16.1)"/><path class="cls-9" d="M400.7,440h15.92a.82.82,0,0,0,.88-.74H399.82S400.22,440,400.7,440Z" transform="translate(-3.1 -16.1)"/><path class="cls-9" d="M405.74,453.39h5.85a1.06,1.06,0,0,0,.36-.73h-6.57A1,1,0,0,0,405.74,453.39Z" transform="translate(-3.1 -16.1)"/><text class="cls-10" transform="translate(431.68 226.28)">Metals atoms are highly <tspan class="cls-11"><tspan x="0" y="19.2">electropositive,</tspan><tspan class="cls-1" x="128.33" y="19.2" xml:space="preserve"> which means their </tspan></tspan><tspan x="0" y="38.4">valence electron can be easily </tspan><tspan x="0" y="57.6">seperated and can move freely </tspan><tspan x="0" y="76.8">among the closely packed metal </tspan><tspan x="0" y="96">cation. These mobile electrons are </tspan><tspan x="0" y="115.2">known as </tspan><tspan class="cls-11" x="81.73" y="115.2">delocalised electrons .</tspan></text><text class="cls-12" transform="translate(431.68 460.1)">Metals have high melting point because <tspan x="0" y="14.4">metallic bond are strong.</tspan></text><text class="cls-12" transform="translate(431.68 502.1)">The strength of metallic bond depends on the <tspan x="0" y="14.4">number of valence electrons involved in the </tspan><tspan x="0" y="28.8">formation of delocalised electrons. Hence </tspan><tspan x="0" y="43.2">strength of the metallic bond increase in the </tspan><tspan x="0" y="57.6">order Na &lt; Mg &lt; Al</tspan></text><text class="cls-10" transform="translate(68.68 485.28)">For example, in aluminium, each <tspan x="0" y="19.2">atom releases three valence </tspan><tspan x="0" y="38.4">electrons. The aluminium ions, </tspan><tspan x="0" y="57.6">Al</tspan></text><text class="cls-10" transform="translate(84.55 537.56) scale(0.58)">3+</text><text class="cls-10" transform="translate(95.84 542.88)"><tspan xml:space="preserve"> are immersed in a a sea of </tspan><tspan x="-27.16" y="19.2">delocalised electrons in forming a </tspan><tspan x="-27.16" y="38.4">metallic bond.</tspan></text><rect class="cls-13" x="31.85" y="299.35" width="355.05" height="298"/><text class="cls-10" transform="translate(68.68 216.28)">In metals, the atoms are closely <tspan x="0" y="19.2">packed and they are bonded by </tspan><tspan x="0" y="38.4">strong </tspan><tspan class="cls-11" x="56.86" y="38.4">metallic bonds.</tspan></text><rect class="cls-13" x="395.8" y="30.35" width="355.05" height="346"/><rect class="cls-13" x="31.85" y="30.35" width="355.05" height="259"/><circle class="cls-14" cx="334.2" cy="165.2" r="16.65"/><circle class="cls-14" cx="300.91" cy="165.2" r="16.65"/><circle class="cls-14" cx="267.61" cy="165.2" r="16.65"/><circle class="cls-14" cx="234.32" cy="165.2" r="16.65"/><circle class="cls-14" cx="201.03" cy="165.2" r="16.65"/><circle class="cls-14" cx="167.73" cy="165.2" r="16.65"/><circle class="cls-14" cx="134.44" cy="165.2" r="16.65"/><circle class="cls-14" cx="101.14" cy="165.2" r="16.65"/><circle class="cls-14" cx="317.56" cy="135.59" r="16.65"/><circle class="cls-14" cx="284.26" cy="135.59" r="16.65"/><circle class="cls-14" cx="250.97" cy="135.59" r="16.65"/><circle class="cls-14" cx="217.67" cy="135.59" r="16.65"/><circle class="cls-14" cx="184.38" cy="135.59" r="16.65"/><circle class="cls-14" cx="151.09" cy="135.59" r="16.65"/><circle class="cls-14" cx="117.79" cy="135.59" r="16.65"/><circle class="cls-14" cx="84.5" cy="135.59" r="16.65"/><circle class="cls-14" cx="334.2" cy="105.1" r="16.65"/><circle class="cls-14" cx="300.91" cy="105.1" r="16.65"/><circle class="cls-14" cx="267.61" cy="105.1" r="16.65"/><circle class="cls-14" cx="234.32" cy="105.1" r="16.65"/><circle class="cls-14" cx="201.03" cy="105.1" r="16.65"/><circle class="cls-14" cx="167.73" cy="105.1" r="16.65"/><circle class="cls-14" cx="134.44" cy="105.1" r="16.65"/><circle class="cls-14" cx="101.14" cy="105.1" r="16.65"/><circle class="cls-14" cx="317.56" cy="75.49" r="16.65"/><circle class="cls-14" cx="284.26" cy="75.49" r="16.65"/><circle class="cls-14" cx="250.97" cy="75.49" r="16.65"/><circle class="cls-14" cx="217.67" cy="75.49" r="16.65"/><circle class="cls-14" cx="184.38" cy="75.49" r="16.65"/><circle class="cls-14" cx="151.09" cy="75.49" r="16.65"/><circle class="cls-14" cx="117.79" cy="75.49" r="16.65"/><circle class="cls-14" cx="84.5" cy="75.49" r="16.65"/><text class="cls-15" transform="translate(674.78 90.34)">e</text><text class="cls-15" transform="translate(648.78 179.34)">e</text><text class="cls-15" transform="translate(646.78 137.34)">e</text><text class="cls-15" transform="translate(607.78 139.34)">e</text><text class="cls-15" transform="translate(607.78 85.34)">e</text><text class="cls-15" transform="translate(554.78 174.34)">e</text><text class="cls-15" transform="translate(497.78 149.34)">e</text><text class="cls-15" transform="translate(551.78 113.34)">e</text><text class="cls-15" transform="translate(532.78 83.34)">e</text><text class="cls-15" transform="translate(507.78 85.34)">e</text><circle class="cls-14" cx="683.2" cy="166.2" r="16.65"/><path class="cls-1" d="M686.28,183.22h-4.34v-1.78h4.34v-4.62h1.88v4.62h4.34v1.78h-4.34v4.62h-1.88Z" transform="translate(-3.1 -16.1)"/><circle class="cls-14" cx="682.2" cy="117.2" r="16.65"/><path class="cls-1" d="M685.28,134.22h-4.34v-1.78h4.34v-4.62h1.88v4.62h4.34v1.78h-4.34v4.62h-1.88Z" transform="translate(-3.1 -16.1)"/><circle class="cls-14" cx="649.2" cy="72.2" r="16.65"/><path class="cls-1" d="M652.28,89.22h-4.34V87.44h4.34V82.82h1.88v4.62h4.34v1.78h-4.34v4.62h-1.88Z" transform="translate(-3.1 -16.1)"/><circle class="cls-14" cx="627.2" cy="158.2" r="16.65"/><path class="cls-1" d="M630.28,175.22h-4.34v-1.78h4.34v-4.62h1.88v4.62h4.34v1.78h-4.34v4.62h-1.88Z" transform="translate(-3.1 -16.1)"/><circle class="cls-14" cx="626.2" cy="111.2" r="16.65"/><path class="cls-1" d="M629.28,128.22h-4.34v-1.78h4.34v-4.62h1.88v4.62h4.34v1.78h-4.34v4.62h-1.88Z" transform="translate(-3.1 -16.1)"/><circle class="cls-14" cx="579.2" cy="141.2" r="16.65"/><path class="cls-1" d="M582.28,158.22h-4.34v-1.78h4.34v-4.62h1.88v4.62h4.34v1.78h-4.34v4.62h-1.88Z" transform="translate(-3.1 -16.1)"/><circle class="cls-14" cx="573.2" cy="85.2" r="16.65"/><path class="cls-1" d="M576.28,102.22h-4.34v-1.78h4.34V95.82h1.88v4.62h4.34v1.78h-4.34v4.62h-1.88Z" transform="translate(-3.1 -16.1)"/><circle class="cls-14" cx="523.2" cy="166.2" r="16.65"/><path class="cls-1" d="M526.28,183.22h-4.34v-1.78h4.34v-4.62h1.88v4.62h4.34v1.78h-4.34v4.62h-1.88Z" transform="translate(-3.1 -16.1)"/><circle class="cls-14" cx="473.2" cy="128.2" r="16.65"/><path class="cls-1" d="M476.28,145.22h-4.34v-1.78h4.34v-4.62h1.88v4.62h4.34v1.78h-4.34v4.62h-1.88Z" transform="translate(-3.1 -16.1)"/><circle class="cls-14" cx="523.2" cy="116.2" r="16.65"/><path class="cls-1" d="M526.28,133.22h-4.34v-1.78h4.34v-4.62h1.88v4.62h4.34v1.78h-4.34v4.62h-1.88Z" transform="translate(-3.1 -16.1)"/><circle class="cls-14" cx="475.2" cy="85.2" r="16.65"/><path class="cls-1" d="M478.28,102.22h-4.34v-1.78h4.34V95.82h1.88v4.62h4.34v1.78h-4.34v4.62h-1.88Z" transform="translate(-3.1 -16.1)"/><text class="cls-15" transform="translate(254.78 418.34)">e</text><text class="cls-15" transform="translate(264.78 407.34)">e</text><text class="cls-15" transform="translate(143.78 420.34)">e</text><text class="cls-15" transform="translate(153.78 409.34)">e</text><text class="cls-15" transform="translate(201.78 371.34)">e</text><text class="cls-15" transform="translate(215.78 418.34)">e</text><text class="cls-15" transform="translate(201.78 407.34)">e</text><text class="cls-15" transform="translate(145.78 443.34)">e</text><text class="cls-15" transform="translate(205.78 459.34)">e</text><text class="cls-15" transform="translate(148.78 389.34)">e</text><text class="cls-15" transform="translate(142.78 331.34)">e</text><text class="cls-15" transform="translate(303.78 368.34)">e</text><text class="cls-15" transform="translate(264.78 371.34)">e</text><text class="cls-15" transform="translate(250.78 360.34)">e</text><text class="cls-15" transform="translate(158.78 371.34)">e</text><text class="cls-15" transform="translate(211.78 360.34)">e</text><text class="cls-15" transform="translate(144.78 360.34)">e</text><circle class="cls-16" cx="238.2" cy="435.2" r="16.65"/><text class="cls-15" transform="translate(228.77 439.46)">Al</text><text class="cls-15" transform="translate(240.73 435.13) scale(0.58)">3+</text><circle class="cls-16" cx="291.2" cy="431.2" r="16.65"/><text class="cls-15" transform="translate(281.77 435.46)">Al</text><text class="cls-15" transform="translate(293.73 431.13) scale(0.58)">3+</text><circle class="cls-16" cx="288.2" cy="388.2" r="16.65"/><text class="cls-15" transform="translate(278.77 392.46)">Al</text><text class="cls-15" transform="translate(290.73 388.13) scale(0.58)">3+</text><circle class="cls-16" cx="238.2" cy="382.2" r="16.65"/><text class="cls-15" transform="translate(228.77 386.46)">Al</text><text class="cls-15" transform="translate(240.73 382.13) scale(0.58)">3+</text><circle class="cls-16" cx="182.2" cy="431.2" r="16.65"/><text class="cls-15" transform="translate(172.77 435.46)">Al</text><text class="cls-15" transform="translate(184.73 431.13) scale(0.58)">3+</text><circle class="cls-16" cx="182.2" cy="385.2" r="16.65"/><text class="cls-15" transform="translate(172.77 389.46)">Al</text><text class="cls-15" transform="translate(184.73 385.13) scale(0.58)">3+</text><circle class="cls-16" cx="120.2" cy="431.2" r="16.65"/><text class="cls-15" transform="translate(110.77 435.46)">Al</text><text class="cls-15" transform="translate(122.73 431.13) scale(0.58)">3+</text><circle class="cls-16" cx="124.2" cy="382.2" r="16.65"/><text class="cls-15" transform="translate(114.77 386.46)">Al</text><text class="cls-15" transform="translate(126.73 382.13) scale(0.58)">3+</text><circle class="cls-16" cx="288.2" cy="343.2" r="16.65"/><text class="cls-15" transform="translate(278.77 347.46)">Al</text><text class="cls-15" transform="translate(290.73 343.13) scale(0.58)">3+</text><circle class="cls-16" cx="234.2" cy="335.2" r="16.65"/><text class="cls-15" transform="translate(224.77 339.46)">Al</text><text class="cls-15" transform="translate(236.73 335.13) scale(0.58)">3+</text><circle class="cls-16" cx="177.2" cy="339.2" r="16.65"/><text class="cls-15" transform="translate(167.77 343.46)">Al</text><text class="cls-15" transform="translate(179.73 339.13) scale(0.58)">3+</text><circle class="cls-16" cx="120.2" cy="335.2" r="16.65"/><text class="cls-15" transform="translate(110.77 339.46)">Al</text><text class="cls-15" transform="translate(122.73 335.13) scale(0.58)">3+</text><path class="cls-17" d="M731.09,67.66c16-13.45,26.81-22.93,26.81-31,0-5.41-3.37-8.38-9.23-8.38-4.46,0-8.08,2.74-11.25,5.68l-7-7c5.81-5.87,11.42-8.86,20-8.86,11.78,0,19.78,7,19.78,17.83,0,9.42-9.68,19.46-20.53,28.9,3.21-.33,7.26-.63,10.16-.63h13.26V75.09h-42Z" transform="translate(-3.1 -16.1)"/><path class="cls-17" d="M16,75.63H31V43.31H18.61V35.25c7.56-1.13,11.53-2.52,15.84-5.09H44V75.63H56.69V86.09H16Z" transform="translate(-3.1 -16.1)"/><path class="cls-17" d="M5.69,352.22l6-8.19c3.7,3.27,8.58,5.65,13.64,5.65,6.07,0,10.46-2.37,10.46-6.65,0-4.92-3.79-7.95-16.85-7.95v-9.17c11,0,15-3.05,15-7.49,0-3.91-3.21-6.14-8.27-6.14-4.4,0-8,1.81-11.86,4.88l-6.54-7.89a29.62,29.62,0,0,1,19-7.17c12.22,0,20.68,5.52,20.68,15.35,0,5.76-4,9.89-10.71,12.43v.35c7,1.84,12.52,6.39,12.52,13.63,0,10.4-10.37,16.28-22.19,16.28C17,360.14,10,356.93,5.69,352.22Z" transform="translate(-3.1 -16.1)"/></g></g></svg>