<svg xmlns="http://www.w3.org/2000/svg" viewBox="0 0 719 397"><defs><style>.cls-1{isolation:isolate;}.cls-2{fill:#ecb390;}.cls-3,.cls-5{fill:#193c40;}.cls-4{fill:#ece6db;}.cls-5{font-size:16px;font-family:NotoSansSC-Regular-90ms-RKSJ-H, Noto Sans SC;}.cls-17,.cls-6{fill:#bad6e9;}.cls-10,.cls-11,.cls-12,.cls-18,.cls-19,.cls-6,.cls-8,.cls-9{fill-rule:evenodd;}.cls-29,.cls-7,.cls-9{fill:#fff;}.cls-11,.cls-12,.cls-16,.cls-8{fill:#1b4f73;}.cls-8{opacity:0.38;}.cls-10{fill:#f6be4b;}.cls-11{opacity:0.14;}.cls-13,.cls-18{fill:#e4506b;}.cls-14,.cls-19{fill:#f4879d;}.cls-15{fill:#13334f;}.cls-20,.cls-24{fill:#abc3d0;}.cls-21{fill:#5c3010;}.cls-22{opacity:0.9;}.cls-23,.cls-25{fill:#0769b3;}.cls-24,.cls-27,.cls-32,.cls-34{mix-blend-mode:multiply;}.cls-25,.cls-29{mix-blend-mode:screen;}.cls-26{fill:#3255a2;}.cls-27{fill:#3b62ab;}.cls-28{fill:#e43525;}.cls-29{opacity:0.5;}.cls-30{fill:#b43125;}.cls-31{fill:#fedd1e;}.cls-32{fill:#cfdec4;}.cls-33{fill:#fccf26;}.cls-34{fill:#ffd880;}</style></defs><g class="cls-1"><g id="Layer_2" data-name="Layer 2"><g id="Layer_1-2" data-name="Layer 1"><rect class="cls-2" x="364" width="355" height="397"/><rect class="cls-2" width="355.05" height="397"/><rect class="cls-3" width="355" height="50"/><rect class="cls-3" x="364" width="355" height="50"/><path class="cls-4" d="M86.57,17.07h3.71l1.53,5.54.53,2.16h.09L93,22.61l1.54-5.54h3.72V32.71h-3V27.87c0-1.76.31-5.58.48-7.27h-.08l-1.2,4.2L93.2,28.57H91.48L90.24,24.8l-1.12-4.2H89c.18,1.69.47,5.51.47,7.27v4.84H86.57Z"/><path class="cls-4" d="M100.67,26.75a6.07,6.07,0,0,1,6.19-6.24c3.67,0,5.61,2.48,5.61,5.72a9.88,9.88,0,0,1-.15,1.58h-9V25.44h6.64l-.56.68c0-1.92-.83-2.92-2.39-2.92-1.75,0-2.89,1.18-2.89,3.55s1.34,3.55,3.66,3.55a6.6,6.6,0,0,0,3.07-.82L112,31.61A9.14,9.14,0,0,1,107.27,33C103.55,33,100.67,30.71,100.67,26.75Z"/><path class="cls-4" d="M114.63,26.76c0-3.89,2.51-6.25,5.09-6.25a4,4,0,0,1,3,1.28h.08L122.64,20v-4h3.54V32.71H123.3L123,31.48H123A4.93,4.93,0,0,1,119.66,33C116.62,33,114.63,30.65,114.63,26.76Zm8,2.24V24.2a2.78,2.78,0,0,0-2-.79c-1.29,0-2.4,1.05-2.4,3.31s.86,3.38,2.31,3.38A2.43,2.43,0,0,0,122.64,29Z"/><path class="cls-4" d="M134.34,23.57h-4.79V20.8h8.33V32.71h-3.54Zm-.74-6.79a2.35,2.35,0,0,1,4.69,0,2.35,2.35,0,0,1-4.69,0Z"/><path class="cls-4" d="M143.43,26.76c0-4,3.22-6.25,6.89-6.25a6.43,6.43,0,0,1,4.45,1.62l-1.62,2.19a4.35,4.35,0,0,0-2.64-.95,3.24,3.24,0,0,0-3.46,3.39,3.19,3.19,0,0,0,3.34,3.39A5.53,5.53,0,0,0,153.53,29L155,31.24A7.7,7.7,0,0,1,150.06,33C146.31,33,143.43,30.71,143.43,26.76Z"/><path class="cls-4" d="M157.45,29.41c0-2.67,2.21-4,7.84-4.37-.13-1.07-.93-1.72-2.53-1.72a8.3,8.3,0,0,0-3.63,1.12l-1.26-2.32a11.33,11.33,0,0,1,5.57-1.61c3.35,0,5.38,1.74,5.38,5.39v6.81h-2.89l-.25-1.34h-.09A7.3,7.3,0,0,1,161.37,33,3.61,3.61,0,0,1,157.45,29.41Zm7.84-.29V27.17c-3.51.18-4.45.94-4.45,1.95,0,.77.65,1.14,1.65,1.14A4.54,4.54,0,0,0,165.29,29.12Z"/><path class="cls-4" d="M175.08,28.05V18.67h-3.75V15.9h7.28V28.2a1.77,1.77,0,0,0,1.94,1.95,5.25,5.25,0,0,0,1.86-.39l.78,2.59a9.8,9.8,0,0,1-3.55.65C176.64,33,175.08,31.07,175.08,28.05Z"/><path class="cls-4" d="M201,17.07h10.4v3h-6.86v3.62h5.86v3h-5.86v6.08H201Z"/><path class="cls-4" d="M219.3,23.57h-4.79V20.8h8.32V32.71H219.3Zm-.74-6.79a2.35,2.35,0,0,1,4.69,0,2.35,2.35,0,0,1-4.69,0Z"/><path class="cls-4" d="M228.1,26.75a6.08,6.08,0,0,1,6.2-6.24c3.67,0,5.6,2.48,5.6,5.72a11.55,11.55,0,0,1-.14,1.58h-9V25.44h6.65l-.56.68c0-1.92-.83-2.92-2.39-2.92-1.75,0-2.89,1.18-2.89,3.55s1.34,3.55,3.66,3.55a6.53,6.53,0,0,0,3.06-.82l1.17,2.13A9.11,9.11,0,0,1,234.7,33C231,33,228.1,30.71,228.1,26.75Z"/><path class="cls-4" d="M245.88,28.05V18.67h-3.75V15.9h7.28V28.2a1.77,1.77,0,0,0,1.94,1.95,5.3,5.3,0,0,0,1.86-.39l.78,2.59a9.8,9.8,0,0,1-3.55.65C247.44,33,245.88,31.07,245.88,28.05Z"/><path class="cls-4" d="M256.23,26.76c0-3.89,2.5-6.25,5.09-6.25a3.92,3.92,0,0,1,3,1.28h.09L264.24,20v-4h3.53V32.71h-2.88l-.25-1.23h-.09a4.93,4.93,0,0,1-3.3,1.52C258.21,33,256.23,30.65,256.23,26.76Zm8,2.24V24.2a2.78,2.78,0,0,0-2-.79c-1.29,0-2.4,1.05-2.4,3.31s.86,3.38,2.3,3.38A2.45,2.45,0,0,0,264.24,29Z"/><path class="cls-4" d="M451.7,17.07h10.4v3h-6.86v3.62h5.86v3h-5.86v6.08H451.7Z"/><path class="cls-4" d="M464.47,26.76a6.08,6.08,0,1,1,12.15,0,6.08,6.08,0,1,1-12.15,0Zm8.53,0c0-2.06-.83-3.39-2.45-3.39s-2.46,1.33-2.46,3.39.83,3.39,2.46,3.39S473,28.82,473,26.76Z"/><path class="cls-4" d="M478.63,26.76a6.08,6.08,0,1,1,12.15,0,6.08,6.08,0,1,1-12.15,0Zm8.53,0c0-2.06-.83-3.39-2.45-3.39s-2.46,1.33-2.46,3.39.83,3.39,2.46,3.39S487.16,28.82,487.16,26.76Z"/><path class="cls-4" d="M492.79,26.76c0-3.89,2.51-6.25,5.09-6.25a4,4,0,0,1,3,1.28H501L500.8,20v-4h3.54V32.71h-2.88l-.26-1.23h-.09A4.93,4.93,0,0,1,497.82,33C494.78,33,492.79,30.65,492.79,26.76Zm8,2.24V24.2a2.78,2.78,0,0,0-2-.79c-1.29,0-2.4,1.05-2.4,3.31s.86,3.38,2.31,3.38A2.43,2.43,0,0,0,500.8,29Z"/><path class="cls-4" d="M521.76,29.74h3.66V20h-3.66v-3h10.85v3H529v9.7h3.65v3H521.76Z"/><path class="cls-4" d="M535.88,20.8h2.87l.26,1.59h.09a5.82,5.82,0,0,1,4.12-1.88c2.69,0,3.88,1.84,3.88,4.85v7.35h-3.54v-6.9c0-1.58-.45-2.29-1.74-2.29a3.31,3.31,0,0,0-2.41,1.24v8h-3.53Z"/><path class="cls-4" d="M549.43,26.76c0-3.89,2.5-6.25,5.09-6.25a3.92,3.92,0,0,1,3,1.28h.09L557.44,20v-4H561V32.71H558.1l-.26-1.23h-.09A4.93,4.93,0,0,1,554.46,33C551.41,33,549.43,30.65,549.43,26.76Zm8,2.24V24.2a2.78,2.78,0,0,0-2-.79c-1.29,0-2.4,1.05-2.4,3.31s.86,3.38,2.3,3.38A2.44,2.44,0,0,0,557.44,29Z"/><path class="cls-4" d="M564,28.15V20.8h3.53v6.9c0,1.58.42,2.29,1.74,2.29a2.73,2.73,0,0,0,2.31-1.36V20.8h3.53V32.71h-2.89L571.92,31h-.1a5.12,5.12,0,0,1-4,2C565.1,33,564,31.16,564,28.15Z"/><path class="cls-4" d="M577.9,31.17l1.5-2.2a9,9,0,0,0,4.8,1.41c1.31,0,1.89-.43,1.89-1s-.58-.91-2.91-1.4c-3.24-.69-4.53-1.88-4.53-3.72,0-2.22,2.07-3.73,5.47-3.73a9.71,9.71,0,0,1,5.16,1.63l-1.59,2.12a7.62,7.62,0,0,0-3.89-1.14c-1.1,0-1.65.4-1.65,1s.73.81,2.75,1.26c3.67.83,4.7,1.87,4.7,3.81,0,2.16-2.06,3.85-5.88,3.85A11.06,11.06,0,0,1,577.9,31.17Z"/><path class="cls-4" d="M595,27.77v-4.2h-3V20.94l3.16-.14.46-3.64h2.92V20.8h5v2.77h-5v4.16c0,1.81.76,2.49,2.5,2.49a7.08,7.08,0,0,0,2.35-.42l.64,2.55a12.78,12.78,0,0,1-3.89.65C596.31,33,595,30.9,595,27.77Z"/><path class="cls-4" d="M607.71,20.8h2.91l.28,2.61H611a5.54,5.54,0,0,1,4.83-2.9,5,5,0,0,1,2.28.48l-.71,3a6.18,6.18,0,0,0-2.11-.35c-1.48,0-3,.77-4,2.91v6.19h-3.54Z"/><path class="cls-4" d="M620.71,37.12l.63-2.69a3.1,3.1,0,0,0,.92.15,2.44,2.44,0,0,0,2.5-1.55l.23-.63-5.14-11.6h3.5l2,5.12c.42,1.12.81,2.32,1.18,3.57h.1c.32-1.19.72-2.41,1.09-3.57l1.74-5.12h3.34l-4.69,12c-1.16,3-2.58,4.52-5.59,4.52A6.45,6.45,0,0,1,620.71,37.12Z"/><text class="cls-5" transform="translate(13.39 74.1)">Common modern medicines such as <tspan x="0" y="19.2">aspirin and paracetamol</tspan></text><text class="cls-5" transform="translate(377.39 74.1)">Synthetic and natural food additives <tspan x="0" y="19.2">such as preservatives such as benzoic </tspan><tspan x="0" y="38.4">acid, food colouring and flavouring </tspan><tspan x="0" y="57.6">agents</tspan></text><text class="cls-5" transform="translate(13.39 129.1)">Food supplements such as vitamins</text><path class="cls-6" d="M214.55,147c4.17-.25,8.93,1.28,12.57,2.8,10.7,4.48,21,9.82,30.73,15,3.21,1.71,6.5,3.63,10,5.29,6.93,3.31,13.49,5.95,20.43,10.07,3.73,2.22,7.77,4.89,9.25,8.42,2.79,6.63-.65,14.88-3.14,19.65-3,5.67-6.08,11-8.91,16.18-6,11-11.69,20.95-18,32.2s-11.89,22-17.46,32.69c-4.15,8-9,16.26-13.45,24.28-2.52,4.49-4.58,8.91-9.6,10.73a12.92,12.92,0,0,1-4.89.49c-4.08-.39-8-2.66-11.7-4.29S203,317,199.71,315.28c-13.36-7-29.19-13.78-42.44-21.3-6.38-3.62-14-8-17.28-14.19-3.73-7.16,1.17-17.18,4.19-23s5.91-10.59,8.9-15.36c3.23-5.13,6.36-10.41,9.26-15.18,5.9-9.74,12.47-20.56,17.46-31.21,2.46-5.26,5.48-11.14,8.21-16,4.15-7.4,8.82-15.57,13.79-22.79a31.65,31.65,0,0,1,5.59-6.6A12.46,12.46,0,0,1,214.55,147Z"/><path class="cls-7" d="M252.91,173.76c.15,0,.38,0,.39.17,2.6-.48,3.83-3.14,5-5a32.52,32.52,0,0,0,1.66-2.93c-.69-.38-1.38-.76-2.07-1.12l-1.12-.6c-.68,1-1.32,2-1.91,3.09C253.77,169.24,252,171.48,252.91,173.76Z"/><path class="cls-7" d="M246.61,184a58.67,58.67,0,0,0-4.78,7.45c-.85,1.82-1,3.73.77,3.82,1.32.07,2.49-2.14,3.05-2.95.93-1.35,1.89-2.5,2.49-3.46,1.68-2.73,3.43-4.86,3.24-8.15C249,179,247.66,182.45,246.61,184Z"/><path class="cls-7" d="M235.52,204.08a41,41,0,0,0-6.68,10.4c-.48,1.09-1.16,2.64.18,3.47,1.66.09,2.55-1.43,3.26-2.43.83-1.2,1.45-2.49,2.1-3.64,1.35-2.39,3.31-5,3.25-7.8C237.22,203.74,235.87,203.5,235.52,204.08Z"/><path class="cls-7" d="M221.19,227.48c-1.18,1.19-2.1,3.25-3.44,5.54-.61,1-3.75,4.83-1.91,5.89,1.07.62,2.74-1.09,3.25-1.73a32.25,32.25,0,0,0,2.1-3.29c1.53-2.34,3.16-4.38,3.06-7.11C223.16,226,221.89,226.77,221.19,227.48Z"/><path class="cls-7" d="M210.3,249.31c0,.23-.34.16-.38.35-2.09,1.53-3.34,3.42-4.78,6.06-.7,1.29-4,6.19-2.1,7.1,1.4.68,2.57-1.19,3.25-2.08a47.17,47.17,0,0,0,4.2-6.92c.63-1.21,1.74-2.48,1.34-4A2.54,2.54,0,0,0,210.3,249.31Z"/><path class="cls-7" d="M196.54,272.88a48.83,48.83,0,0,0-4.2,6.06c-.62,1-4.11,6-1.53,6.41,1.25.2,2.29-1.48,2.86-2.25.81-1.08,1.55-2.3,2.11-3.12,1.53-2.29,3.09-4.34,2.86-7.1C198.23,272.52,196.88,272.29,196.54,272.88Z"/><path class="cls-7" d="M185.27,295.75c-.41-.35-1.76-.59-2.11,0a17.1,17.1,0,0,0-3.63,5.19,21.92,21.92,0,0,0-1.65,3.61l2.68,1.29a20,20,0,0,0,2.41-3.68C184.24,300,185.48,298.13,185.27,295.75Z"/><path class="cls-8" d="M217.33,280.26c-.33,1.22-1.91,1.07-2.77,1.31-6.25,1.69-12.1,5.51-12.26,13.27-.16,8.24,7,14.32,15.82,13.47a13.63,13.63,0,0,0,8.7-4.3c.72-.76,1.32-2.42,3.16-1.68,1.52,2.76-1.78,4.88-3.75,6.16-11.52,7.52-28.33-.58-26.89-15.14.65-6.62,6.43-13.08,13.64-13.84C214.68,279.33,216.34,279.39,217.33,280.26Z"/><path class="cls-9" d="M215.55,285.68a13.68,13.68,0,0,1,6.53.94c3.31,1.74,6.2,6.3,4.94,10.84-1.16,4.17-8.54,9.55-15,6.55a9.81,9.81,0,0,1,1-17.95A11,11,0,0,1,215.55,285.68Z"/><path class="cls-8" d="M215.75,287c2,2.72,3.24,7.07,3.95,11.22.21,1.23,1,2.86-.19,3.93-1.68.35-2.09-1.4-2.58-2.62s-.84-2.55-1.18-3.74c-.73-2.57-1.84-6.35-1.39-8.23a.52.52,0,0,1,.4-.56Z"/><path class="cls-8" d="M238.22,247.84c-.32,1.22-1.91,1.07-2.76,1.31-6.25,1.69-12.11,5.51-12.26,13.27-.17,8.24,7,14.31,15.82,13.46a13.64,13.64,0,0,0,8.7-4.3c.72-.76,1.31-2.41,3.16-1.68,1.52,2.76-1.79,4.88-3.76,6.17-11.51,7.52-28.32-.58-26.89-15.14.65-6.63,6.44-13.08,13.64-13.84C235.57,246.91,237.24,247,238.22,247.84Z"/><path class="cls-9" d="M236.45,253.26a13.64,13.64,0,0,1,6.52.94c3.31,1.73,6.2,6.3,4.94,10.84-1.15,4.16-8.54,9.54-15,6.54a10.49,10.49,0,0,1-4.94-5.79,10.35,10.35,0,0,1,5.93-12.16A11.19,11.19,0,0,1,236.45,253.26Z"/><path class="cls-8" d="M236.64,254.57c2,2.72,3.25,7.07,4,11.22.21,1.22,1,2.86-.2,3.92-1.68.35-2.09-1.4-2.57-2.62s-.85-2.54-1.19-3.74c-.72-2.56-1.84-6.35-1.38-8.22a.51.51,0,0,1,.4-.56Z"/><path class="cls-8" d="M256,215.75c-.33,1.22-1.91,1.07-2.77,1.31-6.25,1.69-12.1,5.51-12.26,13.27-.16,8.24,7,14.31,15.82,13.47a13.59,13.59,0,0,0,8.7-4.31c.72-.76,1.31-2.41,3.16-1.68,1.52,2.76-1.79,4.89-3.75,6.17-11.52,7.52-28.33-.58-26.9-15.14.66-6.63,6.44-13.08,13.65-13.84C253.32,214.82,255,214.89,256,215.75Z"/><path class="cls-9" d="M254.19,221.17a13.62,13.62,0,0,1,6.52.94c3.32,1.74,6.21,6.3,5,10.84-1.16,4.17-8.54,9.55-15,6.54a9.52,9.52,0,0,1,3.56-18.32Z"/><path class="cls-8" d="M254.39,222.48c2,2.72,3.24,7.07,3.95,11.22.21,1.23,1,2.86-.2,3.92-1.67.35-2.09-1.39-2.57-2.61s-.84-2.55-1.18-3.74c-.73-2.57-1.84-6.35-1.39-8.23a.52.52,0,0,1,.4-.56Z"/><path class="cls-8" d="M274.8,181.07c-.33,1.23-1.91,1.08-2.77,1.31-6.25,1.69-12.1,5.51-12.26,13.28-.17,8.24,7,14.31,15.82,13.46a13.63,13.63,0,0,0,8.7-4.3c.72-.76,1.31-2.42,3.16-1.68,1.52,2.76-1.79,4.88-3.75,6.17-11.52,7.51-28.33-.58-26.9-15.15.66-6.62,6.44-13.07,13.65-13.83C272.14,180.15,273.81,180.21,274.8,181.07Z"/><path class="cls-9" d="M273,186.5a13.62,13.62,0,0,1,6.52.93c3.31,1.74,6.21,6.3,4.95,10.85-1.16,4.16-8.55,9.54-15,6.54a10.47,10.47,0,0,1-4.95-5.79,10.35,10.35,0,0,1,5.94-12.16A11,11,0,0,1,273,186.5Z"/><path class="cls-8" d="M273.22,187.8c2,2.73,3.24,7.07,3.95,11.23.21,1.22,1,2.86-.2,3.92-1.67.35-2.09-1.4-2.57-2.62s-.85-2.54-1.18-3.73c-.73-2.57-1.85-6.35-1.39-8.23a.53.53,0,0,1,.4-.57Z"/><path class="cls-8" d="M168.05,255.57c-.33,1.22-1.91,1.08-2.77,1.31-6.25,1.69-12.1,5.51-12.26,13.28-.16,8.23,7,14.31,15.82,13.46a13.63,13.63,0,0,0,8.7-4.3c.73-.77,1.31-2.42,3.17-1.68,1.51,2.76-1.79,4.88-3.76,6.16-11.51,7.52-28.33-.58-26.89-15.14.65-6.62,6.43-13.08,13.64-13.84C165.4,254.64,167.06,254.71,168.05,255.57Z"/><path class="cls-9" d="M166.27,261a13.67,13.67,0,0,1,6.53.94c3.31,1.74,6.2,6.3,4.94,10.84-1.15,4.17-8.54,9.55-15,6.55a10.43,10.43,0,0,1-4.94-5.8,10.33,10.33,0,0,1,5.93-12.15A11.53,11.53,0,0,1,166.27,261Z"/><path class="cls-8" d="M166.47,262.3c2,2.73,3.24,7.07,4,11.22.21,1.23,1,2.86-.2,3.93-1.68.35-2.1-1.4-2.57-2.62s-.85-2.54-1.19-3.74c-.73-2.56-1.84-6.35-1.39-8.23a.52.52,0,0,1,.4-.56Z"/><path class="cls-8" d="M189,223.15c-.33,1.22-1.92,1.07-2.77,1.31-6.25,1.69-12.1,5.51-12.26,13.27-.17,8.24,7,14.32,15.82,13.47a13.71,13.71,0,0,0,8.7-4.3c.72-.77,1.31-2.43,3.16-1.69,1.52,2.76-1.79,4.89-3.76,6.17-11.51,7.52-28.32-.58-26.89-15.14.66-6.63,6.44-13.08,13.65-13.84C186.29,222.22,188,222.29,189,223.15Z"/><path class="cls-9" d="M187.17,228.57a13.62,13.62,0,0,1,6.52.94c3.31,1.74,6.21,6.3,4.94,10.84-1.15,4.17-8.54,9.55-15,6.55a9.81,9.81,0,0,1,1-18A11.57,11.57,0,0,1,187.17,228.57Z"/><path class="cls-8" d="M187.36,229.88c2,2.72,3.25,7.07,4,11.22.21,1.23,1,2.86-.2,3.92-1.68.36-2.09-1.39-2.57-2.61s-.85-2.54-1.19-3.74c-.72-2.57-1.84-6.35-1.38-8.23a.51.51,0,0,1,.4-.56Z"/><path class="cls-8" d="M206.69,191.06c-.33,1.22-1.91,1.08-2.77,1.31-6.25,1.69-12.1,5.51-12.26,13.27-.16,8.24,7.05,14.32,15.82,13.47a13.63,13.63,0,0,0,8.7-4.3c.73-.77,1.32-2.42,3.16-1.69,1.52,2.77-1.78,4.89-3.75,6.17-11.52,7.52-28.33-.58-26.89-15.14.65-6.63,6.43-13.07,13.64-13.84C204,190.13,205.7,190.2,206.69,191.06Z"/><path class="cls-9" d="M204.91,196.49a13.56,13.56,0,0,1,6.53.93c3.31,1.74,6.2,6.3,4.94,10.84-1.16,4.17-8.54,9.55-15,6.55a9.81,9.81,0,0,1,1-17.95A11,11,0,0,1,204.91,196.49Z"/><path class="cls-8" d="M205.11,197.79c2,2.72,3.24,7.07,3.95,11.22.21,1.23,1,2.86-.19,3.93-1.68.35-2.1-1.4-2.57-2.62s-.85-2.55-1.19-3.74c-.73-2.57-1.84-6.35-1.39-8.22a.53.53,0,0,1,.4-.57Z"/><path class="cls-8" d="M225.52,156.39c-.33,1.22-1.91,1.07-2.77,1.31-6.25,1.69-12.1,5.51-12.26,13.27-.17,8.24,7,14.31,15.82,13.46a13.63,13.63,0,0,0,8.7-4.3c.73-.76,1.31-2.42,3.16-1.68,1.52,2.76-1.79,4.88-3.75,6.17-11.52,7.52-28.33-.58-26.89-15.14.65-6.63,6.43-13.08,13.64-13.84C222.86,155.46,224.53,155.52,225.52,156.39Z"/><path class="cls-9" d="M223.74,161.81a13.8,13.8,0,0,1,6.53.93c3.31,1.74,6.2,6.3,4.94,10.85-1.16,4.16-8.54,9.54-15,6.54a9.81,9.81,0,0,1,1-17.95A11,11,0,0,1,223.74,161.81Z"/><path class="cls-8" d="M223.94,163.12c2,2.72,3.24,7.07,3.95,11.21.21,1.23,1,2.87-.19,3.93-1.68.35-2.1-1.4-2.57-2.62s-.85-2.54-1.19-3.73c-.73-2.57-1.85-6.35-1.39-8.23a.52.52,0,0,1,.4-.56Z"/><path class="cls-10" d="M40.51,258.71l5.56,6.65c2.74,3.28,10.65,1.69,17.66-3.56s10.48-12.15,7.73-15.43l-5.56-6.66Z"/><path class="cls-11" d="M40.51,258.71l5.56,6.65c2.74,3.28,10.65,1.69,17.66-3.56s10.48-12.15,7.73-15.43l-5.56-6.66Z"/><path class="cls-10" d="M65.9,239.71c2.74,3.28-.72,10.19-7.74,15.44S43.25,262,40.51,258.71s.71-10.19,7.73-15.43S63.15,236.44,65.9,239.71Z"/><path class="cls-7" d="M64,238.42a7.83,7.83,0,0,0-2.21-.4c-1.43,1.24-3.1,2.94-4.72,4.59-2.74,2.77-5.9,6-8.42,8.8s-5.74,6-7,8.21a5.61,5.61,0,0,0,1.71.63c4.9-3.78,11.82-11.55,17.26-17.86C61.61,241.2,63.07,239.73,64,238.42Z"/><path class="cls-10" d="M133.64,217.83l.56,8.47c.28,4.17,7.73,7.12,16.66,6.6s15.93-4.34,15.66-8.51l-.56-8.47Z"/><path class="cls-11" d="M133.64,217.83l.56,8.47c.29,4.17,7.73,7.13,16.66,6.6s15.93-4.34,15.66-8.51l-.56-8.47Z"/><path class="cls-10" d="M166,215.92c.27,4.17-6.74,8-15.66,8.51s-16.38-2.43-16.66-6.6,6.74-8,15.66-8.51S165.68,211.75,166,215.92Z"/><path class="cls-7" d="M165.16,213.83a6.61,6.61,0,0,0-1.58-1.53c-1.91.25-4.31.75-6.63,1.23-3.93.8-8.49,1.77-12.23,2.68-3.56.87-8.35,1.86-10.72,3a5.22,5.22,0,0,0,1,1.43c6.29-.46,16.67-3.11,24.95-5.36C161.54,214.83,163.63,214.41,165.16,213.83Z"/><path class="cls-12" d="M85.74,239.89a45.4,45.4,0,0,1-4.2-3c-4-3.5-6.94-9.77-.87-12.95,2.21-1.15,5.8-1,8.43-.16,3.65,1.17,9,4.24,13.51,7.29s10.32,7.23,11.76,10.42a7.22,7.22,0,0,1-4.09,9.81c-4.19,1.68-8.82-1.36-13.92-4.43C92.61,244.64,89.34,242.37,85.74,239.89Z"/><path class="cls-13" d="M81.54,236.92a45.4,45.4,0,0,0,4.2,3c1.89,1.3,3.7,2.55,5.52,3.77-.33-5.12,1-11.79,9.76-13.61a57.53,57.53,0,0,0-11.92-6.24c-2.63-.85-6.22-1-8.43.16C74.6,227.15,77.57,233.42,81.54,236.92Z"/><path class="cls-9" d="M96.58,242.91c-.71-1.38-3-2.78-5.38-4-1-.53-2.65-1.36-3.25-.57-.73,1,1,2.19,1.6,2.63a19.13,19.13,0,0,0,6.2,3A1.42,1.42,0,0,0,96.58,242.91Z"/><path class="cls-9" d="M92.61,236.82c1.9-1.71-2.69-4.95-3.78-3.18-.48.77,1.12,3.12,2.46,3.53A1.45,1.45,0,0,0,92.61,236.82Z"/><path class="cls-14" d="M129.41,172.31A47.63,47.63,0,0,0,125.89,185c-.56,4.72,1.21,8.41,4.54,9.41,3.68,1.1,7.08-1.93,9.08-4.3,2.69-3.18,4.68-7.74,6.34-12.3C141.46,170.83,134,171.24,129.41,172.31Z"/><path class="cls-15" d="M143.18,153.29a9.85,9.85,0,0,0-2.27.5c-4.52,2-7.4,9.07-9.43,13.71-.71,1.61-1.41,3.21-2.07,4.81,4.56-1.07,12.05-1.48,16.44,5.5.67-1.82,1.28-3.64,1.87-5.36,1.11-3.28,2.52-6.7,2.79-10.08C151,156.41,148.21,152.67,143.18,153.29Z"/><path class="cls-9" d="M139.44,160.44c0,1.71-1.48,4.19-3.14,6.55-.71,1-1.88,2.62-2.9,2.12-1.23-.6-.21-2.63.16-3.36a19.44,19.44,0,0,1,4.51-5.92A1.63,1.63,0,0,1,139.44,160.44Z"/><path class="cls-9" d="M138.81,168.36c2.79.77,0,6.17-2,4.95-.88-.52-.58-3.61.53-4.66A1.58,1.58,0,0,1,138.81,168.36Z"/><path class="cls-9" d="M129.36,181.12c1,.17,1.34,1.55,1.1,2.95-.18,1.12-1.09,3.18-2.31,2.58a2.49,2.49,0,0,1-.79-2.5C127.54,182.79,128.05,180.9,129.36,181.12Z"/><path class="cls-10" d="M284.81,219.74l-8.08,3.7c-4,1.83-4,9.47-.13,17.08s10.29,12.29,14.27,10.47l8.07-3.71Z"/><path class="cls-11" d="M284.81,219.74l-8.08,3.7c-4,1.83-4,9.47-.13,17.08s10.29,12.29,14.27,10.47l8.07-3.71Z"/><path class="cls-10" d="M298.94,247.28c-4,1.83-10.36-2.86-14.26-10.46s-3.85-15.26.13-17.08,10.36,2.86,14.27,10.47S302.92,245.46,298.94,247.28Z"/><path class="cls-7" d="M300.68,245.8a6.48,6.48,0,0,0,.9-2c-1-1.58-2.37-3.48-3.72-5.34-2.27-3.13-4.95-6.75-7.26-9.68-2.21-2.78-5-6.6-7-8.25a5,5,0,0,0-1,1.45c2.84,5.33,9.38,13.4,14.72,19.79C298.33,243,299.54,244.68,300.68,245.8Z"/><path class="cls-10" d="M245,326.7l5.06,7c2.49,3.45,10.49,2.39,17.88-2.38s11.35-11.42,8.87-14.87l-5.06-7Z"/><path class="cls-11" d="M245,326.7l5.06,7c2.5,3.45,10.48,2.4,17.88-2.38s11.35-11.42,8.87-14.87l-5.06-7Z"/><path class="cls-10" d="M271.77,309.46c2.49,3.45-1.48,10.11-8.87,14.87s-15.39,5.83-17.88,2.37,1.48-10.11,8.86-14.87S269.28,306,271.77,309.46Z"/><path class="cls-7" d="M270,308a7.48,7.48,0,0,0-2.19-.55c-1.51,1.14-3.3,2.73-5,4.26-3,2.59-6.34,5.62-9.06,8.22s-6.18,5.63-7.62,7.72a5.59,5.59,0,0,0,1.66.74c5.17-3.44,12.65-10.73,18.56-16.66C267.38,310.65,269,309.28,270,308Z"/><path class="cls-12" d="M248.27,287.6a46.28,46.28,0,0,0-4.21,2.94c-4,3.48-7,9.74-1,12.95,2.2,1.16,5.8,1,8.43.21,3.66-1.16,9.07-4.19,13.56-7.22s10.36-7.17,11.82-10.35a7.23,7.23,0,0,0-4-9.84c-4.19-1.7-8.83,1.31-13.95,4.36C255.17,282.88,251.89,285.14,248.27,287.6Z"/><path class="cls-13" d="M244.06,290.54a46.28,46.28,0,0,1,4.21-2.94c1.91-1.3,3.72-2.53,5.55-3.74-.37,5.11.94,11.79,9.67,13.67a58,58,0,0,1-12,6.17c-2.63.83-6.23.95-8.43-.21C237.06,300.28,240.07,294,244.06,290.54Z"/><path class="cls-9" d="M259.13,284.64c-.72,1.38-3,2.75-5.4,4-1,.52-2.66,1.35-3.26.54-.72-1,1-2.17,1.62-2.61a18.92,18.92,0,0,1,6.22-2.94A1.37,1.37,0,0,1,259.13,284.64Z"/><path class="cls-9" d="M255.12,290.71c1.89,1.71-2.72,4.93-3.8,3.15-.47-.77,1.14-3.11,2.49-3.51A1.41,1.41,0,0,1,255.12,290.71Z"/><path class="cls-14" d="M224.81,324.29a51.81,51.81,0,0,1,10.62,8.43c3.34,3.55,4.15,7.53,2,10.16-2.33,2.91-6.95,2.3-10,1.46-4.14-1.13-8.55-3.78-12.69-6.58C214.07,329.66,220.44,325.9,224.81,324.29Z"/><path class="cls-15" d="M202,316.28a9.7,9.7,0,0,1,2.15-.83c4.93-.81,11.58,3.36,16.07,6,1.57.94,3.11,1.86,4.63,2.81-4.37,1.61-10.74,5.37-10.06,13.47-1.66-1.13-3.27-2.27-4.8-3.36-2.91-2.07-6.15-4.09-8.43-6.7C197.48,323.09,197.46,318.52,202,316.28Z"/><path class="cls-9" d="M209.37,320.08c1,1.41,3.77,2.61,6.56,3.62,1.2.44,3.14,1.11,3.67.15.64-1.16-1.44-2.26-2.18-2.65a21.35,21.35,0,0,0-7.3-2.37A1.51,1.51,0,0,0,209.37,320.08Z"/><path class="cls-9" d="M214.72,326.19c-1.81,2.15,3.76,5.05,4.68,2.95.4-.92-1.74-3.27-3.28-3.53A1.6,1.6,0,0,0,214.72,326.19Z"/><path class="cls-9" d="M230.23,331.45c-.72.7-.14,2,.9,3,.84.81,2.84,2,3.47.84.29-.51,0-1.61-.88-2.47S231.16,330.56,230.23,331.45Z"/><path class="cls-6" d="M96.71,166.51c5.23,2.11,7.12,6.05,4.68,11-2.67,5.42-8.33,8.76-12.16,11.05a86.62,86.62,0,0,1-34.61,12c-2.67.34-5.24.83-7.45.25A10.22,10.22,0,0,1,41.8,197c-2.35-3.34-1.35-8.33,2.62-13.3a28.2,28.2,0,0,1,5.5-4.6,80.76,80.76,0,0,1,17.42-9.08c7.77-2.9,16.82-5.73,25.38-4.63A16,16,0,0,1,96.71,166.51Z"/><path class="cls-16" d="M107.81,193.7c1.29-2.63,1.36-5,.37-6.92h0l-6-15a8.12,8.12,0,0,1-.83,5.75c-2.67,5.42-8.33,8.76-12.16,11.05a86.62,86.62,0,0,1-34.61,12c-2.67.34-5.24.83-7.45.25A10.22,10.22,0,0,1,41.8,197a6.77,6.77,0,0,1-.72-1.32l6.16,15.37a6.66,6.66,0,0,0,1,2.11A10.23,10.23,0,0,0,53.58,217c2.22.58,4.78.09,7.46-.26a86.51,86.51,0,0,0,34.61-11.95C99.48,202.45,105.15,199.12,107.81,193.7Z"/><path class="cls-17" d="M107.81,193.7l.31-.7c-2.12-4.64-4-10.18-7.25-14.49a18.83,18.83,0,0,1-2.25,3l.26.56a95.78,95.78,0,0,0,6,11.41c.46.73.94,1.63,1.51,2.45A16.15,16.15,0,0,0,107.81,193.7Z"/><path class="cls-17" d="M93.72,185.75c-.7.49-1.4.94-2.07,1.37a12.64,12.64,0,0,1,1.23,1.42c1.66,2.51,2.82,5.6,4.46,8.33a49.41,49.41,0,0,0,2.91,4.06c.14.18.28.39.42.6.77-.55,1.53-1.14,2.26-1.78l-.21-.37C100.5,195.41,97.25,189.23,93.72,185.75Z"/><path class="cls-17" d="M92.71,198.81c-1.6-3.42-3.19-7.09-5.28-9.17-.7.4-1.4.79-2.11,1.17.06,1.35,1.16,2.6,1.73,3.84,1.56,3.37,2.62,6.63,4.46,9.82.33.59.71,1.32,1.16,2,.93-.52,1.87-1.05,2.79-1.61-.18-.43-.39-.86-.56-1.27C94.25,202,93.43,200.36,92.71,198.81Z"/><path class="cls-17" d="M85.75,206.36c-1.44-2.94-2.69-6-4.16-8.69a13.66,13.66,0,0,0-2.49-3.81c-.79.34-1.57.68-2.36,1a9,9,0,0,0,1,3.38,52.69,52.69,0,0,0,5.09,9.21,14.8,14.8,0,0,0,2,2.9c.8-.34,1.59-.69,2.38-1.06A14.06,14.06,0,0,0,85.75,206.36Z"/><path class="cls-17" d="M74.66,205.48c-1.32-2.81-2.59-6-4.25-8.35-1,.3-2,.59-3,.86a23.66,23.66,0,0,0,.92,2.83,87.36,87.36,0,0,0,4.45,10.55A26.75,26.75,0,0,0,74.29,214c1.17-.32,2.32-.68,3.47-1.05-.31-.79-.75-1.59-1.06-2.35C76,209,75.45,207.14,74.66,205.48Z"/><path class="cls-17" d="M63.77,203.6c-.68-1.39-1.41-3.26-2.46-4.15-.69.14-1.39.27-2.08.39a11.79,11.79,0,0,0,1.13,4.39A76.14,76.14,0,0,0,65,214c.31.57.63,1.29,1,2,1-.18,1.94-.37,2.9-.58-.29-.76-.75-1.54-1-2.3C66.58,209.82,65.33,206.81,63.77,203.6Z"/><path class="cls-17" d="M56.65,214c-1.3-3.23-2.56-6.41-3.82-9.57A23.12,23.12,0,0,0,51.29,201a15.2,15.2,0,0,1-2.6.07A20.48,20.48,0,0,0,50,204.17c1.29,3.42,2.27,6.63,3.77,10a17.57,17.57,0,0,0,1.5,3.09,16.72,16.72,0,0,0,2.53-.1A12.16,12.16,0,0,0,56.65,214Z"/><path class="cls-9" d="M46.81,194.9c.35,2-5,.46-3.56-1C44,193.13,46.06,194.19,46.81,194.9Z"/><path class="cls-9" d="M49.23,197.64c-.36-.27-.93-1-.3-1.64.83-.83,3.19-.31,4.16-.27,1.19,0,3.45-.37,4.06.76.87,1.6-2.58,1.71-3.77,1.7-.63,0-1.25-.07-1.78-.1C50.68,198,49.91,198.17,49.23,197.64Z"/><path class="cls-9" d="M84.56,168.38c1.3-.9,7.76-.11,7.35,2-.35,1.69-6,.87-7.26-.5C84.33,169.47,84.26,169.16,84.56,168.38Z"/><path class="cls-9" d="M90.88,174.37c-.26-2,3-1.5,3.09-.29C94.15,175.71,91.11,176.16,90.88,174.37Z"/><path class="cls-9" d="M94.75,170.41c.15-1.93,5-1.11,4.66.63-.16.73-.73.82-1.73.89C96.19,172,94.64,171.75,94.75,170.41Z"/><path class="cls-18" d="M132,257.82c2,3,3.32,5.87,6.46,7.27,4.38,2,11.83.64,15.89,2.81,3,1.59,5.24,5.69,7.33,9.08,2.2,3.56,4.27,7,6.11,10.23,4.05,7.11,8.23,14,12.23,20.48,2.24,3.63,3.83,7.24,5.58,10.73,3.61,7.21,6.76,14.35,10.13,22.46,1.64,3.95,4.25,10.54,2.45,15.19-1.88,4.83-8.75,8-14,10.41-14.64,6.84-27.3,12.76-42.43,19-4,1.64-9,3.64-13.8,1.82-1.81-.69-4.43-3-5.94-4.79-2.2-2.64-3.9-6-5.76-9.24-7.24-12.51-13.86-25.44-21.3-38.64-3.62-6.42-6.67-12.87-10-20-1.85-4-3.53-8.23-2.62-12.71.64-3.14,2.76-5.86,4.55-8.25s4.16-5.16,4.36-8.43-1.23-5.38-2.1-7.92c10.24-5.07,21-9.73,31.61-14.7A101.8,101.8,0,0,1,132,257.82Z"/><path class="cls-17" d="M146.62,360.36c4-1.81,8.31-3.84,11.18-6.6a13.72,13.72,0,0,0,2.62-3.63c1.34-3.39,0-7.5-1.23-10.74-.9-2.48-2.05-4.88-3-6.93-4.37-9.78-8.14-17.29-12.57-26.75-2.37-5.06-5.68-11.48-12.75-11.39-5,.06-9.69,2.61-13.8,4.12-4.33,1.61-8.54,3.2-12.92,5.12-5.77,2.54-12.64,5.48-18,8.92-.52.33-1.11.7-1.7,1.1.15.35.31.7.47,1,3.29,7.12,6.34,13.57,10,20,7.44,13.2,14.06,26.13,21.3,38.64.14.23.28.48.41.72,5.93-2.68,12.3-6,17.58-8.32C138.51,363.74,142.45,362.24,146.62,360.36Z"/><path class="cls-9" d="M116.48,317.48c2.2-.56,5.93-2.71,9.25-2.9,2.36-.13,5.33,6.56,4.82,9.65-.27,1.68-5.59,3.22-8.19,5,1,2.34,3.69,6.38,2.31,7.55a20.16,20.16,0,0,1-7.35,3.57c-1.69.29-3.73-4.63-5.46-6.95-2.5,1.26-5.87,3.54-8.39,2.39-1.37-.63-3.82-4.9-4.21-6.75-.73-3.49,4.06-5.17,6.72-6.75-.64-2.11-2.17-3.34-1.89-5.76.26-2.24,4.13-4.72,6.93-5C114.8,311.19,115.23,315,116.48,317.48Z"/><path class="cls-12" d="M140.28,338.08c-5.82,2.45-14.3,6.4-20.37,9.29a28.88,28.88,0,0,0-5.15,2.81c.89,1.51,1.75,3,2.62,4.54,2.35-.11,5.57-2.52,7.31-3.4,5.37-2.73,10.41-4.92,15.22-7.34.87-.44,1.86-.88,2.77-1.4Z"/><path class="cls-12" d="M147.18,350.28c-.64-1-1.25-2-1.84-3-2.35.58-4.55,2.35-6.32,3.21-4.15,2-10.23,4.86-14.33,6.77-1.14.53-3.07,1.24-4.55,2a1.27,1.27,0,0,1,.13.19l2.31,3.54c.46-.23,1-.47,1.51-.69,7-2.73,12.32-5.76,18.81-9a36.42,36.42,0,0,0,4.64-2.46Z"/><path class="cls-9" d="M167.67,302.07c-2.3-1.57-4.15-5.76-5.69-10-.67-1.8-1.69-4.73,0-5.48,2-.89,3.68,2.26,4.29,3.4,1.94,3.57,3.51,8.27,3.57,11A2.6,2.6,0,0,1,167.67,302.07Z"/><path class="cls-9" d="M152.52,287.44c-3.67,2.58-8.2-5.86-4.65-7.12,1.55-.55,5.35,2.76,5.69,5.08A2.22,2.22,0,0,1,152.52,287.44Z"/><path class="cls-9" d="M151.57,276c-1.2,1-3.34.11-5-1.49-1.31-1.3-3.19-4.33-1.23-5.21.87-.4,2.7.13,4.08,1.44C151.09,272.27,153.1,274.67,151.57,276Z"/><path class="cls-9" d="M133.19,379.32c-3,1.66,4.52,6.44,5,3.2C138.4,380.83,134.89,379.49,133.19,379.32Z"/><path class="cls-9" d="M127.07,379.28c.73.13,2.3.05,2.49-1.35.25-1.83-2.86-4.09-3.91-5.21-1.28-1.36-3-4.46-5.16-4-3,.61.37,4.81,1.6,6.21.65.75,1.37,1.42,2,2C125.05,378,125.67,379,127.07,379.28Z"/><path class="cls-19" d="M132.44,248.41c-.93-1.59-1.52-2.94-2.66-4.6s-2.89-3.64-4.62-4.35c-2.23-.92-4.93-.13-7.48.85C112.76,242.19,96,250.67,96,250.67c-4.44,2-8.58,3.78-12.77,6.08-2.38,1.31-4.51,2.79-5.29,5.07-1.42,4.12,2,9.72,2.73,11.39,1.58,3.41,3.6,8,9.29,7.39,2.25-.24,4.68-1.42,6.84-2.42,3.77-1.75,26.75-12.87,30.49-14.6,2.16-1,4.63-2.1,6.21-3.64C137.47,256.05,134.33,251.68,132.44,248.41Z"/><path class="cls-13" d="M80.86,265c5.85-2.84,11.47-5.28,17.28-8,1.53-.72,3.48-1.78,5.32-2.84.63-.37,3.15-1.33,2.53-2.38-.28-.45-1.3-.39-2-.22a12.36,12.36,0,0,0-2,.72,196.28,196.28,0,0,0-20.49,8.52c-1.21.57-2.47,1.15-3.71,1.77a9,9,0,0,0,.14,3.79C79,265.87,80,265.41,80.86,265Z"/><path class="cls-13" d="M123.07,242.25a43.51,43.51,0,0,0-8.23,4.5,4.27,4.27,0,0,0-.88.92,1.08,1.08,0,0,0,0,1.35c.81.83,2.94-.1,4.23-.65,1.63-.69,3.1-1.35,4.27-1.92,2.32-1.13,4.6-2.18,6.87-3.22a16.09,16.09,0,0,0-2.53-2.71Z"/><path class="cls-13" d="M91.2,267.25c1.39-.69,4.69-2.2,3.74-3.45-.74-1-3.11.1-4.65.72-3.28,1.32-6.66,3-9.58,4.45-.46.22-1.08.47-1.72.76.39.92.8,1.74,1.13,2.39A114.31,114.31,0,0,0,91.2,267.25Z"/><path class="cls-13" d="M129.82,252.63c-3,1.33-6.45,2.83-9.55,4.5-1.45.77-3.8,1.9-3.43,3.05.47,1.47,3.74-.1,5.17-.71a118.15,118.15,0,0,0,12.27-6.18l.57-.32a17.89,17.89,0,0,0-1-2.13A30.53,30.53,0,0,0,129.82,252.63Z"/><path class="cls-13" d="M107.28,266.6c.63-.33,3.52-1.82,3-2.83-.65-1.38-3.07-.14-3.78.11A109.65,109.65,0,0,0,95,268.81a128.53,128.53,0,0,0-11.56,5.89l-1.59.95a12.65,12.65,0,0,0,2,2.85c1.47-.77,2.93-1.58,4.39-2.37C94.7,272.68,100.7,270.1,107.28,266.6Z"/><path class="cls-13" d="M108.47,256.1c-2,.94-5.25,2-4.34,3.52,2.37.3,19.72-8,27.86-12-.41-.74-.77-1.45-1.19-2.18C124.4,248.43,109.69,255.54,108.47,256.1Z"/><path class="cls-20" d="M453.43,339V263c0-12.82-18.74-21.7-18.74-21.7H416s-18.74,8.88-18.74,21.7v76s-.87,14.45,13.82,15.66l0,.12h28.63l0-.12C454.29,353.46,453.43,339,453.43,339Z"/><path class="cls-21" d="M439.64,356H411a1.23,1.23,0,0,1-.62-.17c-15.12-1.6-14.39-16.74-14.38-16.9V263c0-13.43,18.65-22.42,19.44-22.79a1.17,1.17,0,0,1,.52-.12h18.73a1.17,1.17,0,0,1,.52.12c.79.37,19.44,9.36,19.44,22.79v76c0,.08.73,15.27-14.47,16.82A1,1,0,0,1,439.64,356Zm-28.08-2.43h27.53a1.44,1.44,0,0,1,.42-.11c13.31-1.09,12.75-13.84,12.71-14.38V263c0-11.14-15.69-19.41-17.81-20.48H416.24c-2.13,1.07-17.81,9.34-17.81,20.48v76c0,.61-.59,13.36,12.71,14.45A1.44,1.44,0,0,1,411.56,353.57Z"/><path class="cls-7" d="M421.37,317.55a4,4,0,0,0,3.95,3.94h0a3.94,3.94,0,0,0,3.95-3.94V244.8a4,4,0,0,0-3.95-4h0a4,4,0,0,0-3.95,4Z"/><path class="cls-21" d="M425.32,322.7a5.16,5.16,0,0,1-5.15-5.15V244.8a5.16,5.16,0,1,1,10.31,0v72.75A5.16,5.16,0,0,1,425.32,322.7Zm0-80.64a2.74,2.74,0,0,0-2.73,2.74v72.75a2.74,2.74,0,0,0,5.47,0V244.8A2.74,2.74,0,0,0,425.32,242.06Z"/><g class="cls-22"><path class="cls-23" d="M450.71,265.57H399.94V336s-.78,13.82,12.48,15v.11h25.84l0-.11c13.26-1.16,12.48-15,12.48-15Z"/><path class="cls-21" d="M438.25,352.3H412.41a1.21,1.21,0,0,1-.63-.17c-13.71-1.56-13.06-16.05-13-16.19V265.57a1.21,1.21,0,0,1,1.21-1.21h50.77a1.21,1.21,0,0,1,1.21,1.21V336c0,.08.67,14.62-13.13,16.14A1,1,0,0,1,438.25,352.3Zm-25.32-2.42h24.79a1.14,1.14,0,0,1,.4-.11c11.92-1,11.41-13.19,11.39-13.7V266.79H401.15V336c0,.58-.53,12.74,11.38,13.77A1.14,1.14,0,0,1,412.93,349.88Z"/></g><path class="cls-24" d="M452.57,258.3c-3.67-10.22-17.88-17-17.88-17H416s-14.21,6.74-17.88,17Z"/><path class="cls-25" d="M403.67,260.52v74.17s.56,12.39,7.77,13.87v-88Z"/><path class="cls-24" d="M453.43,339V263c0-12.82-18.74-21.7-18.74-21.7h-4.75c4.11,4.57,11.31,15.48,10.91,35.64v67.51s.35,9.29-5.45,10.3h4.24l0-.12C454.29,353.46,453.43,339,453.43,339Z"/><path class="cls-26" d="M435.5,248.92v-42a10.18,10.18,0,0,0-20.35,0v42Z"/><path class="cls-21" d="M435.5,250.14H415.15a1.22,1.22,0,0,1-1.21-1.22v-42a11.39,11.39,0,1,1,22.77,0v42A1.22,1.22,0,0,1,435.5,250.14Zm-19.14-2.43h17.93V206.88a9,9,0,0,0-17.93,0Z"/><rect class="cls-23" x="403.13" y="226.3" width="44.39" height="14.8"/><path class="cls-21" d="M447.52,242.31H403.13a1.22,1.22,0,0,1-1.22-1.21V226.3a1.22,1.22,0,0,1,1.22-1.21h44.39a1.21,1.21,0,0,1,1.21,1.21v14.8A1.21,1.21,0,0,1,447.52,242.31Zm-43.18-2.42h42V227.52h-42Z"/><rect class="cls-27" x="403.13" y="230.99" width="44.39" height="10.11"/><rect class="cls-23" x="398.2" y="234.68" width="54.25" height="16.28"/><path class="cls-21" d="M452.45,252.17H398.2A1.21,1.21,0,0,1,397,251V234.68a1.21,1.21,0,0,1,1.22-1.21h54.25a1.21,1.21,0,0,1,1.21,1.21V251A1.21,1.21,0,0,1,452.45,252.17Zm-53-2.42h51.83V235.9H399.41Z"/><rect class="cls-25" x="399.13" y="235.92" width="7.26" height="13.93"/><rect class="cls-27" x="444.14" y="235.92" width="7.26" height="13.93"/><path class="cls-20" d="M561.61,339V263c0-12.82-18.75-21.7-18.75-21.7H524.13s-18.74,8.88-18.74,21.7v76s-.86,14.45,13.82,15.66l0,.12H547.8l0-.12C562.46,353.46,561.61,339,561.61,339Z"/><path class="cls-21" d="M547.8,356H519.19a1.24,1.24,0,0,1-.63-.17c-15.11-1.6-14.39-16.74-14.38-16.9V263c0-13.43,18.64-22.42,19.44-22.79a1.13,1.13,0,0,1,.51-.12h18.73a1.17,1.17,0,0,1,.52.12c.79.37,19.44,9.36,19.44,22.79v76c0,.08.73,15.27-14.47,16.82A1,1,0,0,1,547.8,356Zm-28.07-2.43h27.53a1.44,1.44,0,0,1,.42-.11c13.35-1.1,12.75-13.84,12.72-14.38V263c0-11.14-15.69-19.41-17.83-20.48H524.42c-2.13,1.07-17.82,9.34-17.82,20.48v76c0,.61-.59,13.36,12.71,14.45A1.44,1.44,0,0,1,519.73,353.57Z"/><path class="cls-7" d="M529.55,317.55a3.94,3.94,0,0,0,4,3.94h0a3.94,3.94,0,0,0,4-3.94V244.8a4,4,0,0,0-4-4h0a4,4,0,0,0-4,4Z"/><path class="cls-21" d="M533.5,322.7a5.16,5.16,0,0,1-5.16-5.15V244.8a5.16,5.16,0,1,1,10.32,0v72.75A5.16,5.16,0,0,1,533.5,322.7Zm0-80.64a2.74,2.74,0,0,0-2.74,2.74v72.75a2.74,2.74,0,0,0,5.47,0V244.8A2.74,2.74,0,0,0,533.5,242.06Z"/><g class="cls-22"><path class="cls-28" d="M558.89,265.57H508.11V336s-.77,13.82,12.48,15l0,.11h25.85l0-.11c13.27-1.16,12.49-15,12.49-15Z"/><path class="cls-21" d="M546.42,352.3H520.57a1.23,1.23,0,0,1-.62-.17c-13.71-1.56-13.06-16.05-13.06-16.19V265.57a1.22,1.22,0,0,1,1.22-1.21h50.78a1.21,1.21,0,0,1,1.21,1.21V336c0,.08.66,14.62-13.13,16.14A1.07,1.07,0,0,1,546.42,352.3Zm-25.32-2.42h24.79a1.13,1.13,0,0,1,.41-.11c11.91-1,11.41-13.19,11.37-13.7V266.79H509.32V336c0,.58-.53,12.74,11.38,13.77A1.08,1.08,0,0,1,521.1,349.88Z"/></g><path class="cls-24" d="M560.74,258.3c-3.67-10.22-17.88-17-17.88-17H524.13s-14.21,6.74-17.88,17Z"/><path class="cls-29" d="M511.85,260.52v74.17s.55,12.39,7.77,13.87v-88Z"/><path class="cls-24" d="M561.61,339V263c0-12.82-18.75-21.7-18.75-21.7h-4.75c4.11,4.57,11.31,15.48,10.91,35.64v67.51s.35,9.29-5.45,10.3h4.23l0-.12C562.46,353.46,561.61,339,561.61,339Z"/><path class="cls-30" d="M543.67,248.92v-42a10.17,10.17,0,0,0-20.34,0v42Z"/><path class="cls-21" d="M543.67,250.14H523.33a1.22,1.22,0,0,1-1.22-1.22v-42a11.39,11.39,0,1,1,22.77,0v42A1.22,1.22,0,0,1,543.67,250.14Zm-19.13-2.43h17.92V206.88a9,9,0,0,0-17.92,0Z"/><rect class="cls-28" x="511.3" y="226.3" width="44.4" height="14.8"/><path class="cls-21" d="M555.69,242.31H511.3a1.21,1.21,0,0,1-1.21-1.21V226.3a1.21,1.21,0,0,1,1.21-1.21h44.39a1.22,1.22,0,0,1,1.22,1.21v14.8A1.22,1.22,0,0,1,555.69,242.31Zm-43.18-2.42h42V227.52h-42Z"/><rect class="cls-24" x="511.3" y="230.99" width="44.4" height="10.11"/><rect class="cls-28" x="506.37" y="234.68" width="54.25" height="16.28"/><path class="cls-21" d="M560.62,252.17H506.37a1.21,1.21,0,0,1-1.21-1.21V234.68a1.21,1.21,0,0,1,1.21-1.21h54.25a1.21,1.21,0,0,1,1.21,1.21V251A1.21,1.21,0,0,1,560.62,252.17Zm-53-2.42h51.83V235.9H507.58Z"/><rect class="cls-29" x="507.3" y="235.92" width="7.26" height="13.93"/><rect class="cls-24" x="552.31" y="235.92" width="7.26" height="13.93"/><path class="cls-20" d="M669.78,339V263c0-12.82-18.75-21.7-18.75-21.7H632.3s-18.74,8.88-18.74,21.7v76s-.86,14.45,13.82,15.66v.12H656l0-.12C670.64,353.46,669.78,339,669.78,339Z"/><path class="cls-21" d="M656,356H627.37a1.28,1.28,0,0,1-.64-.17c-15.11-1.6-14.39-16.74-14.38-16.9V263c0-13.43,18.64-22.42,19.44-22.79a1.16,1.16,0,0,1,.51-.12H651a1.21,1.21,0,0,1,.53.12c.78.37,19.43,9.36,19.43,22.79v76c0,.08.74,15.27-14.47,16.82A1,1,0,0,1,656,356Zm-28.07-2.43h27.52a1.6,1.6,0,0,1,.43-.11c13.3-1.09,12.74-13.84,12.71-14.38V263c0-11.14-15.69-19.41-17.81-20.48H632.59c-2.13,1.07-17.82,9.34-17.82,20.48v76c0,.61-.58,13.36,12.71,14.45A1.51,1.51,0,0,1,627.91,353.57Z"/><path class="cls-7" d="M637.72,317.55a3.94,3.94,0,0,0,3.95,3.94h0a3.93,3.93,0,0,0,3.94-3.94V244.8a3.94,3.94,0,0,0-3.94-4h0a4,4,0,0,0-3.95,4Z"/><path class="cls-21" d="M641.67,322.7a5.16,5.16,0,0,1-5.16-5.15V244.8a5.16,5.16,0,0,1,10.32,0v72.75A5.16,5.16,0,0,1,641.67,322.7Zm0-80.64a2.74,2.74,0,0,0-2.74,2.74v72.75a2.74,2.74,0,0,0,5.48,0V244.8A2.74,2.74,0,0,0,641.67,242.06Z"/><g class="cls-22"><path class="cls-31" d="M667.06,265.57H616.28V336s-.77,13.82,12.49,15l0,.11h25.85l0-.11c13.27-1.16,12.49-15,12.49-15Z"/><path class="cls-21" d="M654.59,352.3H628.74a1.23,1.23,0,0,1-.62-.17c-13.71-1.56-13.06-16.05-13-16.19V265.57a1.21,1.21,0,0,1,1.21-1.21h50.78a1.21,1.21,0,0,1,1.21,1.21V336c0,.08.66,14.62-13.13,16.14A1.07,1.07,0,0,1,654.59,352.3Zm-25.3-2.42h24.77a1.19,1.19,0,0,1,.41-.11c11.92-1,11.41-13.19,11.37-13.7V266.79H617.49V336c0,.58-.53,12.74,11.38,13.77A1.24,1.24,0,0,1,629.29,349.88Z"/></g><path class="cls-24" d="M668.91,258.3c-3.66-10.22-17.88-17-17.88-17H632.3s-14.21,6.74-17.88,17Z"/><path class="cls-29" d="M620,260.52v74.17s.55,12.39,7.77,13.87v-88Z"/><path class="cls-32" d="M669.78,339V263c0-12.82-18.75-21.7-18.75-21.7h-4.74c4.11,4.57,11.3,15.48,10.91,35.64v67.51s.34,9.29-5.46,10.3H656l0-.12C670.64,353.46,669.78,339,669.78,339Z"/><path class="cls-33" d="M651.84,248.92v-42a10.17,10.17,0,0,0-20.34,0v42Z"/><path class="cls-21" d="M651.84,250.14H631.5a1.22,1.22,0,0,1-1.22-1.22v-42a11.39,11.39,0,1,1,22.77,0v42A1.22,1.22,0,0,1,651.84,250.14Zm-19.13-2.43h17.92V206.88a9,9,0,0,0-17.92,0Z"/><rect class="cls-31" x="619.48" y="226.3" width="44.39" height="14.8"/><path class="cls-21" d="M663.86,242.31H619.48a1.22,1.22,0,0,1-1.22-1.21V226.3a1.22,1.22,0,0,1,1.22-1.21h44.38a1.21,1.21,0,0,1,1.22,1.21v14.8A1.21,1.21,0,0,1,663.86,242.31Zm-43.18-2.42h42V227.52h-42Z"/><rect class="cls-34" x="619.48" y="230.99" width="44.39" height="10.11"/><rect class="cls-31" x="614.54" y="234.68" width="54.25" height="16.28"/><path class="cls-21" d="M668.79,252.17H614.54a1.21,1.21,0,0,1-1.21-1.21V234.68a1.21,1.21,0,0,1,1.21-1.21h54.25a1.22,1.22,0,0,1,1.22,1.21V251A1.22,1.22,0,0,1,668.79,252.17Zm-53-2.42h51.82V235.9H615.76Z"/><rect class="cls-29" x="615.48" y="235.92" width="7.25" height="13.93"/><rect class="cls-34" x="660.48" y="235.92" width="7.26" height="13.93"/></g></g></g></svg>