<svg xmlns="http://www.w3.org/2000/svg" viewBox="0 0 719 397"><defs><style>.cls-1{isolation:isolate;}.cls-2{fill:#ecb390;}.cls-3,.cls-5{fill:#193c40;}.cls-4{fill:#ece6db;}.cls-5{font-size:16px;font-family:NotoSansSC-Regular-90ms-RKSJ-H, Noto Sans SC;}.cls-28,.cls-6{fill:#8786b5;}.cls-7{fill:#a6a6d3;}.cls-8{fill:#171b2b;}.cls-9{fill:#ef3f3e;}.cls-10{fill:#c87f2a;}.cls-11,.cls-16{fill:#df933d;}.cls-12{fill:#2d314c;}.cls-13,.cls-22{fill:#8f2b30;}.cls-14{fill:#bc3626;}.cls-15{fill:#a52f23;}.cls-16{opacity:0.32;}.cls-16,.cls-28,.cls-56{mix-blend-mode:screen;}.cls-17{fill:#4e4e4e;}.cls-18{fill:#010101;}.cls-19{fill:#161a29;}.cls-20{fill:#fff9f3;}.cls-21{fill:#232233;}.cls-22{opacity:0.54;}.cls-22,.cls-53,.cls-55{mix-blend-mode:multiply;}.cls-23{fill:#1c1c21;}.cls-24{fill:#bebddf;}.cls-25{fill:#3b3b51;}.cls-26{fill:#515171;}.cls-27{fill:#4f4e67;}.cls-28{opacity:0.46;}.cls-29{fill:#c17536;}.cls-30{fill:#af5f27;}.cls-31{fill:#935425;}.cls-32{fill:#d28f29;}.cls-33{fill:#ba7a2a;}.cls-34{fill:#1e4554;}.cls-35{fill:#163842;}.cls-36{fill:#eda024;}.cls-37{fill:#265a6f;}.cls-38{fill:#fab68f;}.cls-39{fill:#eda57e;}.cls-40{fill:#72b090;}.cls-41{fill:#d69229;}.cls-42{fill:#bc7f2b;}.cls-43{fill:#79bd9d;}.cls-44{fill:#327055;}.cls-45{fill:#c5b2a5;}.cls-46{fill:#ab9c93;}.cls-47{fill:#8ac6a7;}.cls-48{fill:#2b2725;}.cls-49{fill:#fff;}.cls-50{fill:#1e1a1a;}.cls-51{fill:#dd7958;}.cls-52{fill:#5d2a1c;}.cls-54,.cls-55{fill:#59a780;}.cls-56{fill:#e5e4ea;opacity:0.5;}</style></defs><g class="cls-1"><g id="Layer_2" data-name="Layer 2"><g id="Layer_1-2" data-name="Layer 1"><rect class="cls-2" x="364" width="355" height="397"/><rect class="cls-2" width="355.05" height="397"/><rect class="cls-3" width="355" height="50"/><rect class="cls-3" x="364" width="355" height="50"/><path class="cls-4" d="M58.64,29.74H62.3V20H58.64v-3H69.49v3H65.84v9.7h3.65v3H58.64Z"/><path class="cls-4" d="M72.76,20.8h2.87l.26,1.59H76a5.77,5.77,0,0,1,4.11-1.88c2.69,0,3.88,1.84,3.88,4.85v7.35H80.44v-6.9c0-1.58-.45-2.29-1.74-2.29a3.31,3.31,0,0,0-2.41,1.24v8H72.76Z"/><path class="cls-4" d="M86.31,26.76c0-3.89,2.51-6.25,5.09-6.25a4,4,0,0,1,3,1.28h.08L94.32,20v-4h3.54V32.71H95l-.26-1.23h-.09A4.93,4.93,0,0,1,91.34,33C88.29,33,86.31,30.65,86.31,26.76Zm8,2.24V24.2a2.78,2.78,0,0,0-2-.79c-1.29,0-2.4,1-2.4,3.31s.86,3.38,2.31,3.38A2.43,2.43,0,0,0,94.32,29Z"/><path class="cls-4" d="M100.83,28.15V20.8h3.53v6.9c0,1.58.42,2.29,1.74,2.29a2.72,2.72,0,0,0,2.31-1.36V20.8h3.53V32.71h-2.89L108.8,31h-.1a5.12,5.12,0,0,1-4,2C102,33,100.83,31.16,100.83,28.15Z"/><path class="cls-4" d="M114.78,31.17l1.5-2.2a9,9,0,0,0,4.8,1.41c1.31,0,1.89-.43,1.89-1s-.58-.91-2.91-1.4c-3.24-.69-4.53-1.88-4.53-3.72,0-2.22,2.07-3.73,5.47-3.73a9.71,9.71,0,0,1,5.16,1.63l-1.59,2.12a7.62,7.62,0,0,0-3.89-1.14c-1.1,0-1.65.4-1.65,1s.73.81,2.75,1.26c3.67.83,4.7,1.87,4.7,3.81,0,2.16-2.06,3.85-5.88,3.85A11.06,11.06,0,0,1,114.78,31.17Z"/><path class="cls-4" d="M131.85,27.77v-4.2h-3V20.94L132,20.8l.46-3.64h2.92V20.8h5v2.77h-5v4.16c0,1.81.77,2.49,2.5,2.49a7.08,7.08,0,0,0,2.35-.42l.64,2.55A12.78,12.78,0,0,1,137,33C133.19,33,131.85,30.9,131.85,27.77Z"/><path class="cls-4" d="M144.59,20.8h2.91l.28,2.61h.08a5.54,5.54,0,0,1,4.83-2.9A5,5,0,0,1,155,21l-.71,3a6.18,6.18,0,0,0-2.11-.35c-1.48,0-3,.77-4,2.91v6.19h-3.54Z"/><path class="cls-4" d="M162.66,23.57h-4.79V20.8h8.32V32.71h-3.53Zm-.74-6.79a2.35,2.35,0,0,1,4.69,0,2.35,2.35,0,0,1-4.69,0Z"/><path class="cls-4" d="M171.61,29.41c0-2.67,2.21-4,7.84-4.37-.13-1.07-.93-1.72-2.53-1.72a8.3,8.3,0,0,0-3.63,1.12L172,22.12a11.33,11.33,0,0,1,5.57-1.61c3.35,0,5.38,1.74,5.38,5.39v6.81h-2.89l-.25-1.34h-.09A7.3,7.3,0,0,1,175.53,33,3.61,3.61,0,0,1,171.61,29.41Zm7.84-.29V27.17c-3.51.18-4.45.94-4.45,1.95,0,.77.65,1.14,1.65,1.14A4.54,4.54,0,0,0,179.45,29.12Z"/><path class="cls-4" d="M189.24,28.05V18.67h-3.75V15.9h7.28V28.2a1.77,1.77,0,0,0,1.94,1.95,5.3,5.3,0,0,0,1.86-.39l.78,2.59a9.8,9.8,0,0,1-3.55.65C190.8,33,189.24,31.07,189.24,28.05Z"/><path class="cls-4" d="M213.89,31.17,215.4,29a9,9,0,0,0,4.8,1.41c1.31,0,1.89-.43,1.89-1s-.58-.91-2.92-1.4c-3.23-.69-4.52-1.88-4.52-3.72,0-2.22,2.07-3.73,5.47-3.73a9.71,9.71,0,0,1,5.16,1.63l-1.59,2.12a7.62,7.62,0,0,0-3.89-1.14c-1.11,0-1.65.4-1.65,1s.73.81,2.75,1.26c3.67.83,4.69,1.87,4.69,3.81,0,2.16-2.05,3.85-5.87,3.85A11.12,11.12,0,0,1,213.89,31.17Z"/><path class="cls-4" d="M228.1,26.75a6.08,6.08,0,0,1,6.2-6.24c3.67,0,5.6,2.48,5.6,5.72a9.88,9.88,0,0,1-.15,1.58h-9V25.44h6.65l-.56.68c0-1.92-.83-2.92-2.39-2.92-1.75,0-2.89,1.18-2.89,3.55s1.34,3.55,3.66,3.55a6.53,6.53,0,0,0,3.06-.82l1.17,2.12A9,9,0,0,1,234.7,33C231,33,228.1,30.71,228.1,26.75Z"/><path class="cls-4" d="M242.55,26.76c0-4,3.22-6.25,6.89-6.25a6.43,6.43,0,0,1,4.45,1.62l-1.62,2.19a4.39,4.39,0,0,0-2.64-1,3.24,3.24,0,0,0-3.46,3.4,3.19,3.19,0,0,0,3.34,3.39A5.53,5.53,0,0,0,252.65,29l1.42,2.23A7.7,7.7,0,0,1,249.18,33C245.43,33,242.55,30.71,242.55,26.76Z"/><path class="cls-4" d="M259.29,27.77v-4.2h-3V20.94l3.16-.14.46-3.64h2.92V20.8h5v2.77h-5v4.16c0,1.81.76,2.49,2.5,2.49a7.08,7.08,0,0,0,2.35-.42l.64,2.55a12.78,12.78,0,0,1-3.89.65C260.63,33,259.29,30.9,259.29,27.77Z"/><path class="cls-4" d="M270.39,26.76a6.07,6.07,0,1,1,12.14,0,6.07,6.07,0,1,1-12.14,0Zm8.53,0c0-2.06-.83-3.4-2.46-3.4S274,24.7,274,26.76s.83,3.39,2.45,3.39S278.92,28.82,278.92,26.76Z"/><path class="cls-4" d="M286.19,20.8h2.9l.28,2.61h.09a5.52,5.52,0,0,1,4.82-2.9,5,5,0,0,1,2.29.48l-.72,3a6.13,6.13,0,0,0-2.1-.35c-1.48,0-3,.77-4,2.91v6.19h-3.54Z"/><path class="cls-4" d="M418.87,17.07h4.24L428,32.71h-3.75l-2-7.92c-.4-1.56-.88-3.39-1.25-5h-.1c-.38,1.65-.82,3.48-1.21,5l-2,7.92H414Zm-1.65,9.16h7.48V29h-7.48Z"/><path class="cls-4" d="M429.19,34.72c0-1,.64-1.76,1.85-2.38v-.1a2.26,2.26,0,0,1-1.2-2A3,3,0,0,1,431.27,28v-.09a3.64,3.64,0,0,1-1.58-3.06c0-2.86,2.4-4.32,5.1-4.32a6.35,6.35,0,0,1,2,.29h4.84v2.6h-2.4A2.73,2.73,0,0,1,439.7,25c0,2.74-2.15,4-4.91,4a6.07,6.07,0,0,1-1.64-.24,1,1,0,0,0-.53.88c0,.63.63.89,2,.89h2.2c3.12,0,4.84.87,4.84,3,0,2.47-2.77,4.28-7.11,4.28C431.49,37.77,429.19,36.86,429.19,34.72Zm9.13-.63c0-.76-.73-.91-2.09-.91h-1.5a7.27,7.27,0,0,1-1.81-.16c-.6.38-.85.74-.85,1.17,0,.89,1.17,1.35,3,1.35S438.32,34.91,438.32,34.09Zm-1.72-9.26a1.81,1.81,0,1,0-3.6,0,1.81,1.81,0,1,0,3.6,0Z"/><path class="cls-4" d="M444.88,20.8h2.9l.28,2.61h.08a5.54,5.54,0,0,1,4.83-2.9,5,5,0,0,1,2.28.48l-.71,3a6.18,6.18,0,0,0-2.11-.35c-1.47,0-3,.77-4,2.91v6.19h-3.53Z"/><path class="cls-4" d="M462.94,23.57h-4.79V20.8h8.33V32.71h-3.54Zm-.74-6.79a2.36,2.36,0,0,1,4.7,0,2.36,2.36,0,0,1-4.7,0Z"/><path class="cls-4" d="M472,26.76c0-4,3.22-6.25,6.89-6.25a6.48,6.48,0,0,1,4.46,1.62l-1.63,2.19a4.36,4.36,0,0,0-2.64-1,3.24,3.24,0,0,0-3.46,3.4A3.2,3.2,0,0,0,479,30.15,5.53,5.53,0,0,0,482.13,29l1.42,2.23A7.7,7.7,0,0,1,478.66,33C474.91,33,472,30.71,472,26.76Z"/><path class="cls-4" d="M486.07,28.15V20.8h3.53v6.9c0,1.58.42,2.29,1.74,2.29a2.72,2.72,0,0,0,2.31-1.36V20.8h3.53V32.71h-2.89L494,31h-.1a5.12,5.12,0,0,1-4,2C487.22,33,486.07,31.16,486.07,28.15Z"/><path class="cls-4" d="M503.68,28.05V18.67h-3.75V15.9h7.28V28.2a1.77,1.77,0,0,0,1.94,1.95,5.21,5.21,0,0,0,1.86-.39l.78,2.59a9.8,9.8,0,0,1-3.55.65C505.24,33,503.68,31.07,503.68,28.05Z"/><path class="cls-4" d="M517.09,27.77v-4.2h-3V20.94l3.16-.14.45-3.64h2.92V20.8h5v2.77h-5v4.16c0,1.81.77,2.49,2.5,2.49a7.08,7.08,0,0,0,2.35-.42l.64,2.55a12.78,12.78,0,0,1-3.89.65C518.43,33,517.09,30.9,517.09,27.77Z"/><path class="cls-4" d="M528.55,28.15V20.8h3.53v6.9c0,1.58.42,2.29,1.74,2.29a2.72,2.72,0,0,0,2.31-1.36V20.8h3.53V32.71h-2.89L536.52,31h-.1a5.12,5.12,0,0,1-4,2C529.7,33,528.55,31.16,528.55,28.15Z"/><path class="cls-4" d="M544,20.8h2.9l.28,2.61h.08a5.54,5.54,0,0,1,4.83-2.9,5,5,0,0,1,2.28.48l-.71,3a6.18,6.18,0,0,0-2.11-.35c-1.48,0-3,.77-4,2.91v6.19H544Z"/><path class="cls-4" d="M556.7,26.75a6.08,6.08,0,0,1,6.2-6.24c3.67,0,5.6,2.48,5.6,5.72a11.55,11.55,0,0,1-.14,1.58h-9V25.44H566l-.56.68c0-1.92-.83-2.92-2.39-2.92-1.75,0-2.89,1.18-2.89,3.55s1.34,3.55,3.66,3.55a6.53,6.53,0,0,0,3.06-.82L568,31.6A9,9,0,0,1,563.3,33C559.59,33,556.7,30.71,556.7,26.75Z"/><path class="cls-4" d="M585,31.17l1.51-2.2a9,9,0,0,0,4.8,1.41c1.31,0,1.89-.43,1.89-1s-.58-.91-2.92-1.4c-3.23-.69-4.52-1.88-4.52-3.72,0-2.22,2.07-3.73,5.47-3.73a9.71,9.71,0,0,1,5.16,1.63l-1.59,2.12a7.62,7.62,0,0,0-3.89-1.14c-1.11,0-1.65.4-1.65,1s.73.81,2.75,1.26c3.67.83,4.69,1.87,4.69,3.81,0,2.16-2,3.85-5.87,3.85A11.12,11.12,0,0,1,585,31.17Z"/><path class="cls-4" d="M599.18,26.75a6.08,6.08,0,0,1,6.2-6.24c3.67,0,5.6,2.48,5.6,5.72a11.55,11.55,0,0,1-.14,1.58h-9V25.44h6.65l-.56.68c0-1.92-.83-2.92-2.39-2.92-1.75,0-2.89,1.18-2.89,3.55s1.34,3.55,3.66,3.55a6.53,6.53,0,0,0,3.06-.82l1.17,2.12a9,9,0,0,1-4.72,1.4C602.07,33,599.18,30.71,599.18,26.75Z"/><path class="cls-4" d="M613.63,26.76c0-4,3.22-6.25,6.89-6.25A6.43,6.43,0,0,1,625,22.13l-1.62,2.19a4.36,4.36,0,0,0-2.64-1,3.24,3.24,0,0,0-3.46,3.4,3.19,3.19,0,0,0,3.34,3.39A5.53,5.53,0,0,0,623.73,29l1.42,2.23A7.7,7.7,0,0,1,620.26,33C616.51,33,613.63,30.71,613.63,26.76Z"/><path class="cls-4" d="M630.37,27.77v-4.2h-3V20.94l3.16-.14.46-3.64h2.92V20.8h5v2.77h-5v4.16c0,1.81.76,2.49,2.5,2.49a7.08,7.08,0,0,0,2.35-.42l.64,2.55a12.78,12.78,0,0,1-3.89.65C631.71,33,630.37,30.9,630.37,27.77Z"/><path class="cls-4" d="M641.47,26.76a6.08,6.08,0,1,1,12.15,0,6.08,6.08,0,1,1-12.15,0Zm8.53,0c0-2.06-.83-3.4-2.46-3.4s-2.45,1.34-2.45,3.4.83,3.39,2.45,3.39S650,28.82,650,26.76Z"/><path class="cls-4" d="M657.27,20.8h2.9l.28,2.61h.09a5.52,5.52,0,0,1,4.82-2.9,5,5,0,0,1,2.29.48l-.72,3a6.13,6.13,0,0,0-2.1-.35c-1.48,0-3,.77-4,2.91v6.19h-3.54Z"/><text class="cls-5" transform="translate(13.39 74.1)">The manufacture of chemicals such as <tspan x="0" y="19.2">chlorine gas, sodium hydroxide, </tspan><tspan x="0" y="38.4">hydrogen gas and sodium metal from </tspan><tspan x="0" y="57.6">electrolysis of soidum chloride.</tspan></text><text class="cls-5" transform="translate(377.39 74.1)">Fertilise such as ammonium sulphate, <tspan x="0" y="19.2">ammonium nitrate and potassium </tspan><tspan x="0" y="38.4">nitrate</tspan></text><text class="cls-5" transform="translate(377.39 156.1)">Fungicides such <tspan x="0" y="19.2">as copper(II) </tspan><tspan x="0" y="38.4">sulphate</tspan></text><text class="cls-5" transform="translate(13.39 168.1)">Electrolytes in batteries such as <tspan x="0" y="19.2">ammonium chloride and lithium iodide</tspan></text><path class="cls-6" d="M267.51,344.78h21.85a3.07,3.07,0,0,1,3.07,3.07v4.89a0,0,0,0,1,0,0h-28a0,0,0,0,1,0,0v-4.89A3.07,3.07,0,0,1,267.51,344.78Z"/><path class="cls-7" d="M264.38,349.78h29.47a4.27,4.27,0,0,1,4.27,4.27v4.27a0,0,0,0,1,0,0h-38a0,0,0,0,1,0,0v-4.27A4.27,4.27,0,0,1,264.38,349.78Z"/><path class="cls-8" d="M15.94,337.16c-.74-3-.26.24-.4-83.87a14,14,0,0,1,13.93-13.93H47.13a13.83,13.83,0,0,1,8.38,2.8l-1.77,2.35c-4.77-3.59-8.66-1.67-24.27-2.21a11,11,0,0,0-11,11c.11,84.53-.27,80.77.31,83.18Z"/><path class="cls-9" d="M24.37,334H21.43V258c0-7.42,6.36-13.46,14.18-13.46H54.25v3H35.61c-6.2,0-11.24,4.71-11.24,10.51Z"/><rect class="cls-10" x="45.25" y="233.97" width="35" height="117.94" rx="5.29"/><rect class="cls-10" x="138.48" y="233.97" width="35" height="117.94" rx="5.29"/><rect class="cls-10" x="51.13" y="233.97" width="29.12" height="117.94" rx="5.29"/><rect class="cls-10" x="80.25" y="233.97" width="29.12" height="117.94" rx="5.29"/><rect class="cls-10" x="109.36" y="233.97" width="29.12" height="117.94" rx="5.29"/><rect class="cls-10" x="138.48" y="233.97" width="29.12" height="117.94" rx="5.29"/><rect class="cls-11" x="51.13" y="233.97" width="29.12" height="117.94" rx="5.29"/><rect class="cls-11" x="80.25" y="233.97" width="29.12" height="117.94" rx="5.29"/><rect class="cls-11" x="109.36" y="233.97" width="29.12" height="117.94" rx="5.29"/><rect class="cls-11" x="138.48" y="233.97" width="29.12" height="117.94" rx="5.29"/><rect class="cls-8" x="45.25" y="311.41" width="35" height="5.49"/><rect class="cls-8" x="138.48" y="311.41" width="35" height="5.49"/><rect class="cls-12" x="80.25" y="311.41" width="29.12" height="5.49"/><rect class="cls-12" x="109.36" y="311.41" width="29.12" height="5.49"/><rect class="cls-12" x="138.48" y="311.41" width="29.12" height="5.49"/><rect class="cls-13" x="45.25" y="302" width="35" height="6.27"/><rect class="cls-13" x="138.48" y="302" width="35" height="6.27"/><rect class="cls-14" x="51.13" y="302" width="29.12" height="6.27"/><rect class="cls-14" x="80.25" y="302" width="29.12" height="6.27"/><rect class="cls-14" x="109.36" y="302" width="29.12" height="6.27"/><rect class="cls-14" x="138.48" y="302" width="29.12" height="6.27"/><rect class="cls-13" x="45.25" y="286.31" width="35" height="10.59"/><rect class="cls-13" x="138.48" y="286.31" width="35" height="10.59"/><rect class="cls-14" x="51.13" y="286.31" width="29.12" height="10.59"/><rect class="cls-14" x="80.25" y="286.31" width="29.12" height="10.59"/><rect class="cls-14" x="109.36" y="286.31" width="29.12" height="10.59"/><rect class="cls-14" x="138.48" y="286.31" width="29.12" height="10.59"/><path class="cls-15" d="M80.25,281.18V239.26A5.29,5.29,0,0,0,75,234H50.54a5.29,5.29,0,0,0-5.29,5.29v41.92Z"/><path class="cls-13" d="M173.48,281.18V239.26a5.29,5.29,0,0,0-5.29-5.29H143.78a5.29,5.29,0,0,0-5.3,5.29v41.92Z"/><path class="cls-14" d="M80.25,281.18V239.26A5.29,5.29,0,0,0,75,234H56.42a5.29,5.29,0,0,0-5.29,5.29v41.92Z"/><path class="cls-14" d="M109.36,281.18V239.26a5.29,5.29,0,0,0-5.29-5.29H85.54a5.29,5.29,0,0,0-5.29,5.29v41.92Z"/><path class="cls-14" d="M138.48,281.18V239.26a5.29,5.29,0,0,0-5.29-5.29H114.66a5.29,5.29,0,0,0-5.3,5.29v41.92Z"/><path class="cls-14" d="M167.6,281.18V239.26a5.29,5.29,0,0,0-5.29-5.29H143.78a5.29,5.29,0,0,0-5.3,5.29v41.92Z"/><rect class="cls-16" x="57.27" y="233.97" width="16.83" height="117.94" rx="4.02"/><rect class="cls-16" x="84.92" y="233.97" width="19.77" height="117.94" rx="4.36"/><rect class="cls-16" x="114.89" y="233.97" width="18.07" height="117.94" rx="4.17"/><rect class="cls-16" x="145.22" y="233.97" width="15.65" height="117.94" rx="3.88"/><ellipse class="cls-16" cx="97.14" cy="284.06" rx="5.59" ry="1.27"/><path class="cls-16" d="M128.61,284.06c0,.7-2.15,1.27-4.8,1.27s-4.81-.57-4.81-1.27,2.15-1.28,4.81-1.28S128.61,283.35,128.61,284.06Z"/><rect class="cls-12" x="11.03" y="327.79" width="18.14" height="16.76"/><rect class="cls-17" x="16.9" y="336.71" width="7.25" height="11.36"/><rect class="cls-18" x="16.9" y="336.71" width="7.25" height="5.68"/><rect class="cls-10" x="12.48" y="339.04" width="2.55" height="5.51"/><rect class="cls-10" x="25.33" y="339.04" width="2.55" height="5.51"/><rect class="cls-19" x="11.03" y="330.82" width="18.07" height="4.02"/><path class="cls-18" d="M58.26,269h2.41v8.59h4.21v2H58.26Z"/><path class="cls-18" d="M68.69,269.78A1.2,1.2,0,0,1,67.4,271a1.21,1.21,0,1,1,0-2.41A1.19,1.19,0,0,1,68.69,269.78Zm-2.47,9.83v-7.69h2.39v7.69Z"/><path class="cls-18" d="M74.17,274.69v1.59H70v-1.59Z"/><path class="cls-18" d="M78.07,269.78a1.2,1.2,0,0,1-1.29,1.2,1.21,1.21,0,1,1,0-2.41A1.2,1.2,0,0,1,78.07,269.78Zm-2.47,9.83v-7.69H78v7.69Z"/><path class="cls-18" d="M87.51,275.68a3.86,3.86,0,0,1-4.06,4.11,3.77,3.77,0,0,1-4-4,3.84,3.84,0,0,1,4.11-4.07A3.74,3.74,0,0,1,87.51,275.68Zm-5.57.08c0,1.32.55,2.31,1.57,2.31s1.53-.93,1.53-2.31c0-1.15-.44-2.31-1.53-2.31S81.94,274.63,81.94,275.76Z"/><path class="cls-18" d="M89,274.37c0-1,0-1.77-.06-2.45H91l.11,1.05h0a2.84,2.84,0,0,1,2.38-1.22c1.57,0,2.75,1,2.75,3.3v4.56H93.9v-4.26c0-1-.35-1.67-1.21-1.67a1.27,1.27,0,0,0-1.21.9,1.51,1.51,0,0,0-.1.6v4.43H89Z"/><path class="cls-20" d="M58,247.83a29,29,0,0,1,4.68-.33,8.86,8.86,0,0,1,4.73.9,3.51,3.51,0,0,1,1.92,3.14A3.62,3.62,0,0,1,66.73,255v0A4,4,0,0,1,69.92,259a4.27,4.27,0,0,1-1.67,3.39c-1.16.93-3.11,1.45-6.29,1.45a27.78,27.78,0,0,1-3.92-.24ZM61.63,254h1.18c1.9,0,2.93-.79,2.93-2s-.93-1.86-2.57-1.86a9.39,9.39,0,0,0-1.54.1Zm0,7.1a10.76,10.76,0,0,0,1.4.05c1.64,0,3.09-.62,3.09-2.31s-1.45-2.25-3.26-2.25H61.63Z"/><path class="cls-20" d="M76,259.52l-1.14,4.1H71.13l4.89-16h4.75l5,16h-3.9l-1.23-4.1Zm4.06-2.71-1-3.4c-.28-.95-.57-2.14-.81-3.09h0c-.24,1-.48,2.17-.74,3.09l-.95,3.4Z"/><path class="cls-20" d="M89,250.66h-4.3v-3H97v3H92.62v13H89Z"/><path class="cls-20" d="M102.52,250.66h-4.3v-3h12.3v3h-4.37v13h-3.63Z"/><path class="cls-20" d="M122,256.86h-5.89v3.79h6.57v3H112.44v-16h9.88v3h-6.24v3.32H122Z"/><path class="cls-20" d="M125.12,247.83a31.94,31.94,0,0,1,4.82-.33c2.38,0,4,.35,5.18,1.26a4.05,4.05,0,0,1,1.47,3.35,4.25,4.25,0,0,1-2.82,3.94v.07a4,4,0,0,1,2.13,3,46.53,46.53,0,0,0,1.31,4.51h-3.7a18.71,18.71,0,0,1-1.12-3.72c-.43-2-1.12-2.55-2.59-2.57h-1.09v6.29h-3.59Zm3.59,6.89h1.42c1.81,0,2.88-.9,2.88-2.31s-1-2.2-2.66-2.23a8.75,8.75,0,0,0-1.64.12Z"/><path class="cls-20" d="M142.46,263.62v-6.55l-5.06-9.45h4.13l1.64,3.84c.5,1.17.83,2,1.23,3.07h0c.36-1,.74-1.93,1.21-3.07l1.62-3.84h4.06L146.07,257v6.67Z"/><rect class="cls-21" x="192.65" y="244.92" width="16.7" height="4.86"/><path class="cls-13" d="M214.52,248.4H188.2c-1.25,0-2.27,2.25-2.27,5v94.52c0,2.77,1,5,2.27,5h26.32c1.25,0,2.27-2.25,2.27-5V253.42C216.79,250.65,215.77,248.4,214.52,248.4Z"/><path class="cls-22" d="M214.52,248.4h-6.29c.82,16.35,2.37,64.5-6.87,78.53-6.14,9.32-11.68,12.46-15.43,13.39v7.62c0,2.77,1,5,2.27,5h26.32c1.25,0,2.27-2.25,2.27-5V253.42C216.79,250.65,215.77,248.4,214.52,248.4Z"/><path class="cls-14" d="M209.31,248.4h-15.9c-.76,0-1.37,2.25-1.37,5v94.52c0,2.77.61,5,1.37,5h15.9c.76,0,1.37-2.25,1.37-5V253.42C210.68,250.65,210.07,248.4,209.31,248.4Z"/><rect class="cls-11" x="185.93" y="284.64" width="30.85" height="8.4"/><rect class="cls-16" x="192.04" y="284.64" width="18.64" height="8.4"/><rect class="cls-10" x="185.93" y="296.59" width="30.85" height="7.08"/><rect class="cls-8" x="185.93" y="309.41" width="30.85" height="5.31"/><rect class="cls-12" x="192.04" y="309.41" width="18.64" height="5.31"/><rect class="cls-16" x="192.04" y="296.59" width="18.64" height="7.08"/><path class="cls-11" d="M185.93,320v27.91c0,2.77,1,5,2.27,5h26.32c1.25,0,2.27-2.25,2.27-5V320Z"/><path class="cls-16" d="M192,320v27.91c0,2.77.61,5,1.37,5h15.9c.76,0,1.37-2.25,1.37-5V320Z"/><path class="cls-16" d="M202.57,249.89s-11.18-2.5-13.09,2.06-4.26,29.11,1.18,28.38,3.38-16.91,6.47-22.21S203.31,253.71,202.57,249.89Z"/><path class="cls-18" d="M202.34,292.42v-1.69h6v-3h1.42v4.65Z"/><path class="cls-18" d="M202.88,285.1a.84.84,0,0,1,.84.9.85.85,0,1,1-.84-.9Zm6.9,1.73h-5.4v-1.68h5.4Z"/><path class="cls-18" d="M206.32,281.26h1.12v2.89h-1.12Z"/><path class="cls-18" d="M202.88,278.52a.84.84,0,0,1,.84.9.85.85,0,1,1-1.69,0A.84.84,0,0,1,202.88,278.52Zm6.9,1.73h-5.4v-1.68h5.4Z"/><path class="cls-18" d="M207,271.9a2.71,2.71,0,0,1,2.88,2.84,2.65,2.65,0,0,1-2.78,2.8,2.69,2.69,0,0,1-2.86-2.88A2.62,2.62,0,0,1,207,271.9Zm0,3.9c.93,0,1.63-.38,1.63-1.1s-.66-1.07-1.63-1.07c-.8,0-1.62.31-1.62,1.07S206.28,275.8,207.07,275.8Z"/><path class="cls-18" d="M206.1,270.86c-.67,0-1.25,0-1.72,0v-1.46l.74-.07v0a2,2,0,0,1-.86-1.66c0-1.11.73-1.94,2.32-1.94h3.2v1.68h-3c-.7,0-1.17.25-1.17.85a.89.89,0,0,0,.63.85,1,1,0,0,0,.41.07h3.12v1.68Z"/><path class="cls-23" d="M201.8,252.53v1.94h1.85v.83H201.8v1.95h-.87V255.3h-1.86v-.83h1.86v-1.94Z"/><path class="cls-23" d="M201.36,249.79a5.11,5.11,0,1,0,5.11,5.1A5.1,5.1,0,0,0,201.36,249.79Zm0,8.86a3.76,3.76,0,1,1,3.75-3.76A3.76,3.76,0,0,1,201.36,258.65Z"/><path class="cls-23" d="M203.59,344.8V346h-5.18V344.8Z"/><path class="cls-23" d="M201,340.28a5.11,5.11,0,1,0,5.11,5.1A5.1,5.1,0,0,0,201,340.28Zm0,8.86a3.76,3.76,0,1,1,3.75-3.76A3.76,3.76,0,0,1,201,349.14Z"/><rect class="cls-21" x="312.82" y="289.3" width="11.7" height="3.41" transform="translate(609.67 -27.66) rotate(90)"/><rect class="cls-11" x="244.9" y="281.1" width="73.77" height="20.39" rx="4.22"/><path class="cls-16" d="M244.9,285.32v12a4.2,4.2,0,0,0,.25,1.42h73.27a4.2,4.2,0,0,0,.25-1.42v-12a4.21,4.21,0,0,0-.17-1.18H245.07A4.21,4.21,0,0,0,244.9,285.32Z"/><rect class="cls-13" x="267.75" y="281.1" width="4.41" height="20.39"/><rect class="cls-13" x="284.81" y="281.1" width="2.94" height="20.39"/><path class="cls-13" d="M314.45,281.1H294.51v20.4h19.94a4.22,4.22,0,0,0,4.22-4.22v-12A4.22,4.22,0,0,0,314.45,281.1Z"/><rect class="cls-13" x="275.4" y="281.1" width="4.41" height="20.39"/><rect class="cls-14" x="267.75" y="284.14" width="4.41" height="14.55"/><rect class="cls-14" x="267.75" y="284.14" width="4.41" height="14.55"/><rect class="cls-12" x="272.16" y="284.14" width="3.01" height="14.55"/><rect class="cls-14" x="275.4" y="284.14" width="4.41" height="14.55"/><rect class="cls-14" x="284.81" y="284.14" width="2.94" height="14.55"/><path class="cls-14" d="M318.5,284.14h-24V298.7h23.91a4.2,4.2,0,0,0,.25-1.42v-12A4.21,4.21,0,0,0,318.5,284.14Z"/><rect class="cls-8" x="272.16" y="281.1" width="3.24" height="20.39"/><rect class="cls-12" x="272.16" y="284.14" width="3.24" height="14.61"/><path class="cls-16" d="M315.47,286.73s-1.55-3.26-26.8-3.26-44.79-.37-40.17,1.72,50.4-.21,56.13,2.38S317,289.93,315.47,286.73Z"/><path class="cls-18" d="M247.59,298.37v-.46l.37-.39c.61-.64.92-1,.92-1.39a.43.43,0,0,0-.46-.48,1,1,0,0,0-.61.27l-.19-.55a1.44,1.44,0,0,1,.93-.34,1,1,0,0,1,1,1,2.14,2.14,0,0,1-.76,1.42l-.26.25h1.07v.63Z"/><path class="cls-18" d="M250,298.37v-.46l.36-.39c.62-.64.92-1,.93-1.39a.43.43,0,0,0-.47-.48,1,1,0,0,0-.6.27l-.19-.55A1.44,1.44,0,0,1,251,295a.94.94,0,0,1,1,1,2.13,2.13,0,0,1-.75,1.42l-.26.25H252v.63Z"/><path class="cls-18" d="M254.52,296.71c0,1-.36,1.72-1.08,1.72s-1.05-.76-1.06-1.7.35-1.7,1.08-1.7S254.52,295.81,254.52,296.71Zm-1.47,0c0,.76.15,1.12.41,1.12s.39-.38.39-1.13-.13-1.11-.4-1.11S253,296,253.05,296.73Z"/><path class="cls-18" d="M256.93,296.71c0,1-.35,1.72-1.07,1.72s-1.06-.76-1.06-1.7.35-1.7,1.08-1.7S256.93,295.81,256.93,296.71Zm-1.46,0c0,.76.15,1.12.41,1.12s.39-.38.39-1.13-.13-1.11-.4-1.11S255.46,296,255.47,296.73Z"/><path class="cls-18" d="M258.22,296.69c0-.31,0-.57,0-.79h.55l0,.33h0a.73.73,0,0,1,.64-.39.61.61,0,0,1,.59.42h0a1.35,1.35,0,0,1,.28-.3.7.7,0,0,1,.4-.12c.41,0,.72.34.72,1.08v1.45h-.64V297c0-.36-.1-.57-.32-.57a.33.33,0,0,0-.3.27.64.64,0,0,0,0,.2v1.44h-.64V297c0-.32-.1-.53-.31-.53a.35.35,0,0,0-.31.28.62.62,0,0,0,0,.19v1.44h-.65Z"/><path class="cls-18" d="M262.68,297.5l-.21.87h-.69l.9-3.41h.87l.91,3.41h-.72l-.22-.87Zm.74-.58-.18-.72c-.05-.2-.11-.46-.15-.66h0l-.13.66-.18.72Z"/><path class="cls-18" d="M264.8,294.78h.66v1.41h0a.88.88,0,0,1,.26-.25.71.71,0,0,1,.35-.1c.42,0,.74.34.74,1.09v1.44h-.66V297c0-.32-.09-.54-.34-.54a.35.35,0,0,0-.33.26.52.52,0,0,0,0,.18v1.46h-.66Z"/><path class="cls-23" d="M314.61,290.18v1h1v.45h-1v1h-.47v-1h-1v-.45h1v-1Z"/><path class="cls-23" d="M314.37,288.7a2.75,2.75,0,1,0,2.75,2.75A2.75,2.75,0,0,0,314.37,288.7Zm0,4.76a2,2,0,1,1,2-2A2,2,0,0,1,314.37,293.46Z"/><path class="cls-23" d="M251,290v.62h-2.78V290Z"/><path class="cls-23" d="M249.6,287.56a2.74,2.74,0,1,0,2.74,2.74A2.75,2.75,0,0,0,249.6,287.56Zm0,4.76a2,2,0,1,1,2-2A2,2,0,0,1,249.6,292.32Z"/><path class="cls-7" d="M264.32,339.91a18.21,18.21,0,1,1-18.21-18.21A18.21,18.21,0,0,1,264.32,339.91Z"/><path class="cls-24" d="M246.11,324.47a15.44,15.44,0,1,0,15.44,15.44A15.44,15.44,0,0,0,246.11,324.47Zm0,29.12a13.68,13.68,0,1,1,13.68-13.68A13.7,13.7,0,0,1,246.11,353.59Z"/><path class="cls-25" d="M260.88,329.27a17.8,17.8,0,0,1,3.45,14.63c-3.05,15.49-23.76,20.51-33.22,6.61a18,18,0,0,1-1.74-3.42c7.51,15.59,30.19,13.07,34.07-3.38A18.59,18.59,0,0,0,260.88,329.27Z"/><path class="cls-6" d="M236.58,343.7a5.86,5.86,0,0,0,2.44.65c1.28,0,1.93-.62,1.93-1.41,0-1-1-1.51-2.12-1.51h-1v-1.76h1c.82,0,1.88-.32,1.88-1.21,0-.64-.52-1.1-1.56-1.1a4.79,4.79,0,0,0-2.2.63l-.5-1.78a6.51,6.51,0,0,1,3.25-.8c2.25,0,3.5,1.18,3.5,2.62a2.52,2.52,0,0,1-1.93,2.45v0a2.62,2.62,0,0,1,2.28,2.56c0,1.86-1.63,3.22-4.3,3.22a6.16,6.16,0,0,1-3.12-.75Z"/><path class="cls-6" d="M250.53,338.2l1.06,3.67a17.94,17.94,0,0,1,.46,1.93h0c.13-.65.25-1.25.43-1.93l1-3.67h2.59l-2.94,7.91h-2.46l-2.88-7.91Z"/><path class="cls-7" d="M342.87,331.86a22.39,22.39,0,1,1-22.38-22.39A22.38,22.38,0,0,1,342.87,331.86Z"/><path class="cls-26" d="M320.49,312.48a19.38,19.38,0,1,0,19.37,19.38A19.4,19.4,0,0,0,320.49,312.48Zm0,38.17a18.79,18.79,0,1,1,18.79-18.79A18.81,18.81,0,0,1,320.49,350.65Z"/><path class="cls-27" d="M335.53,315.3a22.37,22.37,0,0,1-31.61,31.61,22.38,22.38,0,1,0,31.61-31.61Z"/><path class="cls-28" d="M336.69,331a16.21,16.21,0,1,1-16.2-16.21A16.2,16.2,0,0,1,336.69,331Z"/><path class="cls-6" d="M306.76,328.39h0l-2.34,1.11-.47-2.15,3.24-1.51h2.37v12.24h-2.77Z"/><path class="cls-6" d="M313.56,338.08v-1.73l1.58-1.43c2.67-2.39,4-3.77,4-5.2,0-1-.6-1.79-2-1.79a4.43,4.43,0,0,0-2.62,1l-.81-2.05a6.74,6.74,0,0,1,4-1.26c2.77,0,4.29,1.62,4.29,3.84,0,2-1.49,3.69-3.25,5.27l-1.13.94v0h4.61v2.35Z"/><path class="cls-6" d="M330.29,328.88l1.25,4.27a21.8,21.8,0,0,1,.52,2.24h.06c.15-.75.3-1.45.51-2.24l1.18-4.27h3l-3.43,9.2h-2.86l-3.35-9.2Z"/><path class="cls-29" d="M711.61,355.23c-1,15.95-30.67,28.64-81.76,22.91s-103.9,8.17-166.93,2.45-46.67-25.36-35.76-33.95a34.3,34.3,0,0,1,4-2.66c11.39-6.66,27.87-9.58,20.89-12.47-7.83-3.28-.33-13.92,30.32-19.23s73.17-3,77.67-3.68c61-9,90.28,12.27,111.74,17.18a0,0,0,0,1,0,0C693.24,330.71,712.62,339.3,711.61,355.23Z"/><path class="cls-30" d="M711.61,355.23c-1,15.95-30.67,28.64-81.76,22.91s-103.9,8.17-166.93,2.45-46.67-25.36-35.76-33.95a34.3,34.3,0,0,1,4-2.66c-1.1,3.89-6.37,17.84,1.8,20.64,9.71,3.33,19.06-2.91,22.18-.42s3.12,8.74,12.14,8.74,14.05-3.34,15.87-3.76,2.84,3.35,8.39,4.6,10.09-5.76,12.67-5.38,4.31,2.46,8.47,5.38,9.71-2.92,12.83-2.08a117.83,117.83,0,0,0,16.29,2.91c5.2.42,16.64-9.57,27-6.66s55.81,2.5,78,1.25,23.92-12.07,8.67-16.65-32.93-8.32-19.76-8.74,13.52,1.66,37.44,4.58,34.66-3.33,25.65-7.49-1.39-2.92-15.95-10c-3.35-1.63-7.24-3.4-11.05-5.11C693.24,330.71,712.62,339.3,711.61,355.23Z"/><path class="cls-31" d="M498.21,319.83a30,30,0,0,0-9.66,7.28,16,16,0,0,1-5.71,4,16.1,16.1,0,0,0-2.43,1.28,5.42,5.42,0,0,0-1.13,1,5.09,5.09,0,0,0-.87,1.57c-.26.75-.45,1.34-.66,1.83A6.81,6.81,0,0,1,476.4,339a29,29,0,0,1-3.86,3.35,24.35,24.35,0,0,1-2.77,1.86l-1.24.66a5.8,5.8,0,0,0-1.83,1.48,25.18,25.18,0,0,0-2.12,3.18,30,30,0,0,1-3.86,5.42,22,22,0,0,1-4.67,3.52,39.83,39.83,0,0,0-7.68,6.13,1.78,1.78,0,0,0-.34,2.07c.36.54,1.11.5,1.67-.09l0,0a37.09,37.09,0,0,1,6.95-5.53,25.24,25.24,0,0,0,5.34-4.05,33.24,33.24,0,0,0,4.4-6.13,25.48,25.48,0,0,1,1.63-2.51,2.2,2.2,0,0,1,.55-.56,12.94,12.94,0,0,1,1.45-.8,27.24,27.24,0,0,0,3.38-2.24,24.07,24.07,0,0,0,5.24-4.92,10.37,10.37,0,0,0,1.19-2.16c.3-.71.51-1.37.76-2.08a.76.76,0,0,1,.17-.31,3.15,3.15,0,0,1,1-.72c1.64-.88,4.81-1.8,8.13-5.43a30.38,30.38,0,0,1,6-5.05c.8-.51,1.47-.88,1.92-1.11l.52-.25.13,0,0,0h0a1.94,1.94,0,0,0,1.08-1.86.93.93,0,0,0-1.32-.89Z"/><path class="cls-31" d="M515.1,316.87a8.52,8.52,0,0,0-2.92,2.05c-1.27,1.31-2.35,2.84-3.54,4.29a18.29,18.29,0,0,1-4.1,3.89,46.37,46.37,0,0,0-5.62,4,18.71,18.71,0,0,0-3.9,5.17,28.59,28.59,0,0,1-3.63,5.33,15.71,15.71,0,0,1-5,3.73,15.89,15.89,0,0,0-5.9,5.36c-1.54,2.14-2.88,4.41-4.59,6.52a12.7,12.7,0,0,1-4.58,3.55,16.94,16.94,0,0,0-2.34,1.36,8.58,8.58,0,0,0-2.3,2.46,1.53,1.53,0,0,0,.08,2c.49.38,1.25.12,1.7-.59a4.86,4.86,0,0,1,1.34-1.43c.8-.58,1.9-1.05,3.22-1.8A15.13,15.13,0,0,0,477.4,359c1.94-2.4,3.34-4.78,4.73-6.69a12.19,12.19,0,0,1,4.63-4.27,19.16,19.16,0,0,0,6-4.5,32,32,0,0,0,4.17-6.09,14.4,14.4,0,0,1,3.1-4.14,45,45,0,0,1,5.21-3.7,25.83,25.83,0,0,0,6.11-6.13,29.37,29.37,0,0,1,2.1-2.5,5.16,5.16,0,0,1,1.84-1.33,1.92,1.92,0,0,0,1.1-1.84.93.93,0,0,0-1.29-.93Z"/><path class="cls-31" d="M536,314.14a9.5,9.5,0,0,0-5.63,2.58,24.08,24.08,0,0,0-5.79,7.66,15.31,15.31,0,0,1-2.18,3.34,14,14,0,0,1-3.57,2.83,38.32,38.32,0,0,0-4.33,2.73,13.48,13.48,0,0,0-2.74,2.93,47.2,47.2,0,0,0-2.72,4.73,16.4,16.4,0,0,1-2.73,3.91,11.3,11.3,0,0,1-2.74,1.9c-1.67.89-3.66,1.67-5.56,2.66a18.17,18.17,0,0,0-2.76,1.73,10.43,10.43,0,0,0-2.36,2.53,61,61,0,0,0-3.53,7.38,13.89,13.89,0,0,1-1.64,2.8,5.37,5.37,0,0,1-2.1,1.65,1.93,1.93,0,0,0-1.07,1.87.93.93,0,0,0,1.33.87,8.72,8.72,0,0,0,3.35-2.63,23.41,23.41,0,0,0,3-5.5,35.06,35.06,0,0,1,2.42-5,7.67,7.67,0,0,1,2.22-2.11,41.33,41.33,0,0,1,5.29-2.67,18.38,18.38,0,0,0,5.41-3.4,25.83,25.83,0,0,0,4.23-6.38,25.33,25.33,0,0,1,1.64-2.77,9.79,9.79,0,0,1,2-2.13c1.69-1.32,3.5-2.1,5.45-3.43a15.87,15.87,0,0,0,2.94-2.59,19.3,19.3,0,0,0,2.76-4.21,19.94,19.94,0,0,1,4.83-6.41,7,7,0,0,1,4-1.94,1.71,1.71,0,0,0,1.46-1.46c.16-.81-.23-1.46-.88-1.46Z"/><path class="cls-31" d="M547.89,315a4.4,4.4,0,0,0-1.61.82,9.93,9.93,0,0,0-2.15,2.56c-.92,1.47-1.71,3.15-2.58,4.8a27,27,0,0,1-2.84,4.58,16.54,16.54,0,0,1-5.63,4,22.76,22.76,0,0,0-3.13,1.88,9.91,9.91,0,0,0-2.75,3.14c-1.24,2.27-2.61,5.43-4.15,8.37a38.82,38.82,0,0,1-2.39,4,11.49,11.49,0,0,1-2.43,2.66,32.88,32.88,0,0,1-5.28,2.83,10.63,10.63,0,0,0-2.54,1.77,9.07,9.07,0,0,0-2.06,3.16,31.45,31.45,0,0,1-3.48,5.94c-.64.89-1.23,1.67-1.66,2.21-.21.27-.39.49-.51.63l-.13.17,0,.05a1.72,1.72,0,0,0-.23,2.05c.4.51,1.16.41,1.69-.22,0,0,1.16-1.39,2.53-3.31a35.64,35.64,0,0,0,4-6.81,4.71,4.71,0,0,1,1.14-1.77,10.57,10.57,0,0,1,3-1.8,24.31,24.31,0,0,0,4.48-2.49,15,15,0,0,0,3.24-3.51,51.65,51.65,0,0,0,3.85-6.81c1.13-2.31,2.13-4.5,2.94-6a6,6,0,0,1,1.72-1.92,39.73,39.73,0,0,1,4.32-2.49,16.49,16.49,0,0,0,5.07-4.06,45.92,45.92,0,0,0,4.61-7.84,19.15,19.15,0,0,1,1.68-2.79,4.14,4.14,0,0,1,.69-.73,1.61,1.61,0,0,1,.61-.31,1.9,1.9,0,0,0,1.25-1.74c0-.79-.5-1.29-1.17-1.12Z"/><path class="cls-31" d="M571.53,321.24a29.85,29.85,0,0,0-9.67,7.28,16,16,0,0,1-5.7,4,15.63,15.63,0,0,0-2.43,1.28,5.46,5.46,0,0,0-1.14,1,5.09,5.09,0,0,0-.87,1.57c-.25.75-.45,1.34-.66,1.83a6.81,6.81,0,0,1-1.35,2.12,28.32,28.32,0,0,1-3.86,3.35,22.67,22.67,0,0,1-2.77,1.86c-.48.27-.85.45-1.23.65a5.87,5.87,0,0,0-1.84,1.49,26.33,26.33,0,0,0-2.12,3.18,29,29,0,0,1-3.86,5.42,22,22,0,0,1-4.67,3.52,39.83,39.83,0,0,0-7.68,6.13,1.79,1.79,0,0,0-.34,2.07c.37.54,1.12.5,1.67-.09l0,0a37.34,37.34,0,0,1,7-5.53,25.16,25.16,0,0,0,5.33-4.05,33.24,33.24,0,0,0,4.4-6.13,25.48,25.48,0,0,1,1.63-2.51,2.72,2.72,0,0,1,.55-.57c.23-.17.67-.37,1.45-.79a27.24,27.24,0,0,0,3.38-2.24,24.17,24.17,0,0,0,5.25-4.92,10.86,10.86,0,0,0,1.19-2.16c.29-.71.5-1.37.75-2.08a.76.76,0,0,1,.17-.31,3.24,3.24,0,0,1,1-.72c1.63-.88,4.81-1.8,8.13-5.43a30.66,30.66,0,0,1,5.94-5.05c.81-.51,1.47-.88,1.93-1.11l.52-.25.12-.05,0,0h0a1.92,1.92,0,0,0,1.08-1.86.93.93,0,0,0-1.31-.89Z"/><path class="cls-31" d="M639.55,326a29.81,29.81,0,0,0-9.66,7.28,16.24,16.24,0,0,1-5.71,4,17,17,0,0,0-2.43,1.27,5.42,5.42,0,0,0-1.13,1,5.21,5.21,0,0,0-.87,1.57c-.26.75-.45,1.35-.66,1.84a6.78,6.78,0,0,1-1.35,2.11,28.14,28.14,0,0,1-3.86,3.36,25.82,25.82,0,0,1-2.77,1.86c-.49.27-.85.45-1.24.65a5.85,5.85,0,0,0-1.83,1.49,24.19,24.19,0,0,0-2.12,3.17,29.73,29.73,0,0,1-3.86,5.43,21.71,21.71,0,0,1-4.67,3.51,40.09,40.09,0,0,0-7.68,6.14,1.76,1.76,0,0,0-.34,2.06c.36.55,1.11.51,1.67-.09l0,0a37.09,37.09,0,0,1,7-5.53,24.93,24.93,0,0,0,5.34-4.06,32.9,32.9,0,0,0,4.4-6.13,26.83,26.83,0,0,1,1.63-2.51,2.62,2.62,0,0,1,.55-.56,12.94,12.94,0,0,1,1.45-.8,25.77,25.77,0,0,0,3.38-2.23,24.07,24.07,0,0,0,5.24-4.92,10.19,10.19,0,0,0,1.19-2.17c.3-.7.51-1.37.76-2.08a.92.92,0,0,1,.17-.31,3.18,3.18,0,0,1,1-.71c1.64-.88,4.81-1.8,8.13-5.43a30,30,0,0,1,6-5,21.12,21.12,0,0,1,1.92-1.11l.52-.25.13-.06h0a2,2,0,0,0,1.08-1.87.93.93,0,0,0-1.32-.88Z"/><path class="cls-31" d="M659.33,326.83a29.67,29.67,0,0,0-9.67,7.28,16.24,16.24,0,0,1-5.71,4,16.89,16.89,0,0,0-2.42,1.27,5.52,5.52,0,0,0-1.14,1.05,5,5,0,0,0-.87,1.56c-.26.75-.45,1.35-.66,1.84a6.78,6.78,0,0,1-1.35,2.11,27.53,27.53,0,0,1-3.86,3.36,24.84,24.84,0,0,1-2.77,1.86c-.48.27-.85.45-1.23.65a5.87,5.87,0,0,0-1.84,1.49,23.76,23.76,0,0,0-2.12,3.18,29.46,29.46,0,0,1-3.86,5.42,21.71,21.71,0,0,1-4.67,3.51,40.09,40.09,0,0,0-7.68,6.14,1.78,1.78,0,0,0-.34,2.06c.37.55,1.11.51,1.67-.09l0,0a37.48,37.48,0,0,1,6.95-5.53,24.93,24.93,0,0,0,5.34-4.06,32.9,32.9,0,0,0,4.4-6.13,24.92,24.92,0,0,1,1.63-2.5,2.72,2.72,0,0,1,.55-.57,14.93,14.93,0,0,1,1.45-.8,25.77,25.77,0,0,0,3.38-2.23,24.41,24.41,0,0,0,5.25-4.92A10.86,10.86,0,0,0,641,344.6c.29-.71.5-1.37.75-2.08a.88.88,0,0,1,.17-.32,3.45,3.45,0,0,1,1-.71c1.63-.88,4.81-1.8,8.12-5.43a30.32,30.32,0,0,1,6-5.05c.81-.51,1.47-.88,1.93-1.11.22-.12.4-.2.51-.25l.13-.06h0a1.94,1.94,0,0,0,1.08-1.87.92.92,0,0,0-1.31-.88Z"/><path class="cls-31" d="M678.9,328.37a29.85,29.85,0,0,0-9.67,7.28,16.15,16.15,0,0,1-5.71,4,15.09,15.09,0,0,0-2.42,1.27,5.46,5.46,0,0,0-1.14,1,5.09,5.09,0,0,0-.87,1.57c-.26.75-.45,1.34-.66,1.84a6.9,6.9,0,0,1-1.35,2.11,27.63,27.63,0,0,1-3.86,3.35,23.48,23.48,0,0,1-2.77,1.86c-.48.28-.85.45-1.23.66a6,6,0,0,0-1.84,1.48,25.18,25.18,0,0,0-2.12,3.18,29.46,29.46,0,0,1-3.86,5.42,21.71,21.71,0,0,1-4.67,3.52,40.27,40.27,0,0,0-7.68,6.13,1.79,1.79,0,0,0-.34,2.07c.37.54,1.11.5,1.67-.09l0,0a36.88,36.88,0,0,1,7-5.54,24.91,24.91,0,0,0,5.34-4.05,33.24,33.24,0,0,0,4.4-6.13,26.83,26.83,0,0,1,1.63-2.51,2.88,2.88,0,0,1,.55-.56,12.94,12.94,0,0,1,1.45-.8,26.11,26.11,0,0,0,3.38-2.24,23.93,23.93,0,0,0,5.25-4.92,10.86,10.86,0,0,0,1.19-2.16c.29-.7.5-1.37.75-2.08a.83.83,0,0,1,.17-.31,3.1,3.1,0,0,1,1-.71c1.63-.89,4.81-1.8,8.12-5.44a30.68,30.68,0,0,1,5.95-5.05c.81-.51,1.47-.87,1.93-1.11l.51-.25.13-.05h0a2,2,0,0,0,1.08-1.87.93.93,0,0,0-1.31-.89Z"/><path class="cls-31" d="M588.41,318.28a8.39,8.39,0,0,0-2.91,2.05c-1.28,1.31-2.35,2.84-3.54,4.29a18.35,18.35,0,0,1-4.11,3.89,46.16,46.16,0,0,0-5.61,4,18.67,18.67,0,0,0-3.91,5.16A27.43,27.43,0,0,1,564.7,343a15.71,15.71,0,0,1-5,3.73,15.79,15.79,0,0,0-5.89,5.36c-1.55,2.14-2.88,4.41-4.6,6.52a12.77,12.77,0,0,1-4.57,3.55,17,17,0,0,0-2.35,1.36A8.72,8.72,0,0,0,540,366a1.54,1.54,0,0,0,.08,2c.49.38,1.25.12,1.7-.59a4.86,4.86,0,0,1,1.34-1.43c.8-.58,1.9-1.05,3.22-1.8a15.13,15.13,0,0,0,4.38-3.75c1.95-2.4,3.34-4.78,4.73-6.7a12.32,12.32,0,0,1,4.63-4.26,18.93,18.93,0,0,0,6-4.5,32,32,0,0,0,4.17-6.09,14.58,14.58,0,0,1,3.1-4.14,44.45,44.45,0,0,1,5.22-3.7,26,26,0,0,0,6.11-6.13,29.45,29.45,0,0,1,2.09-2.5,5.25,5.25,0,0,1,1.84-1.33,1.93,1.93,0,0,0,1.11-1.85.94.94,0,0,0-1.3-.92Z"/><path class="cls-31" d="M609.3,315.55a9.48,9.48,0,0,0-5.63,2.58,23.84,23.84,0,0,0-5.8,7.66,15.31,15.31,0,0,1-2.18,3.34,13.75,13.75,0,0,1-3.57,2.82,40,40,0,0,0-4.33,2.74,13.73,13.73,0,0,0-2.74,2.93,49.23,49.23,0,0,0-2.72,4.73,16.66,16.66,0,0,1-2.72,3.91,11.71,11.71,0,0,1-2.74,1.9c-1.68.89-3.67,1.67-5.57,2.66a18.68,18.68,0,0,0-2.76,1.73,10.43,10.43,0,0,0-2.36,2.53,60.15,60.15,0,0,0-3.52,7.38,13.89,13.89,0,0,1-1.65,2.8,5.37,5.37,0,0,1-2.1,1.65,1.9,1.9,0,0,0-1.06,1.87.92.92,0,0,0,1.32.87,8.68,8.68,0,0,0,3.36-2.63,23.78,23.78,0,0,0,3-5.5,33,33,0,0,1,2.42-5,7.42,7.42,0,0,1,2.22-2.11,40.68,40.68,0,0,1,5.29-2.67,18.46,18.46,0,0,0,5.4-3.4,25.55,25.55,0,0,0,4.23-6.38,27,27,0,0,1,1.64-2.77,9.79,9.79,0,0,1,2-2.13c1.69-1.32,3.51-2.1,5.46-3.43a15.84,15.84,0,0,0,2.93-2.59,19.68,19.68,0,0,0,2.77-4.21,19.79,19.79,0,0,1,4.82-6.41,7,7,0,0,1,4-1.94,1.71,1.71,0,0,0,1.46-1.46c.16-.81-.23-1.46-.87-1.46Z"/><path class="cls-31" d="M621.21,316.38a4.4,4.4,0,0,0-1.61.82,9.77,9.77,0,0,0-2.16,2.56c-.91,1.47-1.71,3.15-2.57,4.8a27,27,0,0,1-2.84,4.58,16.49,16.49,0,0,1-5.64,4.05,22.09,22.09,0,0,0-3.12,1.88,9.68,9.68,0,0,0-2.75,3.14c-1.25,2.27-2.61,5.43-4.16,8.37a35.58,35.58,0,0,1-2.39,4,11.71,11.71,0,0,1-2.42,2.66,33.39,33.39,0,0,1-5.29,2.83,10.39,10.39,0,0,0-2.53,1.77,9,9,0,0,0-2.07,3.16,31.39,31.39,0,0,1-3.47,5.94c-.64.89-1.24,1.67-1.67,2.21-.21.27-.38.49-.5.63l-.14.17,0,0a1.72,1.72,0,0,0-.23,2.05c.41.51,1.16.41,1.69-.22,0,0,1.16-1.39,2.54-3.31a35.39,35.39,0,0,0,3.95-6.82,4.88,4.88,0,0,1,1.14-1.76,10.64,10.64,0,0,1,3-1.8,24.6,24.6,0,0,0,4.47-2.49,15.07,15.07,0,0,0,3.25-3.51,54,54,0,0,0,3.85-6.81c1.12-2.31,2.12-4.5,2.93-6a6.06,6.06,0,0,1,1.73-1.93,39.55,39.55,0,0,1,4.32-2.48,16.58,16.58,0,0,0,5.06-4.06,45.37,45.37,0,0,0,4.62-7.84,19.22,19.22,0,0,1,1.67-2.79,4.14,4.14,0,0,1,.7-.73,1.54,1.54,0,0,1,.61-.31,1.89,1.89,0,0,0,1.24-1.74c0-.79-.5-1.29-1.16-1.12Z"/><path class="cls-30" d="M684.81,335c1.21.69,26.32,17,14.71,24s-20.91-2.71-41.42-2.71-58.45,4.64-82.45,6.58S539.89,350.77,540.74,340s9-15.44,30.66-17.38S666.62,324.52,684.81,335Z"/><path class="cls-32" d="M632,305.94l1,22.22s11.48-4.35,13.36-3.18,15.85,20.91,19.48,21,7.11-2.46,6.39-9-5.37-14.94-6-22.49a1.14,1.14,0,0,0,0-.33c-.67-7.39-5.09-12.59-8.53-12.45-1.64.07-7.45,1-13.12,2C638.2,304.8,632,305.94,632,305.94Z"/><path class="cls-33" d="M632,305.94l1,22.22s11.48-4.35,13.36-3.18,15.85,20.91,19.48,21,7.11-2.46,6.39-9-5.37-14.94-6-22.49a1.14,1.14,0,0,0,0-.33c-6-1.48-13.78-.79-17.33-4.58a27.32,27.32,0,0,1-4.32-5.87C638.2,304.8,632,305.94,632,305.94Z"/><path class="cls-34" d="M533.37,331.5a22.15,22.15,0,0,0,7.37,8.46c4.9,3.63,11.32,6.11,17.31,5.79,10.18-.6,79.59-17.15,79.59-17.15,3.21-11-4.34-24.4-4.34-24.4L604,309.71c1.32-.33,22.77-5.72,28.69-12.48,6.09-7,8.14-22.08,8.14-22.08l-56.66,12.2s-2,1.4-5.34,3.7C565.3,300.6,530.79,325.65,533.37,331.5Z"/><path class="cls-35" d="M540.74,340c4.9,3.63,11.32,6.11,17.31,5.79,10.18-.6,79.59-17.15,79.59-17.15,3.21-11-4.34-24.4-4.34-24.4L604,309.71c1.32-.33,22.77-5.72,28.69-12.48,6.09-7,8.14-22.08,8.14-22.08l-56.66,12.2s-2,1.4-5.34,3.7c3.53,2.74,2.7,6.16-1.23,12.27C573.16,310.24,550.15,329.83,540.74,340Z"/><path class="cls-36" d="M655.23,319.31l1,22.21s11.48-4.35,13.36-3.18,15.85,20.91,19.48,21.05a6.28,6.28,0,0,0,3.25-.72c2.14-1.16,3.62-3.79,3.14-8.27-.72-6.56-5.37-15-6-22.52s-5.09-12.94-8.58-12.78S655.23,319.31,655.23,319.31Z"/><path class="cls-32" d="M655.23,319.31l1,22.21s11.48-4.35,13.36-3.18,15.85,20.91,19.48,21.05a6.28,6.28,0,0,0,3.25-.72c.46-5.34-2-13.39-5.67-20.87-5-10.27-7.55-4.74-19.17-9.39S655.23,319.31,655.23,319.31Z"/><path class="cls-37" d="M549.92,349.79c3.18,7.21,12.62,13.29,22.7,12.78h.26c10.15-.55,88-20.61,88-20.61a23.58,23.58,0,0,0,.67-8.64,45.59,45.59,0,0,0-5-15.76L615,325.07l-1.77.32s22.08-14.5,28.19-21.47,8.13-22.07,8.13-22.07l-54.91,8.69S546.74,342.54,549.92,349.79Z"/><path class="cls-34" d="M641.43,303.92c6.09-7,8.13-22.07,8.13-22.07l-54.91,8.69.79,1.28s22.45,6.39,27.31,11.8c4.67,5.23,2-1.26,1.76-1.72.37.12,9.09,3.44.56,11.41-8.71,8.13-25,17.22-29.05,19.54s16.64-7,18.2-7.34a2.36,2.36,0,0,0,.79-.44l-1.77.32S635.32,310.89,641.43,303.92Z"/><path class="cls-34" d="M572.62,362.57h.26c10.15-.55,88-20.61,88-20.61a23.58,23.58,0,0,0,.67-8.64,32.37,32.37,0,0,1-8.6,2.83c-20,4.25-51.51,6.79-63.9,11C577.27,351.23,579.64,358.23,572.62,362.57Z"/><path class="cls-38" d="M535,245.29s40.74,6.58,43.11,3.67,6.88-15.7,6.88-15.7c-2.74-6.7-14-9.72-14-9.72l-1.86,6-.3,1-24.58,1.72-9.09.65Z"/><path class="cls-39" d="M535,245.29s40.74,6.58,43.11,3.67,6.88-15.7,6.88-15.7c-2.74-6.7-14-9.72-14-9.72l-1.86,6c1.54,1.09,3.54,2.46,5.91,4.11,5.8,4.09-19.48,7-25.43,5.4-4.39-1.19-4.11-2.77-5.36-6.81l-9.09.65Z"/><path class="cls-40" d="M590.32,188.51c7.23,2.72,9,8.4,5.1,24.23s-6.89,23.34-6.89,23.34-11.77-1.21-20.48-9.55C568.05,226.53,573.32,182.12,590.32,188.51Z"/><path class="cls-41" d="M499.93,230.7a27.88,27.88,0,0,0,2.07,9.39c.82,2,1.84,3.79,2.95,4.55,2.93,2.05,13.64.91,13.64.91l21.71,4.93a27.53,27.53,0,0,0,2.48-20.27l-3.74-.14-9-.37s-10.59-6-14-7.6-5.58.68-4,2.35a10.37,10.37,0,0,0,4.42,2.42s-6,.72-9.83-.31S500.05,227.47,499.93,230.7Z"/><path class="cls-42" d="M502,240.09c.82,2,1.84,3.79,2.95,4.55,2.93,2.05,13.64.91,13.64.91l21.71,4.93a27.53,27.53,0,0,0,2.48-20.27l-3.74-.14c.51,1.54,1.12,4,.72,5.39-.58,2.12-8.22.38-10.17-2s-.86-.58-1.75,2-2-.79-3.76-1.37-3.67,5.14-7.65,6.11C512.78,241.09,505.63,240.76,502,240.09Z"/><path class="cls-43" d="M581.29,236.63c5.23,36-.58,52.07-.58,52.07,37,23.82,71.45-1.16,71.45-1.16v-.12c2.12-42.55-9.66-74.85-19.17-91.46-7.73-13.59-19.86-20.73-30.67-20.47a22,22,0,0,0-7.09,1.3c-10.57,3.88-15.4,9.55-17,18.45-1.19,6.69-.54,15.2.88,26.14C579.73,226,580.48,231.07,581.29,236.63Z"/><path class="cls-40" d="M578.25,195.24c2.64,7,12.47,3.3,19.12-2.58,8-7.06,11-14.43,5-17.17a22,22,0,0,0-7.09,1.3C584.66,180.67,579.83,186.34,578.25,195.24Z"/><path class="cls-40" d="M580.71,288.7c37,23.82,71.45-1.16,71.45-1.16v-.12A55.9,55.9,0,0,1,633.39,293c-20.73,2.51-39.9-7-19.75-8.14s33.5-4.85,6.39-5.43S588.66,268,596.6,267.21s16.64-2.91,17.8-5,3.7-15.32,3.7-15.32,3.09,0,4.06-1,1.35-10.85,2.51-24.4,1.86-24.07-4.46-27.88c-5.6-3.4-21.1,33.3-33.88,31.27a13.26,13.26,0,0,1-7.2-3.53c.6,4.63,1.35,9.69,2.16,15.25C586.52,272.64,580.71,288.7,580.71,288.7Z"/><path class="cls-44" d="M516.72,202.63s12.49-5.81,8.81-19.94C525.53,182.69,511.39,186.66,516.72,202.63Z"/><path class="cls-44" d="M527.37,202.83s8.13-8.14,20.14.09C547.51,202.92,533.85,211.93,527.37,202.83Z"/><path class="cls-45" d="M531.19,202.39s-23.09-.87-25.56-.14l-.29,2.46s13.36-1.16,21.42-1.23S534.24,202.17,531.19,202.39Z"/><path class="cls-44" d="M514.68,225.77s11.82-1.26,11.14-16.75C525.82,209,512.17,209.22,514.68,225.77Z"/><path class="cls-44" d="M533,226.45s10.75-12.49,23.43-3.29C556.41,223.16,546.15,236.33,533,226.45Z"/><path class="cls-44" d="M521.63,226.06s10.07,3.5,11.89,17.63C533.52,243.69,518.56,240.89,521.63,226.06Z"/><path class="cls-45" d="M533,225.77s-26.81-1-29.68-.17l-.33,2.86s15.51-1.34,24.87-1.43S536.58,225.51,533,225.77Z"/><path class="cls-44" d="M533.71,262.45s10.79,8.57,21.78-1C555.49,261.41,545.62,250.54,533.71,262.45Z"/><path class="cls-44" d="M522.34,262.37s10.14-1.08,9.55-14.38C531.89,248,520.18,248.16,522.34,262.37Z"/><path class="cls-44" d="M508.15,262.08s11.81-1.26,11.13-16.75C519.28,245.33,505.63,245.53,508.15,262.08Z"/><path class="cls-44" d="M527.39,262.47s10.07,3.5,11.89,17.62C539.28,280.09,524.32,277.29,527.39,262.47Z"/><path class="cls-44" d="M513.45,263.34s10.07,3.5,11.89,17.62C525.34,281,510.37,278.17,513.45,263.34Z"/><path class="cls-45" d="M536.81,261.78s-33.3-1-36.86-.16l-.42,2.86s19.27-1.35,30.89-1.43S541.2,261.53,536.81,261.78Z"/><path class="cls-44" d="M499.23,202.15s-11.74-4-9.79-17C489.44,185.12,502.48,187.34,499.23,202.15Z"/><path class="cls-44" d="M478,210.06s4.41-11,16.74-8.51C494.72,201.55,492,213.89,478,210.06Z"/><path class="cls-44" d="M486.06,199.52s-6.49-9.49-19.81-3.61C466.25,195.91,478,207.27,486.06,199.52Z"/><path class="cls-45" d="M479.33,197.81s22.86,3.39,25.15,4.56l-.16,2.48s-12.92-3.6-20.83-5.16S476.38,197,479.33,197.81Z"/><path class="cls-44" d="M491.62,230.47s-11.52-2.88-8.71-18.13C482.91,212.34,496.4,214.42,491.62,230.47Z"/><path class="cls-44" d="M480.5,229.32s-9.19-2.3-6.95-14.46C473.55,214.86,484.31,216.51,480.5,229.32Z"/><path class="cls-44" d="M473.41,228.61s-8.92-13.85-22.76-6.49C450.65,222.12,459,236.58,473.41,228.61Z"/><path class="cls-44" d="M484.79,229.81s-8.29,1.64-11.26,12.53C473.53,242.34,485.58,241.78,484.79,229.81Z"/><path class="cls-44" d="M495.3,231.83s-10.45,2.07-14.2,15.81C481.1,247.64,496.3,246.94,495.3,231.83Z"/><path class="cls-45" d="M473.45,227.93s26.7,2.7,29.42,3.93l-.06,2.88s-15.18-3.47-24.44-4.85S470,227.19,473.45,227.93Z"/><path class="cls-44" d="M466.13,265.48s-11.87,7-21.42-4.05C444.71,261.43,456,252,466.13,265.48Z"/><path class="cls-44" d="M476.34,266.25s-11.78-2.95-8.9-18.54C467.44,247.71,481.24,249.84,476.34,266.25Z"/><path class="cls-44" d="M489.32,268.08s-11.52-2.88-8.7-18.13C480.62,250,494.11,252,489.32,268.08Z"/><path class="cls-44" d="M479.5,267.1s-10.45,2.07-14.21,15.81C465.29,282.91,480.5,282.21,479.5,267.1Z"/><path class="cls-44" d="M492.9,269.32s-10.46,2.07-14.21,15.8C478.69,285.12,493.89,284.43,492.9,269.32Z"/><path class="cls-45" d="M463.16,264.4s33.12,3.61,36.53,4.94v2.89s-18.89-4-30.39-5.7S458.84,263.54,463.16,264.4Z"/><path class="cls-44" d="M507.13,187.92s12.1-9,3.39-23.43C510.52,164.49,498.22,174,507.13,187.92Z"/><path class="cls-45" d="M483.7,340.51s4.06-.87,6.38.29,1,3.55.89,3.77c.22-.25,3.81-4.07,4.93-4.35a12.12,12.12,0,0,1,3.78.29s-.58-7.85-.29-14.52c.25-5.79,6.6-108,8.3-135.16.25-4.19.41-6.59.41-6.59-4.65,2.9-14.81,106.6-16.27,114.74-.77,4.32-3,15.8-5,25.59C485.16,333.2,483.7,340.51,483.7,340.51Z"/><path class="cls-46" d="M483.7,340.51s4.06-.87,6.38.29,1,3.55.89,3.77c.22-.25,3.81-4.07,4.93-4.35a12.12,12.12,0,0,1,3.78.29s-.58-7.85-.29-14.52c.25-5.79,6.6-108,8.3-135.16-1.38,5.08-2.59,10.49-2.67,14.08-.2,8.52-1.94,31-3.3,40.64s-2.12,14.91-2.32,25.36,0,17.8,0,17.8-1.93-16.25-1.93-16.84c0,.68-.42,27.91-1,38.32-.58,10.65-1.34,13.36-2.7,18s-3.29-4.26-1.55-11.61,1.93-9.67,1-7.35c-.74,1.79-3.33,8.54-6.35,15.34C485.16,333.2,483.7,340.51,483.7,340.51Z"/><path class="cls-38" d="M558.84,247.08,561,261s46.68,0,48.8-3.7,4.85-18.78,4.85-18.78c-4.27-7-17.43-8.31-17.43-8.31l-1,7.38-.12.75-25.56,6Z"/><path class="cls-39" d="M558.84,247.08,561,261s46.68,0,48.8-3.7,4.85-18.78,4.85-18.78c-4.27-7-17.43-8.31-17.43-8.31l-1,7.38A30.47,30.47,0,0,0,608.5,244c8.23,1.86-3.18,12.41-20,11.52-15.38-.79-14.22-4.41-18-11.13Z"/><path class="cls-47" d="M612.47,187.63c8.57,1.72,11.62,7.74,10.07,26.14s-3.48,27.3-3.48,27.3-13.36.78-24.59-7C594.47,234.1,592.34,183.56,612.47,187.63Z"/><path class="cls-36" d="M519.13,251c.44,3.65,4.51,13,8.13,14.69s15.41-1.46,15.41-1.46l25.12,1.6a31.6,31.6,0,0,0,1.39-15.55v0a27.15,27.15,0,0,0-2.25-7.53l-14.39,1.74s-12.92-4.78-17-5.95c-2-.58-3.53-.16-4.3.61a1.72,1.72,0,0,0,.23,2.74,11.68,11.68,0,0,0,5.37,1.88s-6.53,1.89-11,1.44c-3.6-.32-6,1.26-6.6,3.79A5.87,5.87,0,0,0,519.13,251Z"/><path class="cls-32" d="M519.13,251c.44,3.65,4.51,13,8.13,14.69s15.41-1.46,15.41-1.46l25.12,1.6a31.6,31.6,0,0,0,1.39-15.55c-2.07,2.19-6,5.72-10.06,6.53-5.81,1.16-4.74-4.44-6.48-5.23s-1.84,5.72-3.19,6.79-.11-5.51-1.65-5.42-.3,2.91-3.88,4.93-12.59,3.39-18.49-1.44a28.94,28.94,0,0,1-6.21-7.46A5.87,5.87,0,0,0,519.13,251Z"/><path class="cls-32" d="M531.49,241.9a11.68,11.68,0,0,0,5.37,1.88c.86,0,4.65.1,4.16-.18a30.14,30.14,0,0,0-5.23-2.44c-1.28-.47-3-1.26-4.53-2A1.72,1.72,0,0,0,531.49,241.9Z"/><path class="cls-38" d="M584.2,171.17l3.46,8.78,2.07,5.3c10.46,1.16,12.78-6.53,12.78-6.53l-5.34-12.57-2.51-5.88Z"/><path class="cls-39" d="M584.2,171.17l3.46,8.78c5.84-3.21,8.39-8.92,9.51-13.8l-2.51-5.88Z"/><path class="cls-38" d="M564,148.46c.07,3.57,1.14,7.56,2.13,11.47,2.72,10.65,4.07,23,15.49,20.72s12.21-16.27,12.21-16.27,1.25-19.26-7.51-25.92A11.57,11.57,0,0,0,578,136.3C566.69,137.42,563.87,142.31,564,148.46Z"/><path class="cls-39" d="M564,148.46c3.21,1.5,9.21,2.22,18.32-4.61,2.74-2,3.93-3.85,4-5.39A11.57,11.57,0,0,0,578,136.3C566.69,137.42,563.87,142.31,564,148.46Z"/><path class="cls-48" d="M571,157s-1.24,7-1.22,9,5.42,1,5.42,1a18,18,0,0,1-4.11-1.15C570.22,165.26,571,157,571,157Z"/><path class="cls-48" d="M583.5,153.47s-6-2.5-8.41,1Z"/><path class="cls-48" d="M578.23,156.25c1.86.1,2.19,4.88.33,5S575.86,156.13,578.23,156.25Z"/><path class="cls-49" d="M577.6,157.11c.63-.22.8,1,.19,1.17S577.12,157.28,577.6,157.11Z"/><path class="cls-48" d="M569.63,155.21a36.64,36.64,0,0,1-4,0S567.3,152.92,569.63,155.21Z"/><path class="cls-48" d="M568.25,157c1.64.09,1.93,4.31.29,4.45S566.16,156.87,568.25,157Z"/><path class="cls-49" d="M567.69,157.73c.56-.19.71.89.17,1S567.27,157.88,567.69,157.73Z"/><path class="cls-49" d="M582.71,170.41s-5.82,2.67-11,1C571.76,171.37,577.19,180,582.71,170.41Z"/><path class="cls-48" d="M553.36,140c1.44,3.09,4.63,5.88,10.65,6.55a34.48,34.48,0,0,0,16.66-2.9s-.4,6,6.57,7.73l2.54,10.86,4.64-3.3s2.12-13.18,1.75-18.78c0-.3-.07-.6-.12-.86,0,0,0,0,0,0-.91-4.7-5.9-4.35-5.9-4.35s-.77-8.92-15.48-5.81-18-.58-20.73,1.54C552.43,131.87,551.53,136.17,553.36,140Z"/><path class="cls-50" d="M553.36,140c1.44,3.09,4.63,5.88,10.65,6.55a34.48,34.48,0,0,0,16.66-2.9s-.4,6,6.57,7.73l2.54,10.86,4.64-3.3s2.12-13.18,1.75-18.78c0-.3-.07-.6-.12-.86a24.54,24.54,0,0,1-1.44,5.46,13.21,13.21,0,0,1-2,3.53,31.27,31.27,0,0,0-.79-7s-.81,4.65-2,6.62a68.83,68.83,0,0,0-.79-8,21.76,21.76,0,0,1-2.69,6.39,11.33,11.33,0,0,1-.54-6.34,17.69,17.69,0,0,1-8.57,2.37,23,23,0,0,1-8.85-1.72,33.25,33.25,0,0,0,9,.19s-10.53,0-17-5.3a9,9,0,0,0,4.41,3.95,23.44,23.44,0,0,1-9.48-7,13,13,0,0,0,5.23,8.74,13.2,13.2,0,0,1-7.06-5.3s.09,3.55,5.13,6.81A23.67,23.67,0,0,1,553.36,140Z"/><path class="cls-38" d="M592.48,153s5.42-6,6.78,1.75-2.52,9.48-6.59,8.71S592.48,153,592.48,153Z"/><path class="cls-51" d="M593,157.6s.32-4,2.32-4.64,2.6,1.68,2.6,1.68S596.61,161,593.7,161c0,0,1.17-1.57.59-2.59S593,157.6,593,157.6Z"/><path class="cls-52" d="M593.7,161s1.09-1.37.74-2.27-1.68-.78-1.68-.78-.26-4.43,2.31-5.34,2.8,2.07,2.8,2.07-.69-2.12-2.47-1.54-1.71,4.14-1.71,4.14S597,158,593.7,161Z"/><path class="cls-30" d="M511.2,366.24c12.78.87,28.89,10.3,7.41,10.88s-26.71-1.88-26.71-1.88-14.37,5.08-33.38,1.16-21.63-8.42-19.89-10.31,21.48-2.9,38-3.19S511.2,366.24,511.2,366.24Z"/><path class="cls-44" d="M473,349.12a26.23,26.23,0,0,0,4.87,1.9,29.24,29.24,0,0,0,3.2.71,32.12,32.12,0,0,0,4.49.42,36.6,36.6,0,0,0,5.16-.24c.27,0,.53-.06.8-.09a14.2,14.2,0,0,0,8.31-4.38c3.54-3.62,5.93-9,6.73-14.82C508,321.9,504,309.94,491.75,306h0a29,29,0,0,0-6.84-1.28c-1-.07-2.09-.09-3.19-.08a30.46,30.46,0,0,0-4.05.33,25.13,25.13,0,0,0-4.1.91,21.8,21.8,0,0,0-6.17,3,19.48,19.48,0,0,0-6.1,7.12c-.08.16-.17.32-.24.49h0C455.89,327.36,460.25,342.68,473,349.12Z"/><g class="cls-53"><path class="cls-54" d="M492.33,312.29c2.56,4.26-1.27,4.57-1.27,6.39s3.93,4.14,4.47,6.91-3.72,3.61-3.09,6,3.4,4.26,2.87,7.66-1.27,2.77-.95,6.38c.18,2-1.81,4.48-3.68,6.33.27,0,.53-.06.8-.09a14.2,14.2,0,0,0,8.31-4.38c.59-2-.59-3.48.42-5.79s2.44-2,1.7-5.21-1.49-4.8,1.06-7.35-1.49-4.78-4.15-8.93,1.5-3.61-1.06-8.51c-1.13-2.17-3.61-4.16-6-5.7h0a29,29,0,0,0-6.84-1.28A19.55,19.55,0,0,1,492.33,312.29Z"/><path class="cls-54" d="M474.46,327.82c-.32,2.23,2.56,2.77,3.31,8.73s-.33,2.23,1.05,6.58,1.8,5.38,2.21,8.6a32.12,32.12,0,0,0,4.49.42,11.64,11.64,0,0,1,.43-2.1c.75-2.55-1.8-4.79-2.55-8s1.28-2.24,3-5.43-.85-3.19-2.77-6.38,1.39-2.13,2.34-4.58-1.6-2.33-2.13-4.57,2.34-3,1.28-7.77c-.76-3.43-5.07-6.8-7.45-8.43a25.13,25.13,0,0,0-4.1.91,46.39,46.39,0,0,1,1.77,4.44c1.48,4-2.13,4.36-2.23,5.32s2.33,2.23,3.5,6.8S474.79,325.59,474.46,327.82Z"/><path class="cls-54" d="M461,316.48h0a10,10,0,0,0,.23,1.33c1.18,4.57,1.81,2.56,1.49,8.4s-1.38,2.56,1.17,8,1.6.75,4.79,8.19a25.19,25.19,0,0,0,4.24,6.73,26.23,26.23,0,0,0,4.87,1.9,9.54,9.54,0,0,1-.92-1.61c-1.59-3.61-1.38-2.34-5.1-6.17s-.11-3.61.53-5.95-1.6-2.24-4.26-5.65.43-4.14,1.28-7.76-1.38-.95-3.3-6.38c-1-2.86-.06-6.07,1.32-8.63A19.45,19.45,0,0,0,461,316.48Z"/></g><path class="cls-55" d="M473,349.12a26.23,26.23,0,0,0,4.87,1.9,29.24,29.24,0,0,0,3.2.71,32.12,32.12,0,0,0,4.49.42,36.6,36.6,0,0,0,5.16-.24c.27,0,.53-.06.8-.09a14.2,14.2,0,0,0,8.31-4.38c3.54-3.62,5.93-9,6.73-14.82a43.69,43.69,0,0,1-8.87,2.22c-23.89,3.55-33.12-10.77-36.37-18.85-.08.16-.17.32-.24.49h0C455.89,327.36,460.25,342.68,473,349.12Z"/><path class="cls-56" d="M490.21,308.14c12.12,2.68,13,15.6-3.27,11.77S475.46,304.88,490.21,308.14Z"/><path class="cls-44" d="M498.49,369.55a27.11,27.11,0,0,0,4.86,1.89,29.42,29.42,0,0,0,3.21.71,33.68,33.68,0,0,0,4.49.43,39.86,39.86,0,0,0,5.16-.24l.8-.1a14.12,14.12,0,0,0,8.31-4.38c3.54-3.62,5.93-9,6.73-14.81,1.49-10.73-2.49-22.69-14.77-26.67h0a29,29,0,0,0-6.84-1.28c-1-.07-2.09-.09-3.19-.07a28.91,28.91,0,0,0-4.05.32,25.12,25.12,0,0,0-4.1.92,21.22,21.22,0,0,0-6.18,3,19.44,19.44,0,0,0-6.09,7.11c-.08.16-.17.32-.25.49h0C481.42,347.78,485.78,363.1,498.49,369.55Z"/><g class="cls-53"><path class="cls-54" d="M517.86,332.72c2.56,4.25-1.27,4.57-1.27,6.38s3.93,4.14,4.46,6.91-3.71,3.62-3.08,6,3.4,4.25,2.87,7.65-1.27,2.77-1,6.39c.18,2-1.81,4.47-3.68,6.33l.8-.1a14.12,14.12,0,0,0,8.31-4.38c.58-2-.59-3.48.41-5.79s2.45-2,1.71-5.21-1.49-4.79,1.06-7.35-1.49-4.78-4.15-8.93,1.5-3.61-1.06-8.51c-1.13-2.17-3.61-4.15-6-5.69h0a29,29,0,0,0-6.84-1.28A19.65,19.65,0,0,1,517.86,332.72Z"/><path class="cls-54" d="M500,348.24c-.32,2.24,2.56,2.77,3.3,8.73s-.32,2.23,1.06,6.59,1.8,5.37,2.21,8.59a33.68,33.68,0,0,0,4.49.43,11.55,11.55,0,0,1,.43-2.11c.75-2.55-1.8-4.79-2.55-8s1.27-2.24,3-5.43-.85-3.19-2.77-6.38,1.39-2.13,2.34-4.58-1.6-2.33-2.13-4.57,2.34-3,1.28-7.77c-.77-3.43-5.07-6.8-7.45-8.43a25.12,25.12,0,0,0-4.1.92,45.3,45.3,0,0,1,1.76,4.43c1.49,4-2.12,4.36-2.23,5.32s2.34,2.24,3.51,6.81S500.32,346,500,348.24Z"/><path class="cls-54" d="M486.56,336.9h0a12.13,12.13,0,0,0,.24,1.34c1.18,4.57,1.81,2.55,1.49,8.4s-1.38,2.55,1.17,8,1.6.75,4.79,8.19a25.41,25.41,0,0,0,4.24,6.74,27.11,27.11,0,0,0,4.86,1.89,10.14,10.14,0,0,1-.91-1.6c-1.6-3.62-1.38-2.34-5.1-6.17s-.11-3.62.53-6-1.6-2.24-4.26-5.64.43-4.15,1.28-7.76-1.38-1-3.3-6.39c-1-2.85-.06-6.06,1.31-8.62A19.52,19.52,0,0,0,486.56,336.9Z"/></g><path class="cls-55" d="M498.49,369.55a27.11,27.11,0,0,0,4.86,1.89,29.42,29.42,0,0,0,3.21.71,33.68,33.68,0,0,0,4.49.43,39.86,39.86,0,0,0,5.16-.24l.8-.1a14.12,14.12,0,0,0,8.31-4.38c3.54-3.62,5.93-9,6.73-14.81a44.36,44.36,0,0,1-8.87,2.22c-23.89,3.55-33.12-10.78-36.37-18.86-.08.16-.17.32-.25.49h0C481.42,347.78,485.78,363.1,498.49,369.55Z"/><path class="cls-56" d="M515.74,328.56c12.12,2.69,13,15.6-3.27,11.78S501,325.3,515.74,328.56Z"/><path class="cls-44" d="M458.07,368.7a27.11,27.11,0,0,0,4.86,1.89,29.42,29.42,0,0,0,3.21.71,32.12,32.12,0,0,0,4.49.42,38.11,38.11,0,0,0,5.16-.23l.8-.1A14.18,14.18,0,0,0,484.9,367c3.54-3.62,5.93-9,6.73-14.81,1.49-10.73-2.5-22.69-14.77-26.67h0a29,29,0,0,0-6.84-1.28c-1-.07-2.09-.09-3.19-.08a30.32,30.32,0,0,0-4.05.33,25.12,25.12,0,0,0-4.1.92,21.45,21.45,0,0,0-6.18,3,19.55,19.55,0,0,0-6.09,7.12c-.08.16-.17.32-.25.49h0C441,346.93,445.36,362.25,458.07,368.7Z"/><g class="cls-53"><path class="cls-54" d="M477.44,331.87c2.56,4.25-1.27,4.57-1.27,6.38s3.93,4.14,4.46,6.91-3.72,3.61-3.09,5.95,3.41,4.26,2.88,7.66-1.28,2.77-.95,6.39c.18,2-1.81,4.47-3.68,6.33l.8-.1A14.18,14.18,0,0,0,484.9,367c.58-2-.59-3.48.41-5.79s2.45-2,1.71-5.21-1.49-4.79,1.06-7.35-1.49-4.78-4.15-8.93,1.49-3.61-1.06-8.51c-1.13-2.17-3.61-4.15-6-5.69h0a29,29,0,0,0-6.84-1.28A19.65,19.65,0,0,1,477.44,331.87Z"/><path class="cls-54" d="M459.57,347.39c-.32,2.24,2.56,2.77,3.3,8.73s-.32,2.23,1.06,6.58,1.79,5.38,2.21,8.6a32.12,32.12,0,0,0,4.49.42,11.64,11.64,0,0,1,.43-2.1c.75-2.55-1.8-4.79-2.55-8s1.27-2.24,3-5.43-.86-3.19-2.77-6.38,1.39-2.13,2.34-4.58-1.6-2.33-2.13-4.57,2.34-3,1.28-7.77c-.77-3.43-5.07-6.8-7.45-8.43a25.12,25.12,0,0,0-4.1.92,45.3,45.3,0,0,1,1.76,4.43c1.49,4-2.12,4.36-2.23,5.32s2.34,2.24,3.51,6.81S459.9,345.16,459.57,347.39Z"/><path class="cls-54" d="M446.14,336.05h0a12.56,12.56,0,0,0,.24,1.34c1.18,4.57,1.81,2.55,1.49,8.4s-1.39,2.55,1.17,8,1.6.75,4.79,8.19a25.41,25.41,0,0,0,4.24,6.74,27.11,27.11,0,0,0,4.86,1.89A9.82,9.82,0,0,1,462,369c-1.6-3.61-1.38-2.34-5.1-6.17s-.11-3.61.53-5.95-1.6-2.24-4.26-5.64.43-4.15,1.28-7.76-1.38-1-3.31-6.39c-1-2.86-.05-6.06,1.32-8.63A19.62,19.62,0,0,0,446.14,336.05Z"/></g><path class="cls-55" d="M458.07,368.7a27.11,27.11,0,0,0,4.86,1.89,29.42,29.42,0,0,0,3.21.71,32.12,32.12,0,0,0,4.49.42,38.11,38.11,0,0,0,5.16-.23l.8-.1A14.18,14.18,0,0,0,484.9,367c3.54-3.62,5.93-9,6.73-14.81a44.36,44.36,0,0,1-8.87,2.22c-23.89,3.54-33.12-10.78-36.37-18.86-.08.16-.17.32-.25.49h0C441,346.93,445.36,362.25,458.07,368.7Z"/><path class="cls-56" d="M475.32,327.71c12.12,2.68,13,15.6-3.27,11.77S460.57,324.45,475.32,327.71Z"/></g></g></g></svg>