<svg xmlns="http://www.w3.org/2000/svg" viewBox="0 0 297 166.6"><defs><style>.cls-1{fill:#c660a5;}.cls-2{fill:#010101;}.cls-3{fill:none;stroke:#1a3d41;stroke-miterlimit:10;}.cls-4{fill:#437e7b;}</style></defs><g id="Layer_2" data-name="Layer 2"><g id="Layer_1-2" data-name="Layer 1"><ellipse class="cls-1" cx="213.68" cy="83.3" rx="18.37" ry="18.38"/><path class="cls-2" d="M209.18,75.68H211l4.14,8.12,1.24,2.68h0c-.06-1.28-.22-2.74-.22-4.1v-6.7h1.58V88.61H216l-4.14-8.12-1.24-2.68h0c.06,1.32.22,2.7.22,4v6.76h-1.58Z"/><circle class="cls-3" cx="213.7" cy="83.3" r="41.72"/><circle class="cls-3" cx="213.7" cy="83.3" r="82.8"/><polygon class="cls-4" points="219.52 36.51 217.98 34.97 212.96 40 207.93 34.97 206.4 36.51 211.42 41.53 206.4 46.56 207.93 48.1 212.96 43.07 217.98 48.1 219.52 46.56 214.49 41.53 219.52 36.51"/><polygon class="cls-4" points="221.46 120.46 219.92 118.92 214.9 123.95 209.87 118.92 208.33 120.46 213.36 125.48 208.33 130.51 209.87 132.05 214.9 127.02 219.92 132.05 221.46 130.51 216.43 125.48 221.46 120.46"/><polygon class="cls-4" points="153.08 56.83 151.55 55.29 146.52 60.32 141.5 55.29 139.96 56.83 144.99 61.85 139.96 66.88 141.5 68.42 146.52 63.39 151.55 68.42 153.08 66.88 148.06 61.85 153.08 56.83"/><circle class="cls-1" cx="80.7" cy="83.3" r="18.38"/><path class="cls-2" d="M76.19,75.68H78l4.14,8.12,1.24,2.68h0c-.06-1.28-.22-2.74-.22-4.1v-6.7h1.58V88.61H83l-4.14-8.12-1.24-2.68h0c.06,1.32.22,2.7.22,4v6.76H76.19Z"/><circle class="cls-3" cx="80.7" cy="83.3" r="41.72"/><circle class="cls-3" cx="80.7" cy="83.3" r="80.2"/><rect class="cls-4" x="139.49" y="41.87" width="12.94" height="12.94" rx="6.47"/><polygon class="cls-4" points="153.08 83.83 151.55 82.29 146.52 87.32 141.5 82.29 139.96 83.83 144.99 88.85 139.96 93.88 141.5 95.42 146.52 90.39 151.55 95.42 153.08 93.88 148.06 88.85 153.08 83.83"/><rect class="cls-4" x="139.49" y="68.87" width="12.94" height="12.94" rx="6.47"/><polygon class="cls-4" points="153.08 110.83 151.55 109.29 146.52 114.32 141.5 109.29 139.96 110.83 144.99 115.85 139.96 120.88 141.5 122.42 146.52 117.39 151.55 122.42 153.08 120.88 148.06 115.85 153.08 110.83"/><rect class="cls-4" x="139.49" y="95.87" width="12.94" height="12.94" rx="6.47"/><rect class="cls-4" x="74.18" y="34.87" width="12.94" height="12.94" rx="6.47"/><rect class="cls-4" x="74.18" y="118.87" width="12.94" height="12.94" rx="6.47"/></g></g></svg>