<svg xmlns="http://www.w3.org/2000/svg" viewBox="0 0 250.5 133.57"><defs><style>.cls-1{fill:#fdb94b;}.cls-2{fill:#010101;}.cls-3{fill:none;stroke:#1a3d41;stroke-miterlimit:10;}.cls-4{fill:#437e7b;}</style></defs><g id="Layer_2" data-name="Layer 2"><g id="Layer_1-2" data-name="Layer 1"><circle class="cls-1" cx="181.19" cy="69.43" r="18.38"/><path class="cls-2" d="M181.41,75c-2.92,0-5-2.52-5-6.76s2.05-6.64,5-6.64,5,2.46,5,6.64S184.32,75,181.41,75Zm0-1.46c2,0,3.25-2,3.25-5.3S183.36,63,181.41,63s-3.26,1.93-3.26,5.18S179.45,73.52,181.41,73.52Z"/><circle class="cls-3" cx="181.19" cy="69.43" r="41.72"/><circle class="cls-3" cx="181.19" cy="69.43" r="63.64"/><polygon class="cls-4" points="175.38 22.64 176.91 21.11 181.94 26.13 186.96 21.11 188.5 22.64 183.47 27.67 188.5 32.7 186.96 34.23 181.94 29.2 176.91 34.23 175.38 32.7 180.4 27.67 175.38 22.64"/><polygon class="cls-4" points="118.38 58.64 119.91 57.11 124.94 62.13 129.96 57.11 131.5 58.64 126.47 63.67 131.5 68.69 129.96 70.23 124.94 65.2 119.91 70.23 118.38 68.69 123.4 63.67 118.38 58.64"/><polygon class="cls-4" points="173.44 106.59 174.97 105.06 180 110.08 185.03 105.06 186.56 106.59 181.54 111.62 186.56 116.64 185.03 118.18 180 113.16 174.97 118.18 173.44 116.64 178.46 111.62 173.44 106.59"/><polygon class="cls-4" points="237.38 52.34 238.91 50.8 243.94 55.83 248.97 50.8 250.5 52.34 245.48 57.37 250.5 62.39 248.97 63.93 243.94 58.9 238.91 63.93 237.38 62.39 242.41 57.37 237.38 52.34"/><polygon class="cls-4" points="237.38 71.72 238.91 70.18 243.94 75.2 248.97 70.18 250.5 71.72 245.48 76.74 250.5 81.77 248.97 83.3 243.94 78.28 238.91 83.3 237.38 81.77 242.41 76.74 237.38 71.72"/><polygon class="cls-4" points="183.13 1.96 184.66 0.43 189.69 5.45 194.72 0.43 196.25 1.96 191.22 6.99 196.25 12.01 194.72 13.55 189.69 8.52 184.66 13.55 183.13 12.01 188.15 6.99 183.13 1.96"/><polygon class="cls-4" points="161.81 1.96 163.35 0.43 168.38 5.45 173.4 0.43 174.94 1.96 169.91 6.99 174.94 12.01 173.4 13.55 168.38 8.52 163.35 13.55 161.81 12.01 166.84 6.99 161.81 1.96"/><circle class="cls-1" cx="68.87" cy="69.43" r="18.38"/><path class="cls-2" d="M63.69,68.22c0-4.18,2-6.64,5-6.64s5,2.46,5,6.64S71.57,75,68.65,75,63.69,72.46,63.69,68.22Zm8.22,0c0-3.25-1.3-5.18-3.26-5.18S65.4,65,65.4,68.22s1.3,5.3,3.25,5.3S71.91,71.53,71.91,68.22Z"/><circle class="cls-3" cx="68.87" cy="69.43" r="41.72"/><circle class="cls-3" cx="68.87" cy="69.43" r="63.64"/><rect class="cls-4" x="71.34" width="12.94" height="12.94" rx="6.47"/><rect class="cls-4" x="52.66" width="12.94" height="12.94" rx="6.47"/><rect class="cls-4" y="72.34" width="12.94" height="12.94" rx="6.47" transform="translate(85.28 72.34) rotate(90)"/><rect class="cls-4" y="53.66" width="12.94" height="12.94" rx="6.47" transform="translate(66.59 53.66) rotate(90)"/><rect class="cls-4" x="62.34" y="21" width="12.94" height="12.94" rx="6.47"/><rect class="cls-4" x="118.34" y="44" width="12.94" height="12.94" rx="6.47"/><polygon class="cls-4" points="118.38 84.64 119.91 83.11 124.94 88.13 129.96 83.11 131.5 84.64 126.47 89.67 131.5 94.69 129.96 96.23 124.94 91.2 119.91 96.23 118.38 94.69 123.4 89.67 118.38 84.64"/><rect class="cls-4" x="118.34" y="70" width="12.94" height="12.94" rx="6.47"/><rect class="cls-4" x="62.34" y="105" width="12.94" height="12.94" rx="6.47"/></g></g></svg>