<svg xmlns="http://www.w3.org/2000/svg" viewBox="0 0 345.89 186.03"><defs><style>.cls-1{fill:#f1564e;}.cls-2{fill:#010101;}.cls-3{fill:none;stroke:#1a3d41;stroke-miterlimit:10;}.cls-4{fill:#437e7b;}</style></defs><g id="Layer_2" data-name="Layer 2"><g id="Layer_1-2" data-name="Layer 1"><circle class="cls-1" cx="92.5" cy="92.76" r="18.38"/><path class="cls-2" d="M82.66,93.61c0-4.16,2.42-6.7,5.79-6.7A4.84,4.84,0,0,1,92,88.49l-1,1a3.45,3.45,0,0,0-2.6-1.16c-2.46,0-4.08,2-4.08,5.2s1.62,5.29,4.08,5.29a3.76,3.76,0,0,0,2.9-1.42l1,1a5,5,0,0,1-4,1.87C85.1,100.31,82.66,97.83,82.66,93.61Z"/><path class="cls-2" d="M97.85,96.86v-9.5H94.46V86h5V97a1.73,1.73,0,0,0,1.89,2,4.25,4.25,0,0,0,1.8-.43l.41,1.22a5.76,5.76,0,0,1-2.56.57C99,100.31,97.85,99.13,97.85,96.86Z"/><circle class="cls-3" cx="92.5" cy="92.76" r="41.72"/><circle class="cls-3" cx="92.5" cy="92.76" r="86.26"/><circle class="cls-3" cx="92.5" cy="92.76" r="63.64"/><polygon class="cls-4" points="98.32 45.97 96.78 44.44 91.76 49.46 86.73 44.44 85.19 45.97 90.22 51 85.19 56.03 86.73 57.56 91.76 52.54 96.78 57.56 98.32 56.03 93.29 51 98.32 45.97"/><polygon class="cls-4" points="100.26 129.92 98.72 128.39 93.69 133.41 88.67 128.39 87.13 129.92 92.16 134.95 87.13 139.98 88.67 141.51 93.69 136.49 98.72 141.51 100.26 139.98 95.23 134.95 100.26 129.92"/><polygon class="cls-4" points="36.31 75.67 34.78 74.13 29.75 79.16 24.73 74.13 23.19 75.67 28.22 80.7 23.19 85.72 24.73 87.26 29.75 82.23 34.78 87.26 36.31 85.72 31.29 80.7 36.31 75.67"/><polygon class="cls-4" points="36.31 95.05 34.78 93.51 29.75 98.54 24.73 93.51 23.19 95.05 28.22 100.07 23.19 105.1 24.73 106.64 29.75 101.61 34.78 106.64 36.31 105.1 31.29 100.07 36.31 95.05"/><polygon class="cls-4" points="162.26 75.67 160.72 74.13 155.7 79.16 150.67 74.13 149.13 75.67 154.16 80.7 149.13 85.72 150.67 87.26 155.7 82.23 160.72 87.26 162.26 85.72 157.23 80.7 162.26 75.67"/><polygon class="cls-4" points="162.26 95.05 160.72 93.51 155.7 98.54 150.67 93.51 149.13 95.05 154.16 100.07 149.13 105.1 150.67 106.64 155.7 101.61 160.72 106.64 162.26 105.1 157.23 100.07 162.26 95.05"/><polygon class="cls-4" points="13.13 75.67 11.59 74.13 6.56 79.16 1.54 74.13 0 75.67 5.03 80.7 0 85.72 1.54 87.26 6.56 82.23 11.59 87.26 13.13 85.72 8.1 80.7 13.13 75.67"/><polygon class="cls-4" points="13.13 95.05 11.59 93.51 6.56 98.54 1.54 93.51 0 95.05 5.03 100.07 0 105.1 1.54 106.64 6.56 101.61 11.59 106.64 13.13 105.1 8.1 100.07 13.13 95.05"/><polygon class="cls-4" points="92.5 151.24 90.97 149.7 85.94 154.73 80.92 149.7 79.38 151.24 84.41 156.26 79.38 161.29 80.92 162.83 85.94 157.8 90.97 162.83 92.5 161.29 87.48 156.26 92.5 151.24"/><polygon class="cls-4" points="111.88 151.24 110.34 149.7 105.32 154.73 100.29 149.7 98.76 151.24 103.78 156.26 98.76 161.29 100.29 162.83 105.32 157.8 110.34 162.83 111.88 161.29 106.86 156.26 111.88 151.24"/><polygon class="cls-4" points="92.5 172.73 90.97 171.19 85.94 176.22 80.92 171.19 79.38 172.73 84.41 177.76 79.38 182.78 80.92 184.32 85.94 179.29 90.97 184.32 92.5 182.78 87.48 177.76 92.5 172.73"/><polygon class="cls-4" points="111.88 172.73 110.34 171.19 105.32 176.22 100.29 171.19 98.76 172.73 103.78 177.76 98.76 182.78 100.29 184.32 105.32 179.29 110.34 184.32 111.88 182.78 106.86 177.76 111.88 172.73"/><polygon class="cls-4" points="90.57 25.29 89.03 23.76 84 28.78 78.98 23.76 77.44 25.29 82.47 30.32 77.44 35.34 78.98 36.88 84 31.86 89.03 36.88 90.57 35.34 85.54 30.32 90.57 25.29"/><polygon class="cls-4" points="111.88 25.29 110.34 23.76 105.32 28.78 100.29 23.76 98.76 25.29 103.78 30.32 98.76 35.34 100.29 36.88 105.32 31.86 110.34 36.88 111.88 35.34 106.86 30.32 111.88 25.29"/><polygon class="cls-4" points="90.57 1.54 89.03 0 84 5.03 78.98 0 77.44 1.54 82.47 6.56 77.44 11.59 78.98 13.13 84 8.1 89.03 13.13 90.57 11.59 85.54 6.56 90.57 1.54"/><polygon class="cls-4" points="111.88 1.54 110.34 0 105.32 5.03 100.29 0 98.76 1.54 103.78 6.56 98.76 11.59 100.29 13.13 105.32 8.1 110.34 13.13 111.88 11.59 106.86 6.56 111.88 1.54"/><circle class="cls-1" cx="253.04" cy="93.18" r="18.69"/><path class="cls-2" d="M244.9,93.22c0-3.75,2.19-6,5.24-6a4.4,4.4,0,0,1,3.2,1.42l-.85,1a3.14,3.14,0,0,0-2.35-1.05c-2.23,0-3.69,1.79-3.69,4.7S247.91,98,250.14,98a3.36,3.36,0,0,0,2.62-1.28l.85.91A4.54,4.54,0,0,1,250,99.28C247.11,99.28,244.9,97,244.9,93.22Z"/><path class="cls-2" d="M258.64,96.16V87.58h-3.07v-1.2h4.54v9.89a1.57,1.57,0,0,0,1.71,1.78,4,4,0,0,0,1.62-.39l.38,1.1a5.23,5.23,0,0,1-2.32.52C259.65,99.28,258.64,98.21,258.64,96.16Z"/><circle class="cls-3" cx="253.04" cy="93.18" r="42.4"/><rect class="cls-4" x="247.29" y="44.31" width="12.94" height="12.94" rx="6.47"/><rect class="cls-4" x="247.29" y="129.11" width="12.94" height="12.94" rx="6.47"/><circle class="cls-3" cx="253.04" cy="93.18" r="86.24"/><circle class="cls-3" cx="253.04" cy="93.18" r="64.68"/><rect class="cls-4" x="237.23" y="150.67" width="12.94" height="12.94" rx="6.47"/><rect class="cls-4" x="255.91" y="150.67" width="12.94" height="12.94" rx="6.47"/><rect class="cls-4" x="237.23" y="173.09" width="12.94" height="12.94" rx="6.47"/><rect class="cls-4" x="255.91" y="173.09" width="12.94" height="12.94" rx="6.47"/><rect class="cls-4" x="310.54" y="94.62" width="12.94" height="12.94" rx="6.47"/><rect class="cls-4" x="310.54" y="77.37" width="12.94" height="12.94" rx="6.47"/><rect class="cls-4" x="332.95" y="94.62" width="12.94" height="12.94" rx="6.47"/><rect class="cls-4" x="332.95" y="77.37" width="12.94" height="12.94" rx="6.47"/><rect class="cls-4" x="183.73" y="92.05" width="12.94" height="12.94" rx="6.47"/><rect class="cls-4" x="183.73" y="74.8" width="12.94" height="12.94" rx="6.47"/><rect class="cls-4" x="255.91" y="22.75" width="12.94" height="12.94" rx="6.47"/><rect class="cls-4" x="237.23" y="22.75" width="12.94" height="12.94" rx="6.47"/><rect class="cls-4" x="255.91" y="0.33" width="12.94" height="12.94" rx="6.47"/><rect class="cls-4" x="237.23" y="0.33" width="12.94" height="12.94" rx="6.47"/><polygon class="cls-4" points="177.65 80.64 176.48 79.47 172.64 83.3 168.8 79.47 167.63 80.64 171.47 84.48 167.63 88.31 168.8 89.49 172.64 85.65 176.48 89.49 177.65 88.31 173.81 84.48 177.65 80.64"/><rect class="cls-4" x="168.22" y="91.54" width="9.88" height="9.88" rx="4.94"/></g></g></svg>