<svg xmlns="http://www.w3.org/2000/svg" viewBox="0 0 618.64 15.55"><defs><style>.cls-1{fill:none;}.cls-2{fill:#453d3a;}</style></defs><title>Asset 9</title><g id="Layer_2" data-name="Layer 2"><g id="Layer_2-2" data-name="Layer 2"><path class="cls-1" d="M309.32,2.7a5.08,5.08,0,1,0,5.1,5.07A5.08,5.08,0,0,0,309.32,2.7Zm0,8.22a3.15,3.15,0,1,1,3.16-3.15A3.16,3.16,0,0,1,309.32,10.92Z"/><path class="cls-2" d="M309.32,4.62a3.15,3.15,0,1,0,3.16,3.15A3.16,3.16,0,0,0,309.32,4.62Z"/><path class="cls-2" d="M309.32,0a7.78,7.78,0,1,0,7.79,7.77A7.8,7.8,0,0,0,309.32,0Zm0,12.85a5.08,5.08,0,1,1,5.1-5.08A5.08,5.08,0,0,1,309.32,12.85Z"/><path class="cls-2" d="M30.93,7.43A6.45,6.45,0,0,1,27,6.17a5.52,5.52,0,0,1-1.93-2.64,8,8,0,0,1-3.82,3.12,10.46,10.46,0,0,1-6-6.07C13.11,4.17,9.29,6,6,6.88a25.92,25.92,0,0,1-6,.88,25.11,25.11,0,0,1,6,.91c3.27.89,7.09,2.69,9.28,6.29a10.55,10.55,0,0,1,6-6.09A8.15,8.15,0,0,1,25.09,12a5.28,5.28,0,0,1,1.32-2.13A6.48,6.48,0,0,1,31,8.12Z"/><polygon class="cls-2" points="24.44 6.42 24.44 7.77 24.44 9.12 304.23 9.12 304.23 7.77 304.23 6.42 24.44 6.42"/><path class="cls-2" d="M612.63,6.88c-3.27-.91-7.1-2.71-9.29-6.3a10.44,10.44,0,0,1-6,6.07,8.09,8.09,0,0,1-3.83-3.12,5.39,5.39,0,0,1-1.93,2.64,6.42,6.42,0,0,1-3.9,1.26l0,.69a6.46,6.46,0,0,1,4.55,1.77A5.28,5.28,0,0,1,593.55,12a8.22,8.22,0,0,1,3.83-3.15,10.54,10.54,0,0,1,6,6.09c2.19-3.6,6-5.4,9.29-6.29a25,25,0,0,1,6-.91A25.81,25.81,0,0,1,612.63,6.88Z"/><rect class="cls-2" x="314.42" y="6.42" width="279.79" height="2.7"/></g></g></svg>