<svg xmlns="http://www.w3.org/2000/svg" viewBox="0 0 195.9 53.75"><defs><style>.cls-1{fill:#463e3b;}.cls-2{fill:#ece6db;}</style></defs><title>Asset 1</title><g id="Layer_2" data-name="Layer 2"><g id="Layer_1-2" data-name="Layer 1"><polygon class="cls-1" points="52.53 45.35 52.53 53.75 0 53.75 11.17 34.47 11.66 33.62 11.17 32.76 0 13.48 35.62 13.48 35.62 45.35 52.53 45.35"/><polygon class="cls-1" points="195.9 21.84 175.62 43.66 37.32 43.66 37.32 0 175.62 0 195.9 21.84"/><path class="cls-1" d="M175.62,43.66H37.32V0h138.3L195.9,21.84Z"/><path class="cls-2" d="M64.32,10.54h4.12V25.33h8.13v3.46H64.32Z"/><path class="cls-2" d="M79.68,21.84a7.08,7.08,0,0,1,7.22-7.28c4.29,0,6.54,2.9,6.54,6.67a11.38,11.38,0,0,1-.17,1.84H82.73V20.31h7.76l-.65.79c0-2.23-1-3.4-2.8-3.4-2,0-3.37,1.38-3.37,4.14S85.24,26,87.94,26a7.67,7.67,0,0,0,3.58-1l1.36,2.48a10.57,10.57,0,0,1-5.5,1.63C83.05,29.13,79.68,26.45,79.68,21.84Z"/><path class="cls-2" d="M96.42,27l1.75-2.57a10.6,10.6,0,0,0,5.61,1.64c1.52,0,2.2-.5,2.2-1.19s-.67-1.05-3.4-1.63c-3.78-.81-5.28-2.19-5.28-4.34,0-2.59,2.42-4.35,6.38-4.35a11.33,11.33,0,0,1,6,1.9l-1.85,2.47a9,9,0,0,0-4.54-1.32c-1.29,0-1.93.46-1.93,1.11s.86,1,3.21,1.48c4.29,1,5.48,2.18,5.48,4.44,0,2.52-2.4,4.49-6.86,4.49A12.91,12.91,0,0,1,96.42,27Z"/><path class="cls-2" d="M113.22,27,115,24.43a10.6,10.6,0,0,0,5.61,1.64c1.52,0,2.2-.5,2.2-1.19s-.67-1.05-3.4-1.63c-3.78-.81-5.28-2.19-5.28-4.34,0-2.59,2.42-4.35,6.38-4.35a11.33,11.33,0,0,1,6,1.9l-1.85,2.47a9,9,0,0,0-4.54-1.32c-1.29,0-1.93.46-1.93,1.11s.85,1,3.21,1.48c4.29,1,5.48,2.18,5.48,4.44,0,2.52-2.4,4.49-6.86,4.49A12.88,12.88,0,0,1,113.22,27Z"/><path class="cls-2" d="M129.85,21.85a7.09,7.09,0,1,1,14.17,0,7.09,7.09,0,1,1-14.17,0Zm10,0c0-2.41-1-4-2.86-4s-2.87,1.55-2.87,4,1,3.95,2.87,3.95S139.8,24.25,139.8,21.85Z"/><path class="cls-2" d="M147.35,14.9h3.36l.3,1.85h.11a6.76,6.76,0,0,1,4.8-2.19c3.14,0,4.52,2.15,4.52,5.65v8.58h-4.12v-8c0-1.85-.53-2.67-2-2.67a3.86,3.86,0,0,0-2.81,1.45v9.27h-4.13Z"/></g></g></svg>