<svg xmlns="http://www.w3.org/2000/svg" viewBox="0 0 148 148"><defs><style>.cls-1{fill:#c0d8c0;}.cls-2{fill:#1a3c40;}.cls-3{fill:#dd4a48;}.cls-4{fill:#ede6db;}.cls-5{fill:#fff;}.cls-6{fill:#8fbdd3;}</style></defs><title>Asset 10</title><g id="Layer_2" data-name="Layer 2"><g id="Layer_2-2" data-name="Layer 2"><circle class="cls-1" cx="74" cy="74" r="74"/><circle class="cls-2" cx="74" cy="74" r="69.07"/><circle class="cls-3" cx="74" cy="74" r="64.13"/><path class="cls-4" d="M44.28,119.14a.35.35,0,0,1-.16.06,2.2,2.2,0,0,1-1.84-.58,2.35,2.35,0,0,1-.86-1.79,2.63,2.63,0,0,1,.74-1.86,2.72,2.72,0,0,1,1.74-1,2.22,2.22,0,0,1,1.85.58,2.35,2.35,0,0,1,.9,1.75.22.22,0,0,1,0,.16,2.83,2.83,0,0,1-.53.21,3.09,3.09,0,0,1-.56.16.12.12,0,0,1-.08,0,2.14,2.14,0,0,1,0-.23,1.94,1.94,0,0,0-.11-.46,1.26,1.26,0,0,0-.35-.5,1,1,0,0,0-.9-.27,1.58,1.58,0,0,0-1.21,1.37,1.05,1.05,0,0,0,.36.87,1.42,1.42,0,0,0,.54.29,1.53,1.53,0,0,0,.45.06.61.61,0,0,1,.22,0,.08.08,0,0,1,0,.07,5,5,0,0,1-.07.55A2.25,2.25,0,0,1,44.28,119.14Z"/><path class="cls-4" d="M48.34,122.94a.12.12,0,0,1-.09.06l-.09,0c-.13-.08-.3-.19-.52-.35a6.17,6.17,0,0,1-.53-.4.11.11,0,0,1,0-.14c.11-.15.28-.38.52-.68l.52-.68q.07-.12,0-.18a6.28,6.28,0,0,0-.7-.53,5.34,5.34,0,0,0-.74-.49s-.1,0-.15.08l-.48.7c-.21.32-.36.55-.47.7a.12.12,0,0,1-.16.05c-.07,0-.26-.16-.56-.38a4.77,4.77,0,0,1-.5-.38.11.11,0,0,1,0-.15c.15-.21.39-.52.72-.94s.56-.72.71-.94.4-.57.7-1,.54-.82.7-1c0,0,.07,0,.11,0l.27.2.27.21.29.19.29.19s0,.06,0,.09-.27.36-.5.64-.4.49-.5.64-.06.12,0,.16a6.32,6.32,0,0,0,.74.56,6.09,6.09,0,0,0,.74.49c.06,0,.11,0,.16-.07s.24-.36.43-.65.34-.52.44-.66a.1.1,0,0,1,.14,0l.25.2.26.19.27.18.27.18c.05,0,.07.08,0,.13-.16.22-.41.56-.75,1s-.6.78-.76,1-.37.54-.65,1S48.49,122.73,48.34,122.94Z"/><path class="cls-4" d="M52.9,124.38a4.44,4.44,0,0,1-.33.47,2.06,2.06,0,0,1-.37.41.11.11,0,0,1-.13,0L52,125.2c-.14-.11-.59-.37-1.33-.79l-.71-.41-.72-.41c-.07,0-.09-.09,0-.15.13-.23.34-.58.64-1s.5-.81.63-1,.38-.69.72-1.36l.39-.77,0,0a.07.07,0,0,1,.12,0c.16.08.39.22.7.4s.53.32.69.41l.7.38.7.38c.11.06.15.14.12.23l-.2.47c-.12.25-.19.41-.22.46a.07.07,0,0,1-.1,0l-.07,0c-.53-.36-1-.67-1.46-.92a.27.27,0,0,0-.25,0,1.84,1.84,0,0,0-.15.24.56.56,0,0,0-.1.32c0,.06.07.11.17.17l.13.07.15.08.82.43.18.08.17.08s.07.07,0,.12-.09.1-.33.45c-.11.16-.21.32-.31.49s-.07,0-.13,0l-.26-.19c-.11-.08-.38-.24-.81-.49l-.33-.18c-.09,0-.15-.06-.19,0l-.11.2a1,1,0,0,0-.14.32c0,.1.09.23.32.37l.46.26c.11.06.28.15.51.25l.51.25S53,124.31,52.9,124.38Z"/><path class="cls-4" d="M58.09,127.79c0,.07-.08.09-.14.06l-1.18-.5c-.06,0-.08-.08-.05-.16s.25-.55.46-1,.36-.78.45-1c0-.06,0-.1,0-.12a10.79,10.79,0,0,0-.89.84c-.32.33-.65.65-1,1a.14.14,0,0,1-.12.06l-.13-.06c-.12,0-.18-.1-.18-.15,0-.29,0-.72,0-1.26s0-1,0-1.27a.11.11,0,0,0,0,0s-.05,0-.07.09c-.09.21-.23.54-.4,1s-.31.77-.4,1-.08.11-.14.08l-1.11-.48a.1.1,0,0,1-.08,0,.31.31,0,0,1,0-.08c.1-.24.27-.6.5-1.08s.4-.83.5-1.07.31-.74.59-1.46l.32-.83,0-.06s.07-.05.17,0l.55.23c.25.09.43.17.55.22s0,.07.05.18l0,2.55c0,.17,0,.27.09.29s.11,0,.26-.18l1.89-1.68c.08-.07.14-.1.18-.08l.29.13a2.37,2.37,0,0,0,.29.14l.26.09.26.1c.06,0,.09.06.06.12-.11.26-.28.64-.53,1.16s-.41.89-.53,1.16-.24.6-.43,1.09S58.19,127.55,58.09,127.79Z"/><path class="cls-4" d="M61.2,126.07c-.08.27-.21.68-.37,1.23s-.29,1-.38,1.22c0,0,0,.07-.06.08l-.09,0a5.12,5.12,0,0,1-.61-.16,4.78,4.78,0,0,1-.63-.24c-.06,0-.08-.08-.06-.14s.06-.16.22-.59c.35-.92.57-1.52.66-1.81s.19-.62.34-1.11.25-.87.33-1.11a.08.08,0,0,1,.11,0l.31.11.32.12.32.09.32.09c.06,0,.09.06.07.11-.08.25-.21.61-.4,1.09S61.28,125.82,61.2,126.07Z"/><path class="cls-4" d="M65.59,129.14a.28.28,0,0,1-.11.13,2.18,2.18,0,0,1-1.9.34A2.35,2.35,0,0,1,62,128.43a2.65,2.65,0,0,1-.22-2,2.75,2.75,0,0,1,1.1-1.65,2.24,2.24,0,0,1,1.91-.36,2.38,2.38,0,0,1,1.61,1.14.21.21,0,0,1,0,.16,2.07,2.07,0,0,1-.37.43,3.16,3.16,0,0,1-.42.41h-.08a1.73,1.73,0,0,1-.14-.19,1.8,1.8,0,0,0-.31-.35,1.27,1.27,0,0,0-.54-.28,1,1,0,0,0-.92.18,1.41,1.41,0,0,0-.5.81,1.44,1.44,0,0,0,.07,1,1,1,0,0,0,.72.59,1.26,1.26,0,0,0,.61,0,2,2,0,0,0,.43-.15c.12-.07.19-.1.2-.09s0,0,.07,0,.09.22.19.52A2,2,0,0,1,65.59,129.14Z"/><path class="cls-4" d="M70.86,130.62s0,.07-.11.08a4.13,4.13,0,0,1-.67-.06,5.65,5.65,0,0,1-.65-.12.2.2,0,0,1-.13-.18c0-.36-.07-.55-.12-.58s-.35-.07-1-.16a2.83,2.83,0,0,0-.65,0,.88.88,0,0,0-.19.36c-.08.19-.14.29-.21.3a5.93,5.93,0,0,1-.82-.08c-.37,0-.54-.11-.54-.18s.39-.79,1.13-2.18,1.24-2.33,1.31-2.48.08-.12.12-.12l.29.06.3.06.29,0,.28,0s.08,0,.11.14c.08.26.31,1.17.67,2.72S70.87,130.56,70.86,130.62ZM68.77,127a4.57,4.57,0,0,0-.35.64,4.78,4.78,0,0,0-.29.63c0,.05.07.08.21.1l.36.06c.16,0,.25,0,.27,0s0,0,0-.05a3.86,3.86,0,0,0-.08-.67A6.84,6.84,0,0,0,68.77,127Z"/><path class="cls-4" d="M74.85,130.92l-.8,0-.81,0-1.08-.06-.47,0c-.07,0-.1-.05-.1-.12,0-.26,0-.65.06-1.18s0-.91.06-1.17,0-.7,0-1.26,0-1,0-1.25c0-.06,0-.08.12-.08l.32,0,.32,0h.35a2.1,2.1,0,0,1,.36,0s0,0,0,.07v0c-.05.45-.11,1.13-.18,2l0,1c0,.31,0,.54,0,.68v.09s0,0,.06.05h2c.06,0,.1,0,.09.09a5.11,5.11,0,0,1-.13,1.06.12.12,0,0,1-.08.11A.63.63,0,0,1,74.85,130.92Z"/><path class="cls-4" d="M82,128.85a1.56,1.56,0,0,1-.32,1.14,2.2,2.2,0,0,1-1.6.65l-.26,0-.26,0a12.44,12.44,0,0,1-1.58.09c-.07,0-.11,0-.12-.1q0-.39-.06-1.17c0-.52,0-.91-.07-1.17s-.09-.8-.19-1.57c0-.19-.06-.49-.12-.88v0s0-.07.11-.09.35,0,.83-.09c.77-.08,1.21-.11,1.34-.12a2.83,2.83,0,0,1,1.34.16,1.26,1.26,0,0,1,.66,1.11.9.9,0,0,1-.09.46,1.68,1.68,0,0,1-.21.36q-.12.16-.12.15s0,0,.1.07a1,1,0,0,1,.44.42A1.47,1.47,0,0,1,82,128.85ZM80.23,127a.41.41,0,0,0-.35-.38,2.62,2.62,0,0,0-.57,0q-.39,0-.39.09a1.22,1.22,0,0,1,0,.21,1.1,1.1,0,0,0,0,.21c0,.24,0,.37.1.4a1.71,1.71,0,0,0,.46,0C80,127.44,80.26,127.27,80.23,127Zm.29,2a.43.43,0,0,0-.31-.41,1.57,1.57,0,0,0-.56,0,2,2,0,0,0-.5.08s0,.18,0,.45,0,.43.09.46a1.27,1.27,0,0,0,.52,0,1.89,1.89,0,0,0,.54-.11A.42.42,0,0,0,80.52,129Z"/><path class="cls-4" d="M87.33,126.81a2.63,2.63,0,0,1-.32,2,2.62,2.62,0,0,1-3.64.75,2.64,2.64,0,0,1-1.08-1.7,2.61,2.61,0,0,1,.32-2,2.59,2.59,0,0,1,3.63-.75A2.66,2.66,0,0,1,87.33,126.81Zm-1.34.27a1.31,1.31,0,0,0-.51-.84,1.13,1.13,0,0,0-.94-.21,1.09,1.09,0,0,0-.76.58,1.44,1.44,0,0,0,.35,1.8,1.15,1.15,0,0,0,.94.2,1.1,1.1,0,0,0,.77-.58A1.32,1.32,0,0,0,86,127.08Z"/><path class="cls-4" d="M91.74,122.8c.09.26.21.65.36,1.18l.36,1.19.76,2.26c0,.06,0,.1-.07.12l-.24.09-.25.09-.27.08-.27.07s-.11,0-.19-.06l-1.6-1.1-1-.7-.06,0a.11.11,0,0,0,0,.08c.09.27.23.66.42,1.19s.33.92.42,1.18c0,.08,0,.13,0,.15l-1.19.4a.09.09,0,0,1-.13-.07c-.09-.25-.2-.63-.34-1.13s-.26-.89-.34-1.14-.23-.65-.43-1.16-.34-.91-.42-1.17c0,0,0-.09.1-.12a4.76,4.76,0,0,0,.49-.19l.25-.13.26-.13s.08,0,.17.08l1.86,1.32.75.52a.27.27,0,0,0,.18.06s0-.11,0-.29-.22-.59-.4-1.06-.33-.84-.41-1.08q0-.12,0-.15l.62-.22.61-.23S91.72,122.72,91.74,122.8Z"/><path class="cls-4" d="M97.48,122.77a2.72,2.72,0,0,1,.17,2,2.25,2.25,0,0,1-1.22,1.38l-1,.5-.49.22-.49.21c-.06,0-.1,0-.13,0-.11-.24-.27-.6-.48-1.09s-.37-.86-.48-1.1-.3-.62-.56-1.11-.44-.86-.55-1.11c0,0,0-.09.05-.12s.4-.22.75-.39c.67-.31,1.11-.51,1.32-.58a2.8,2.8,0,0,1,1.4-.18,2.18,2.18,0,0,1,1,.52A2.65,2.65,0,0,1,97.48,122.77Zm-1.25.59a1.43,1.43,0,0,0-.76-.75,1.25,1.25,0,0,0-1,0c-.34.16-.48.28-.44.37l.27.59c.11.26.2.45.26.58s.15.32.28.57l.27.57c0,.09.24.06.59-.11a1.22,1.22,0,0,0,.72-.79A1.56,1.56,0,0,0,96.23,123.36Z"/><path class="cls-4" d="M99.22,121.6c.14.25.36.62.65,1.1s.52.86.66,1.11c0,0,0,.07,0,.09l-.08.06c-.13.09-.3.21-.53.34s-.5.27-.6.31a.11.11,0,0,1-.14,0l-.29-.57c-.45-.87-.75-1.43-.9-1.7l-.6-1c-.27-.44-.47-.77-.6-1a.08.08,0,0,1,0-.11l.3-.15.3-.16.28-.18.28-.17c.06,0,.11,0,.13,0,.13.22.31.56.55,1S99.09,121.38,99.22,121.6Z"/><path class="cls-4" d="M102.6,116.62c.15.23.38.57.67,1s.52.81.68,1l1.35,2a.1.1,0,0,1,0,.14l-.22.16-.21.15-.24.15-.24.15a.25.25,0,0,1-.19,0l-1.85-.62-1.19-.38h-.07a.13.13,0,0,0,0,.08c.15.23.4.57.73,1s.57.79.73,1c0,.07,0,.12,0,.16l-1,.71a.09.09,0,0,1-.15,0q-.23-.31-.63-1c-.28-.44-.49-.78-.64-1s-.4-.57-.74-1-.57-.77-.73-1c0,0,0-.09.07-.14a4.28,4.28,0,0,0,.41-.32l.21-.2a1.52,1.52,0,0,1,.22-.19s.08,0,.18,0l2.16.75.86.29a.25.25,0,0,0,.19,0s0-.11-.12-.26-.37-.51-.68-.92-.54-.71-.69-.92-.05-.12,0-.15.3-.21.53-.39l.53-.38S102.56,116.56,102.6,116.62Z"/><path class="cls-4" d="M109.74,116.84c.05,0,0,.09,0,.14a2.61,2.61,0,0,1-.35.2,3.11,3.11,0,0,1-.38.18,3.9,3.9,0,0,1-.89,1.18,2.4,2.4,0,0,1-1.87.64,2.53,2.53,0,0,1-1.76-.93,2.73,2.73,0,0,1-.73-1.88,2.43,2.43,0,0,1,.87-1.8,2.73,2.73,0,0,1,.92-.52,2,2,0,0,1,1,0,.34.34,0,0,1,.13,0,1.39,1.39,0,0,1,.09.61c0,.34,0,.53,0,.57h-.22a1.59,1.59,0,0,0-.45,0,1.31,1.31,0,0,0-.56.29,1,1,0,0,0-.38.87,1.46,1.46,0,0,0,.39.89,1.3,1.3,0,0,0,.84.5,1.14,1.14,0,0,0,.91-.32,2,2,0,0,0,.5-.68c-.05-.06-.2-.19-.44-.42a4.68,4.68,0,0,1-.44-.42s0-.07,0-.1l0,0,.25-.19a2.74,2.74,0,0,0,.26-.2l.25-.24.25-.24s.09,0,.14,0l.33.41.33.41c.21.23.53.57,1,1Z"/><path class="cls-4" d="M59.54,100.67l-.34.88q-.35.87-.72,2.1a12,12,0,0,0-.48,2,.47.47,0,0,0,0,.16c0,.51.16.46.58-.16q1.69-2.48,2.88-4.36l.52,0-3.32,5.32a1.23,1.23,0,0,1-.66.5.7.7,0,0,1-.72-.18,1.29,1.29,0,0,1-.32-1,10.06,10.06,0,0,1,.54-2.77,20.14,20.14,0,0,1,1-2.61l0-.06a.64.64,0,0,1,.74-.2C59.52,100.31,59.63,100.46,59.54,100.67Zm-.49-2.14a.73.73,0,0,1,.53-.19.79.79,0,0,1,.54.19.6.6,0,0,1,0,.93.8.8,0,0,1-.54.2.74.74,0,0,1-.53-.2.62.62,0,0,1,0-.93Z"/><path class="cls-4" d="M63.34,99.83a1.35,1.35,0,0,1,1.46.86,2.31,2.31,0,0,1-.45,2c-.09.12-.18.17-.27.14a.39.39,0,0,1-.22-.19c0-.1-.07-.17,0-.23.58-.89.73-1.47.43-1.74a1.06,1.06,0,0,0-.5-.14,1.14,1.14,0,0,0-.64.17,2.19,2.19,0,0,0-.54.46.94.94,0,0,0-.21.72,1.75,1.75,0,0,0,.38.95A13.44,13.44,0,0,1,64,105,8.45,8.45,0,0,0,66,103.44,12.38,12.38,0,0,0,68,101.19l.52,0a13.49,13.49,0,0,1-2.06,2.5,8.59,8.59,0,0,1-2.25,1.66,5.45,5.45,0,0,1-.38,5.38,3.32,3.32,0,0,1-1.19,1,3.51,3.51,0,0,1-1.63.43,2.46,2.46,0,0,1-2.12-.84A2.28,2.28,0,0,1,58.4,109a4.89,4.89,0,0,1,2.38-2.58,19.36,19.36,0,0,1,2-.94,14.91,14.91,0,0,0-1.2-2.18,2.13,2.13,0,0,1-.22-2.48A2.29,2.29,0,0,1,63.34,99.83Zm-.42,6.1a14.69,14.69,0,0,0-1.92.92,4.16,4.16,0,0,0-2.14,2.28,2,2,0,0,0,.32,1.94,1.54,1.54,0,0,0,1.2.66,2.2,2.2,0,0,0,1.71-.73,4.09,4.09,0,0,0,1.1-2.09A5.65,5.65,0,0,0,62.92,105.93Z"/><path class="cls-4" d="M81.37,94.42a3.77,3.77,0,0,1-.68,2A7.39,7.39,0,0,1,79,98.2a16,16,0,0,1-2,1.34,12.81,12.81,0,0,1-1.85.93,15.26,15.26,0,0,0-.87,4.22,16.26,16.26,0,0,0,.23,3.84c.06.35.16.54.32.56s.36-.17.58-.6a5.94,5.94,0,0,0,.56-3.64,1.47,1.47,0,0,1-1.1-.34,1.2,1.2,0,0,1-.38-.83,1.48,1.48,0,0,1,.12-.79.63.63,0,0,1,.54-.44c.24,0,.46.15.64.48a6.16,6.16,0,0,1,.54,1.36,3.06,3.06,0,0,0,1-.67,8.45,8.45,0,0,0,.85-.89c.22-.26.5-.61.82-1s.51-.66.55-.72l.38.26s-.23.29-.58.75-.64.83-.88,1.11a10.11,10.11,0,0,1-.93.94,3.35,3.35,0,0,1-1,.7,6.09,6.09,0,0,1-.36,3.92c-.46,1.06-.9,1.63-1.32,1.72-.82.23-1.38-.31-1.66-1.62a16.57,16.57,0,0,1,.16-7.3,21.33,21.33,0,0,1,3.26-7.21,5.78,5.78,0,0,1,1.28-1.34,2.82,2.82,0,0,1,1.7-.62,1.57,1.57,0,0,1,1.3.61A2.1,2.1,0,0,1,81.37,94.42Zm-6.28,8.65a1,1,0,0,0,.14,1.1.91.91,0,0,0,.72.24,4.44,4.44,0,0,0-.58-1.4C75.25,102.84,75.16,102.86,75.09,103.07ZM79.91,93q-1,0-2.1,1.92a35.2,35.2,0,0,0-2.36,4.9,14.93,14.93,0,0,0,1.65-.89,18.07,18.07,0,0,0,1.73-1.24,6.93,6.93,0,0,0,1.45-1.58,3.23,3.23,0,0,0,.59-1.71,1.6,1.6,0,0,0-.25-1A.81.81,0,0,0,79.91,93Z"/><path class="cls-4" d="M83.65,100.67l-.32.66a14.75,14.75,0,0,0-.72,1.69,9.22,9.22,0,0,0-.48,1.75.78.78,0,0,0,0,.38c0,.22.27.06.7-.48q1.2-1.53,2.74-3.42l.48,0-3.16,4.38a1.18,1.18,0,0,1-.67.5.73.73,0,0,1-.74-.18,1.29,1.29,0,0,1-.33-1,5.44,5.44,0,0,1,.18-1.34,9.76,9.76,0,0,1-.58.84q-.19.27-.6.75a2.81,2.81,0,0,1-.76.7,1.18,1.18,0,0,1-.7.19c-.5,0-.77-.35-.8-1a8.33,8.33,0,0,1,.7-2.29,18.91,18.91,0,0,0,.84-2.38.32.32,0,0,1,.31-.16.85.85,0,0,1,.47.14c.16.11.23.21.2.31a14,14,0,0,1-.69,2c-.35.88-.62,1.59-.8,2.13s-.17.8,0,.76a2.11,2.11,0,0,0,1-.84,22.41,22.41,0,0,0,2.58-4.22.15.15,0,0,0,0-.06.65.65,0,0,1,.74-.2C83.64,100.31,83.74,100.46,83.65,100.67Z"/><path class="cls-4" d="M89.39,100.93a5.2,5.2,0,0,1-.33,1.83,15.15,15.15,0,0,0-.47,1.85.76.76,0,0,0,0,.42q.14.24.6-.42c1-1.42,1.69-2.55,2.18-3.38h.48c-1.25,2.19-2.13,3.63-2.62,4.32a1.3,1.3,0,0,1-.66.5.66.66,0,0,1-.72-.14,1.34,1.34,0,0,1-.32-1,6.79,6.79,0,0,1,.34-1.66c.39-1.36.59-2.1.62-2.24,0-.3,0-.43-.18-.38a2.1,2.1,0,0,0-.94.92,20.66,20.66,0,0,0-1.94,3.84.78.78,0,0,1-.12.22c-.24.42-.52.6-.84.56s-.41-.22-.34-.56.28-1.23.68-2.66a20.44,20.44,0,0,1,.9-2.44l0,0a.62.62,0,0,1,.74-.19c.31.08.41.23.32.44l-.82,2c0,.07-.07.21-.14.41l-.16.49q.83-1.62,1.26-2.28c.55-.8,1.06-1.21,1.54-1.23a.65.65,0,0,1,.62.24A1.38,1.38,0,0,1,89.39,100.93Z"/><rect class="cls-1" x="30.89" y="102.38" width="21.82" height="0.81"/><rect class="cls-1" x="38.97" y="40.16" width="71.94" height="0.81"/><rect class="cls-1" x="95.55" y="102.38" width="15.36" height="0.81"/><path class="cls-5" d="M38.1,35.54c0,.19,0,.47,0,.85s0,.67,0,.86a.08.08,0,0,1,0,.06H38l-.41,0a3.43,3.43,0,0,1-.45,0,.08.08,0,0,1-.07-.08s0-.11,0-.42c0-.65,0-1.08,0-1.28s0-.43,0-.77,0-.61,0-.78a0,0,0,0,1,0-.05h.9s.07,0,.07.05,0,.43,0,.78S38.1,35.37,38.1,35.54Z"/><path class="cls-5" d="M41.81,34c0,.19,0,.46,0,.83s0,.64,0,.83v1.58s0,.07-.07.07H41s-.06,0-.1-.08l-.78-1-.51-.66s0,0,0,0,0,0,0,.05,0,.46,0,.84,0,.65,0,.83,0,.09-.07.09h-.83s-.07,0-.07-.08,0-.43,0-.78,0-.61,0-.79,0-.46,0-.83,0-.64,0-.82,0-.06.09-.06a2.18,2.18,0,0,0,.34,0l.19,0,.2,0,.08.08.9,1.23c.08.11.2.28.37.49,0,.05.07.08.1.08s0-.07,0-.19,0-.43,0-.76,0-.6,0-.77,0-.09,0-.09h.87S41.81,34,41.81,34Z"/><path class="cls-5" d="M44.61,34.68s0,0,0,0l-.73,0c0,.4,0,.69,0,.85s0,.47,0,.85,0,.67,0,.86a.08.08,0,0,1,0,.06h-.07l-.42,0-.44,0a.07.07,0,0,1-.06-.08c0-.19,0-.47,0-.85s0-.66,0-.85,0-.41,0-.84c-.32,0-.57,0-.76,0,0,0,0,0,0,0a1.5,1.5,0,0,1,0-.18,1,1,0,0,0,0-.21c0-.07,0-.15,0-.22s0-.18.06-.18h0a10.75,10.75,0,0,0,1.16,0l.8,0,.31,0h.06a.1.1,0,0,1,0,0,1.21,1.21,0,0,1,0,.18v.18a1.36,1.36,0,0,0,0,.18C44.6,34.58,44.61,34.64,44.61,34.68Z"/><path class="cls-5" d="M47.33,36.57a2.53,2.53,0,0,1,0,.38,1.18,1.18,0,0,1-.08.36.08.08,0,0,1-.07,0h-.08a9.32,9.32,0,0,0-1,0h-1.1c-.06,0-.08,0-.08-.07s0-.45,0-.81,0-.63,0-.81,0-.53,0-1c0-.12,0-.32,0-.57v0s0-.05.06-.05h2.13a.14.14,0,0,1,.15.09s0,.15,0,.34,0,.3,0,.34a0,0,0,0,1,0,0h-.05c-.43,0-.81,0-1.15,0-.09,0-.14,0-.16.06a.63.63,0,0,0,0,.18.37.37,0,0,0,0,.22s.08,0,.15,0h.21l.62,0h.26s.06,0,.06,0a2.1,2.1,0,0,0,0,.37,2.55,2.55,0,0,0,0,.39s0,.05-.07.05l-.22,0H46c-.07,0-.11,0-.12,0v.14a1,1,0,0,0,0,.24c0,.06.13.1.31.11h.35l.38,0,.38,0S47.33,36.51,47.33,36.57Z"/><path class="cls-5" d="M50.52,37.29s0,0,0,0h-.95l0-.05-.1-.28c-.06-.16-.16-.4-.3-.71a.2.2,0,0,0-.2-.1h-.24s0,0,0,.12,0,.27,0,.49,0,.38,0,.49a.06.06,0,0,1,0,0h-.93a.08.08,0,0,1-.07-.08c0-.17,0-.44,0-.8s0-.62,0-.8c0-.68,0-1.21,0-1.59v0s0-.05.07-.06l.74,0h.71a1.53,1.53,0,0,1,.89.25.93.93,0,0,1,.4.81,1.44,1.44,0,0,1-.1.56A1.2,1.2,0,0,1,50,36a.1.1,0,0,0-.05.07s.1.2.29.61A3.71,3.71,0,0,1,50.52,37.29Zm-1-2.16a.42.42,0,0,0-.19-.4,1,1,0,0,0-.47-.09c-.15,0-.23,0-.24.07a4.53,4.53,0,0,0,0,.47v.33s0,0,.08,0a1.56,1.56,0,0,0,.31,0C49.34,35.55,49.51,35.41,49.51,35.13Z"/><path class="cls-5" d="M53.26,36.57a2.53,2.53,0,0,1,0,.38,1.94,1.94,0,0,1-.07.36.1.1,0,0,1-.08,0H53a9.32,9.32,0,0,0-1,0h-1.1c-.06,0-.08,0-.08-.07s0-.45,0-.81,0-.63,0-.81,0-.53,0-1c0-.12,0-.32,0-.57v0s0-.05.06-.05H53c.09,0,.13,0,.15.09s0,.15,0,.34,0,.3,0,.34a0,0,0,0,1,0,0h0c-.43,0-.81,0-1.15,0-.09,0-.14,0-.16.06a.63.63,0,0,0,0,.18.37.37,0,0,0,0,.22.21.21,0,0,0,.15,0h.21l.62,0h.26s.06,0,.06,0a2.1,2.1,0,0,0,0,.37,2.55,2.55,0,0,0,0,.39S53,36,53,36l-.22,0h-.88c-.07,0-.11,0-.12,0v.14a1,1,0,0,0,0,.24c0,.06.13.1.31.11h.35l.38,0,.38,0S53.26,36.51,53.26,36.57Z"/><path class="cls-5" d="M56.4,36.77a.25.25,0,0,1,0,.11,1.47,1.47,0,0,1-1.18.52A1.58,1.58,0,0,1,54,36.89a1.8,1.8,0,0,1-.46-1.25,1.85,1.85,0,0,1,.45-1.25,1.51,1.51,0,0,1,1.18-.53,1.6,1.6,0,0,1,1.23.48.16.16,0,0,1,0,.09,1.54,1.54,0,0,1-.17.34,1.51,1.51,0,0,1-.21.33.06.06,0,0,1-.05,0L55.85,35a1,1,0,0,0-.26-.18.78.78,0,0,0-.39-.1.7.7,0,0,0-.57.26,1,1,0,0,0-.19.61,1,1,0,0,0,.19.61.68.68,0,0,0,.57.27.93.93,0,0,0,.4-.09,1.11,1.11,0,0,0,.25-.17l.11-.09a.05.05,0,0,1,0,0,2.71,2.71,0,0,1,.21.3A2.5,2.5,0,0,1,56.4,36.77Z"/><path class="cls-5" d="M59,34.68s0,0,0,0l-.72,0c0,.4,0,.69,0,.85s0,.47,0,.85,0,.67,0,.86a.08.08,0,0,1,0,.06h-.07l-.43,0-.43,0c-.05,0-.07,0-.07-.08s0-.47,0-.85,0-.66,0-.85,0-.41,0-.84c-.32,0-.58,0-.77,0,0,0,0,0,0,0a.84.84,0,0,1,0-.18c0-.11,0-.18,0-.21a1.64,1.64,0,0,1,0-.22c0-.12,0-.18,0-.18h0a10.54,10.54,0,0,0,1.15,0l.8,0,.32,0s0,0,0,0,0,0,0,0v.18a1.53,1.53,0,0,0,0,.18s0,.1,0,.18A1.36,1.36,0,0,1,59,34.68Z"/><path class="cls-5" d="M60.24,35.54c0,.19,0,.47,0,.85s0,.67,0,.86a.08.08,0,0,1,0,.06h-.07l-.41,0a3.43,3.43,0,0,1-.45,0,.08.08,0,0,1-.07-.08s0-.11,0-.42c0-.65,0-1.08,0-1.28s0-.43,0-.77,0-.61,0-.78a0,0,0,0,1,0-.05h.9s.07,0,.07.05,0,.43,0,.78S60.24,35.37,60.24,35.54Z"/><path class="cls-5" d="M62.09,37.33h-.37a.13.13,0,0,1-.08-.07l-.55-1.09a4.91,4.91,0,0,1-.43-1c0-.12,0-.31,0-.57s0-.44,0-.57,0-.09,0-.09h.88s.06,0,.06,0,0,.33,0,.59,0,.46,0,.59a4.76,4.76,0,0,0,.48,1.06c.09-.15.19-.35.31-.58a2.07,2.07,0,0,0,.22-.57v-.53c0-.24,0-.41,0-.53s0-.07,0-.07h.08l.4,0h.4s.08,0,.08.06,0,.31,0,.56,0,.43,0,.56a5.32,5.32,0,0,1-.47,1.1c-.13.23-.31.57-.54,1l0,.06h-.44Z"/><path class="cls-5" d="M66.42,36.57c0,.07,0,.2,0,.38a1.63,1.63,0,0,1-.08.36.1.1,0,0,1-.08,0h-.07a9.56,9.56,0,0,0-1,0H64s-.08,0-.08-.07,0-.45,0-.81,0-.63,0-.81,0-.53,0-1c0-.12,0-.32,0-.57v0s0-.05.06-.05h2.14c.08,0,.13,0,.14.09s0,.15,0,.34a3.09,3.09,0,0,1,0,.34s0,0,0,0h-.06c-.42,0-.81,0-1.15,0q-.12,0-.15.06a.48.48,0,0,0,0,.18.37.37,0,0,0,0,.22.22.22,0,0,0,.16,0h.21l.61,0h.27a0,0,0,0,1,0,0s0,.09,0,.37c0,.13,0,.26,0,.39s0,.05-.07.05l-.22,0H65c-.06,0-.1,0-.11,0a.79.79,0,0,0,0,.14.56.56,0,0,0,0,.24c0,.06.13.1.31.11h.35l.38,0,.38,0S66.42,36.51,66.42,36.57Z"/><path class="cls-5" d="M70.19,37.36H68.08s-.07,0-.07-.08v-.78c0-.35,0-.61,0-.79s0-.46,0-.84,0-.65,0-.83,0-.06.07-.06H69s0,0,0,.05v0c0,.3,0,.75-.06,1.36v1.14a0,0,0,0,0,0,0H69l.65,0,.65,0s.07,0,.07.06a3.69,3.69,0,0,1-.06.71.1.1,0,0,1-.06.08Z"/><path class="cls-5" d="M73.14,36.57c0,.07,0,.2,0,.38a1.63,1.63,0,0,1-.08.36.1.1,0,0,1-.08,0h-.07a9.56,9.56,0,0,0-1,0h-1.1s-.08,0-.08-.07,0-.45,0-.81,0-.63,0-.81,0-.53,0-1c0-.12,0-.32,0-.57v0s0-.05.06-.05h2.13q.14,0,.15.09s0,.15,0,.34,0,.3,0,.34,0,0,0,0H73c-.42,0-.81,0-1.15,0-.08,0-.14,0-.15.06a.48.48,0,0,0,0,.18.37.37,0,0,0,0,.22.22.22,0,0,0,.16,0h.21l.61,0h.26s.06,0,.06,0,0,.09,0,.37c0,.13,0,.26,0,.39s0,.05-.07.05l-.22,0h-.88c-.06,0-.1,0-.11,0s0,.05,0,.14a.56.56,0,0,0,0,.24c0,.06.13.1.31.11h.35l.38,0,.37,0S73.14,36.51,73.14,36.57Z"/><path class="cls-5" d="M76.63,37.26s0,.05-.06.06a2.9,2.9,0,0,1-.44,0,3.68,3.68,0,0,1-.45,0,.13.13,0,0,1-.1-.11,1.06,1.06,0,0,0-.13-.37,5,5,0,0,0-.64,0,2.39,2.39,0,0,0-.44,0,.65.65,0,0,0-.09.26c0,.14-.07.21-.11.22a4.69,4.69,0,0,1-.55,0c-.25,0-.37,0-.37-.07s.18-.56.54-1.54.61-1.65.65-1.76,0-.09.06-.09h.2l.21,0h.38s.06,0,.08.08.31.74.69,1.73S76.63,37.22,76.63,37.26Zm-1.7-2.2c0,.08-.09.23-.17.46a2.08,2.08,0,0,0-.13.45s0,0,.14,0H75c.1,0,.16,0,.17,0v0a2.55,2.55,0,0,0-.11-.44C75,35.28,75,35.13,74.93,35.06Z"/><path class="cls-5" d="M79.75,37.29s0,0,0,0h-1a.11.11,0,0,1,0-.05L78.61,37c-.06-.16-.16-.4-.29-.71a.21.21,0,0,0-.2-.1h-.25s0,0,0,.12,0,.27,0,.49,0,.38,0,.49a0,0,0,0,1,0,0H77a.08.08,0,0,1-.07-.08c0-.17,0-.44,0-.8s0-.62,0-.8c0-.68,0-1.21-.05-1.59v0s0-.05.08-.06l.73,0h.71a1.55,1.55,0,0,1,.9.25.94.94,0,0,1,.39.81,1.28,1.28,0,0,1-.1.56,1.16,1.16,0,0,1-.37.41.1.1,0,0,0-.06.07l.3.61A4.89,4.89,0,0,1,79.75,37.29Zm-1-2.16a.42.42,0,0,0-.19-.4,1,1,0,0,0-.47-.09c-.15,0-.23,0-.24.07a3.47,3.47,0,0,0,0,.47v.17a1,1,0,0,1,0,.16s0,0,.07,0a1.56,1.56,0,0,0,.31,0C78.56,35.55,78.74,35.41,78.74,35.13Z"/><path class="cls-5" d="M83.25,34c0,.19,0,.46,0,.83s0,.64,0,.83v1.58s0,.07-.07.07h-.72s-.07,0-.11-.08-.37-.5-.78-1l-.5-.66,0,0a.06.06,0,0,0,0,.05c0,.18,0,.46,0,.84s0,.65,0,.83,0,.09-.06.09h-.84a.07.07,0,0,1-.07-.08q0-.26,0-.78c0-.35,0-.61,0-.79s0-.46,0-.83,0-.64,0-.82,0-.06.09-.06a2.3,2.3,0,0,0,.35,0l.19,0,.19,0s.05,0,.09.08l.9,1.23.36.49c0,.05.07.08.1.08s0-.07,0-.19,0-.43,0-.76,0-.6,0-.77,0-.09,0-.09h.87S83.25,34,83.25,34Z"/><path class="cls-5" d="M84.67,35.54c0,.19,0,.47,0,.85s0,.67,0,.86a.08.08,0,0,1,0,.06h-.06l-.42,0a3.43,3.43,0,0,1-.45,0,.08.08,0,0,1-.07-.08s0-.11,0-.42c0-.65,0-1.08,0-1.28s0-.43,0-.77,0-.61,0-.78,0-.05.06-.05h.89s.07,0,.07.05,0,.43,0,.78S84.67,35.37,84.67,35.54Z"/><path class="cls-5" d="M88.39,34c0,.19,0,.46,0,.83s0,.64,0,.83v1.58s0,.07-.07.07h-.72s-.07,0-.11-.08-.37-.5-.78-1l-.5-.66,0,0a.06.06,0,0,0,0,.05c0,.18,0,.46,0,.84s0,.65,0,.83,0,.09-.06.09h-.84a.07.07,0,0,1-.07-.08q0-.26,0-.78c0-.35,0-.61,0-.79s0-.46,0-.83,0-.64,0-.82,0-.06.09-.06a2.3,2.3,0,0,0,.35,0l.19,0,.19,0s.05,0,.09.08L87,35.2l.36.49c0,.05.07.08.1.08s0-.07,0-.19,0-.43,0-.76,0-.6,0-.77,0-.09,0-.09h.87S88.39,34,88.39,34Z"/><path class="cls-5" d="M92,37.24s0,.07-.07.07l-.27-.06-.26-.07a2.71,2.71,0,0,1-1,.2,1.62,1.62,0,0,1-1.22-.5,1.67,1.67,0,0,1-.47-1.23,1.84,1.84,0,0,1,.45-1.27,1.59,1.59,0,0,1,1.23-.52,1.81,1.81,0,0,1,.69.14,1.39,1.39,0,0,1,.55.43.16.16,0,0,1,0,.09s-.07.16-.22.34-.23.27-.27.27a.43.43,0,0,1-.12-.1.69.69,0,0,0-.24-.18.77.77,0,0,0-.4-.1.68.68,0,0,0-.57.27.91.91,0,0,0-.2.62.92.92,0,0,0,.2.62.75.75,0,0,0,.6.24,1.51,1.51,0,0,0,.55-.13s0-.19,0-.4a3.58,3.58,0,0,1,0-.41s0-.05,0-.05h0l.21,0h.67s.06,0,.06.08,0,.19,0,.35,0,.27,0,.35,0,.51,0,.93Z"/><path class="cls-5" d="M97.17,37.24a.07.07,0,0,1-.07.08h-.86s-.07,0-.07-.09,0-.4,0-.73,0-.56,0-.73,0-.07,0-.07a5.58,5.58,0,0,0-.32.74c-.12.29-.23.58-.35.86q0,.06-.06.06h-.1c-.08,0-.13,0-.15,0s-.2-.43-.34-.77-.26-.62-.34-.78l0,0a.12.12,0,0,0,0,.07c0,.16,0,.39,0,.71s0,.55,0,.7,0,.09-.07.09h-.8s-.06,0-.06,0a.07.07,0,0,1,0,0c0-.18,0-.44,0-.79s0-.61,0-.79,0-.53,0-1.05c0-.13,0-.33,0-.59v0s0-.05.1-.05h.79s0,0,.08.1l.7,1.55c0,.1.09.15.13.15s.05-.06.11-.18L96.21,34c0-.06.06-.1.09-.1h.79s.07,0,.07,0,0,.48,0,.85,0,.66,0,.85,0,.44,0,.79S97.17,37.07,97.17,37.24Z"/><path class="cls-5" d="M101,35.63a1.77,1.77,0,0,1-.48,1.26,1.61,1.61,0,0,1-1.24.52A1.65,1.65,0,0,1,98,36.89a1.89,1.89,0,0,1,0-2.52,1.73,1.73,0,0,1,2.47,0A1.8,1.8,0,0,1,101,35.63Zm-.91,0a.91.91,0,0,0-.22-.62.76.76,0,0,0-.59-.26.74.74,0,0,0-.57.27,1,1,0,0,0,0,1.23.79.79,0,0,0,1.17,0A.88.88,0,0,0,100.05,35.63Z"/><path class="cls-5" d="M104.46,35.61a1.83,1.83,0,0,1-.45,1.23,1.51,1.51,0,0,1-1.13.49H101.4c-.05,0-.07,0-.07-.06s0-.44,0-.79,0-.62,0-.8,0-.46,0-.83,0-.64,0-.83c0,0,0,0,.07-.06l.56,0a9.08,9.08,0,0,1,1,0,1.74,1.74,0,0,1,.9.29,1.46,1.46,0,0,1,.48.6A1.85,1.85,0,0,1,104.46,35.61Zm-.92,0a.92.92,0,0,0-.24-.66.85.85,0,0,0-.65-.27c-.25,0-.37,0-.37.1s0,.24,0,.42v.85c0,.19,0,.33,0,.43s.12.1.38.1a.81.81,0,0,0,.66-.28A1,1,0,0,0,103.54,35.61Z"/><path class="cls-5" d="M107.71,36.14a1.71,1.71,0,0,1-.14.83c-.18.28-.63.41-1.35.41a3,3,0,0,1-.75-.07.73.73,0,0,1-.54-.46,1.63,1.63,0,0,1-.07-.59c0-.07,0-.17,0-.3s0-.22,0-.29,0-.46,0-.84,0-.65,0-.83,0-.06,0-.06h.88a.05.05,0,0,1,.06.06c0,.21,0,.53,0,.95s0,.74,0,1a1.16,1.16,0,0,0,.08.51.48.48,0,0,0,.45.18.43.43,0,0,0,.49-.48c0-.23,0-.58,0-1s0-.82,0-1.05c0,0,0-.08.06-.08h.85s.07,0,.07.06,0,.46,0,.83,0,.65,0,.84v.47Z"/><path class="cls-5" d="M110.4,37.36h-2.11c-.05,0-.07,0-.07-.08s0-.43,0-.78,0-.61,0-.79,0-.46,0-.84,0-.65,0-.83,0-.06.08-.06h.9s0,0,0,.05v0c0,.3,0,.75-.07,1.36v1.14a0,0,0,0,0,0,0h.06l.65,0,.65,0a.05.05,0,0,1,.06.06,3.69,3.69,0,0,1-.06.71s0,.07,0,.08Z"/><path class="cls-5" d="M113.35,36.57a2.53,2.53,0,0,1,0,.38,1.18,1.18,0,0,1-.08.36.08.08,0,0,1-.08,0h-.07a9.32,9.32,0,0,0-1,0H111c-.06,0-.08,0-.08-.07s0-.45,0-.81,0-.63,0-.81,0-.53,0-1c0-.12,0-.32,0-.57v0s0-.05.06-.05h2.13a.14.14,0,0,1,.15.09s0,.15,0,.34,0,.3,0,.34a0,0,0,0,1,0,0h0c-.43,0-.81,0-1.15,0-.09,0-.14,0-.16.06a.63.63,0,0,0,0,.18.37.37,0,0,0,0,.22s.08,0,.15,0h.21l.62,0h.26s.06,0,.06,0a2.41,2.41,0,0,0,0,.37c0,.13,0,.26,0,.39s0,.05-.07.05l-.22,0H112c-.07,0-.11,0-.12,0v.14a1,1,0,0,0,0,.24c0,.06.13.1.31.11h.35l.38,0,.38,0S113.35,36.51,113.35,36.57Z"/><rect class="cls-6" x="72.9" y="22.05" width="4.33" height="4.33" transform="translate(4.86 60.17) rotate(-45)"/><rect class="cls-6" x="66.75" y="22.82" width="2.79" height="2.79" transform="translate(2.84 55.28) rotate(-45)"/><rect class="cls-6" x="80.82" y="22.82" width="2.79" height="2.79" transform="translate(6.96 65.23) rotate(-45.01)"/><rect class="cls-6" x="72.9" y="114.09" width="4.33" height="4.33" transform="translate(-60.22 87.13) rotate(-45)"/><rect class="cls-6" x="66.75" y="114.86" width="2.79" height="2.79" transform="translate(-62.25 82.25) rotate(-45.01)"/><rect class="cls-6" x="80.82" y="114.86" width="2.79" height="2.79" transform="translate(-58.13 92.18) rotate(-45)"/><path class="cls-4" d="M38.8,45.69a6.3,6.3,0,0,1,3,.77,4.33,4.33,0,0,1,2,2.29,6.27,6.27,0,0,1-.22,5.63,10,10,0,0,1-4.42,4.07q-4.61,2.27-10.94-.7A38.32,38.32,0,0,0,24,68.15q-2,8-.14,13.93T30.19,88q4.39,0,8.83-5.08a59.62,59.62,0,0,0,8.36-13.42l1.18.05a59.67,59.67,0,0,1-9.17,15.28Q34.44,90.48,29,90.47a8.63,8.63,0,0,1-5.24-1.71,11.59,11.59,0,0,1-3.69-4.88q-2.88-6.52-.83-15.83A37.15,37.15,0,0,1,24.4,55.64c-.08-.07-.72-.51-1.92-1.31S20.45,53,20,52.8a15.61,15.61,0,0,0-2-.76,4.79,4.79,0,0,0-2.38-.22c-.47.06-.76.57-.87,1.51a3.2,3.2,0,0,1-.51,1.75c-.63.61-1.22.69-1.79.26a1.75,1.75,0,0,1-.61-1.86,4.14,4.14,0,0,1,2.72-2.92,5,5,0,0,1,3.42,0,42.57,42.57,0,0,1,7.36,3.72c.52-.7,1.06-1.39,1.61-2.06Q32.67,45.68,38.8,45.69Zm.55,3q-2.09,0-5,2.14a21.23,21.23,0,0,0-5.14,5.4,14.21,14.21,0,0,0,5.35,1.41,8,8,0,0,0,6-2.16,5.78,5.78,0,0,0,1.79-2.87A3.25,3.25,0,0,0,42,49.86,3,3,0,0,0,39.35,48.7Z"/><path class="cls-4" d="M57.81,47a3.3,3.3,0,0,1,2.53,1.64,6.3,6.3,0,0,1,1,3.74,11.32,11.32,0,0,1-1.34,5,17.67,17.67,0,0,1-3.27,4.5,36.09,36.09,0,0,1-3.87,3.39,26.21,26.21,0,0,1-3.64,2.34A42.9,42.9,0,0,0,47.5,77.8a48.56,48.56,0,0,1,3.15-8.09q1.6-3,3.14-3.12A1.23,1.23,0,0,1,55,67.2a3.78,3.78,0,0,1,.51,1.61,15.85,15.85,0,0,1-.64,4.59A44.9,44.9,0,0,0,54,78.05c0,.34,0,.62,0,.86.05.9.47.62,1.26-.86q2.84-5.37,4.29-8.49h.9q-3.86,8.59-5.11,10.86A2.79,2.79,0,0,1,54,81.67a1.13,1.13,0,0,1-1.42-.35,4,4,0,0,1-.62-2.61,24.1,24.1,0,0,1,.78-4.63,40.64,40.64,0,0,0,1.1-5.58c0-.43-.11-.6-.35-.5a4.61,4.61,0,0,0-1.89,2.26,53.6,53.6,0,0,0-3.34,8.95l-.28,1a1.44,1.44,0,0,1-.84,1.15c-.46.2-.78.17-1-.1a4.69,4.69,0,0,1-.86-2.81q-.4-4,2.08-13.75t5.51-14.4Q55.06,46.89,57.81,47Zm.63,1.81c-1.24,0-2.6,1.61-4.1,4.83A101.33,101.33,0,0,0,49.66,66a26.08,26.08,0,0,0,3.25-2.24,35.07,35.07,0,0,0,3.4-3.11,16.06,16.06,0,0,0,2.85-4,9.67,9.67,0,0,0,1.16-4.3,5,5,0,0,0-.49-2.46A1.58,1.58,0,0,0,58.44,48.85Z"/><path class="cls-4" d="M62.76,67.3c2,.07,2.73,1.09,2.21,3.06a7.46,7.46,0,0,1-2.21,3.47,9.69,9.69,0,0,1-3.42,2.26c-.26,2.18.08,3.4,1,3.67S62.59,79,64.2,76.7A33.94,33.94,0,0,0,68,69.56h1a45.93,45.93,0,0,1-4.29,8.19q-2.47,3.72-4.52,3.72a2.91,2.91,0,0,1-2.72-2.06,8.73,8.73,0,0,1-.39-5,11,11,0,0,1,2.16-5.11C60.4,67.89,61.56,67.23,62.76,67.3Zm-3.14,7.49A8.9,8.9,0,0,0,62,73.18a9.32,9.32,0,0,0,1.51-1.84,4,4,0,0,0,.69-1.78c.08-.77-.16-1.16-.71-1.16s-1.33.66-2.1,2A15.71,15.71,0,0,0,59.62,74.79Z"/><path class="cls-4" d="M74.06,66c.86,0,1.4.75,1.61,2.26A18.16,18.16,0,0,1,75,73.18c.66-1.64,1.18-2.83,1.57-3.57,1.05-1.94,2.05-3,3-3s1.59.67,1.77,2.22a15.85,15.85,0,0,1-.64,4.59,44.9,44.9,0,0,0-.93,4.65c0,.34,0,.61,0,.81,0,.84.45.57,1.18-.81,1.58-3,3-5.88,4.25-8.49h1q-3.86,8.59-5.11,10.86a2.79,2.79,0,0,1-1.3,1.25,1.13,1.13,0,0,1-1.42-.35,4,4,0,0,1-.62-2.61,24,24,0,0,1,.74-4.58,40.64,40.64,0,0,0,1.1-5.58c0-.43-.11-.6-.35-.5a4.76,4.76,0,0,0-1.85,2.21,48.19,48.19,0,0,0-3.46,9.35c-.21.74-.51,1-.91.71s-.67-1-.59-2c.06-.67.21-1.73.48-3.17Q74,69.42,74,68.45c0-.8-.12-1.13-.44-1a4.55,4.55,0,0,0-1.88,2.26,96.79,96.79,0,0,0-3.9,10.76c0,.13-.1.27-.16.4-.42.9-.94,1.34-1.57,1.31s-.92-.67-.79-1.91a59.63,59.63,0,0,1,3-12.62.5.5,0,0,0,.08-.15,1.06,1.06,0,0,1,1.46-.45c.6.2.81.57.63,1.1a87.83,87.83,0,0,0-2.8,9.4,48.41,48.41,0,0,1,3.23-8.44Q72.52,66,74.06,66Z"/><path class="cls-4" d="M87.71,68.15,87,70.36q-.67,2.16-1.42,5.28a43.23,43.23,0,0,0-.94,4.93,1.81,1.81,0,0,0,0,.4c0,1.27.33,1.14,1.14-.4q3.34-6.24,5.67-11l1,0L85.94,82.93a2.59,2.59,0,0,1-1.3,1.26,1.18,1.18,0,0,1-1.42-.46,3.93,3.93,0,0,1-.63-2.51,31.48,31.48,0,0,1,1.07-7,56.82,56.82,0,0,1,1.88-6.56.35.35,0,0,0,.08-.15,1.11,1.11,0,0,1,1.46-.5C87.68,67.25,87.89,67.62,87.71,68.15Zm-1-5.4a1.34,1.34,0,0,1,1.05-.48,1.37,1.37,0,0,1,1.06.48,1.83,1.83,0,0,1,0,2.36,1.37,1.37,0,0,1-1.06.48,1.34,1.34,0,0,1-1.05-.48,1.9,1.9,0,0,1,0-2.36Z"/><path class="cls-4" d="M95.18,66a2.7,2.7,0,0,1,2.9,2.16,7.29,7.29,0,0,1-.89,5.08c-.18.3-.36.42-.53.35a.86.86,0,0,1-.43-.48.76.76,0,0,1-.1-.57q1.73-3.37.86-4.38a1.68,1.68,0,0,0-1-.35,1.81,1.81,0,0,0-1.26.43,4.86,4.86,0,0,0-1.06,1.15,3,3,0,0,0-.41,1.81A5.19,5.19,0,0,0,94,73.63a33.62,33.62,0,0,1,2.44,5.28,17.87,17.87,0,0,0,4.08-3.8,32.8,32.8,0,0,0,3.75-5.65l1,.05a34.57,34.57,0,0,1-4.06,6.28A17.76,17.76,0,0,1,96.8,80q2.4,7.7-.75,13.52A7.18,7.18,0,0,1,93.71,96,5.88,5.88,0,0,1,90.5,97.1,4.41,4.41,0,0,1,86.33,95a7,7,0,0,1-.86-5.83,11.64,11.64,0,0,1,4.68-6.48A34.41,34.41,0,0,1,94,80.32a39.65,39.65,0,0,0-2.36-5.48c-1.2-2.42-1.35-4.49-.43-6.24A4.3,4.3,0,0,1,95.18,66Zm-.82,15.33a27.53,27.53,0,0,0-3.78,2.31,10,10,0,0,0-4.21,5.73A6.12,6.12,0,0,0,87,94.29,3,3,0,0,0,89.36,96a4,4,0,0,0,3.37-1.84,11.36,11.36,0,0,0,2.16-5.25A17.81,17.81,0,0,0,94.36,81.37Z"/><path class="cls-4" d="M109.86,52.22a1.53,1.53,0,0,1,1.22.78c.37.52.5.91.39,1.18q-.47,1.05-1.41,3.27a45.73,45.73,0,0,1,6.37.85,5.6,5.6,0,0,1,.63.18l.67.25a3.84,3.84,0,0,1,.69.32c.14.11.32.26.53.46a1.4,1.4,0,0,1,.41.65,3.08,3.08,0,0,1,.1.86,3.62,3.62,0,0,1-.2,1.1c-.21.57-.52.69-.94.35a.71.71,0,0,1-.28-1,1.59,1.59,0,0,0,.22-.63.68.68,0,0,0-.14-.48,3.66,3.66,0,0,0-.31-.35,1.67,1.67,0,0,0-.49-.28,5.08,5.08,0,0,0-.54-.17l-.55-.15a45.45,45.45,0,0,0-6.65-.86A65.53,65.53,0,0,0,105.18,74a29.91,29.91,0,0,0-.32,6.54,1.92,1.92,0,0,0,.32,1.05c.47.44,1.2-.21,2.2-2q3.74-6.59,5.67-10l1,0-6.81,13.12a3.17,3.17,0,0,1-1.61,1.61,1.72,1.72,0,0,1-1.77-.31,3.44,3.44,0,0,1-1.1-2.21,22.85,22.85,0,0,1,0-5.27A53.29,53.29,0,0,1,104,68.13a84,84,0,0,1,2.71-9.83,49.45,49.45,0,0,1-7.16-.95A5.79,5.79,0,0,1,96.88,56a2.08,2.08,0,0,1-.61-1.16,2.77,2.77,0,0,1,.17-1.55c.24-.54.58-.67,1-.41s.47.52.31.86a2.14,2.14,0,0,0-.22.73,1.06,1.06,0,0,0,.1.55,3.07,3.07,0,0,0,.26.4,1,1,0,0,0,.43.3l.47.2.5.18a1.73,1.73,0,0,0,.39.1,48.77,48.77,0,0,0,7.36,1c.6-1.58,1.11-2.85,1.53-3.82C109,52.61,109.39,52.22,109.86,52.22Z"/><path class="cls-4" d="M115.33,62.42a3.7,3.7,0,0,1,.35,2.06A12.54,12.54,0,0,1,114,70.06a7.31,7.31,0,0,1,2.13,2.41,8.81,8.81,0,0,1,.15,5.89c-.08.43-.18,1.17-.31,2.21q-.24,2.5,1.1,0,3.35-6.24,5.63-11l1.06,0-6.53,13.37a2.59,2.59,0,0,1-1.3,1.26,1.18,1.18,0,0,1-1.42-.46,3.93,3.93,0,0,1-.63-2.51,33,33,0,0,1,.75-5.93,2.22,2.22,0,0,0,.1-1.28c-.09-.45-.18-.81-.26-1.08a2.64,2.64,0,0,0-.51-.88c-.26-.32-.48-.57-.65-.76s-.4-.41-.69-.67-.51-.49-.66-.66a4.73,4.73,0,0,1-1.26-1.91,5.89,5.89,0,0,1-.1-2.86,6.66,6.66,0,0,1,1.08-2.57,2.81,2.81,0,0,1,1.83-1.35C114.13,61.17,114.75,61.55,115.33,62.42Zm-1.61.2c-.63,0-1.2.64-1.72,1.81a4.09,4.09,0,0,0-.29,3.07,4.43,4.43,0,0,0,1.42,2,11.21,11.21,0,0,0,1.29-3.17,3.64,3.64,0,0,1,.1-.47c.07-.26.11-.44.14-.56s.06-.29.1-.53a2.62,2.62,0,0,0,0-.6c0-.17,0-.34-.08-.53a1.48,1.48,0,0,0-.22-.52A.92.92,0,0,0,113.72,62.62Z"/><path class="cls-4" d="M130.91,69q-.94,5.82-2.68,12.61a25.49,25.49,0,0,0,3.62-4.57,42.52,42.52,0,0,0,2.62-4.55c.56-1.19,1-2.27,1.4-3.24l.78.5c-.47,1.21-1,2.46-1.63,3.77a41.55,41.55,0,0,1-3,5,22.27,22.27,0,0,1-4.27,4.9q-3.54,13.06-6.61,17.59c-1.55,2.25-3.19,3.35-4.92,3.32a3,3,0,0,1-2.63-1.46,6.58,6.58,0,0,1-1-3.77,10.7,10.7,0,0,1,1.32-5,17,17,0,0,1,3.39-4.48,41.84,41.84,0,0,1,3.89-3.31A32.16,32.16,0,0,1,124.85,84q1.22-4,2.36-9.09a55.91,55.91,0,0,1-2.71,4.92q-1.89,2.86-3.27,2.77c-1-.07-1.52-.89-1.57-2.47A24.87,24.87,0,0,1,121,74.36a56,56,0,0,0,1.66-6,.6.6,0,0,1,.61-.4,1.49,1.49,0,0,1,.92.38.78.78,0,0,1,.39.78q-.31,1.61-1.35,4.9c-.7,2.19-1.22,4-1.58,5.35s-.34,2,0,1.91c.53-.1,1.2-.8,2-2.11a56.81,56.81,0,0,0,4.44-8.9c0-.2.08-.48.14-.85s.13-.65.18-.86a1,1,0,0,1,.79-.72,1.52,1.52,0,0,1,1.22.15A.91.91,0,0,1,130.91,69Zm-6.49,16.63a32.46,32.46,0,0,0-6.26,4.83q-4.51,4.73-4.52,8.69a5.59,5.59,0,0,0,.43,2.32q2,3.26,5.27-2.89A58.69,58.69,0,0,0,124.42,85.64Z"/></g></g></svg>