<svg xmlns="http://www.w3.org/2000/svg" viewBox="0 0 1093.91 88.17"><defs><style>.cls-1{fill:#463e3b;}</style></defs><g id="Layer_2" data-name="Layer 2"><g id="Layer_1-2" data-name="Layer 1"><path class="cls-1" d="M55.63,5.32a23.2,23.2,0,0,1-7-1,7.25,7.25,0,0,1-3.48-2,18.36,18.36,0,0,1-6.88,2.43c-4-.78-8.82-2.2-10.73-4.72-3.94,2.79-10.82,4.18-16.7,4.89A104.55,104.55,0,0,1,0,5.58a103.07,103.07,0,0,1,10.83.7c5.88.69,12.76,2.09,16.7,4.89,1.91-2.51,6.72-3.94,10.73-4.73a18.36,18.36,0,0,1,6.88,2.45,5.74,5.74,0,0,1,2.37-1.66A22,22,0,0,1,55.7,5.85Z"/><polygon class="cls-1" points="43.96 4.54 43.96 5.59 43.96 6.63 547.29 6.63 547.29 5.59 547.29 4.54 43.96 4.54"/><path class="cls-1" d="M1083.09,4.89c-5.88-.71-12.77-2.1-16.71-4.89-1.9,2.52-6.72,3.94-10.72,4.72a18.47,18.47,0,0,1-6.89-2.43,7.21,7.21,0,0,1-3.47,2.05,23.26,23.26,0,0,1-7,1l-.07.53a22,22,0,0,1,8.19,1.38,5.74,5.74,0,0,1,2.37,1.66,18.48,18.48,0,0,1,6.89-2.45c4,.79,8.82,2.22,10.72,4.73,3.94-2.8,10.83-4.2,16.71-4.89a102.82,102.82,0,0,1,10.82-.7A104.29,104.29,0,0,1,1083.09,4.89Z"/><rect class="cls-1" x="546.62" y="4.54" width="503.33" height="2.1"/><path class="cls-1" d="M55.63,82.32a23.2,23.2,0,0,1-7-1,7.25,7.25,0,0,1-3.48-2,18.36,18.36,0,0,1-6.88,2.43c-4-.78-8.82-2.2-10.73-4.72-3.94,2.79-10.82,4.18-16.7,4.89A104.55,104.55,0,0,1,0,82.58a103.07,103.07,0,0,1,10.83.7c5.88.69,12.76,2.09,16.7,4.89,1.91-2.51,6.72-3.94,10.73-4.73a18.36,18.36,0,0,1,6.88,2.45,5.74,5.74,0,0,1,2.37-1.66,22,22,0,0,1,8.19-1.38Z"/><polygon class="cls-1" points="43.96 81.54 43.96 82.59 43.96 83.64 547.29 83.64 547.29 82.59 547.29 81.54 43.96 81.54"/><path class="cls-1" d="M1083.09,81.89c-5.88-.71-12.77-2.1-16.71-4.89-1.9,2.52-6.72,3.94-10.72,4.72a18.47,18.47,0,0,1-6.89-2.43,7.21,7.21,0,0,1-3.47,2,23.26,23.26,0,0,1-7,1l-.07.53a22,22,0,0,1,8.19,1.38,5.74,5.74,0,0,1,2.37,1.66,18.48,18.48,0,0,1,6.89-2.45c4,.79,8.82,2.22,10.72,4.73,3.94-2.8,10.83-4.2,16.71-4.89a102.82,102.82,0,0,1,10.82-.7A104.29,104.29,0,0,1,1083.09,81.89Z"/><rect class="cls-1" x="546.62" y="81.54" width="503.33" height="2.1"/></g></g></svg>