<svg xmlns="http://www.w3.org/2000/svg" viewBox="0 0 1694.91 88.17"><defs><style>.cls-1{fill:#463e3b;}</style></defs><g id="Layer_2" data-name="Layer 2"><g id="Layer_1-2" data-name="Layer 1"><path class="cls-1" d="M86.2,5.32a54.59,54.59,0,0,1-10.87-1c-2.28-.49-4.35-1.15-5.39-2A39.63,39.63,0,0,1,59.28,4.72C53.07,3.94,45.61,2.52,42.66,0,36.55,2.79,25.89,4.18,16.77,4.89S0,5.58,0,5.58s7.61,0,16.77.7,19.78,2.09,25.89,4.89c3-2.51,10.41-3.94,16.62-4.73A39.58,39.58,0,0,1,69.94,8.89a10,10,0,0,1,3.68-1.66A51.06,51.06,0,0,1,86.3,5.85Z"/><polygon class="cls-1" points="68.11 4.54 68.11 5.59 68.11 6.63 847.98 6.63 847.98 5.59 847.98 4.54 68.11 4.54"/><path class="cls-1" d="M1678.14,4.89c-9.11-.71-19.78-2.1-25.88-4.89-3,2.52-10.41,3.94-16.62,4.72A39.71,39.71,0,0,1,1625,2.29c-1,.9-3.11,1.56-5.38,2.05a54.7,54.7,0,0,1-10.88,1l-.1.53a51.2,51.2,0,0,1,12.69,1.38A9.83,9.83,0,0,1,1625,8.89c2.64-1.2,6.63-2,10.67-2.45,6.21.79,13.66,2.22,16.62,4.73,6.1-2.8,16.77-4.2,25.88-4.89s16.77-.7,16.77-.7S1687.3,5.58,1678.14,4.89Z"/><rect class="cls-1" x="846.94" y="4.54" width="779.86" height="2.1"/><path class="cls-1" d="M86.2,82.32a54.59,54.59,0,0,1-10.87-1c-2.28-.49-4.35-1.15-5.39-2a39.63,39.63,0,0,1-10.66,2.43c-6.21-.78-13.67-2.2-16.62-4.72-6.11,2.79-16.77,4.18-25.89,4.89S0,82.58,0,82.58s7.61,0,16.77.7,19.78,2.09,25.89,4.89c3-2.51,10.41-3.94,16.62-4.73a39.58,39.58,0,0,1,10.66,2.45,10,10,0,0,1,3.68-1.66A51.06,51.06,0,0,1,86.3,82.85Z"/><polygon class="cls-1" points="68.11 81.54 68.11 82.59 68.11 83.64 847.98 83.64 847.98 82.59 847.98 81.54 68.11 81.54"/><path class="cls-1" d="M1678.14,81.89c-9.11-.71-19.78-2.1-25.88-4.89-3,2.52-10.41,3.94-16.62,4.72A39.71,39.71,0,0,1,1625,79.29c-1,.9-3.11,1.56-5.38,2a54.7,54.7,0,0,1-10.88,1l-.1.53a51.2,51.2,0,0,1,12.69,1.38,9.83,9.83,0,0,1,3.67,1.66c2.64-1.2,6.63-2,10.67-2.45,6.21.79,13.66,2.22,16.62,4.73,6.1-2.8,16.77-4.2,25.88-4.89s16.77-.7,16.77-.7S1687.3,82.58,1678.14,81.89Z"/><rect class="cls-1" x="846.94" y="81.54" width="779.86" height="2.1"/></g></g></svg>