<svg xmlns="http://www.w3.org/2000/svg" viewBox="0 0 370.5 103"><defs><style>.cls-1,.cls-2{fill:#de4948;}.cls-2{stroke:#193c40;stroke-miterlimit:10;stroke-width:7px;}.cls-3{fill:#ece6db;}</style></defs><g id="Layer_2" data-name="Layer 2"><g id="Layer_1-2" data-name="Layer 1"><polygon class="cls-1" points="312.25 84.5 54.5 84.5 54.5 17.5 370.5 17.5 312.25 84.5"/><circle class="cls-2" cx="51.5" cy="51.5" r="48"/><path class="cls-3" d="M79.46,52.9l-21,19.92a3.13,3.13,0,0,1-4.42-.1h0a3.14,3.14,0,0,1,.11-4.43L69,54.23l-43.36.42a3.13,3.13,0,0,1-3.16-3.09h0a3.13,3.13,0,0,1,3.09-3.16L68.92,48,54.3,35a3.11,3.11,0,0,1-.21-4.41v0a3.13,3.13,0,0,1,4.41-.21L79.41,49A2.64,2.64,0,0,1,79.46,52.9Z"/><path class="cls-3" d="M170.44,36.3h6.77l6.88,13.28,2.72,6.13H187a97.42,97.42,0,0,1-.89-10.23V36.3h6.32V64h-6.77l-6.84-13.36-2.72-6.06h-.18c.29,3.09.85,6.88.85,10.23V64h-6.32Z"/><path class="cls-3" d="M198.86,36.3h17.56v5.54h-10.9V47h9.26v5.58h-9.26v5.88h11.31V64h-18Z"/><path class="cls-3" d="M227.17,49.76,220,36.3h7.41l2.23,5c.63,1.3,1.23,2.75,2,4.54h.15c.63-1.79,1.22-3.24,1.78-4.54l2-5h7l-7.14,13.76,7.62,14h-7.4l-2.57-5.39c-.66-1.45-1.3-2.91-2-4.62h-.15c-.63,1.71-1.26,3.17-1.9,4.62L226.65,64h-7.07Z"/><path class="cls-3" d="M251.25,41.84h-7.48V36.3h21.65v5.54H257.9V64h-6.65Z"/></g></g></svg>