<svg xmlns="http://www.w3.org/2000/svg" viewBox="0 0 682.22 158.13"><defs><style>.cls-1{fill:#c1d9c1;stroke:#1a3d41;stroke-miterlimit:10;stroke-width:5px;}.cls-2{fill:#dd4a49;}.cls-3{fill:#128995;}.cls-4{fill:#edf8fa;}.cls-5{fill:#fcc015;}.cls-6{fill:#a6dce4;}.cls-7{fill:#010101;opacity:0.2;}</style></defs><title>Asset 2</title><g id="Layer_2" data-name="Layer 2"><g id="Layer_1-2" data-name="Layer 1"><rect class="cls-1" x="47.05" y="28.54" width="632.67" height="127.09" rx="41.79"/><path class="cls-2" d="M183.38,72.28h14.18c8.13,0,15.1,3,15.1,12.55,0,9.24-7.2,13.25-15.1,13.25h-4.19v12h-10Zm13.71,17.9c3.95,0,5.81-2,5.81-5.35s-2.09-4.65-5.81-4.65h-3.72v10Z"/><path class="cls-2" d="M214.52,95.52c0-9.53,7.44-15.22,15.22-15.22,9.18,0,13.83,6.27,13.83,14.06a25.77,25.77,0,0,1-.41,4.18H222.07V92h14.18l-1.4,1.74c0-3.84-1.51-5.93-4.76-5.93-3.83,0-5.92,2.44-5.92,7.67,0,5.46,2.67,7.67,8,7.67a16.24,16.24,0,0,0,7-1.74l3.26,5.92a23,23,0,0,1-11.62,3.37C221.61,110.74,214.52,105.16,214.52,95.52Z"/><path class="cls-2" d="M249.61,81h8.19l.76,6.16h.23c2.79-4.77,7-6.86,11.33-6.86a11.86,11.86,0,0,1,5.51,1.16l-2,8.37a15.15,15.15,0,0,0-5.05-.82c-3.32,0-6.86,1.75-9,6.63V110h-10Z"/><path class="cls-2" d="M290.86,88.78h-11V81h21v29h-10Zm-1.74-17.54c0-3.49,2.67-5.93,6.39-5.93s6.39,2.44,6.39,5.93-2.68,5.81-6.39,5.81S289.12,74.72,289.12,71.24Z"/><path class="cls-2" d="M309.91,95.52a15,15,0,1,1,30,0,15,15,0,1,1-30,0Zm19.76,0c0-4.41-1.4-7.2-4.77-7.2s-4.76,2.79-4.76,7.2,1.39,7.2,4.76,7.2S329.67,99.94,329.67,95.52Z"/><path class="cls-2" d="M341.87,95.52c0-9.53,6-15.22,12.14-15.22a8.53,8.53,0,0,1,6.79,2.91H361L360.57,79V69.61h10V110h-8.13l-.7-2.67h-.23a11.38,11.38,0,0,1-7.49,3.37C346.63,110.74,341.87,104.93,341.87,95.52Zm18.7,5V89.83a5.4,5.4,0,0,0-3.83-1.4c-2.44,0-4.65,1.86-4.65,7s1.69,7.21,4.53,7.21A4.27,4.27,0,0,0,360.57,100.52Z"/><path class="cls-2" d="M386.72,88.78h-11V81h21v29h-10ZM385,71.24c0-3.49,2.68-5.93,6.39-5.93s6.39,2.44,6.39,5.93-2.67,5.81-6.39,5.81S385,74.72,385,71.24Z"/><path class="cls-2" d="M406.93,95.52c0-9.64,8-15.22,17-15.22,4.53,0,8.53,1.51,11,3.83l-4.53,6.16a10.12,10.12,0,0,0-5.86-2c-4.36,0-7.38,2.79-7.38,7.2s3,7.2,7,7.2a13.46,13.46,0,0,0,7.14-2.44l3.95,6.28a19.47,19.47,0,0,1-12.08,4.18C414,110.74,406.93,105.16,406.93,95.52Z"/><path class="cls-2" d="M479.67,80.65H468.81V72.28h31.71v8.37H489.66V110h-10Z"/><path class="cls-2" d="M502.33,101.79c0-6.5,5.11-9.87,18.35-10.57-.35-2.09-2.32-3-5.57-3-2.44,0-4.88.81-8.37,2.44l-3.48-6.51a28.25,28.25,0,0,1,13.82-3.83c8.25,0,13.6,4.07,13.6,13.59V110h-8.14l-.69-3h-.24a17.09,17.09,0,0,1-9.87,3.72C505.7,110.74,502.33,106.56,502.33,101.79Zm18.35-.93V97.15c-7.08.23-8.83,1.86-8.83,3.83,0,1.34,1,2.09,3.14,2.09A9.34,9.34,0,0,0,520.68,100.86Z"/><path class="cls-2" d="M543.69,106.91h-.23l-.81,3.13h-7.79V69.61h10V79l-.35,4.19h.24A10.73,10.73,0,0,1,552,80.3c7,0,11.56,5.81,11.56,14.7,0,10-6,15.74-12.38,15.74C548.57,110.74,546,109.46,543.69,106.91Zm9.64-11.74c0-4.76-1.45-6.74-4.29-6.74a5.36,5.36,0,0,0-4.19,2.09v10.69a5.89,5.89,0,0,0,3.95,1.4C551.24,102.61,553.33,100.75,553.33,95.17Z"/><path class="cls-2" d="M574.13,98.08V77.4h-8.71V69.61h18.7V98.42c0,3.37,2.33,4.3,4.36,4.3a12.51,12.51,0,0,0,4.18-.81l2.15,7.32a27.28,27.28,0,0,1-9,1.51C578.08,110.74,574.13,105.63,574.13,98.08Z"/><path class="cls-2" d="M598,95.52c0-9.53,7.44-15.22,15.22-15.22,9.18,0,13.83,6.27,13.83,14.06a25.77,25.77,0,0,1-.41,4.18H605.5V92h14.18l-1.39,1.74c0-3.84-1.52-5.93-4.77-5.93-3.83,0-5.92,2.44-5.92,7.67,0,5.46,2.67,7.67,8,7.67a16.2,16.2,0,0,0,7-1.74l3.26,5.92a23,23,0,0,1-11.62,3.37C605,110.74,598,105.16,598,95.52Z"/><polygon class="cls-3" points="82.84 6.2 66.51 6.2 0 6.2 0 110.21 66.51 110.21 82.84 110.21 149.34 110.21 149.34 6.2 82.84 6.2"/><path class="cls-4" d="M141.18,100.54a92.35,92.35,0,0,0-66.51,0V6.2a92.25,92.25,0,0,1,66.51,0Z"/><path class="cls-5" d="M131.5,13.75a1.45,1.45,0,0,1-.35,0,90.85,90.85,0,0,0-46.45,0A1.36,1.36,0,0,1,84,11.08a93.58,93.58,0,0,1,47.84,0,1.35,1.35,0,0,1-.35,2.66Z"/><path class="cls-5" d="M131.5,24.56a1.48,1.48,0,0,1-.35,0,91,91,0,0,0-46.45,0A1.35,1.35,0,1,1,84,21.89a93.69,93.69,0,0,1,47.84,0,1.36,1.36,0,0,1-.35,2.67Z"/><path class="cls-5" d="M131.5,35.37a1.1,1.1,0,0,1-.35,0,91,91,0,0,0-46.45,0A1.35,1.35,0,1,1,84,32.7a93.69,93.69,0,0,1,47.84,0,1.36,1.36,0,0,1-.35,2.67Z"/><path class="cls-5" d="M131.5,46.18a1.48,1.48,0,0,1-.35,0,91,91,0,0,0-46.45,0A1.35,1.35,0,1,1,84,43.51a93.69,93.69,0,0,1,47.84,0,1.36,1.36,0,0,1-.35,2.67Z"/><path class="cls-5" d="M84.35,57A1.36,1.36,0,0,1,84,54.32a93.69,93.69,0,0,1,47.84,0,1.36,1.36,0,1,1-.7,2.62,91,91,0,0,0-46.45,0A1.41,1.41,0,0,1,84.35,57Z"/><path class="cls-5" d="M84.35,67.79A1.35,1.35,0,0,1,84,65.13a93.69,93.69,0,0,1,47.84,0,1.36,1.36,0,0,1-.7,2.63,91,91,0,0,0-46.45,0A1.39,1.39,0,0,1,84.35,67.79Z"/><path class="cls-5" d="M131.5,78.61a1.48,1.48,0,0,1-.35,0,91,91,0,0,0-46.45,0A1.35,1.35,0,1,1,84,75.94a93.47,93.47,0,0,1,47.84,0,1.36,1.36,0,0,1-.35,2.67Z"/><path class="cls-5" d="M84.35,89.41A1.35,1.35,0,0,1,84,86.75a93.69,93.69,0,0,1,47.84,0,1.36,1.36,0,0,1-.7,2.62,91,91,0,0,0-46.45,0A1.39,1.39,0,0,1,84.35,89.41Z"/><path class="cls-4" d="M74.67,100.54a92.35,92.35,0,0,0-66.51,0V6.2a92.25,92.25,0,0,1,66.51,0Z"/><path class="cls-5" d="M65,13.75a1.32,1.32,0,0,1-.34,0,90.89,90.89,0,0,0-46.46,0,1.36,1.36,0,1,1-.69-2.63,93.69,93.69,0,0,1,47.84,0A1.35,1.35,0,0,1,65,13.75Z"/><path class="cls-5" d="M17.84,24.56a1.36,1.36,0,0,1-.34-2.67,93.69,93.69,0,0,1,47.84,0,1.35,1.35,0,0,1-.69,2.62,91,91,0,0,0-46.46,0A1.34,1.34,0,0,1,17.84,24.56Z"/><path class="cls-5" d="M65,35.37a1,1,0,0,1-.34,0,91,91,0,0,0-46.46,0,1.35,1.35,0,1,1-.69-2.62,93.69,93.69,0,0,1,47.84,0A1.36,1.36,0,0,1,65,35.37Z"/><path class="cls-5" d="M17.84,46.18a1.37,1.37,0,0,1-1.31-1,1.36,1.36,0,0,1,1-1.65,93.69,93.69,0,0,1,47.84,0,1.35,1.35,0,0,1-.69,2.62,91,91,0,0,0-46.46,0A1.34,1.34,0,0,1,17.84,46.18Z"/><path class="cls-5" d="M65,57a1.33,1.33,0,0,1-.34-.05,91,91,0,0,0-46.46,0,1.35,1.35,0,1,1-.69-2.62,93.69,93.69,0,0,1,47.84,0A1.36,1.36,0,0,1,65,57Z"/><path class="cls-5" d="M17.84,67.79a1.35,1.35,0,0,1-.34-2.66,93.69,93.69,0,0,1,47.84,0,1.36,1.36,0,0,1-.69,2.63,91,91,0,0,0-46.46,0A1.34,1.34,0,0,1,17.84,67.79Z"/><path class="cls-5" d="M17.84,78.61a1.36,1.36,0,0,1-.34-2.67,93.47,93.47,0,0,1,47.84,0,1.35,1.35,0,0,1-.69,2.62,91,91,0,0,0-46.46,0A1.34,1.34,0,0,1,17.84,78.61Z"/><path class="cls-5" d="M17.84,89.41a1.35,1.35,0,0,1-.34-2.66,93.58,93.58,0,0,1,47.84,0,1.35,1.35,0,0,1-.69,2.62,91.11,91.11,0,0,0-46.46,0A1.34,1.34,0,0,1,17.84,89.41Z"/><path class="cls-6" d="M8.16,100.54H74.67A92.35,92.35,0,0,0,8.16,100.54Z"/><path class="cls-6" d="M74.67,100.54h66.51A92.35,92.35,0,0,0,74.67,100.54Z"/><path class="cls-7" d="M141.18,6.2v94.34H8.16l4.52,4.52h133V10.72Z"/><path class="cls-7" d="M74.67,100.54l-.22-4.06c-.09-2.58-.31-6.26-.41-10.68s-.29-9.58-.36-15.11-.11-11.43-.14-17.32,0-11.79.14-17.32.26-10.69.36-15.11.32-8.11.41-10.69l.22-4,.22,4.05c.09,2.58.32,6.27.42,10.69s.29,9.58.36,15.11.11,11.42.13,17.32,0,11.79-.13,17.32-.27,10.68-.36,15.11-.33,8.1-.42,10.68Z"/></g></g></svg>