<svg xmlns="http://www.w3.org/2000/svg" viewBox="0 0 368 104"><defs><style>.cls-1,.cls-3{fill:#417d7a;}.cls-2{fill:#ece6db;}.cls-3{stroke:#193c40;stroke-miterlimit:10;stroke-width:8px;}</style></defs><g id="Layer_2" data-name="Layer 2"><g id="Layer_1-2" data-name="Layer 1"><polygon class="cls-1" points="60.46 85 328 85 328 18 0 18 60.46 85"/><path class="cls-2" d="M61.53,35.67h9.74c6.07,0,11.09,2.2,11.09,9,0,6.59-5.06,9.49-10.94,9.49H68.19v9.19H61.53ZM71.09,49c3.23,0,4.8-1.53,4.8-4.25S74.1,41,70.9,41H68.19v8Z"/><path class="cls-2" d="M87.09,35.67H97.24c5.92,0,10.83,2,10.83,8.75,0,4-1.9,6.66-4.76,8l6.17,11H102L97,53.64h-3.2v9.75H87.09ZM96.72,48.4c3.16,0,4.88-1.38,4.88-4S99.88,41,96.72,41h-3V48.4Z"/><path class="cls-2" d="M113.43,35.67H131v5.55h-10.9v5.13h9.26v5.58h-9.26v5.88H131.4v5.58h-18Z"/><path class="cls-2" d="M133.33,35.67h7l3.17,12.65c.81,3,1.37,5.81,2.15,8.86h.19c.82-3,1.38-5.88,2.16-8.86l3.12-12.65h6.77l-8.29,27.72h-8Z"/><path class="cls-2" d="M160.79,35.67h6.66V63.39h-6.66Z"/><path class="cls-2" d="M172.54,49.4c0-9.08,5.14-14.21,12.69-14.21s12.69,5.17,12.69,14.21-5.14,14.51-12.69,14.51S172.54,58.48,172.54,49.4Zm18.61,0c0-5.36-2.27-8.52-5.92-8.52s-5.88,3.16-5.88,8.52,2.24,8.78,5.88,8.78S191.15,54.76,191.15,49.4Z"/><path class="cls-2" d="M202.9,50.37V35.67h6.62V51.08c0,5.24,1.57,7.1,4.62,7.1s4.69-1.86,4.69-7.1V35.67h6.39v14.7c0,9.34-3.72,13.54-11.08,13.54S202.9,59.71,202.9,50.37Z"/><path class="cls-2" d="M229.24,59.93l3.8-4.58a11,11,0,0,0,6.69,2.83c2.46,0,3.61-.93,3.61-2.42s-1.52-2.12-3.9-3.12l-3.54-1.49c-2.9-1.15-5.61-3.57-5.61-7.59,0-4.65,4.16-8.37,10-8.37a12.87,12.87,0,0,1,9,3.65L246,43a9,9,0,0,0-5.69-2.12c-2.05,0-3.27.82-3.27,2.27s1.71,2.16,4.16,3.13l3.46,1.37c3.42,1.38,5.47,3.69,5.47,7.59,0,4.61-3.87,8.67-10.56,8.67A15.52,15.52,0,0,1,229.24,59.93Z"/><circle class="cls-3" cx="316" cy="52" r="48"/><path class="cls-2" d="M288,53.4l21,19.92a3.13,3.13,0,0,0,4.42-.1h0a3.14,3.14,0,0,0-.11-4.43L298.48,54.73l43.36.42A3.13,3.13,0,0,0,345,52.06h0a3.13,3.13,0,0,0-3.09-3.16l-43.33-.43,14.62-13a3.11,3.11,0,0,0,.21-4.41v0a3.13,3.13,0,0,0-4.41-.21l-20.9,18.72A2.64,2.64,0,0,0,288,53.4Z"/></g></g></svg>