<svg xmlns="http://www.w3.org/2000/svg" viewBox="0 0 172.64 61.57"><defs><style>.cls-1{fill:#dd4a48;}.cls-2{fill:#1a3c40;}.cls-3{fill:#ede6db;}</style></defs><title>Asset 15</title><g id="Layer_2" data-name="Layer 2"><g id="Layer_2-2" data-name="Layer 2"><path class="cls-1" d="M164.79,18.06v-3.4H161.2a2.47,2.47,0,0,1-1.48-.5c-.65-.49-1.26-.92-1.86-1.33a2.42,2.42,0,0,1-1.09-2V9.35A6.17,6.17,0,0,0,150.6,3.2H22a6.16,6.16,0,0,0-6.16,6.15v1.44a2.43,2.43,0,0,1-1.1,2c-.6.41-1.21.84-1.86,1.33a2.47,2.47,0,0,1-1.48.5H7.85v3.4a2.45,2.45,0,0,1-.52,1.51,17.75,17.75,0,0,0-4.13,11V31A17.78,17.78,0,0,0,7.33,42a2.45,2.45,0,0,1,.52,1.51v3.4h3.59a2.4,2.4,0,0,1,1.48.5c.64.48,1.25.92,1.86,1.32a2.45,2.45,0,0,1,1.1,2v1.45A6.16,6.16,0,0,0,22,58.37H150.6a6.17,6.17,0,0,0,6.17-6.15V50.77a2.44,2.44,0,0,1,1.09-2c.61-.4,1.21-.84,1.86-1.32a2.4,2.4,0,0,1,1.48-.5h3.59v-3.4a2.45,2.45,0,0,1,.52-1.51,17.75,17.75,0,0,0,4.13-11v-.39a17.73,17.73,0,0,0-4.13-11A2.45,2.45,0,0,1,164.79,18.06Z"/><path class="cls-2" d="M0,31v-.39A20.78,20.78,0,0,1,4.65,17.8V12.21a.75.75,0,0,1,.74-.75h5.8c.5-.38,1-.73,1.48-1.06V9.35A9.37,9.37,0,0,1,22,0H150.6A9.37,9.37,0,0,1,160,9.35V10.4c.48.33,1,.68,1.48,1.06h5.8a.75.75,0,0,1,.74.75V17.8a20.78,20.78,0,0,1,4.65,12.79V31A20.78,20.78,0,0,1,168,43.77v5.59a.74.74,0,0,1-.74.74h-5.8c-.5.38-1,.73-1.48,1.07v1a9.37,9.37,0,0,1-9.37,9.35H22a9.37,9.37,0,0,1-9.37-9.35v-1c-.49-.33-1-.68-1.48-1.07H5.39a.74.74,0,0,1-.74-.74v-5.6A20.73,20.73,0,0,1,0,31Zm1.49-.2V31A19.4,19.4,0,0,0,6,43.05a.78.78,0,0,1,.16.46v5.11h5.3a.74.74,0,0,1,.45.15c.67.51,1.3,1,1.94,1.39a.76.76,0,0,1,.33.61v1.45A7.87,7.87,0,0,0,22,60.08H150.6a7.87,7.87,0,0,0,7.88-7.86V50.77a.76.76,0,0,1,.33-.61c.64-.43,1.28-.88,1.94-1.39a.74.74,0,0,1,.45-.15h5.3V43.51a.75.75,0,0,1,.16-.45A19.44,19.44,0,0,0,171.15,31v-.39a19.44,19.44,0,0,0-4.49-12.08.75.75,0,0,1-.16-.45V13h-5.3a.81.81,0,0,1-.45-.15c-.67-.51-1.31-1-1.94-1.39a.76.76,0,0,1-.33-.62V9.35a7.88,7.88,0,0,0-7.88-7.87H22a7.88,7.88,0,0,0-7.88,7.87v1.44a.76.76,0,0,1-.33.62c-.64.42-1.27.88-1.94,1.39a.81.81,0,0,1-.45.15H6.14v5.11a.75.75,0,0,1-.16.45A19.44,19.44,0,0,0,1.49,30.59v.18Z"/><path class="cls-3" d="M2.83,31v-.39A18.13,18.13,0,0,1,7,19.34a2.07,2.07,0,0,0,.44-1.28V14.48a.19.19,0,0,1,.19-.19h3.77a2.12,2.12,0,0,0,1.26-.42c.65-.5,1.27-.94,1.88-1.34a2.09,2.09,0,0,0,.92-1.74V9.35A6.53,6.53,0,0,1,22,2.83H150.6a6.53,6.53,0,0,1,6.54,6.52v1.44a2.09,2.09,0,0,0,.92,1.74c.62.41,1.23.84,1.88,1.34a2.12,2.12,0,0,0,1.26.42H165a.19.19,0,0,1,.19.19v3.58a2.07,2.07,0,0,0,.44,1.28,18.13,18.13,0,0,1,4.21,11.25V31a18.13,18.13,0,0,1-4.21,11.25,2,2,0,0,0-.44,1.28v3.58a.2.2,0,0,1-.19.19H161.2a2.12,2.12,0,0,0-1.26.42c-.65.49-1.26.93-1.88,1.34a2.08,2.08,0,0,0-.92,1.73v1.45a6.53,6.53,0,0,1-6.54,6.52H22a6.53,6.53,0,0,1-6.54-6.52V50.77A2.08,2.08,0,0,0,14.58,49c-.62-.41-1.23-.85-1.88-1.34a2.12,2.12,0,0,0-1.26-.42H7.67a.2.2,0,0,1-.19-.19V43.51A2,2,0,0,0,7,42.23,18.15,18.15,0,0,1,2.83,31Zm5-16.32v3.4a2.45,2.45,0,0,1-.52,1.51,17.75,17.75,0,0,0-4.13,11V31A17.78,17.78,0,0,0,7.33,42a2.45,2.45,0,0,1,.52,1.51v3.4h3.59a2.4,2.4,0,0,1,1.48.5c.64.48,1.25.92,1.86,1.32a2.45,2.45,0,0,1,1.1,2v1.45A6.16,6.16,0,0,0,22,58.37H150.6a6.17,6.17,0,0,0,6.17-6.15V50.77a2.44,2.44,0,0,1,1.09-2c.61-.4,1.21-.84,1.86-1.32a2.4,2.4,0,0,1,1.48-.5h3.59v-3.4a2.45,2.45,0,0,1,.52-1.51,17.75,17.75,0,0,0,4.13-11v-.39a17.73,17.73,0,0,0-4.13-11,2.45,2.45,0,0,1-.52-1.51v-3.4H161.2a2.47,2.47,0,0,1-1.48-.5c-.65-.49-1.26-.92-1.86-1.33a2.42,2.42,0,0,1-1.09-2V9.35A6.17,6.17,0,0,0,150.6,3.2H22a6.16,6.16,0,0,0-6.16,6.15v1.44a2.43,2.43,0,0,1-1.1,2c-.6.41-1.21.84-1.86,1.33a2.47,2.47,0,0,1-1.48.5Z"/></g></g></svg>