<svg xmlns="http://www.w3.org/2000/svg" viewBox="0 0 368 104"><defs><style>.cls-1,.cls-2{fill:#417d7a;}.cls-2{stroke:#193c40;stroke-miterlimit:10;stroke-width:8px;}.cls-3{fill:#ece6db;}</style></defs><g id="Layer_2" data-name="Layer 2"><g id="Layer_1-2" data-name="Layer 1"><polygon class="cls-1" points="60.46 85 328 85 328 18 0 18 60.46 85"/><circle class="cls-2" cx="316" cy="52" r="48"/><path class="cls-3" d="M288,53.4l21,19.92a3.13,3.13,0,0,0,4.42-.1h0a3.14,3.14,0,0,0-.11-4.43L298.48,54.73l43.36.42A3.13,3.13,0,0,0,345,52.06h0a3.13,3.13,0,0,0-3.09-3.16l-43.33-.43,14.62-13a3.11,3.11,0,0,0,.21-4.41v0a3.13,3.13,0,0,0-4.41-.21l-20.9,18.72A2.64,2.64,0,0,0,288,53.4Z"/><path class="cls-3" d="M112.56,36.21h10.37c6.15,0,11,1.67,11,7.37,0,2.64-1.47,5.51-3.87,6.43v.16a6.72,6.72,0,0,1,5.27,7c0,6.06-5.15,8.77-11.61,8.77H112.56ZM122.66,48c3,0,4.38-1.31,4.38-3.35s-1.39-3-4.38-3h-3V48Zm.59,12.45c3.43,0,5.19-1.24,5.19-3.79s-1.72-3.43-5.19-3.43H119.7v7.22Z"/><path class="cls-3" d="M145.75,36.21h8.53l9.22,29.71H156l-1.72-6.82h-8.77l-1.72,6.82h-7.26Zm1.11,17.39h6.07l-.64-2.52c-.8-2.95-1.56-6.5-2.36-9.53h-.16c-.71,3.11-1.51,6.58-2.27,9.53Z"/><path class="cls-3" d="M164.77,51.24c0-9.89,6.62-15.55,14.16-15.55a12.6,12.6,0,0,1,9,3.87l-3.71,4.54a7.54,7.54,0,0,0-5.18-2.31c-3.83,0-7,3.43-7,9.21s2.71,9.34,6.9,9.34a7.65,7.65,0,0,0,5.66-2.71l3.75,4.46a12.35,12.35,0,0,1-9.69,4.39C171.15,66.48,164.77,61.29,164.77,51.24Z"/><path class="cls-3" d="M192.73,36.21h7.14V48H200l8.42-11.76h7.82l-9,11.92,10.65,17.79h-7.77l-7-12.16-3.23,4.38v7.78h-7.14Z"/></g></g></svg>