<svg xmlns="http://www.w3.org/2000/svg" viewBox="0 0 274 274"><defs><style>.cls-1{fill:#ece6db;}.cls-2{fill:#193c40;}</style></defs><g id="Layer_2" data-name="Layer 2"><g id="Layer_1-2" data-name="Layer 1"><circle class="cls-1" cx="137" cy="137" r="128.5"/><path class="cls-2" d="M137,17a120,120,0,0,1,84.85,204.85A120,120,0,1,1,52.15,52.15,119.19,119.19,0,0,1,137,17m0-17A137,137,0,1,0,274,137,137,137,0,0,0,137,0Z"/><path class="cls-2" d="M169.53,91.39a13,13,0,0,0-9.25,3.82L95.21,160.28a13.09,13.09,0,0,0,18.51,18.51l65.07-65.07a13.08,13.08,0,0,0-9.26-22.33Z"/><path class="cls-2" d="M104.47,91.39a13.08,13.08,0,0,0-9.26,22.33l65.07,65.07a13.09,13.09,0,0,0,18.51-18.51L113.72,95.21a13,13,0,0,0-9.25-3.82Z"/></g></g></svg>