<svg xmlns="http://www.w3.org/2000/svg" viewBox="0 0 274 274"><defs><style>.cls-1{fill:#ece6db;}.cls-2{fill:#193c40;}</style></defs><g id="Layer_2" data-name="Layer 2"><g id="Layer_1-2" data-name="Layer 1"><circle class="cls-1" cx="137" cy="137" r="128.5"/><path class="cls-2" d="M137,17a120,120,0,0,1,84.85,204.85A120,120,0,1,1,52.15,52.15,119.19,119.19,0,0,1,137,17m0-17A137,137,0,1,0,274,137,137,137,0,0,0,137,0Z"/><path class="cls-2" d="M183,86.5H91A13.13,13.13,0,0,0,77.9,99.59h0A13.14,13.14,0,0,0,91,112.69h92a13.14,13.14,0,0,0,13.09-13.1h0A13.13,13.13,0,0,0,183,86.5Z"/><path class="cls-2" d="M183,123.91H91a13.09,13.09,0,1,0,0,26.18h92a13.09,13.09,0,0,0,0-26.18Z"/><path class="cls-2" d="M183,161.31H91a13.14,13.14,0,0,0-13.09,13.1h0A13.13,13.13,0,0,0,91,187.5h92a13.13,13.13,0,0,0,13.09-13.09h0A13.14,13.14,0,0,0,183,161.31Z"/></g></g></svg>