<svg xmlns="http://www.w3.org/2000/svg" viewBox="0 0 240.04 240.04"><defs><style>.cls-1{fill:#ece6db;}.cls-2{fill:#193c40;}</style></defs><g id="Layer_2" data-name="Layer 2"><g id="Layer_1-2" data-name="Layer 1"><circle class="cls-1" cx="120.02" cy="120.02" r="111.52"/><path class="cls-2" d="M120,17A103,103,0,1,1,17,120,103.14,103.14,0,0,1,120,17m0-17A120,120,0,1,0,240,120,120,120,0,0,0,120,0Z"/><path class="cls-2" d="M88.58,106.35a3.94,3.94,0,0,1,0-7.88h54.57a3.94,3.94,0,0,1,0,7.88Z"/><path class="cls-2" d="M88.58,104h54.57a1.62,1.62,0,1,0,0-3.24H88.58a1.62,1.62,0,0,0,0,3.24Z"/><path class="cls-2" d="M88.58,151a3.94,3.94,0,1,1,0-7.87h54.57a3.94,3.94,0,1,1,0,7.87Z"/><path class="cls-2" d="M143.15,145.46H88.58a1.62,1.62,0,1,0,0,3.23h54.57a1.62,1.62,0,1,0,0-3.23Z"/><path class="cls-2" d="M68.77,173.08V67H163v25.7a4,4,0,0,1,.49-.6L184.52,71A12.72,12.72,0,0,1,193,67.4H193a12,12,0,0,1,8.51,3.84l.17.18a11.59,11.59,0,0,1,3.57,8.34,13.31,13.31,0,0,1-3.94,8.74l-20.71,20.71a3.78,3.78,0,0,1-.67.54l.07.07L163,126.87v46.21Zm86.31-7.88V134.75l-1.88,1.88-2-2-15.76,2.73,1.46-8.46H88.58a3.94,3.94,0,1,1,0-7.88h49L136,119.47l19.05-19V74.83H76.65V165.2Zm-12-35.57,2.66-.46-2.2-2.2Zm10.12-4.14,15.67-15.67-6-6-15.67,15.68Zm24.63-24.63,18-18a5.43,5.43,0,0,0,1.51-3.19,4,4,0,0,0-1.4-2.77l-.12-.13A4.22,4.22,0,0,0,193,75.28v0a4.94,4.94,0,0,0-2.9,1.27l-.05.06,0,0-18.2,18.2Z"/><path class="cls-2" d="M200,73l-.1-.11A9.61,9.61,0,0,0,193,69.72a10.46,10.46,0,0,0-6.81,2.91L165.09,93.69a1.64,1.64,0,0,0-.47,1.15,1.45,1.45,0,0,0,.06.41l-1.26,1.25-.57-.57-2.21,2.22V69.27H71.09V170.76h89.55V125.91l16.1-16.09-.58-.58,1.26-1.25a1.93,1.93,0,0,0,.41.06,1.61,1.61,0,0,0,1.15-.48l20.75-20.75a11.06,11.06,0,0,0,3.22-7.1A9.33,9.33,0,0,0,200,73ZM157.4,129.15v38.37H74.33v-95H157.4v28.87l-18.09,18.09,1.3,1.3-.44,2.53H88.58a1.62,1.62,0,0,0,0,3.24h51l-1.36,7.93L152,132.1l1.25,1.25,4.2-4.2,1.62-1.62Zm-15,3.72-3,.56-.21,0,.56-3.25.7.7,1.51-8.75,8.53,8.53-8.75,1.51Zm10.75-4.1-9.3-9.3,18.95-19,9.3,9.31Zm21.25-20.1L164,98.22l1.07-1.07,10.45,10.45Zm23-24.17-19.64,19.64-9.3-9.3,19.92-19.92h0A7.23,7.23,0,0,1,193,73a6.47,6.47,0,0,1,4.58,2.17l.08.09a6.26,6.26,0,0,1,2.07,4.43A7.86,7.86,0,0,1,197.47,84.5Z"/></g></g></svg>