<svg xmlns="http://www.w3.org/2000/svg" viewBox="0 0 89 146"><defs><style>.cls-1{fill:#b2aca4;}.cls-2{fill:#ede6db;}.cls-3{font-size:33.12px;font-family:NotoSansSC-Black-90ms-RKSJ-H, Noto Sans SC;}.cls-3,.cls-5{fill:#dd4a48;}.cls-4{fill:#ccc;}</style></defs><g id="Layer_2" data-name="Layer 2"><rect class="cls-1" x="3" y="3" width="86" height="121" rx="12"/><rect class="cls-2" width="86" height="121" rx="12"/><text class="cls-3" transform="translate(10.2 35.39)">PDF</text><rect class="cls-4" x="12.47" y="42.9" width="13.53" height="18.1"/><rect class="cls-4" x="29.47" y="42.9" width="46.53" height="4.1"/><rect class="cls-4" x="29.47" y="49.9" width="46.53" height="4.1"/><rect class="cls-4" x="29.47" y="56.9" width="46.53" height="4.1"/><rect class="cls-4" x="12.47" y="63.9" width="63.53" height="4.1"/><rect class="cls-4" x="12.47" y="70.9" width="63.53" height="4.1"/><rect class="cls-4" x="12.47" y="77.9" width="63.53" height="4.1"/><rect class="cls-4" x="12.47" y="84.9" width="63.53" height="21.1"/><path class="cls-1" d="M74.31,123,55.64,146,37,123c-.71-.87.05-2,1.31-2H44V103.87c0-1.73,1.69-3.13,3.79-3.13H62.75c2.1,0,3.79,1.4,3.79,3.13V121H73C74.26,121,75,122.11,74.31,123Z"/><path class="cls-5" d="M72.2,121.24l-18.67,23-18.67-23c-.71-.87,0-2,1.31-2h5.74V102.13c0-1.73,1.7-3.13,3.8-3.13H60.64c2.1,0,3.79,1.4,3.79,3.13v17.08h6.46C72.15,119.21,72.9,120.37,72.2,121.24Z"/></g></svg>