<svg xmlns="http://www.w3.org/2000/svg" viewBox="0 0 46.61 39.82"><defs><style>.cls-1{fill:#193c40;}</style></defs><g id="Layer_2" data-name="Layer 2"><path class="cls-1" d="M45,0H1.59A1.6,1.6,0,0,0,0,1.59V8.73a1.59,1.59,0,0,0,1.59,1.59H45a1.59,1.59,0,0,0,1.59-1.59V1.59A1.6,1.6,0,0,0,45,0Z"/><path class="cls-1" d="M45,14.75H1.59A1.59,1.59,0,0,0,0,16.34v7.14a1.59,1.59,0,0,0,1.59,1.59H45a1.59,1.59,0,0,0,1.59-1.59V16.34A1.59,1.59,0,0,0,45,14.75Z"/><path class="cls-1" d="M45,29.5H1.59A1.59,1.59,0,0,0,0,31.09v7.14a1.59,1.59,0,0,0,1.59,1.59H45a1.59,1.59,0,0,0,1.59-1.59V31.09A1.59,1.59,0,0,0,45,29.5Z"/></g></svg>