<svg xmlns="http://www.w3.org/2000/svg" viewBox="0 0 38.94 38.93"><defs><style>.cls-1{fill:#dd4a48;}</style></defs><g id="Layer_2" data-name="Layer 2"><path class="cls-1" d="M32.21.14A1.59,1.59,0,0,0,31.08.6L.6,31.08a1.59,1.59,0,0,0,0,2.25l5,5a1.6,1.6,0,0,0,1.13.47,1.58,1.58,0,0,0,1.12-.47L38.33,7.85a1.59,1.59,0,0,0,0-2.25l-5-5A1.58,1.58,0,0,0,32.21.14Z"/><path class="cls-1" d="M6.64,0A1.55,1.55,0,0,0,5.52.46L.46,5.52a1.6,1.6,0,0,0,0,2.24L31.17,38.47a1.61,1.61,0,0,0,2.25,0l5-5a1.59,1.59,0,0,0,0-2.25L7.76.46A1.57,1.57,0,0,0,6.64,0Z"/></g></svg>