<svg xmlns="http://www.w3.org/2000/svg" viewBox="0 0 274 274"><defs><style>.cls-1{fill:#ece6db;}.cls-2{fill:#193c40;}</style></defs><g id="Layer_2" data-name="Layer 2"><g id="Layer_1-2" data-name="Layer 1"><circle class="cls-1" cx="137" cy="137" r="128.5"/><path class="cls-2" d="M137,17a120,120,0,0,1,84.85,204.85A120,120,0,1,1,52.15,52.15,119.19,119.19,0,0,1,137,17m0-17A137,137,0,1,0,274,137,137,137,0,0,0,137,0Z"/><path class="cls-2" d="M137,102.28a9.05,9.05,0,0,0-6.33,3c-14,13.9-27.89,28-41.77,42-4,4-4.53,8.45-.42,12.59a8.25,8.25,0,0,0,5.88,2.8c2.31,0,4.6-1.19,6.73-3.28,7.62-7.46,15.09-15.08,22.68-22.58a56,56,0,0,1,4.7-3.66c0,19.32,0,37.43,0,55.55,0,5.68-.12,11.36.2,17,.27,4.76,3.21,7.48,8,7.63h.43c4.79,0,7.71-2.63,8.3-7.58a59.21,59.21,0,0,0,.18-6.8q0-32.3,0-64.59l1.67-1c8.56,8.69,17,17.43,25.69,26,2.11,2.11,4.4,3.31,6.71,3.31a8.3,8.3,0,0,0,5.89-2.81c4.08-4.12,3.54-8.59-.41-12.59-13.88-14.05-27.75-28.1-41.77-42a9.05,9.05,0,0,0-6.33-3Z"/><path class="cls-2" d="M165.2,68.68H108.82L88,68.71c-6.88,0-10.81,3.16-10.82,8.46,0,5.15,4.15,8.77,10.8,8.78q24.33.06,48.65.07Q161.32,86,186,86c6.63,0,10.82-3.64,10.83-8.76,0-5.33-3.89-8.46-10.81-8.48s-13.85,0-20.77,0Z"/></g></g></svg>