<svg xmlns="http://www.w3.org/2000/svg" viewBox="0 0 274 274"><defs><style>.cls-1{fill:#de4948;}.cls-2{fill:#193c40;}.cls-3{fill:#ece6db;}</style></defs><g id="Layer_2" data-name="Layer 2"><g id="Layer_1-2" data-name="Layer 1"><circle class="cls-1" cx="137" cy="137" r="128.5"/><path class="cls-2" d="M137,17a120,120,0,0,1,84.85,204.85A120,120,0,1,1,52.15,52.15,119.19,119.19,0,0,1,137,17m0-17A137,137,0,1,0,274,137,137,137,0,0,0,137,0Z"/><path class="cls-3" d="M145.54,134.35q0,32.29,0,64.59a59.21,59.21,0,0,1-.18,6.8c-.6,5.09-3.68,7.73-8.73,7.57-4.74-.15-7.68-2.87-8-7.63-.32-5.66-.2-11.34-.2-17,0-18.12,0-36.23,0-55.55a56,56,0,0,0-4.7,3.66c-7.59,7.5-15.06,15.12-22.68,22.58-4,3.87-8.45,4.66-12.61.48s-3.53-8.59.42-12.59c13.88-14,27.75-28.1,41.77-42,4-3.94,8.68-3.95,12.66,0,14,13.91,27.89,28,41.77,42,3.95,4,4.49,8.47.41,12.59s-8.68,3.41-12.6-.5c-8.64-8.6-17.13-17.34-25.69-26Z"/><path class="cls-3" d="M137,68.69c16.32,0,32.64,0,49,0,6.92,0,10.82,3.15,10.81,8.48,0,5.12-4.2,8.75-10.83,8.76Q137,86.09,88,86c-6.65,0-10.81-3.63-10.8-8.78,0-5.3,3.94-8.44,10.82-8.46Q112.52,68.65,137,68.69Z"/></g></g></svg>