<svg xmlns="http://www.w3.org/2000/svg" viewBox="0 0 274 274"><defs><style>.cls-1{fill:#de4948;}.cls-2{fill:#193c40;}.cls-3{fill:#ece6db;}</style></defs><g id="Layer_2" data-name="Layer 2"><g id="Layer_1-2" data-name="Layer 1"><circle class="cls-1" cx="137" cy="137" r="128.5"/><path class="cls-2" d="M137,17a120,120,0,0,1,84.85,204.85A120,120,0,1,1,52.15,52.15,119.19,119.19,0,0,1,137,17m0-17A137,137,0,1,0,274,137,137,137,0,0,0,137,0Z"/><rect class="cls-3" x="113.45" y="86.62" width="90.1" height="26.19" rx="13.09"/><rect class="cls-3" x="113.45" y="124.03" width="90.1" height="26.19" rx="13.09"/><rect class="cls-3" x="113.45" y="161.44" width="90.1" height="26.19" rx="13.09"/><circle class="cls-3" cx="83.45" cy="99.37" r="13"/><circle class="cls-3" cx="83.18" cy="137.11" r="12.74"/><circle class="cls-3" cx="83.45" cy="174.37" r="13"/></g></g></svg>