<svg xmlns="http://www.w3.org/2000/svg" viewBox="0 0 274 274"><defs><style>.cls-1{fill:#ece6db;}.cls-2{fill:#193c40;}</style></defs><g id="Layer_2" data-name="Layer 2"><g id="Layer_1-2" data-name="Layer 1"><circle class="cls-1" cx="137" cy="137" r="128.5"/><path class="cls-2" d="M137,17a120,120,0,0,1,84.85,204.85A120,120,0,1,1,52.15,52.15,119.19,119.19,0,0,1,137,17m0-17A137,137,0,1,0,274,137,137,137,0,0,0,137,0Z"/><path class="cls-2" d="M190.46,86.62H126.54a13.14,13.14,0,0,0-13.09,13.1h0a13.13,13.13,0,0,0,13.09,13.09h63.92a13.13,13.13,0,0,0,13.09-13.09h0a13.14,13.14,0,0,0-13.09-13.1Z"/><path class="cls-2" d="M190.46,124H126.54a13.1,13.1,0,0,0,0,26.19h63.92a13.1,13.1,0,0,0,0-26.19Z"/><path class="cls-2" d="M190.46,161.44H126.54a13.13,13.13,0,0,0-13.09,13.09h0a13.13,13.13,0,0,0,13.09,13.09h63.92a13.13,13.13,0,0,0,13.09-13.09h0a13.13,13.13,0,0,0-13.09-13.09Z"/><circle class="cls-2" cx="83.45" cy="99.37" r="13"/><circle class="cls-2" cx="83.18" cy="137.11" r="12.74"/><circle class="cls-2" cx="83.45" cy="174.37" r="13"/></g></g></svg>