<svg xmlns="http://www.w3.org/2000/svg" viewBox="0 0 626.09 738.18"><defs><style>.cls-1,.cls-9{fill:#ede6db;}.cls-1,.cls-3,.cls-8{stroke:#1a3c40;stroke-miterlimit:10;}.cls-1,.cls-8{stroke-width:3px;}.cls-2{fill:#8fbdd3;}.cls-3{fill:none;}.cls-4,.cls-8{fill:#417d7a;}.cls-5{font-size:9.19px;}.cls-10,.cls-5{font-family:NotoSansSC-Regular-90ms-RKSJ-H, Noto Sans SC;}.cls-6{fill:#1a3c40;}.cls-7{fill:#ffb949;}.cls-9{font-size:10.59px;font-family:NotoSerifSC-Regular-90ms-RKSJ-H, Noto Serif SC;}.cls-10{font-size:13.62px;}</style></defs><g id="Layer_2" data-name="Layer 2"><g id="Layer_2-2" data-name="Layer 2"><rect class="cls-1" x="1.5" y="1.5" width="623.09" height="735.18" rx="52.63"/><circle class="cls-2" cx="125.38" cy="110.03" r="15"/><path d="M119.09,105.37h1.31l3,5.9.9,1.94h0c0-.93-.15-2-.15-3v-4.87h1.14v9.38H124l-3-5.89-.9-1.94h0c.05,1,.16,2,.16,2.93v4.9h-1.14Z"/><path d="M127.5,113c0-1.56,1.46-2.31,5-2.6a1.65,1.65,0,0,0-1.84-1.74,4.74,4.74,0,0,0-2.43.83l-.47-.81a6.12,6.12,0,0,1,3.1-1,2.58,2.58,0,0,1,2.83,2.86v4.26h-1l-.1-.94h0a4.69,4.69,0,0,1-2.73,1.12A2.11,2.11,0,0,1,127.5,113Zm5,0v-1.8c-3,.22-3.87.81-3.87,1.73s.71,1.1,1.52,1.1A3.77,3.77,0,0,0,132.54,112.94Z"/><circle class="cls-3" cx="125.38" cy="110.03" r="34.05"/><rect class="cls-4" x="120.76" y="70.78" width="10.39" height="10.39" rx="5.19"/><rect class="cls-4" x="120.76" y="138.88" width="10.39" height="10.39" rx="5.19"/><circle class="cls-3" cx="125.38" cy="110.03" r="69.25"/><circle class="cls-3" cx="125.38" cy="110.03" r="51.94"/><rect class="cls-4" x="112.68" y="156.2" width="10.39" height="10.39" rx="5.19"/><rect class="cls-4" x="127.69" y="156.2" width="10.39" height="10.39" rx="5.19"/><rect class="cls-4" x="171.55" y="111.18" width="10.39" height="10.39" rx="5.19"/><rect class="cls-4" x="171.55" y="97.33" width="10.39" height="10.39" rx="5.19"/><rect class="cls-4" x="190.01" y="103.14" width="10.39" height="10.39" rx="5.19"/><rect class="cls-4" x="67.67" y="111.18" width="10.39" height="10.39" rx="5.19"/><rect class="cls-4" x="67.67" y="97.33" width="10.39" height="10.39" rx="5.19"/><rect class="cls-4" x="127.69" y="53.47" width="10.39" height="10.39" rx="5.19"/><rect class="cls-4" x="112.68" y="53.47" width="10.39" height="10.39" rx="5.19"/><circle class="cls-2" cx="496.06" cy="485.12" r="15"/><path d="M489.77,480.47h1.31l3,5.89.9,1.94h0c0-.93-.15-2-.15-3v-4.86H496v9.38h-1.32l-3-5.89-.9-1.95h0c.05,1,.16,2,.16,2.93v4.91h-1.14Z"/><path d="M498.18,488c0-1.55,1.46-2.31,5-2.6a1.65,1.65,0,0,0-1.84-1.74,4.83,4.83,0,0,0-2.43.83l-.47-.8a6,6,0,0,1,3.1-1,2.58,2.58,0,0,1,2.83,2.86v4.26h-1l-.1-1h0a4.69,4.69,0,0,1-2.73,1.12A2.11,2.11,0,0,1,498.18,488Zm5,0v-1.8c-3,.23-3.87.81-3.87,1.73s.71,1.1,1.52,1.1A3.77,3.77,0,0,0,503.22,488Z"/><circle class="cls-3" cx="496.06" cy="485.12" r="34.05"/><rect class="cls-4" x="491.44" y="445.88" width="10.39" height="10.39" rx="5.19"/><rect class="cls-4" x="491.44" y="513.98" width="10.39" height="10.39" rx="5.19"/><circle class="cls-3" cx="496.06" cy="485.12" r="51.94"/><rect class="cls-4" x="483.36" y="531.29" width="10.39" height="10.39" rx="5.19"/><rect class="cls-4" x="498.37" y="531.29" width="10.39" height="10.39" rx="5.19"/><rect class="cls-4" x="542.23" y="486.27" width="10.39" height="10.39" rx="5.19"/><rect class="cls-4" x="542.23" y="472.42" width="10.39" height="10.39" rx="5.19"/><rect class="cls-4" x="438.35" y="486.27" width="10.39" height="10.39" rx="5.19"/><rect class="cls-4" x="438.35" y="472.42" width="10.39" height="10.39" rx="5.19"/><rect class="cls-4" x="498.37" y="428.56" width="10.39" height="10.39" rx="5.19"/><rect class="cls-4" x="483.36" y="428.56" width="10.39" height="10.39" rx="5.19"/><circle class="cls-2" cx="472.23" cy="110.03" r="15"/><path d="M465.94,105.37h1.31l3,5.9.91,1.94h0c0-.93-.15-2-.15-3v-4.87h1.14v9.38h-1.31l-3-5.89-.9-1.94h0c.05,1,.16,2,.16,2.93v4.9h-1.14Z"/><path d="M474.35,113c0-1.56,1.46-2.31,5-2.6a1.65,1.65,0,0,0-1.84-1.74,4.74,4.74,0,0,0-2.43.83l-.47-.81a6.12,6.12,0,0,1,3.1-1,2.58,2.58,0,0,1,2.83,2.86v4.26h-1l-.1-.94h0a4.69,4.69,0,0,1-2.73,1.12A2.11,2.11,0,0,1,474.35,113Zm5,0v-1.8c-3,.22-3.87.81-3.87,1.73s.72,1.1,1.52,1.1A3.77,3.77,0,0,0,479.39,112.94Z"/><circle class="cls-3" cx="472.23" cy="110.03" r="34.05"/><rect class="cls-4" x="467.61" y="70.78" width="10.39" height="10.39" rx="5.19"/><rect class="cls-4" x="467.61" y="138.88" width="10.39" height="10.39" rx="5.19"/><circle class="cls-3" cx="472.23" cy="110.03" r="69.25"/><circle class="cls-3" cx="472.23" cy="110.03" r="51.94"/><rect class="cls-4" x="459.53" y="156.2" width="10.39" height="10.39" rx="5.19"/><rect class="cls-4" x="474.54" y="156.2" width="10.39" height="10.39" rx="5.19"/><rect class="cls-4" x="518.4" y="111.18" width="10.39" height="10.39" rx="5.19"/><rect class="cls-4" x="518.4" y="97.33" width="10.39" height="10.39" rx="5.19"/><rect class="cls-4" x="397.42" y="103.14" width="10.39" height="10.39" rx="5.19"/><rect class="cls-4" x="414.52" y="111.18" width="10.39" height="10.39" rx="5.19"/><rect class="cls-4" x="414.52" y="97.33" width="10.39" height="10.39" rx="5.19"/><rect class="cls-4" x="474.54" y="53.47" width="10.39" height="10.39" rx="5.19"/><rect class="cls-4" x="459.53" y="53.47" width="10.39" height="10.39" rx="5.19"/><text class="cls-5" transform="translate(134.29 573.86)">2.8</text><text class="cls-5" transform="translate(107.28 585.93)">Sodium ion, Na+</text><text class="cls-5" transform="translate(494.38 573.86)">2.8</text><text class="cls-5" transform="translate(467.37 585.93)">Sodium ion, Na+</text><polygon points="547.97 414.72 547.97 415.79 566.24 415.79 566.24 544.21 547.97 544.21 547.97 545.29 567.32 545.29 567.32 414.72 547.97 414.72"/><polygon points="437.82 544.21 419.55 544.21 419.55 415.79 437.82 415.79 437.82 414.72 418.48 414.72 418.48 545.29 437.82 545.29 437.82 544.21"/><polygon points="587.97 418.12 587.97 416.53 582.76 416.53 582.76 411.32 581.17 411.32 581.17 416.53 575.97 416.53 575.97 418.12 581.17 418.12 581.17 423.32 582.76 423.32 582.76 418.12 587.97 418.12"/><circle class="cls-2" cx="138.62" cy="485.12" r="15"/><path d="M132.33,480.47h1.31l3,5.89.9,1.94h0c0-.93-.15-2-.15-3v-4.86h1.14v9.38h-1.32l-3-5.89-.9-1.95h0c.05,1,.16,2,.16,2.93v4.91h-1.14Z"/><path d="M140.74,488c0-1.55,1.46-2.31,5-2.6a1.65,1.65,0,0,0-1.84-1.74,4.83,4.83,0,0,0-2.43.83l-.47-.8a6,6,0,0,1,3.1-1,2.58,2.58,0,0,1,2.83,2.86v4.26h-1l-.1-1h0a4.69,4.69,0,0,1-2.73,1.12A2.11,2.11,0,0,1,140.74,488Zm5,0v-1.8c-3,.23-3.87.81-3.87,1.73s.71,1.1,1.51,1.1A3.77,3.77,0,0,0,145.78,488Z"/><circle class="cls-3" cx="138.62" cy="485.12" r="34.05"/><rect class="cls-4" x="134" y="445.88" width="10.39" height="10.39" rx="5.19"/><rect class="cls-4" x="134" y="513.98" width="10.39" height="10.39" rx="5.19"/><circle class="cls-3" cx="138.62" cy="485.12" r="51.94"/><rect class="cls-4" x="125.92" y="531.29" width="10.39" height="10.39" rx="5.19"/><rect class="cls-4" x="140.92" y="531.29" width="10.39" height="10.39" rx="5.19"/><rect class="cls-4" x="184.79" y="486.27" width="10.39" height="10.39" rx="5.19"/><rect class="cls-4" x="184.79" y="472.42" width="10.39" height="10.39" rx="5.19"/><rect class="cls-4" x="80.91" y="486.27" width="10.39" height="10.39" rx="5.19"/><rect class="cls-4" x="80.91" y="472.42" width="10.39" height="10.39" rx="5.19"/><rect class="cls-4" x="140.92" y="428.56" width="10.39" height="10.39" rx="5.19"/><rect class="cls-4" x="125.92" y="428.56" width="10.39" height="10.39" rx="5.19"/><polygon points="190.53 414.72 190.53 415.79 208.8 415.79 208.8 544.21 190.53 544.21 190.53 545.29 209.87 545.29 209.87 414.72 190.53 414.72"/><polygon points="80.38 544.21 62.11 544.21 62.11 415.79 80.38 415.79 80.38 414.72 61.04 414.72 61.04 545.29 80.38 545.29 80.38 544.21"/><polygon points="230.53 418.12 230.53 416.53 225.32 416.53 225.32 411.32 223.73 411.32 223.73 416.53 218.53 416.53 218.53 418.12 223.73 418.12 223.73 423.32 225.32 423.32 225.32 418.12 230.53 418.12"/><text class="cls-5" transform="translate(115.81 198.77)">2.8.1</text><text class="cls-5" transform="translate(89.68 210.84)">Sodium atom, Na</text><text class="cls-5" transform="translate(467.95 198.77)">2.8.1</text><text class="cls-5" transform="translate(441.83 210.84)">Sodium atom, Na</text><text class="cls-5" transform="translate(302.03 195.24)">2.6</text><text class="cls-5" transform="translate(275.02 207.31)">Oxygen atom, O</text><text class="cls-5" transform="translate(306.39 573.86)">2.8</text><text class="cls-5" transform="translate(286.44 585.93)">Oxide ion, O</text><text class="cls-5" transform="translate(337.14 582.87) scale(0.58)">2-</text><polygon points="363.01 414.72 363.01 415.79 379.59 415.79 379.59 544.21 363.01 544.21 363.01 545.29 380.56 545.29 380.56 414.72 363.01 414.72"/><polygon points="263.05 544.21 246.47 544.21 246.47 415.79 263.05 415.79 263.05 414.72 245.5 414.72 245.5 545.29 263.05 545.29 263.05 544.21"/><polygon class="cls-6" points="307.82 386.74 325.1 376.95 313.32 376.95 313.32 334.67 303.11 334.67 303.11 376.95 290.55 376.95 307.82 386.74"/><rect x="399.1" y="418.51" width="12.36" height="1.77"/><circle class="cls-7" cx="306.72" cy="106.97" r="14.34"/><path d="M303.2,106.7c0-3.26,1.59-5.18,3.87-5.18s3.88,1.92,3.88,5.18-1.6,5.28-3.88,5.28S303.2,110,303.2,106.7Zm6.41,0c0-2.54-1-4-2.54-4s-2.54,1.51-2.54,4,1,4.14,2.54,4.14S309.61,109.28,309.61,106.7Z"/><circle class="cls-3" cx="306.72" cy="106.97" r="32.55"/><circle class="cls-3" cx="306.72" cy="106.97" r="49.65"/><polygon class="cls-4" points="311.26 70.46 310.06 69.27 306.14 73.19 302.22 69.27 301.02 70.46 304.94 74.38 301.02 78.31 302.22 79.5 306.14 75.58 310.06 79.5 311.26 78.31 307.34 74.38 311.26 70.46"/><polygon class="cls-4" points="312.77 135.96 311.58 134.76 307.65 138.68 303.73 134.76 302.54 135.96 306.46 139.88 302.54 143.8 303.73 145 307.65 141.08 311.58 145 312.77 143.8 308.85 139.88 312.77 135.96"/><polygon class="cls-4" points="262.3 104.22 261.1 103.02 257.18 106.94 253.26 103.02 252.06 104.22 255.98 108.14 252.06 112.06 253.26 113.26 257.18 109.34 261.1 113.26 262.3 112.06 258.38 108.14 262.3 104.22"/><polygon class="cls-4" points="361.15 103.45 359.95 102.25 356.03 106.17 352.11 102.25 350.91 103.45 354.83 107.37 350.91 111.3 352.11 112.49 356.03 108.57 359.95 112.49 361.15 111.3 357.23 107.37 361.15 103.45"/><polygon class="cls-4" points="306.73 152.59 305.53 151.39 301.61 155.31 297.69 151.39 296.49 152.59 300.41 156.51 296.49 160.43 297.69 161.63 301.61 157.71 305.53 161.63 306.73 160.43 302.81 156.51 306.73 152.59"/><polygon class="cls-4" points="321.85 152.59 320.65 151.39 316.73 155.31 312.8 151.39 311.61 152.59 315.53 156.51 311.61 160.43 312.8 161.63 316.73 157.71 320.65 161.63 321.85 160.43 317.92 156.51 321.85 152.59"/><polygon class="cls-4" points="305.22 54.33 304.02 53.13 300.1 57.05 296.18 53.13 294.98 54.33 298.9 58.25 294.98 62.17 296.18 63.37 300.1 59.45 304.02 63.37 305.22 62.17 301.3 58.25 305.22 54.33"/><polygon class="cls-4" points="321.85 54.33 320.65 53.13 316.73 57.05 312.8 53.13 311.61 54.33 315.53 58.25 311.61 62.17 312.8 63.37 316.73 59.45 320.65 63.37 321.85 62.17 317.92 58.25 321.85 54.33"/><circle class="cls-7" cx="310.25" cy="479.41" r="14.34"/><path d="M306.73,479.14c0-3.26,1.6-5.18,3.87-5.18s3.88,1.92,3.88,5.18-1.6,5.28-3.88,5.28S306.73,482.45,306.73,479.14Zm6.41,0c0-2.53-1-4-2.54-4s-2.54,1.51-2.54,4,1,4.14,2.54,4.14S313.14,481.73,313.14,479.14Z"/><circle class="cls-3" cx="310.25" cy="479.41" r="32.55"/><circle class="cls-3" cx="310.25" cy="479.41" r="49.65"/><polygon class="cls-4" points="314.79 442.91 313.6 441.71 309.67 445.63 305.75 441.71 304.55 442.91 308.48 446.83 304.55 450.75 305.75 451.95 309.67 448.03 313.6 451.95 314.79 450.75 310.87 446.83 314.79 442.91"/><polygon class="cls-4" points="316.31 508.4 315.11 507.2 311.19 511.13 307.26 507.2 306.07 508.4 309.99 512.32 306.07 516.25 307.26 517.44 311.19 513.52 315.11 517.44 316.31 516.25 312.38 512.32 316.31 508.4"/><polygon class="cls-4" points="265.83 468.72 264.63 467.52 260.71 471.45 256.79 467.52 255.59 468.72 259.51 472.64 255.59 476.57 256.79 477.76 260.71 473.84 264.63 477.76 265.83 476.57 261.91 472.64 265.83 468.72"/><polygon class="cls-4" points="364.68 481.19 363.48 479.99 359.56 483.92 355.64 479.99 354.44 481.19 358.36 485.11 354.44 489.04 355.64 490.23 359.56 486.31 363.48 490.23 364.68 489.04 360.76 485.11 364.68 481.19"/><polygon class="cls-4" points="310.26 525.03 309.06 523.83 305.14 527.75 301.22 523.83 300.02 525.03 303.94 528.95 300.02 532.87 301.22 534.07 305.14 530.15 309.06 534.07 310.26 532.87 306.34 528.95 310.26 525.03"/><polygon class="cls-4" points="325.38 525.03 324.18 523.83 320.25 527.75 316.33 523.83 315.14 525.03 319.06 528.95 315.14 532.87 316.33 534.07 320.25 530.15 324.18 534.07 325.38 532.87 321.45 528.95 325.38 525.03"/><polygon class="cls-4" points="308.75 426.77 307.55 425.57 303.63 429.5 299.71 425.57 298.51 426.77 302.43 430.69 298.51 434.62 299.71 435.81 303.63 431.89 307.55 435.81 308.75 434.62 304.83 430.69 308.75 426.77"/><polygon class="cls-4" points="325.38 426.77 324.18 425.57 320.25 429.5 316.33 425.57 315.14 426.77 319.06 430.69 315.14 434.62 316.33 435.81 320.25 431.89 324.18 435.81 325.38 434.62 321.45 430.69 325.38 426.77"/><path class="cls-3" d="M215.52,113.14s9.23,5.42,18.77,1.1"/><path class="cls-6" d="M239.35,110.94a30.32,30.32,0,0,0-4.72,8.57l-1.06-5-4-3.11A30.42,30.42,0,0,0,239.35,110.94Z"/><path class="cls-3" d="M373.86,115.27A19.62,19.62,0,0,0,392,110.94"/><path class="cls-6" d="M368.21,113.14a30.48,30.48,0,0,1,6.46,7.34l0-5,3.21-3.91A29.91,29.91,0,0,1,368.21,113.14Z"/><rect class="cls-8" x="145.36" y="237.59" width="351.26" height="58.69" rx="14.45"/><text class="cls-9" transform="translate(160.37 258.47)">Each sodium atom transfer 1 valence electron to one oxygen <tspan x="0" y="12.71">atom. Both sodium ion, Na</tspan></text><text class="cls-9" transform="translate(304.46 267.65) scale(0.58)">+</text><text class="cls-9" transform="translate(308.02 271.18)"><tspan xml:space="preserve"> and oxide ion, O</tspan></text><text class="cls-9" transform="translate(401.19 267.65) scale(0.58)">2-</text><text class="cls-9" transform="translate(406.61 271.18)"><tspan xml:space="preserve"> achieve stable </tspan><tspan x="-246.24" y="12.71">octet electron arrangement of 2.8</tspan></text><rect class="cls-8" x="145.36" y="605.62" width="351.26" height="58.69" rx="14.45"/><text class="cls-9" transform="translate(160.37 626.5)">Sodium ion and oxide ion with opposite charges are attracted to <tspan x="0" y="12.71">each other by strong electrostatic force of attraction forming </tspan><tspan x="0" y="25.42">ionic bond</tspan></text><rect class="cls-4" x="354.17" y="467.64" width="10.39" height="10.39" rx="5.19"/><rect class="cls-4" x="255.32" y="480.88" width="10.39" height="10.39" rx="5.19"/><text class="cls-10" transform="translate(389.33 423.44)">2</text></g></g></svg>