<svg xmlns="http://www.w3.org/2000/svg" viewBox="0 0 472.53 738.18"><defs><style>.cls-1,.cls-9{fill:#ede6db;}.cls-1,.cls-3,.cls-8{stroke:#1a3c40;stroke-miterlimit:10;}.cls-1,.cls-8{stroke-width:3px;}.cls-2{fill:#8fbdd3;}.cls-3{fill:none;}.cls-4,.cls-8{fill:#417d7a;}.cls-5{font-size:9.19px;font-family:NotoSansSC-Regular-90ms-RKSJ-H, Noto Sans SC;}.cls-6{fill:#1a3c40;}.cls-7{fill:#ff5349;}.cls-9{font-size:10.59px;font-family:NotoSerifSC-Regular-90ms-RKSJ-H, Noto Serif SC;}</style></defs><g id="Layer_2" data-name="Layer 2"><g id="Layer_2-2" data-name="Layer 2"><rect class="cls-1" x="1.5" y="1.5" width="469.53" height="735.18" rx="45.69"/><circle class="cls-2" cx="123.17" cy="89.29" r="15"/><path d="M116.88,84.63h1.32l3,5.89.9,2h0c0-.93-.16-2-.16-3V84.63h1.14V94H121.8l-3-5.89-.9-1.94h0c0,1,.15,2,.15,2.93V94h-1.14Z"/><path d="M125.29,92.21c0-1.56,1.46-2.32,5-2.6a1.65,1.65,0,0,0-1.85-1.74,4.86,4.86,0,0,0-2.43.82l-.47-.8a6.19,6.19,0,0,1,3.1-1,2.59,2.59,0,0,1,2.84,2.86V94h-1l-.1-.94h0a4.68,4.68,0,0,1-2.73,1.11C126.36,94.18,125.29,93.46,125.29,92.21Zm5,0V90.4c-3,.22-3.88.81-3.88,1.72s.72,1.11,1.52,1.11A3.82,3.82,0,0,0,130.34,92.2Z"/><circle class="cls-3" cx="123.17" cy="89.29" r="34.05"/><rect class="cls-4" x="118.55" y="50.04" width="10.39" height="10.39" rx="5.19"/><rect class="cls-4" x="118.55" y="118.14" width="10.39" height="10.39" rx="5.19"/><circle class="cls-3" cx="123.17" cy="89.29" r="69.25"/><circle class="cls-3" cx="123.17" cy="89.29" r="51.94"/><rect class="cls-4" x="110.47" y="135.46" width="10.39" height="10.39" rx="5.19"/><rect class="cls-4" x="125.48" y="135.46" width="10.39" height="10.39" rx="5.19"/><rect class="cls-4" x="169.34" y="90.44" width="10.39" height="10.39" rx="5.19"/><rect class="cls-4" x="169.34" y="76.59" width="10.39" height="10.39" rx="5.19"/><rect class="cls-4" x="187.81" y="82.4" width="10.39" height="10.39" rx="5.19"/><rect class="cls-4" x="65.46" y="90.44" width="10.39" height="10.39" rx="5.19"/><rect class="cls-4" x="65.46" y="76.59" width="10.39" height="10.39" rx="5.19"/><rect class="cls-4" x="125.48" y="32.73" width="10.39" height="10.39" rx="5.19"/><rect class="cls-4" x="110.47" y="32.73" width="10.39" height="10.39" rx="5.19"/><text class="cls-5" transform="translate(113.6 184.21)">2.8.1</text><text class="cls-5" transform="translate(86.59 196.28)">Sodium atom, Na</text><text class="cls-5" transform="translate(321.01 184.21)">2.8.7</text><text class="cls-5" transform="translate(294 196.28)">Chlorine atom, Cl</text><circle class="cls-2" cx="132.07" cy="489.97" r="15"/><path d="M125.78,483.56h1.31l3,5.89.9,1.94h0c0-.93-.15-2-.15-3v-4.86H132v9.37h-1.32l-3-5.89-.9-1.94h0c0,1,.16,2,.16,2.93v4.9h-1.14Z"/><path d="M134.19,491.13c0-1.56,1.45-2.31,5-2.6a1.65,1.65,0,0,0-1.84-1.74,4.83,4.83,0,0,0-2.43.83l-.47-.8a6,6,0,0,1,3.1-1,2.58,2.58,0,0,1,2.83,2.86v4.26h-1l-.1-.94h0a4.69,4.69,0,0,1-2.73,1.12A2.11,2.11,0,0,1,134.19,491.13Zm5,0v-1.8c-3,.23-3.87.81-3.87,1.73s.71,1.1,1.51,1.1A3.77,3.77,0,0,0,139.23,491.12Z"/><circle class="cls-3" cx="132.07" cy="489.97" r="34.05"/><rect class="cls-4" x="127.45" y="450.73" width="10.39" height="10.39" rx="5.19"/><rect class="cls-4" x="127.45" y="518.83" width="10.39" height="10.39" rx="5.19"/><circle class="cls-3" cx="132.07" cy="489.97" r="51.94"/><rect class="cls-4" x="119.37" y="536.14" width="10.39" height="10.39" rx="5.19"/><rect class="cls-4" x="134.37" y="536.14" width="10.39" height="10.39" rx="5.19"/><rect class="cls-4" x="178.23" y="477.28" width="10.39" height="10.39" rx="5.19"/><rect class="cls-4" x="74.36" y="491.13" width="10.39" height="10.39" rx="5.19"/><rect class="cls-4" x="74.36" y="477.28" width="10.39" height="10.39" rx="5.19"/><rect class="cls-4" x="134.37" y="433.42" width="10.39" height="10.39" rx="5.19"/><rect class="cls-4" x="119.37" y="433.42" width="10.39" height="10.39" rx="5.19"/><text class="cls-5" transform="translate(127.67 584.89)">2.8</text><text class="cls-5" transform="translate(100.66 596.96)">Sodium ion, Na+</text><text class="cls-5" transform="translate(320.95 584.89)">2.8.8</text><text class="cls-5" transform="translate(293.95 596.96)">Chloride ion, Cl-</text><polygon points="189.21 425.75 189.21 426.82 207.48 426.82 207.48 555.24 189.21 555.24 189.21 556.32 208.55 556.32 208.55 425.75 189.21 425.75"/><polygon points="79.06 555.24 60.79 555.24 60.79 426.82 79.06 426.82 79.06 425.75 59.71 425.75 59.71 556.32 79.06 556.32 79.06 555.24"/><polygon points="229.2 429.15 229.2 427.56 224 427.56 224 422.36 222.41 422.36 222.41 427.56 217.21 427.56 217.21 429.15 222.41 429.15 222.41 434.35 224 434.35 224 429.15 229.2 429.15"/><polygon points="389.33 425.75 389.33 426.82 409.81 426.82 409.81 555.24 389.33 555.24 389.33 556.32 411.01 556.32 411.01 425.75 389.33 425.75"/><polygon points="265.86 555.24 245.38 555.24 245.38 426.82 265.86 426.82 265.86 425.75 244.17 425.75 244.17 556.32 265.86 556.32 265.86 555.24"/><polygon class="cls-6" points="225.3 372.18 242.58 362.39 230.8 362.39 230.8 320.11 220.59 320.11 220.59 362.39 208.02 362.39 225.3 372.18"/><rect x="418.96" y="429.55" width="12.36" height="1.77"/><circle class="cls-7" cx="324.82" cy="92.4" r="14.34"/><path d="M317.14,93.07c0-3.25,1.89-5.23,4.52-5.23a3.78,3.78,0,0,1,2.77,1.23l-.74.81a2.72,2.72,0,0,0-2-.91c-1.92,0-3.19,1.56-3.19,4.07s1.27,4.12,3.19,4.12a2.9,2.9,0,0,0,2.26-1.11l.74.78a3.89,3.89,0,0,1-3.12,1.46C319,98.29,317.14,96.36,317.14,93.07Z"/><path d="M329,95.6V88.19h-2.64v-1h3.92V95.7a1.35,1.35,0,0,0,1.48,1.53,3.38,3.38,0,0,0,1.4-.33l.32.95a4.55,4.55,0,0,1-2,.44C329.87,98.29,329,97.37,329,95.6Z"/><circle class="cls-3" cx="324.82" cy="92.4" r="32.55"/><circle class="cls-3" cx="324.82" cy="92.4" r="67.3"/><circle class="cls-3" cx="324.82" cy="92.4" r="49.65"/><polygon class="cls-4" points="329.36 55.9 328.16 54.7 324.24 58.62 320.31 54.7 319.12 55.9 323.04 59.82 319.12 63.74 320.31 64.94 324.24 61.02 328.16 64.94 329.36 63.74 325.44 59.82 329.36 55.9"/><polygon class="cls-4" points="330.87 121.39 329.67 120.2 325.75 124.12 321.83 120.2 320.63 121.39 324.55 125.32 320.63 129.24 321.83 130.44 325.75 126.52 329.67 130.44 330.87 129.24 326.95 125.32 330.87 121.39"/><polygon class="cls-4" points="280.98 79.07 279.79 77.87 275.86 81.79 271.94 77.87 270.74 79.07 274.67 82.99 270.74 86.91 271.94 88.11 275.86 84.19 279.79 88.11 280.98 86.91 277.06 82.99 280.98 79.07"/><polygon class="cls-4" points="262.45 79.07 261.25 77.87 257.33 81.79 253.41 77.87 252.21 79.07 256.13 82.99 252.21 86.91 253.41 88.11 257.33 84.19 261.25 88.11 262.45 86.91 258.53 82.99 262.45 79.07"/><polygon class="cls-4" points="280.98 94.19 279.79 92.99 275.86 96.91 271.94 92.99 270.74 94.19 274.67 98.11 270.74 102.03 271.94 103.23 275.86 99.31 279.79 103.23 280.98 102.03 277.06 98.11 280.98 94.19"/><polygon class="cls-4" points="379.24 79.07 378.04 77.87 374.12 81.79 370.2 77.87 369 79.07 372.92 82.99 369 86.91 370.2 88.11 374.12 84.19 378.04 88.11 379.24 86.91 375.32 82.99 379.24 79.07"/><polygon class="cls-4" points="379.24 94.19 378.04 92.99 374.12 96.91 370.2 92.99 369 94.19 372.92 98.11 369 102.03 370.2 103.23 374.12 99.31 378.04 103.23 379.24 102.03 375.32 98.11 379.24 94.19"/><polygon class="cls-4" points="396.89 79.07 395.69 77.87 391.77 81.79 387.85 77.87 386.65 79.07 390.57 82.99 386.65 86.91 387.85 88.11 391.77 84.19 395.69 88.11 396.89 86.91 392.97 82.99 396.89 79.07"/><polygon class="cls-4" points="396.89 94.19 395.69 92.99 391.77 96.91 387.85 92.99 386.65 94.19 390.57 98.11 386.65 102.03 387.85 103.23 391.77 99.31 395.69 103.23 396.89 102.03 392.97 98.11 396.89 94.19"/><polygon class="cls-4" points="324.82 138.02 323.62 136.82 319.7 140.75 315.78 136.82 314.58 138.02 318.5 141.94 314.58 145.87 315.78 147.06 319.7 143.14 323.62 147.06 324.82 145.87 320.9 141.94 324.82 138.02"/><polygon class="cls-4" points="339.94 138.02 338.74 136.82 334.82 140.75 330.9 136.82 329.7 138.02 333.62 141.94 329.7 145.87 330.9 147.06 334.82 143.14 338.74 147.06 339.94 145.87 336.02 141.94 339.94 138.02"/><polygon class="cls-4" points="324.82 154.79 323.62 153.59 319.7 157.51 315.78 153.59 314.58 154.79 318.5 158.71 314.58 162.63 315.78 163.83 319.7 159.91 323.62 163.83 324.82 162.63 320.9 158.71 324.82 154.79"/><polygon class="cls-4" points="339.94 154.79 338.74 153.59 334.82 157.51 330.9 153.59 329.7 154.79 333.62 158.71 329.7 162.63 330.9 163.83 334.82 159.91 338.74 163.83 339.94 162.63 336.02 158.71 339.94 154.79"/><polygon class="cls-4" points="323.31 39.77 322.11 38.57 318.19 42.49 314.27 38.57 313.07 39.77 316.99 43.69 313.07 47.61 314.27 48.81 318.19 44.89 322.11 48.81 323.31 47.61 319.39 43.69 323.31 39.77"/><polygon class="cls-4" points="339.94 39.77 338.74 38.57 334.82 42.49 330.9 38.57 329.7 39.77 333.62 43.69 329.7 47.61 330.9 48.81 334.82 44.89 338.74 48.81 339.94 47.61 336.02 43.69 339.94 39.77"/><polygon class="cls-4" points="323.31 21.23 322.11 20.03 318.19 23.95 314.27 20.03 313.07 21.23 316.99 25.15 313.07 29.07 314.27 30.27 318.19 26.35 322.11 30.27 323.31 29.07 319.39 25.15 323.31 21.23"/><polygon class="cls-4" points="339.94 21.23 338.74 20.03 334.82 23.95 330.9 20.03 329.7 21.23 333.62 25.15 329.7 29.07 330.9 30.27 334.82 26.35 338.74 30.27 339.94 29.07 336.02 25.15 339.94 21.23"/><circle class="cls-7" cx="324.82" cy="487.8" r="14.34"/><path d="M317.14,488.46c0-3.25,1.89-5.23,4.52-5.23a3.78,3.78,0,0,1,2.77,1.23l-.74.81a2.72,2.72,0,0,0-2-.9c-1.92,0-3.19,1.55-3.19,4.06s1.27,4.12,3.19,4.12a2.9,2.9,0,0,0,2.26-1.11l.74.79a3.92,3.92,0,0,1-3.12,1.46C319,493.69,317.14,491.75,317.14,488.46Z"/><path d="M329,491v-7.42h-2.64v-1h3.92v8.54a1.35,1.35,0,0,0,1.48,1.53,3.38,3.38,0,0,0,1.4-.33l.32.95a4.55,4.55,0,0,1-2,.45C329.87,493.69,329,492.76,329,491Z"/><circle class="cls-3" cx="324.82" cy="487.8" r="32.55"/><circle class="cls-3" cx="324.82" cy="487.8" r="67.3"/><circle class="cls-3" cx="324.82" cy="487.8" r="49.65"/><polygon class="cls-4" points="329.36 451.29 328.16 450.09 324.24 454.01 320.31 450.09 319.12 451.29 323.04 455.21 319.12 459.13 320.31 460.33 324.24 456.41 328.16 460.33 329.36 459.13 325.44 455.21 329.36 451.29"/><polygon class="cls-4" points="330.87 516.79 329.67 515.59 325.75 519.51 321.83 515.59 320.63 516.79 324.55 520.71 320.63 524.63 321.83 525.83 325.75 521.91 329.67 525.83 330.87 524.63 326.95 520.71 330.87 516.79"/><polygon class="cls-4" points="280.98 474.46 279.79 473.26 275.86 477.18 271.94 473.26 270.74 474.46 274.67 478.38 270.74 482.3 271.94 483.5 275.86 479.58 279.79 483.5 280.98 482.3 277.06 478.38 280.98 474.46"/><polygon class="cls-4" points="262.45 474.46 261.25 473.26 257.33 477.18 253.41 473.26 252.21 474.46 256.13 478.38 252.21 482.3 253.41 483.5 257.33 479.58 261.25 483.5 262.45 482.3 258.53 478.38 262.45 474.46"/><polygon class="cls-4" points="280.98 489.58 279.79 488.38 275.86 492.3 271.94 488.38 270.74 489.58 274.67 493.5 270.74 497.42 271.94 498.62 275.86 494.7 279.79 498.62 280.98 497.42 277.06 493.5 280.98 489.58"/><polygon class="cls-4" points="379.24 474.46 378.04 473.26 374.12 477.18 370.2 473.26 369 474.46 372.92 478.38 369 482.3 370.2 483.5 374.12 479.58 378.04 483.5 379.24 482.3 375.32 478.38 379.24 474.46"/><polygon class="cls-4" points="379.24 489.58 378.04 488.38 374.12 492.3 370.2 488.38 369 489.58 372.92 493.5 369 497.42 370.2 498.62 374.12 494.7 378.04 498.62 379.24 497.42 375.32 493.5 379.24 489.58"/><polygon class="cls-4" points="396.89 474.46 395.69 473.26 391.77 477.18 387.85 473.26 386.65 474.46 390.57 478.38 386.65 482.3 387.85 483.5 391.77 479.58 395.69 483.5 396.89 482.3 392.97 478.38 396.89 474.46"/><polygon class="cls-4" points="396.89 489.58 395.69 488.38 391.77 492.3 387.85 488.38 386.65 489.58 390.57 493.5 386.65 497.42 387.85 498.62 391.77 494.7 395.69 498.62 396.89 497.42 392.97 493.5 396.89 489.58"/><polygon class="cls-4" points="324.82 533.41 323.62 532.22 319.7 536.14 315.78 532.22 314.58 533.41 318.5 537.34 314.58 541.26 315.78 542.46 319.7 538.53 323.62 542.46 324.82 541.26 320.9 537.34 324.82 533.41"/><polygon class="cls-4" points="339.94 533.41 338.74 532.22 334.82 536.14 330.9 532.22 329.7 533.41 333.62 537.34 329.7 541.26 330.9 542.46 334.82 538.53 338.74 542.46 339.94 541.26 336.02 537.34 339.94 533.41"/><polygon class="cls-4" points="324.82 550.18 323.62 548.99 319.7 552.91 315.78 548.99 314.58 550.18 318.5 554.11 314.58 558.03 315.78 559.22 319.7 555.3 323.62 559.22 324.82 558.03 320.9 554.11 324.82 550.18"/><polygon class="cls-4" points="339.94 550.18 338.74 548.99 334.82 552.91 330.9 548.99 329.7 550.18 333.62 554.11 329.7 558.03 330.9 559.22 334.82 555.3 338.74 559.22 339.94 558.03 336.02 554.11 339.94 550.18"/><polygon class="cls-4" points="323.31 435.16 322.11 433.96 318.19 437.88 314.27 433.96 313.07 435.16 316.99 439.08 313.07 443 314.27 444.2 318.19 440.28 322.11 444.2 323.31 443 319.39 439.08 323.31 435.16"/><polygon class="cls-4" points="339.94 435.16 338.74 433.96 334.82 437.88 330.9 433.96 329.7 435.16 333.62 439.08 329.7 443 330.9 444.2 334.82 440.28 338.74 444.2 339.94 443 336.02 439.08 339.94 435.16"/><polygon class="cls-4" points="323.31 416.62 322.11 415.43 318.19 419.35 314.27 415.43 313.07 416.62 316.99 420.55 313.07 424.47 314.27 425.67 318.19 421.74 322.11 425.67 323.31 424.47 319.39 420.55 323.31 416.62"/><polygon class="cls-4" points="339.94 416.62 338.74 415.43 334.82 419.35 330.9 415.43 329.7 416.62 333.62 420.55 329.7 424.47 330.9 425.67 334.82 421.74 338.74 425.67 339.94 424.47 336.02 420.55 339.94 416.62"/><path class="cls-3" d="M198.31,95.05s27.94,16.46,49.6,1.61"/><path class="cls-6" d="M252.59,92.85a30.23,30.23,0,0,0-3.72,9l-1.62-4.79-4.31-2.64A30.61,30.61,0,0,0,252.59,92.85Z"/><rect class="cls-8" x="36.8" y="223.03" width="184.46" height="60.01" rx="10.59"/><text class="cls-9" transform="translate(48.72 243.91)">Sodium atom donates 1 valence <tspan x="0" y="12.71">electron to achieve octet </tspan><tspan x="0" y="25.42">electron arrangement of 2.8</tspan></text><rect class="cls-8" x="229.64" y="223.47" width="184.46" height="67.96" rx="11.27"/><text class="cls-9" transform="translate(241.56 244.35)">Chlorine atom accepts 1 <tspan x="0" y="12.71">electron to achieve the stable </tspan><tspan x="0" y="25.42">octet electron arrangement of </tspan><tspan x="0" y="38.13">2.8.8</tspan></text><rect class="cls-8" x="121.09" y="614.45" width="240.94" height="70.61" rx="13.13"/><text class="cls-9" transform="translate(135.65 635.33)">Sodium ion, Na+ and chloride ion, Cl- with <tspan x="0" y="12.71">opposite charges are attracted to each </tspan><tspan x="0" y="25.42">other by strong electroststic force of </tspan><tspan x="0" y="38.13">attraction formaing ionic bond</tspan></text><rect class="cls-4" x="252.37" y="487.6" width="10.39" height="10.39" rx="5.19"/></g></g></svg>