<svg xmlns="http://www.w3.org/2000/svg" viewBox="0 0 472.53 738.18"><defs><style>.cls-1,.cls-9{fill:#ede6db;}.cls-1,.cls-3,.cls-8{stroke:#1a3c40;stroke-miterlimit:10;}.cls-1,.cls-8{stroke-width:3px;}.cls-2{fill:#8fd3ac;}.cls-3{fill:none;}.cls-4,.cls-8{fill:#417d7a;}.cls-5{font-size:9.19px;font-family:NotoSansSC-Regular-90ms-RKSJ-H, Noto Sans SC;}.cls-6{fill:#1a3c40;}.cls-7{fill:#ffb949;}.cls-9{font-size:10.59px;font-family:NotoSerifSC-Regular-90ms-RKSJ-H, Noto Serif SC;}</style></defs><g id="Layer_2" data-name="Layer 2"><g id="Layer_2-2" data-name="Layer 2"><rect class="cls-1" x="1.5" y="1.5" width="469.53" height="735.18" rx="45.69"/><circle class="cls-2" cx="123.61" cy="88.85" r="15"/><path d="M117.18,84.19h1.46l1.31,4,.46,1.51h.06l.44-1.51,1.33-4h1.46v9.38h-1.15V88.88c0-.91.15-2.51.2-3.32h0l-.53,1.83-1.34,3.69H120l-1.31-3.69-.55-1.83h0c.09.81.2,2.41.2,3.32v4.69h-1.11Z"/><path d="M125.62,94.84a1.93,1.93,0,0,1,1.14-1.54v-.06a1.26,1.26,0,0,1-.71-1.14,1.69,1.69,0,0,1,.83-1.3v-.06a2.19,2.19,0,0,1-.86-1.8,2.55,2.55,0,0,1,2.73-2.49,2.92,2.92,0,0,1,1,.17h2.87v1h-1.8a2.07,2.07,0,0,1,.59,1.4,2.44,2.44,0,0,1-2.69,2.39,3,3,0,0,1-1.17-.26,1,1,0,0,0-.55.8c0,.55.53.8,1.45.8H130c1.78,0,2.64.46,2.64,1.63s-1.5,2.43-3.86,2.43C126.79,96.77,125.62,96.07,125.62,94.84Zm5.9-.31c0-.66-.53-.84-1.58-.84h-1.36a3.77,3.77,0,0,1-1.06-.12c-.66.36-.89.76-.89,1.16,0,.73.79,1.19,2.28,1.19S131.52,95.24,131.52,94.53Zm-1.17-5.59a1.6,1.6,0,1,0-1.6,1.64A1.57,1.57,0,0,0,130.35,88.94Z"/><circle class="cls-3" cx="123.61" cy="88.85" r="34.05"/><rect class="cls-4" x="119" y="49.6" width="10.39" height="10.39" rx="5.19"/><rect class="cls-4" x="119" y="117.7" width="10.39" height="10.39" rx="5.19"/><circle class="cls-3" cx="123.61" cy="88.85" r="69.25"/><circle class="cls-3" cx="123.61" cy="88.85" r="51.94"/><rect class="cls-4" x="110.92" y="135.01" width="10.39" height="10.39" rx="5.19"/><rect class="cls-4" x="125.92" y="135.01" width="10.39" height="10.39" rx="5.19"/><rect class="cls-4" x="169.78" y="90" width="10.39" height="10.39" rx="5.19"/><rect class="cls-4" x="169.78" y="76.15" width="10.39" height="10.39" rx="5.19"/><rect class="cls-4" x="187.37" y="75.78" width="10.39" height="10.39" rx="5.19"/><rect class="cls-4" x="187.37" y="89.02" width="10.39" height="10.39" rx="5.19"/><rect class="cls-4" x="65.9" y="90" width="10.39" height="10.39" rx="5.19"/><rect class="cls-4" x="65.9" y="76.15" width="10.39" height="10.39" rx="5.19"/><rect class="cls-4" x="125.92" y="32.29" width="10.39" height="10.39" rx="5.19"/><rect class="cls-4" x="110.92" y="32.29" width="10.39" height="10.39" rx="5.19"/><circle class="cls-2" cx="134.2" cy="491.3" r="15"/><path d="M127.77,486.65h1.46l1.31,4,.46,1.51h.06l.44-1.51,1.33-4h1.46V496h-1.15v-4.68c0-.92.15-2.52.2-3.32h0l-.53,1.83-1.34,3.69h-.86l-1.31-3.69-.55-1.83h0c.09.8.2,2.4.2,3.32V496h-1.11Z"/><path d="M136.21,497.3a1.93,1.93,0,0,1,1.14-1.55v-.05a1.26,1.26,0,0,1-.71-1.15,1.69,1.69,0,0,1,.83-1.3v-.06a2.18,2.18,0,0,1-.86-1.8,2.56,2.56,0,0,1,2.73-2.49,2.71,2.71,0,0,1,1,.18h2.87V490h-1.8a2.09,2.09,0,0,1,.59,1.4,2.44,2.44,0,0,1-2.69,2.39,3,3,0,0,1-1.17-.25.94.94,0,0,0-.55.8c0,.54.53.8,1.45.8h1.56c1.78,0,2.64.45,2.64,1.63s-1.5,2.43-3.86,2.43C137.38,499.23,136.21,498.53,136.21,497.3Zm5.9-.32c0-.66-.53-.84-1.58-.84h-1.36a3.77,3.77,0,0,1-1.06-.12c-.66.36-.89.76-.89,1.16,0,.73.79,1.19,2.28,1.19S142.11,497.7,142.11,497Zm-1.17-5.59a1.6,1.6,0,1,0-1.6,1.65A1.57,1.57,0,0,0,140.94,491.39Z"/><circle class="cls-3" cx="134.2" cy="491.3" r="34.05"/><rect class="cls-4" x="129.59" y="452.05" width="10.39" height="10.39" rx="5.19"/><rect class="cls-4" x="129.59" y="520.15" width="10.39" height="10.39" rx="5.19"/><circle class="cls-3" cx="134.2" cy="491.3" r="51.94"/><rect class="cls-4" x="121.51" y="537.47" width="10.39" height="10.39" rx="5.19"/><rect class="cls-4" x="136.51" y="537.47" width="10.39" height="10.39" rx="5.19"/><rect class="cls-4" x="180.37" y="492.45" width="10.39" height="10.39" rx="5.19"/><rect class="cls-4" x="180.37" y="478.6" width="10.39" height="10.39" rx="5.19"/><rect class="cls-4" x="76.49" y="492.45" width="10.39" height="10.39" rx="5.19"/><rect class="cls-4" x="76.49" y="478.6" width="10.39" height="10.39" rx="5.19"/><rect class="cls-4" x="136.51" y="434.74" width="10.39" height="10.39" rx="5.19"/><rect class="cls-4" x="121.51" y="434.74" width="10.39" height="10.39" rx="5.19"/><text class="cls-5" transform="translate(114.04 183.77)">2.8.2</text><text class="cls-5" transform="translate(79.09 195.83)">Magnesium atom, Mg</text><text class="cls-5" transform="translate(321.45 183.77)">2.6</text><text class="cls-5" transform="translate(294.44 195.83)">Oxygen atom, O</text><text class="cls-5" transform="translate(128.11 584.45)">2.8</text><text class="cls-5" transform="translate(92.28 596.52)">Magnesium ion, Mg</text><text class="cls-5" transform="translate(173.22 593.46) scale(0.58)">2+</text><text class="cls-5" transform="translate(321.39 584.45)">2.8</text><text class="cls-5" transform="translate(294.39 596.52)">Oxide ion, O</text><text class="cls-5" transform="translate(345.08 593.46) scale(0.58)">2-</text><polygon points="189.65 425.31 189.65 426.38 207.92 426.38 207.92 554.8 189.65 554.8 189.65 555.88 208.99 555.88 208.99 425.31 189.65 425.31"/><polygon points="79.5 554.8 61.23 554.8 61.23 426.38 79.5 426.38 79.5 425.31 60.16 425.31 60.16 555.88 79.5 555.88 79.5 554.8"/><polygon points="229.64 428.71 229.64 427.12 224.44 427.12 224.44 421.92 222.85 421.92 222.85 427.12 217.65 427.12 217.65 428.71 222.85 428.71 222.85 433.91 224.44 433.91 224.44 428.71 229.64 428.71"/><polygon points="378.01 425.31 378.01 426.38 394.59 426.38 394.59 554.8 378.01 554.8 378.01 555.88 395.57 555.88 395.57 425.31 378.01 425.31"/><polygon points="278.05 554.8 261.47 554.8 261.47 426.38 278.05 426.38 278.05 425.31 260.5 425.31 260.5 555.88 278.05 555.88 278.05 554.8"/><polygon class="cls-6" points="225.74 371.74 243.02 361.95 231.24 361.95 231.24 319.67 221.03 319.67 221.03 361.95 208.47 361.95 225.74 371.74"/><rect x="419.4" y="429.11" width="12.36" height="1.77"/><circle class="cls-7" cx="325.26" cy="91.96" r="14.34"/><path d="M321.73,91.7c0-3.27,1.6-5.19,3.88-5.19s3.87,1.92,3.87,5.19S327.88,97,325.61,97,321.73,95,321.73,91.7Zm6.41,0c0-2.54-1-4-2.53-4s-2.54,1.51-2.54,4,1,4.13,2.54,4.13S328.14,94.28,328.14,91.7Z"/><circle class="cls-3" cx="325.26" cy="91.96" r="32.55"/><circle class="cls-3" cx="325.26" cy="91.96" r="49.65"/><polygon class="cls-4" points="329.8 55.46 328.6 54.26 324.68 58.18 320.76 54.26 319.56 55.46 323.48 59.38 319.56 63.3 320.76 64.5 324.68 60.58 328.6 64.5 329.8 63.3 325.88 59.38 329.8 55.46"/><polygon class="cls-4" points="331.31 120.95 330.11 119.75 326.19 123.68 322.27 119.75 321.07 120.95 324.99 124.88 321.07 128.8 322.27 130 326.19 126.07 330.11 130 331.31 128.8 327.39 124.88 331.31 120.95"/><polygon class="cls-4" points="379.68 78.63 378.48 77.43 374.56 81.35 370.64 77.43 369.44 78.63 373.36 82.55 369.44 86.47 370.64 87.67 374.56 83.75 378.48 87.67 379.68 86.47 375.76 82.55 379.68 78.63"/><polygon class="cls-4" points="379.68 93.74 378.48 92.55 374.56 96.47 370.64 92.55 369.44 93.74 373.36 97.67 369.44 101.59 370.64 102.78 374.56 98.86 378.48 102.78 379.68 101.59 375.76 97.67 379.68 93.74"/><polygon class="cls-4" points="325.26 137.58 324.06 136.38 320.14 140.3 316.22 136.38 315.02 137.58 318.94 141.5 315.02 145.42 316.22 146.62 320.14 142.7 324.06 146.62 325.26 145.42 321.34 141.5 325.26 137.58"/><polygon class="cls-4" points="340.38 137.58 339.18 136.38 335.26 140.3 331.34 136.38 330.14 137.58 334.06 141.5 330.14 145.42 331.34 146.62 335.26 142.7 339.18 146.62 340.38 145.42 336.46 141.5 340.38 137.58"/><polygon class="cls-4" points="323.75 39.33 322.55 38.13 318.63 42.05 314.71 38.13 313.51 39.33 317.43 43.25 313.51 47.17 314.71 48.37 318.63 44.45 322.55 48.37 323.75 47.17 319.83 43.25 323.75 39.33"/><polygon class="cls-4" points="340.38 39.33 339.18 38.13 335.26 42.05 331.34 38.13 330.14 39.33 334.06 43.25 330.14 47.17 331.34 48.37 335.26 44.45 339.18 48.37 340.38 47.17 336.46 43.25 340.38 39.33"/><circle class="cls-7" cx="325.26" cy="490" r="14.34"/><path d="M321.73,489.73c0-3.26,1.6-5.18,3.88-5.18s3.87,1.92,3.87,5.18-1.6,5.28-3.87,5.28S321.73,493,321.73,489.73Zm6.41,0c0-2.53-1-4-2.53-4s-2.54,1.51-2.54,4,1,4.14,2.54,4.14S328.14,492.32,328.14,489.73Z"/><circle class="cls-3" cx="325.26" cy="490" r="32.55"/><circle class="cls-3" cx="325.26" cy="490" r="49.65"/><polygon class="cls-4" points="329.8 453.5 328.6 452.3 324.68 456.22 320.76 452.3 319.56 453.5 323.48 457.42 319.56 461.34 320.76 462.54 324.68 458.62 328.6 462.54 329.8 461.34 325.88 457.42 329.8 453.5"/><polygon class="cls-4" points="331.31 518.99 330.11 517.79 326.19 521.72 322.27 517.79 321.07 518.99 324.99 522.91 321.07 526.84 322.27 528.03 326.19 524.11 330.11 528.03 331.31 526.84 327.39 522.91 331.31 518.99"/><polygon class="cls-4" points="379.68 476.67 378.48 475.47 374.56 479.39 370.64 475.47 369.44 476.67 373.36 480.59 369.44 484.51 370.64 485.71 374.56 481.79 378.48 485.71 379.68 484.51 375.76 480.59 379.68 476.67"/><polygon class="cls-4" points="379.68 491.78 378.48 490.58 374.56 494.51 370.64 490.58 369.44 491.78 373.36 495.7 369.44 499.63 370.64 500.82 374.56 496.9 378.48 500.82 379.68 499.63 375.76 495.7 379.68 491.78"/><polygon class="cls-4" points="325.26 535.62 324.06 534.42 320.14 538.34 316.22 534.42 315.02 535.62 318.94 539.54 315.02 543.46 316.22 544.66 320.14 540.74 324.06 544.66 325.26 543.46 321.34 539.54 325.26 535.62"/><polygon class="cls-4" points="340.38 535.62 339.18 534.42 335.26 538.34 331.34 534.42 330.14 535.62 334.06 539.54 330.14 543.46 331.34 544.66 335.26 540.74 339.18 544.66 340.38 543.46 336.46 539.54 340.38 535.62"/><polygon class="cls-4" points="323.75 437.36 322.55 436.17 318.63 440.09 314.71 436.17 313.51 437.36 317.43 441.29 313.51 445.21 314.71 446.4 318.63 442.48 322.55 446.4 323.75 445.21 319.83 441.29 323.75 437.36"/><polygon class="cls-4" points="340.38 437.36 339.18 436.17 335.26 440.09 331.34 436.17 330.14 437.36 334.06 441.29 330.14 445.21 331.34 446.4 335.26 442.48 339.18 446.4 340.38 445.21 336.46 441.29 340.38 437.36"/><path class="cls-3" d="M209.35,97.26s27.93,16.45,49.59,1.61"/><path class="cls-6" d="M263.62,95.05a30.36,30.36,0,0,0-3.71,9l-1.62-4.79L254,96.66A30,30,0,0,0,263.62,95.05Z"/><rect class="cls-8" x="37.24" y="222.58" width="184.46" height="68.4" rx="11.31"/><text class="cls-9" transform="translate(49.16 243.46)">Magnesium atom donates 2 <tspan x="0" y="12.71">valence electrons to achieve </tspan><tspan x="0" y="25.42">octet electron arrangement of </tspan><tspan x="0" y="38.13">2.8</tspan></text><rect class="cls-8" x="230.09" y="223.03" width="184.46" height="67.96" rx="11.27"/><text class="cls-9" transform="translate(242 243.91)">Oxygen atom accepts 2 <tspan x="0" y="12.71">electrons to achieve the stable </tspan><tspan x="0" y="25.42">octet electron arrangement of </tspan><tspan x="0" y="38.13">2.8</tspan></text><rect class="cls-8" x="121.53" y="614" width="240.94" height="70.61" rx="13.13"/><text class="cls-9" transform="translate(136.09 634.88)">Magnesium ion, Mg</text><text class="cls-9" transform="translate(243.19 631.36) scale(0.58)">2+</text><text class="cls-9" transform="translate(250.07 634.88)"><tspan xml:space="preserve"> and oxide ion, O</tspan></text><text class="cls-9" transform="translate(346.91 631.36) scale(0.58)">2- </text><text class="cls-9" transform="translate(136.09 647.59)">with opposite charges are attracted to each <tspan x="0" y="12.71">other by strong electroststic force of </tspan><tspan x="0" y="25.42">attraction formaing ionic bond</tspan></text><rect class="cls-4" x="270.33" y="478.23" width="10.39" height="10.39" rx="5.19"/><rect class="cls-4" x="270.33" y="491.47" width="10.39" height="10.39" rx="5.19"/></g></g></svg>